G04 #@! TF.GenerationSoftware,KiCad,Pcbnew,5.1.6-c6e7f7d~87~ubuntu20.04.1*
G04 #@! TF.CreationDate,2020-08-07T18:47:16+02:00*
G04 #@! TF.ProjectId,ICEDLeft,49434544-4c65-4667-942e-6b696361645f,1.2b*
G04 #@! TF.SameCoordinates,Original*
G04 #@! TF.FileFunction,Copper,L1,Top*
G04 #@! TF.FilePolarity,Positive*
%FSLAX46Y46*%
G04 Gerber Fmt 4.6, Leading zero omitted, Abs format (unit mm)*
G04 Created by KiCad (PCBNEW 5.1.6-c6e7f7d~87~ubuntu20.04.1) date 2020-08-07 18:47:16*
%MOMM*%
%LPD*%
G01*
G04 APERTURE LIST*
G04 #@! TA.AperFunction,ComponentPad*
%ADD10C,3.438000*%
G04 #@! TD*
G04 #@! TA.AperFunction,SMDPad,CuDef*
%ADD11R,0.900000X2.150000*%
G04 #@! TD*
G04 #@! TA.AperFunction,SMDPad,CuDef*
%ADD12R,0.900000X2.600000*%
G04 #@! TD*
G04 #@! TA.AperFunction,SMDPad,CuDef*
%ADD13R,0.600000X0.650000*%
G04 #@! TD*
G04 #@! TA.AperFunction,WasherPad*
%ADD14C,0.990610*%
G04 #@! TD*
G04 #@! TA.AperFunction,WasherPad*
%ADD15C,2.374910*%
G04 #@! TD*
G04 #@! TA.AperFunction,ComponentPad*
%ADD16C,1.800000*%
G04 #@! TD*
G04 #@! TA.AperFunction,SMDPad,CuDef*
%ADD17C,1.000000*%
G04 #@! TD*
G04 #@! TA.AperFunction,ComponentPad*
%ADD18R,2.400000X1.500000*%
G04 #@! TD*
G04 #@! TA.AperFunction,ComponentPad*
%ADD19C,1.200000*%
G04 #@! TD*
G04 #@! TA.AperFunction,WasherPad*
%ADD20C,0.850010*%
G04 #@! TD*
G04 #@! TA.AperFunction,ComponentPad*
%ADD21O,1.400000X1.400000*%
G04 #@! TD*
G04 #@! TA.AperFunction,ComponentPad*
%ADD22R,1.400000X1.400000*%
G04 #@! TD*
G04 #@! TA.AperFunction,ComponentPad*
%ADD23C,0.100000*%
G04 #@! TD*
G04 #@! TA.AperFunction,WasherPad*
%ADD24C,3.987810*%
G04 #@! TD*
G04 #@! TA.AperFunction,WasherPad*
%ADD25C,1.701810*%
G04 #@! TD*
G04 #@! TA.AperFunction,SMDPad,CuDef*
%ADD26R,0.300000X1.100000*%
G04 #@! TD*
G04 #@! TA.AperFunction,ComponentPad*
%ADD27C,0.600000*%
G04 #@! TD*
G04 #@! TA.AperFunction,ComponentPad*
%ADD28O,1.100000X1.950000*%
G04 #@! TD*
G04 #@! TA.AperFunction,ComponentPad*
%ADD29O,1.100000X2.400000*%
G04 #@! TD*
G04 #@! TA.AperFunction,ViaPad*
%ADD30C,0.406400*%
G04 #@! TD*
G04 #@! TA.AperFunction,ViaPad*
%ADD31C,0.609600*%
G04 #@! TD*
G04 #@! TA.AperFunction,Conductor*
%ADD32C,0.152400*%
G04 #@! TD*
G04 #@! TA.AperFunction,Conductor*
%ADD33C,0.304800*%
G04 #@! TD*
G04 #@! TA.AperFunction,Conductor*
%ADD34C,0.508000*%
G04 #@! TD*
G04 #@! TA.AperFunction,Conductor*
%ADD35C,0.101600*%
G04 #@! TD*
G04 APERTURE END LIST*
D10*
G04 #@! TO.P,J1,MH2*
G04 #@! TO.N,/GND*
X128770000Y-32739000D03*
G04 #@! TO.P,J1,MH1*
X142370000Y-32739000D03*
D11*
G04 #@! TO.P,J1,9*
G04 #@! TO.N,Net-(J1-Pad9)*
X140570000Y-38184000D03*
G04 #@! TO.P,J1,8*
G04 #@! TO.N,Net-(J1-Pad8)*
X138070000Y-38184000D03*
G04 #@! TO.P,J1,7*
G04 #@! TO.N,Net-(J1-Pad7)*
X135570000Y-38184000D03*
G04 #@! TO.P,J1,6*
G04 #@! TO.N,/mcu/RX0*
X133070000Y-38184000D03*
G04 #@! TO.P,J1,5*
G04 #@! TO.N,/mcu/TX0*
X130570000Y-38184000D03*
D12*
G04 #@! TO.P,J1,4*
G04 #@! TO.N,VSS*
X131820000Y-37959000D03*
G04 #@! TO.P,J1,3*
G04 #@! TO.N,Net-(J1-Pad3)*
X134320000Y-37959000D03*
G04 #@! TO.P,J1,2*
G04 #@! TO.N,Net-(J1-Pad2)*
X136820000Y-37959000D03*
G04 #@! TO.P,J1,1*
G04 #@! TO.N,+5V*
X139320000Y-37959000D03*
G04 #@! TD*
D13*
G04 #@! TO.P,R14,1*
G04 #@! TO.N,Net-(P2-Pad17)*
X109085000Y-36449000D03*
G04 #@! TO.P,R14,2*
G04 #@! TO.N,VSS*
X108085000Y-36449000D03*
G04 #@! TD*
D14*
G04 #@! TO.P,P1,*
G04 #@! TO.N,*
X109982000Y-134747000D03*
X102362000Y-133731000D03*
X102362000Y-135763000D03*
D15*
X109982000Y-132207000D03*
X104267000Y-132207000D03*
X109982000Y-137287000D03*
X104267000Y-137287000D03*
G04 #@! TD*
D16*
G04 #@! TO.P,P3,1*
G04 #@! TO.N,VDD*
X148972174Y-158574603D03*
G04 #@! TO.P,P3,2*
G04 #@! TO.N,/mcu/SWD_DIO*
X146670152Y-157501153D03*
G04 #@! TO.P,P3,3*
G04 #@! TO.N,VSS*
X144368131Y-156427702D03*
G04 #@! TO.P,P3,4*
G04 #@! TO.N,/mcu/SWD_CLK*
X142066109Y-155354252D03*
G04 #@! TO.P,P3,5*
G04 #@! TO.N,+5V*
X139764087Y-154280802D03*
G04 #@! TO.P,P3,6*
G04 #@! TO.N,/mcu/RX0*
X137462065Y-153207351D03*
G04 #@! TO.P,P3,7*
G04 #@! TO.N,/mcu/TX0*
X135160044Y-152133901D03*
G04 #@! TO.P,P3,8*
G04 #@! TO.N,/mcu/RX1*
X132858022Y-151060450D03*
G04 #@! TO.P,P3,9*
G04 #@! TO.N,/mcu/TX1*
X130556000Y-149987000D03*
G04 #@! TO.P,P3,10*
G04 #@! TO.N,/mcu/RX2*
X128253978Y-148913550D03*
G04 #@! TO.P,P3,11*
G04 #@! TO.N,/mcu/TX2*
X125951956Y-147840099D03*
G04 #@! TO.P,P3,12*
G04 #@! TO.N,/mcu/SCLK*
X123649935Y-146766649D03*
G04 #@! TO.P,P3,13*
G04 #@! TO.N,/mcu/MOSI*
X121347913Y-145693198D03*
G04 #@! TO.P,P3,14*
G04 #@! TO.N,/mcu/SDA0*
X119045891Y-144619748D03*
G04 #@! TO.P,P3,15*
G04 #@! TO.N,/mcu/SCL0*
X116743869Y-143546298D03*
G04 #@! TO.P,P3,16*
G04 #@! TO.N,/mcu/MCU_RESET*
X114441848Y-142472847D03*
G04 #@! TO.P,P3,17*
G04 #@! TO.N,/mcu/AUD*
X112139826Y-141399397D03*
G04 #@! TD*
D17*
G04 #@! TO.P,FID4,*
G04 #@! TO.N,*
X38100000Y-98679000D03*
G04 #@! TD*
G04 #@! TO.P,FID6,*
G04 #@! TO.N,*
X172720000Y-131699000D03*
G04 #@! TD*
G04 #@! TO.P,FID2,*
G04 #@! TO.N,*
X147320000Y-37719000D03*
G04 #@! TD*
D18*
G04 #@! TO.P,LCD1,1*
G04 #@! TO.N,VDD*
X21197000Y-36665000D03*
G04 #@! TO.P,LCD1,2*
G04 #@! TO.N,Net-(LCD1-Pad2)*
X24197000Y-36665000D03*
D19*
G04 #@! TO.P,LCD1,3*
G04 #@! TO.N,Net-(C17-Pad2)*
X26497000Y-38615000D03*
G04 #@! TO.P,LCD1,4*
G04 #@! TO.N,Net-(C16-Pad2)*
X27997000Y-38615000D03*
G04 #@! TO.P,LCD1,5*
G04 #@! TO.N,Net-(C15-Pad2)*
X29497000Y-38615000D03*
G04 #@! TO.P,LCD1,6*
G04 #@! TO.N,Net-(C14-Pad2)*
X30997000Y-38615000D03*
G04 #@! TO.P,LCD1,7*
G04 #@! TO.N,Net-(C13-Pad2)*
X32497000Y-38615000D03*
G04 #@! TO.P,LCD1,8*
G04 #@! TO.N,Net-(C12-Pad2)*
X33997000Y-38615000D03*
G04 #@! TO.P,LCD1,9*
G04 #@! TO.N,Net-(C12-Pad1)*
X35497000Y-38615000D03*
G04 #@! TO.P,LCD1,10*
G04 #@! TO.N,Net-(C11-Pad2)*
X36997000Y-38615000D03*
G04 #@! TO.P,LCD1,11*
G04 #@! TO.N,Net-(C11-Pad1)*
X38497000Y-38615000D03*
G04 #@! TO.P,LCD1,12*
G04 #@! TO.N,Net-(C10-Pad1)*
X39997000Y-38615000D03*
G04 #@! TO.P,LCD1,13*
G04 #@! TO.N,VSS*
X41497000Y-38615000D03*
G04 #@! TO.P,LCD1,14*
G04 #@! TO.N,VDD*
X42997000Y-38615000D03*
G04 #@! TO.P,LCD1,15*
G04 #@! TO.N,/mcu/MOSI*
X44497000Y-38615000D03*
G04 #@! TO.P,LCD1,16*
G04 #@! TO.N,/mcu/SCLK*
X45997000Y-38615000D03*
G04 #@! TO.P,LCD1,17*
G04 #@! TO.N,/mcu/A0*
X47497000Y-38615000D03*
G04 #@! TO.P,LCD1,18*
G04 #@! TO.N,/mcu/RST*
X48997000Y-38615000D03*
G04 #@! TO.P,LCD1,19*
G04 #@! TO.N,/mcu/SS1*
X50497000Y-38615000D03*
D18*
G04 #@! TO.P,LCD1,20*
G04 #@! TO.N,Net-(LCD1-Pad20)*
X52797000Y-36665000D03*
G04 #@! TO.P,LCD1,21*
G04 #@! TO.N,Net-(LCD1-Pad21)*
X55797000Y-36665000D03*
D20*
G04 #@! TO.P,LCD1,*
G04 #@! TO.N,*
X58597000Y-38615000D03*
X18397000Y-38615000D03*
G04 #@! TD*
D21*
G04 #@! TO.P,D51,2*
G04 #@! TO.N,/ledmatrix/CA3*
X50927500Y-63573700D03*
D22*
G04 #@! TO.P,D51,1*
G04 #@! TO.N,/ledmatrix/CA4*
X48387500Y-63573700D03*
G04 #@! TD*
G04 #@! TO.P,D69,2*
G04 #@! TO.N,/ledmatrix/CA1*
G04 #@! TA.AperFunction,ComponentPad*
G36*
G01*
X169159596Y-156038892D02*
X169159596Y-156038892D01*
G75*
G02*
X170089844Y-155700310I634415J-295833D01*
G01*
X170089844Y-155700310D01*
G75*
G02*
X170428426Y-156630558I-295833J-634415D01*
G01*
X170428426Y-156630558D01*
G75*
G02*
X169498178Y-156969140I-634415J295833D01*
G01*
X169498178Y-156969140D01*
G75*
G02*
X169159596Y-156038892I295833J634415D01*
G01*
G37*
G04 #@! TD.AperFunction*
G04 #@! TA.AperFunction,ComponentPad*
D23*
G04 #@! TO.P,D69,1*
G04 #@! TO.N,/ledmatrix/CA8*
G36*
X166561741Y-155599858D02*
G01*
X167153406Y-154331027D01*
X168422237Y-154922692D01*
X167830572Y-156191523D01*
X166561741Y-155599858D01*
G37*
G04 #@! TD.AperFunction*
G04 #@! TD*
D21*
G04 #@! TO.P,D66,2*
G04 #@! TO.N,/ledmatrix/CA3*
X50927500Y-101674000D03*
D22*
G04 #@! TO.P,D66,1*
G04 #@! TO.N,/ledmatrix/CA7*
X48387500Y-101674000D03*
G04 #@! TD*
D21*
G04 #@! TO.P,D50,2*
G04 #@! TO.N,/ledmatrix/CA2*
X69977000Y-60398700D03*
D22*
G04 #@! TO.P,D50,1*
G04 #@! TO.N,/ledmatrix/CA4*
X67437000Y-60398700D03*
G04 #@! TD*
D21*
G04 #@! TO.P,D65,2*
G04 #@! TO.N,/ledmatrix/CA2*
X69977000Y-98499000D03*
D22*
G04 #@! TO.P,D65,1*
G04 #@! TO.N,/ledmatrix/CA7*
X67437000Y-98499000D03*
G04 #@! TD*
D21*
G04 #@! TO.P,D49,2*
G04 #@! TO.N,/ledmatrix/CA1*
X89027000Y-58801000D03*
D22*
G04 #@! TO.P,D49,1*
G04 #@! TO.N,/ledmatrix/CA4*
X86487000Y-58801000D03*
G04 #@! TD*
D21*
G04 #@! TO.P,D64,2*
G04 #@! TO.N,/ledmatrix/CA1*
X89027000Y-96901000D03*
D22*
G04 #@! TO.P,D64,1*
G04 #@! TO.N,/ledmatrix/CA7*
X86487000Y-96901000D03*
G04 #@! TD*
D21*
G04 #@! TO.P,D48,2*
G04 #@! TO.N,/ledmatrix/CA5*
X108077000Y-60398700D03*
D22*
G04 #@! TO.P,D48,1*
G04 #@! TO.N,/ledmatrix/CA2*
X105537000Y-60398700D03*
G04 #@! TD*
D21*
G04 #@! TO.P,D67,2*
G04 #@! TO.N,/ledmatrix/CA4*
X27115000Y-101674000D03*
D22*
G04 #@! TO.P,D67,1*
G04 #@! TO.N,/ledmatrix/CA7*
X24575000Y-101674000D03*
G04 #@! TD*
D21*
G04 #@! TO.P,D52,2*
G04 #@! TO.N,/ledmatrix/CA4*
X27115000Y-63573700D03*
D22*
G04 #@! TO.P,D52,1*
G04 #@! TO.N,/ledmatrix/CA3*
X24575000Y-63573700D03*
G04 #@! TD*
G04 #@! TO.P,D68,2*
G04 #@! TO.N,/ledmatrix/CA5*
G04 #@! TA.AperFunction,ComponentPad*
G36*
G01*
X177211596Y-138771892D02*
X177211596Y-138771892D01*
G75*
G02*
X178141844Y-138433310I634415J-295833D01*
G01*
X178141844Y-138433310D01*
G75*
G02*
X178480426Y-139363558I-295833J-634415D01*
G01*
X178480426Y-139363558D01*
G75*
G02*
X177550178Y-139702140I-634415J295833D01*
G01*
X177550178Y-139702140D01*
G75*
G02*
X177211596Y-138771892I295833J634415D01*
G01*
G37*
G04 #@! TD.AperFunction*
G04 #@! TA.AperFunction,ComponentPad*
D23*
G04 #@! TO.P,D68,1*
G04 #@! TO.N,/ledmatrix/CA7*
G36*
X174613741Y-138332858D02*
G01*
X175205406Y-137064027D01*
X176474237Y-137655692D01*
X175882572Y-138924523D01*
X174613741Y-138332858D01*
G37*
G04 #@! TD.AperFunction*
G04 #@! TD*
D21*
G04 #@! TO.P,D53,2*
G04 #@! TO.N,/ledmatrix/CA5*
X127138000Y-80708100D03*
D22*
G04 #@! TO.P,D53,1*
G04 #@! TO.N,/ledmatrix/CA3*
X124598000Y-80708100D03*
G04 #@! TD*
D21*
G04 #@! TO.P,D63,2*
G04 #@! TO.N,/ledmatrix/CA5*
X108077000Y-98499000D03*
D22*
G04 #@! TO.P,D63,1*
G04 #@! TO.N,/ledmatrix/CA6*
X105537000Y-98499000D03*
G04 #@! TD*
D21*
G04 #@! TO.P,D54,2*
G04 #@! TO.N,/ledmatrix/CA1*
X108077000Y-79449000D03*
D22*
G04 #@! TO.P,D54,1*
G04 #@! TO.N,/ledmatrix/CA5*
X105537000Y-79449000D03*
G04 #@! TD*
G04 #@! TO.P,D70,2*
G04 #@! TO.N,/ledmatrix/CA2*
G04 #@! TA.AperFunction,ComponentPad*
G36*
G01*
X157620108Y-146380596D02*
X157620108Y-146380596D01*
G75*
G02*
X157958690Y-147310844I-295833J-634415D01*
G01*
X157958690Y-147310844D01*
G75*
G02*
X157028442Y-147649426I-634415J295833D01*
G01*
X157028442Y-147649426D01*
G75*
G02*
X156689860Y-146719178I295833J634415D01*
G01*
X156689860Y-146719178D01*
G75*
G02*
X157620108Y-146380596I634415J-295833D01*
G01*
G37*
G04 #@! TD.AperFunction*
G04 #@! TA.AperFunction,ComponentPad*
D23*
G04 #@! TO.P,D70,1*
G04 #@! TO.N,/ledmatrix/CA8*
G36*
X158059142Y-143782741D02*
G01*
X159327973Y-144374406D01*
X158736308Y-145643237D01*
X157467477Y-145051572D01*
X158059142Y-143782741D01*
G37*
G04 #@! TD.AperFunction*
G04 #@! TD*
D21*
G04 #@! TO.P,D43,2*
G04 #@! TO.N,/ledmatrix/CA5*
X69977000Y-41348700D03*
D22*
G04 #@! TO.P,D43,1*
G04 #@! TO.N,/ledmatrix/CA1*
X67437000Y-41348700D03*
G04 #@! TD*
D21*
G04 #@! TO.P,D55,2*
G04 #@! TO.N,/ledmatrix/CA2*
X89027000Y-77851000D03*
D22*
G04 #@! TO.P,D55,1*
G04 #@! TO.N,/ledmatrix/CA5*
X86487000Y-77851000D03*
G04 #@! TD*
G04 #@! TO.P,D71,2*
G04 #@! TO.N,/ledmatrix/CA3*
G04 #@! TA.AperFunction,ComponentPad*
G36*
G01*
X140356108Y-138329596D02*
X140356108Y-138329596D01*
G75*
G02*
X140694690Y-139259844I-295833J-634415D01*
G01*
X140694690Y-139259844D01*
G75*
G02*
X139764442Y-139598426I-634415J295833D01*
G01*
X139764442Y-139598426D01*
G75*
G02*
X139425860Y-138668178I295833J634415D01*
G01*
X139425860Y-138668178D01*
G75*
G02*
X140356108Y-138329596I634415J-295833D01*
G01*
G37*
G04 #@! TD.AperFunction*
G04 #@! TA.AperFunction,ComponentPad*
D23*
G04 #@! TO.P,D71,1*
G04 #@! TO.N,/ledmatrix/CA8*
G36*
X140795142Y-135731741D02*
G01*
X142063973Y-136323406D01*
X141472308Y-137592237D01*
X140203477Y-137000572D01*
X140795142Y-135731741D01*
G37*
G04 #@! TD.AperFunction*
G04 #@! TD*
D21*
G04 #@! TO.P,D40,2*
G04 #@! TO.N,/ledmatrix/CA2*
X127127000Y-42621200D03*
D22*
G04 #@! TO.P,D40,1*
G04 #@! TO.N,/ledmatrix/CA1*
X124587000Y-42621200D03*
G04 #@! TD*
D21*
G04 #@! TO.P,D56,2*
G04 #@! TO.N,/ledmatrix/CA3*
X69977000Y-79449000D03*
D22*
G04 #@! TO.P,D56,1*
G04 #@! TO.N,/ledmatrix/CA5*
X67437000Y-79449000D03*
G04 #@! TD*
D21*
G04 #@! TO.P,D72,2*
G04 #@! TO.N,/ledmatrix/CA4*
X108077000Y-117549000D03*
D22*
G04 #@! TO.P,D72,1*
G04 #@! TO.N,/ledmatrix/CA8*
X105537000Y-117549000D03*
G04 #@! TD*
D21*
G04 #@! TO.P,D41,2*
G04 #@! TO.N,/ledmatrix/CA3*
X108077000Y-41348700D03*
D22*
G04 #@! TO.P,D41,1*
G04 #@! TO.N,/ledmatrix/CA1*
X105537000Y-41348700D03*
G04 #@! TD*
D21*
G04 #@! TO.P,D57,2*
G04 #@! TO.N,/ledmatrix/CA4*
X50927500Y-82624000D03*
D22*
G04 #@! TO.P,D57,1*
G04 #@! TO.N,/ledmatrix/CA5*
X48387500Y-82624000D03*
G04 #@! TD*
D21*
G04 #@! TO.P,D73,2*
G04 #@! TO.N,/ledmatrix/CA1*
X89027000Y-115951000D03*
D22*
G04 #@! TO.P,D73,1*
G04 #@! TO.N,/ledmatrix/CA9*
X86487000Y-115951000D03*
G04 #@! TD*
D21*
G04 #@! TO.P,D42,2*
G04 #@! TO.N,/ledmatrix/CA4*
X89027000Y-39751000D03*
D22*
G04 #@! TO.P,D42,1*
G04 #@! TO.N,/ledmatrix/CA1*
X86487000Y-39751000D03*
G04 #@! TD*
D21*
G04 #@! TO.P,D58,2*
G04 #@! TO.N,/ledmatrix/CA5*
X27115000Y-82624000D03*
D22*
G04 #@! TO.P,D58,1*
G04 #@! TO.N,/ledmatrix/CA4*
X24575000Y-82624000D03*
G04 #@! TD*
D21*
G04 #@! TO.P,D74,2*
G04 #@! TO.N,/ledmatrix/CA2*
X69977000Y-117549000D03*
D22*
G04 #@! TO.P,D74,1*
G04 #@! TO.N,/ledmatrix/CA9*
X67437000Y-117549000D03*
G04 #@! TD*
D21*
G04 #@! TO.P,D39,2*
G04 #@! TO.N,/ledmatrix/CA1*
X146177000Y-42621200D03*
D22*
G04 #@! TO.P,D39,1*
G04 #@! TO.N,/ledmatrix/CA2*
X143637000Y-42621200D03*
G04 #@! TD*
G04 #@! TO.P,D59,2*
G04 #@! TO.N,/ledmatrix/CA1*
G04 #@! TA.AperFunction,ComponentPad*
G36*
G01*
X185263596Y-121505892D02*
X185263596Y-121505892D01*
G75*
G02*
X186193844Y-121167310I634415J-295833D01*
G01*
X186193844Y-121167310D01*
G75*
G02*
X186532426Y-122097558I-295833J-634415D01*
G01*
X186532426Y-122097558D01*
G75*
G02*
X185602178Y-122436140I-634415J295833D01*
G01*
X185602178Y-122436140D01*
G75*
G02*
X185263596Y-121505892I295833J634415D01*
G01*
G37*
G04 #@! TD.AperFunction*
G04 #@! TA.AperFunction,ComponentPad*
D23*
G04 #@! TO.P,D59,1*
G04 #@! TO.N,/ledmatrix/CA6*
G36*
X182665741Y-121066858D02*
G01*
X183257406Y-119798027D01*
X184526237Y-120389692D01*
X183934572Y-121658523D01*
X182665741Y-121066858D01*
G37*
G04 #@! TD.AperFunction*
G04 #@! TD*
D21*
G04 #@! TO.P,D75,2*
G04 #@! TO.N,/ledmatrix/CA3*
X50927000Y-120724000D03*
D22*
G04 #@! TO.P,D75,1*
G04 #@! TO.N,/ledmatrix/CA9*
X48387000Y-120724000D03*
G04 #@! TD*
D21*
G04 #@! TO.P,D44,2*
G04 #@! TO.N,/ledmatrix/CA1*
X50927500Y-44526200D03*
D22*
G04 #@! TO.P,D44,1*
G04 #@! TO.N,/ledmatrix/CA3*
X48387500Y-44526200D03*
G04 #@! TD*
G04 #@! TO.P,D60,2*
G04 #@! TO.N,/ledmatrix/CA2*
G04 #@! TA.AperFunction,ComponentPad*
G36*
G01*
X167999596Y-113455892D02*
X167999596Y-113455892D01*
G75*
G02*
X168929844Y-113117310I634415J-295833D01*
G01*
X168929844Y-113117310D01*
G75*
G02*
X169268426Y-114047558I-295833J-634415D01*
G01*
X169268426Y-114047558D01*
G75*
G02*
X168338178Y-114386140I-634415J295833D01*
G01*
X168338178Y-114386140D01*
G75*
G02*
X167999596Y-113455892I295833J634415D01*
G01*
G37*
G04 #@! TD.AperFunction*
G04 #@! TA.AperFunction,ComponentPad*
D23*
G04 #@! TO.P,D60,1*
G04 #@! TO.N,/ledmatrix/CA6*
G36*
X165401741Y-113016858D02*
G01*
X165993406Y-111748027D01*
X167262237Y-112339692D01*
X166670572Y-113608523D01*
X165401741Y-113016858D01*
G37*
G04 #@! TD.AperFunction*
G04 #@! TD*
D21*
G04 #@! TO.P,D76,2*
G04 #@! TO.N,/ledmatrix/CA4*
X31877000Y-120724000D03*
D22*
G04 #@! TO.P,D76,1*
G04 #@! TO.N,/ledmatrix/CA9*
X29337000Y-120724000D03*
G04 #@! TD*
D21*
G04 #@! TO.P,D45,2*
G04 #@! TO.N,/ledmatrix/CA2*
X27115000Y-44526200D03*
D22*
G04 #@! TO.P,D45,1*
G04 #@! TO.N,/ledmatrix/CA3*
X24575000Y-44526200D03*
G04 #@! TD*
D21*
G04 #@! TO.P,D61,2*
G04 #@! TO.N,/ledmatrix/CA3*
X149987000Y-101356000D03*
D22*
G04 #@! TO.P,D61,1*
G04 #@! TO.N,/ledmatrix/CA6*
X149987000Y-98816000D03*
G04 #@! TD*
D21*
G04 #@! TO.P,D46,2*
G04 #@! TO.N,/ledmatrix/CA3*
X149987000Y-72781200D03*
D22*
G04 #@! TO.P,D46,1*
G04 #@! TO.N,/ledmatrix/CA2*
X149987000Y-70241200D03*
G04 #@! TD*
D21*
G04 #@! TO.P,D62,2*
G04 #@! TO.N,/ledmatrix/CA4*
X127127000Y-99769000D03*
D22*
G04 #@! TO.P,D62,1*
G04 #@! TO.N,/ledmatrix/CA6*
X124587000Y-99769000D03*
G04 #@! TD*
D21*
G04 #@! TO.P,D47,2*
G04 #@! TO.N,/ledmatrix/CA4*
X127127000Y-61668700D03*
D22*
G04 #@! TO.P,D47,1*
G04 #@! TO.N,/ledmatrix/CA2*
X124587000Y-61668700D03*
G04 #@! TD*
D24*
G04 #@! TO.P,S22,*
G04 #@! TO.N,*
X165334000Y-117820000D03*
D25*
X169938044Y-119966901D03*
X160729956Y-115673099D03*
G04 #@! TO.P,S22,1*
G04 #@! TO.N,/Col2*
G04 #@! TA.AperFunction,ComponentPad*
G36*
G01*
X168447822Y-122744343D02*
X167095908Y-123724765D01*
G75*
G02*
X165350147Y-123446702I-733849J1011912D01*
G01*
X165350147Y-123446702D01*
G75*
G02*
X165628210Y-121700941I1011912J733849D01*
G01*
X166980124Y-120720519D01*
G75*
G02*
X168725885Y-120998582I733849J-1011912D01*
G01*
X168725885Y-120998582D01*
G75*
G02*
X168447822Y-122744343I-1011912J-733849D01*
G01*
G37*
G04 #@! TD.AperFunction*
G04 #@! TO.P,S22,2*
G04 #@! TO.N,Net-(D22-Pad1)*
G04 #@! TA.AperFunction,ComponentPad*
G36*
G01*
X162260246Y-121446434D02*
X161979942Y-121954204D01*
G75*
G02*
X160281508Y-122444432I-1094331J604103D01*
G01*
X160281508Y-122444432D01*
G75*
G02*
X159791280Y-120745998I604103J1094331D01*
G01*
X160071584Y-120238228D01*
G75*
G02*
X161770018Y-119748000I1094331J-604103D01*
G01*
X161770018Y-119748000D01*
G75*
G02*
X162260246Y-121446434I-604103J-1094331D01*
G01*
G37*
G04 #@! TD.AperFunction*
G04 #@! TD*
D24*
G04 #@! TO.P,S2,*
G04 #@! TO.N,*
X125857000Y-47701200D03*
D25*
X130937000Y-47701200D03*
X120777000Y-47701200D03*
G04 #@! TO.P,S2,1*
G04 #@! TO.N,/Col4*
G04 #@! TA.AperFunction,ComponentPad*
G36*
G01*
X130760199Y-50848212D02*
X129949292Y-52308120D01*
G75*
G02*
X128249581Y-52793899I-1092745J606966D01*
G01*
X128249581Y-52793899D01*
G75*
G02*
X127763802Y-51094188I606966J1092745D01*
G01*
X128574708Y-49634280D01*
G75*
G02*
X130274419Y-49148501I1092745J-606966D01*
G01*
X130274419Y-49148501D01*
G75*
G02*
X130760198Y-50848212I-606966J-1092745D01*
G01*
G37*
G04 #@! TD.AperFunction*
G04 #@! TO.P,S2,2*
G04 #@! TO.N,Net-(D2-Pad1)*
G04 #@! TA.AperFunction,ComponentPad*
G36*
G01*
X124603830Y-52286891D02*
X124564381Y-52865547D01*
G75*
G02*
X123232257Y-54027633I-1247105J85019D01*
G01*
X123232257Y-54027633D01*
G75*
G02*
X122070171Y-52695509I85019J1247105D01*
G01*
X122109619Y-52116853D01*
G75*
G02*
X123441743Y-50954767I1247105J-85019D01*
G01*
X123441743Y-50954767D01*
G75*
G02*
X124603829Y-52286891I-85019J-1247105D01*
G01*
G37*
G04 #@! TD.AperFunction*
G04 #@! TD*
D24*
G04 #@! TO.P,S12,*
G04 #@! TO.N,*
X68707000Y-65478700D03*
D25*
X73787000Y-65478700D03*
X63627000Y-65478700D03*
G04 #@! TO.P,S12,1*
G04 #@! TO.N,/Col7*
G04 #@! TA.AperFunction,ComponentPad*
G36*
G01*
X73610199Y-68625712D02*
X72799292Y-70085620D01*
G75*
G02*
X71099581Y-70571399I-1092745J606966D01*
G01*
X71099581Y-70571399D01*
G75*
G02*
X70613802Y-68871688I606966J1092745D01*
G01*
X71424708Y-67411780D01*
G75*
G02*
X73124419Y-66926001I1092745J-606966D01*
G01*
X73124419Y-66926001D01*
G75*
G02*
X73610198Y-68625712I-606966J-1092745D01*
G01*
G37*
G04 #@! TD.AperFunction*
G04 #@! TO.P,S12,2*
G04 #@! TO.N,Net-(D12-Pad1)*
G04 #@! TA.AperFunction,ComponentPad*
G36*
G01*
X67453830Y-70064391D02*
X67414381Y-70643047D01*
G75*
G02*
X66082257Y-71805133I-1247105J85019D01*
G01*
X66082257Y-71805133D01*
G75*
G02*
X64920171Y-70473009I85019J1247105D01*
G01*
X64959619Y-69894353D01*
G75*
G02*
X66291743Y-68732267I1247105J-85019D01*
G01*
X66291743Y-68732267D01*
G75*
G02*
X67453829Y-70064391I-85019J-1247105D01*
G01*
G37*
G04 #@! TD.AperFunction*
G04 #@! TD*
D24*
G04 #@! TO.P,S32,*
G04 #@! TO.N,*
X153258000Y-143718000D03*
D25*
X151111099Y-148322044D03*
X155404901Y-139113956D03*
G04 #@! TO.P,S32,1*
G04 #@! TO.N,/Col3*
G04 #@! TA.AperFunction,ComponentPad*
G36*
G01*
X148333657Y-146831822D02*
X147353235Y-145479908D01*
G75*
G02*
X147631298Y-143734147I1011912J733849D01*
G01*
X147631298Y-143734147D01*
G75*
G02*
X149377059Y-144012210I733849J-1011912D01*
G01*
X150357481Y-145364124D01*
G75*
G02*
X150079418Y-147109885I-1011912J-733849D01*
G01*
X150079418Y-147109885D01*
G75*
G02*
X148333657Y-146831822I-733849J1011912D01*
G01*
G37*
G04 #@! TD.AperFunction*
G04 #@! TO.P,S32,2*
G04 #@! TO.N,Net-(D32-Pad1)*
G04 #@! TA.AperFunction,ComponentPad*
G36*
G01*
X149631566Y-140644246D02*
X149123796Y-140363942D01*
G75*
G02*
X148633568Y-138665508I604103J1094331D01*
G01*
X148633568Y-138665508D01*
G75*
G02*
X150332002Y-138175280I1094331J-604103D01*
G01*
X150839772Y-138455584D01*
G75*
G02*
X151330000Y-140154018I-604103J-1094331D01*
G01*
X151330000Y-140154018D01*
G75*
G02*
X149631566Y-140644246I-1094331J604103D01*
G01*
G37*
G04 #@! TD.AperFunction*
G04 #@! TD*
D24*
G04 #@! TO.P,S34,*
G04 #@! TO.N,*
X106807000Y-122629000D03*
D25*
X111887000Y-122629000D03*
X101727000Y-122629000D03*
G04 #@! TO.P,S34,1*
G04 #@! TO.N,/Col5*
G04 #@! TA.AperFunction,ComponentPad*
G36*
G01*
X111710199Y-125776012D02*
X110899292Y-127235920D01*
G75*
G02*
X109199581Y-127721699I-1092745J606966D01*
G01*
X109199581Y-127721699D01*
G75*
G02*
X108713802Y-126021988I606966J1092745D01*
G01*
X109524708Y-124562080D01*
G75*
G02*
X111224419Y-124076301I1092745J-606966D01*
G01*
X111224419Y-124076301D01*
G75*
G02*
X111710198Y-125776012I-606966J-1092745D01*
G01*
G37*
G04 #@! TD.AperFunction*
G04 #@! TO.P,S34,2*
G04 #@! TO.N,Net-(D34-Pad1)*
G04 #@! TA.AperFunction,ComponentPad*
G36*
G01*
X105553830Y-127214691D02*
X105514381Y-127793347D01*
G75*
G02*
X104182257Y-128955433I-1247105J85019D01*
G01*
X104182257Y-128955433D01*
G75*
G02*
X103020171Y-127623309I85019J1247105D01*
G01*
X103059619Y-127044653D01*
G75*
G02*
X104391743Y-125882567I1247105J-85019D01*
G01*
X104391743Y-125882567D01*
G75*
G02*
X105553829Y-127214691I-85019J-1247105D01*
G01*
G37*
G04 #@! TD.AperFunction*
G04 #@! TD*
D24*
G04 #@! TO.P,S35,*
G04 #@! TO.N,*
X87757000Y-121031000D03*
D25*
X92837000Y-121031000D03*
X82677000Y-121031000D03*
G04 #@! TO.P,S35,1*
G04 #@! TO.N,/Col6*
G04 #@! TA.AperFunction,ComponentPad*
G36*
G01*
X92660199Y-124178012D02*
X91849292Y-125637920D01*
G75*
G02*
X90149581Y-126123699I-1092745J606966D01*
G01*
X90149581Y-126123699D01*
G75*
G02*
X89663802Y-124423988I606966J1092745D01*
G01*
X90474708Y-122964080D01*
G75*
G02*
X92174419Y-122478301I1092745J-606966D01*
G01*
X92174419Y-122478301D01*
G75*
G02*
X92660198Y-124178012I-606966J-1092745D01*
G01*
G37*
G04 #@! TD.AperFunction*
G04 #@! TO.P,S35,2*
G04 #@! TO.N,Net-(D35-Pad1)*
G04 #@! TA.AperFunction,ComponentPad*
G36*
G01*
X86503830Y-125616691D02*
X86464381Y-126195347D01*
G75*
G02*
X85132257Y-127357433I-1247105J85019D01*
G01*
X85132257Y-127357433D01*
G75*
G02*
X83970171Y-126025309I85019J1247105D01*
G01*
X84009619Y-125446653D01*
G75*
G02*
X85341743Y-124284567I1247105J-85019D01*
G01*
X85341743Y-124284567D01*
G75*
G02*
X86503829Y-125616691I-85019J-1247105D01*
G01*
G37*
G04 #@! TD.AperFunction*
G04 #@! TD*
D24*
G04 #@! TO.P,S37,*
G04 #@! TO.N,*
X49657000Y-125804000D03*
D25*
X54737000Y-125804000D03*
X44577000Y-125804000D03*
G04 #@! TO.P,S37,1*
G04 #@! TO.N,/Col8*
G04 #@! TA.AperFunction,ComponentPad*
G36*
G01*
X54560199Y-128951012D02*
X53749292Y-130410920D01*
G75*
G02*
X52049581Y-130896699I-1092745J606966D01*
G01*
X52049581Y-130896699D01*
G75*
G02*
X51563802Y-129196988I606966J1092745D01*
G01*
X52374708Y-127737080D01*
G75*
G02*
X54074419Y-127251301I1092745J-606966D01*
G01*
X54074419Y-127251301D01*
G75*
G02*
X54560198Y-128951012I-606966J-1092745D01*
G01*
G37*
G04 #@! TD.AperFunction*
G04 #@! TO.P,S37,2*
G04 #@! TO.N,Net-(D37-Pad1)*
G04 #@! TA.AperFunction,ComponentPad*
G36*
G01*
X48403830Y-130389691D02*
X48364381Y-130968347D01*
G75*
G02*
X47032257Y-132130433I-1247105J85019D01*
G01*
X47032257Y-132130433D01*
G75*
G02*
X45870171Y-130798309I85019J1247105D01*
G01*
X45909619Y-130219653D01*
G75*
G02*
X47241743Y-129057567I1247105J-85019D01*
G01*
X47241743Y-129057567D01*
G75*
G02*
X48403829Y-130389691I-85019J-1247105D01*
G01*
G37*
G04 #@! TD.AperFunction*
G04 #@! TD*
D24*
G04 #@! TO.P,S24,*
G04 #@! TO.N,*
X125857000Y-104849000D03*
D25*
X130937000Y-104849000D03*
X120777000Y-104849000D03*
G04 #@! TO.P,S24,1*
G04 #@! TO.N,/Col4*
G04 #@! TA.AperFunction,ComponentPad*
G36*
G01*
X130760199Y-107996012D02*
X129949292Y-109455920D01*
G75*
G02*
X128249581Y-109941699I-1092745J606966D01*
G01*
X128249581Y-109941699D01*
G75*
G02*
X127763802Y-108241988I606966J1092745D01*
G01*
X128574708Y-106782080D01*
G75*
G02*
X130274419Y-106296301I1092745J-606966D01*
G01*
X130274419Y-106296301D01*
G75*
G02*
X130760198Y-107996012I-606966J-1092745D01*
G01*
G37*
G04 #@! TD.AperFunction*
G04 #@! TO.P,S24,2*
G04 #@! TO.N,Net-(D24-Pad1)*
G04 #@! TA.AperFunction,ComponentPad*
G36*
G01*
X124603830Y-109434691D02*
X124564381Y-110013347D01*
G75*
G02*
X123232257Y-111175433I-1247105J85019D01*
G01*
X123232257Y-111175433D01*
G75*
G02*
X122070171Y-109843309I85019J1247105D01*
G01*
X122109619Y-109264653D01*
G75*
G02*
X123441743Y-108102567I1247105J-85019D01*
G01*
X123441743Y-108102567D01*
G75*
G02*
X124603829Y-109434691I-85019J-1247105D01*
G01*
G37*
G04 #@! TD.AperFunction*
G04 #@! TD*
D24*
G04 #@! TO.P,S25,*
G04 #@! TO.N,*
X106807000Y-103579000D03*
D25*
X111887000Y-103579000D03*
X101727000Y-103579000D03*
G04 #@! TO.P,S25,1*
G04 #@! TO.N,/Col5*
G04 #@! TA.AperFunction,ComponentPad*
G36*
G01*
X111710199Y-106726012D02*
X110899292Y-108185920D01*
G75*
G02*
X109199581Y-108671699I-1092745J606966D01*
G01*
X109199581Y-108671699D01*
G75*
G02*
X108713802Y-106971988I606966J1092745D01*
G01*
X109524708Y-105512080D01*
G75*
G02*
X111224419Y-105026301I1092745J-606966D01*
G01*
X111224419Y-105026301D01*
G75*
G02*
X111710198Y-106726012I-606966J-1092745D01*
G01*
G37*
G04 #@! TD.AperFunction*
G04 #@! TO.P,S25,2*
G04 #@! TO.N,Net-(D25-Pad1)*
G04 #@! TA.AperFunction,ComponentPad*
G36*
G01*
X105553830Y-108164691D02*
X105514381Y-108743347D01*
G75*
G02*
X104182257Y-109905433I-1247105J85019D01*
G01*
X104182257Y-109905433D01*
G75*
G02*
X103020171Y-108573309I85019J1247105D01*
G01*
X103059619Y-107994653D01*
G75*
G02*
X104391743Y-106832567I1247105J-85019D01*
G01*
X104391743Y-106832567D01*
G75*
G02*
X105553829Y-108164691I-85019J-1247105D01*
G01*
G37*
G04 #@! TD.AperFunction*
G04 #@! TD*
D24*
G04 #@! TO.P,S26,*
G04 #@! TO.N,*
X87757000Y-101981000D03*
D25*
X92837000Y-101981000D03*
X82677000Y-101981000D03*
G04 #@! TO.P,S26,1*
G04 #@! TO.N,/Col6*
G04 #@! TA.AperFunction,ComponentPad*
G36*
G01*
X92660199Y-105128012D02*
X91849292Y-106587920D01*
G75*
G02*
X90149581Y-107073699I-1092745J606966D01*
G01*
X90149581Y-107073699D01*
G75*
G02*
X89663802Y-105373988I606966J1092745D01*
G01*
X90474708Y-103914080D01*
G75*
G02*
X92174419Y-103428301I1092745J-606966D01*
G01*
X92174419Y-103428301D01*
G75*
G02*
X92660198Y-105128012I-606966J-1092745D01*
G01*
G37*
G04 #@! TD.AperFunction*
G04 #@! TO.P,S26,2*
G04 #@! TO.N,Net-(D26-Pad1)*
G04 #@! TA.AperFunction,ComponentPad*
G36*
G01*
X86503830Y-106566691D02*
X86464381Y-107145347D01*
G75*
G02*
X85132257Y-108307433I-1247105J85019D01*
G01*
X85132257Y-108307433D01*
G75*
G02*
X83970171Y-106975309I85019J1247105D01*
G01*
X84009619Y-106396653D01*
G75*
G02*
X85341743Y-105234567I1247105J-85019D01*
G01*
X85341743Y-105234567D01*
G75*
G02*
X86503829Y-106566691I-85019J-1247105D01*
G01*
G37*
G04 #@! TD.AperFunction*
G04 #@! TD*
D24*
G04 #@! TO.P,S27,*
G04 #@! TO.N,*
X68707000Y-103579000D03*
D25*
X73787000Y-103579000D03*
X63627000Y-103579000D03*
G04 #@! TO.P,S27,1*
G04 #@! TO.N,/Col7*
G04 #@! TA.AperFunction,ComponentPad*
G36*
G01*
X73610199Y-106726012D02*
X72799292Y-108185920D01*
G75*
G02*
X71099581Y-108671699I-1092745J606966D01*
G01*
X71099581Y-108671699D01*
G75*
G02*
X70613802Y-106971988I606966J1092745D01*
G01*
X71424708Y-105512080D01*
G75*
G02*
X73124419Y-105026301I1092745J-606966D01*
G01*
X73124419Y-105026301D01*
G75*
G02*
X73610198Y-106726012I-606966J-1092745D01*
G01*
G37*
G04 #@! TD.AperFunction*
G04 #@! TO.P,S27,2*
G04 #@! TO.N,Net-(D27-Pad1)*
G04 #@! TA.AperFunction,ComponentPad*
G36*
G01*
X67453830Y-108164691D02*
X67414381Y-108743347D01*
G75*
G02*
X66082257Y-109905433I-1247105J85019D01*
G01*
X66082257Y-109905433D01*
G75*
G02*
X64920171Y-108573309I85019J1247105D01*
G01*
X64959619Y-107994653D01*
G75*
G02*
X66291743Y-106832567I1247105J-85019D01*
G01*
X66291743Y-106832567D01*
G75*
G02*
X67453829Y-108164691I-85019J-1247105D01*
G01*
G37*
G04 #@! TD.AperFunction*
G04 #@! TD*
D24*
G04 #@! TO.P,S28,*
G04 #@! TO.N,*
X49657000Y-106754000D03*
D25*
X54737000Y-106754000D03*
X44577000Y-106754000D03*
G04 #@! TO.P,S28,1*
G04 #@! TO.N,/Col8*
G04 #@! TA.AperFunction,ComponentPad*
G36*
G01*
X54560199Y-109901012D02*
X53749292Y-111360920D01*
G75*
G02*
X52049581Y-111846699I-1092745J606966D01*
G01*
X52049581Y-111846699D01*
G75*
G02*
X51563802Y-110146988I606966J1092745D01*
G01*
X52374708Y-108687080D01*
G75*
G02*
X54074419Y-108201301I1092745J-606966D01*
G01*
X54074419Y-108201301D01*
G75*
G02*
X54560198Y-109901012I-606966J-1092745D01*
G01*
G37*
G04 #@! TD.AperFunction*
G04 #@! TO.P,S28,2*
G04 #@! TO.N,Net-(D28-Pad1)*
G04 #@! TA.AperFunction,ComponentPad*
G36*
G01*
X48403830Y-111339691D02*
X48364381Y-111918347D01*
G75*
G02*
X47032257Y-113080433I-1247105J85019D01*
G01*
X47032257Y-113080433D01*
G75*
G02*
X45870171Y-111748309I85019J1247105D01*
G01*
X45909619Y-111169653D01*
G75*
G02*
X47241743Y-110007567I1247105J-85019D01*
G01*
X47241743Y-110007567D01*
G75*
G02*
X48403829Y-111339691I-85019J-1247105D01*
G01*
G37*
G04 #@! TD.AperFunction*
G04 #@! TD*
D24*
G04 #@! TO.P,S15,*
G04 #@! TO.N,*
X125868000Y-85788100D03*
D25*
X130948000Y-85788100D03*
X120788000Y-85788100D03*
G04 #@! TO.P,S15,1*
G04 #@! TO.N,/Col4*
G04 #@! TA.AperFunction,ComponentPad*
G36*
G01*
X130771199Y-88935112D02*
X129960292Y-90395020D01*
G75*
G02*
X128260581Y-90880799I-1092745J606966D01*
G01*
X128260581Y-90880799D01*
G75*
G02*
X127774802Y-89181088I606966J1092745D01*
G01*
X128585708Y-87721180D01*
G75*
G02*
X130285419Y-87235401I1092745J-606966D01*
G01*
X130285419Y-87235401D01*
G75*
G02*
X130771198Y-88935112I-606966J-1092745D01*
G01*
G37*
G04 #@! TD.AperFunction*
G04 #@! TO.P,S15,2*
G04 #@! TO.N,Net-(D15-Pad1)*
G04 #@! TA.AperFunction,ComponentPad*
G36*
G01*
X124614830Y-90373791D02*
X124575381Y-90952447D01*
G75*
G02*
X123243257Y-92114533I-1247105J85019D01*
G01*
X123243257Y-92114533D01*
G75*
G02*
X122081171Y-90782409I85019J1247105D01*
G01*
X122120619Y-90203753D01*
G75*
G02*
X123452743Y-89041667I1247105J-85019D01*
G01*
X123452743Y-89041667D01*
G75*
G02*
X124614829Y-90373791I-85019J-1247105D01*
G01*
G37*
G04 #@! TD.AperFunction*
G04 #@! TD*
D24*
G04 #@! TO.P,S16,*
G04 #@! TO.N,*
X106807000Y-84529000D03*
D25*
X111887000Y-84529000D03*
X101727000Y-84529000D03*
G04 #@! TO.P,S16,1*
G04 #@! TO.N,/Col5*
G04 #@! TA.AperFunction,ComponentPad*
G36*
G01*
X111710199Y-87676012D02*
X110899292Y-89135920D01*
G75*
G02*
X109199581Y-89621699I-1092745J606966D01*
G01*
X109199581Y-89621699D01*
G75*
G02*
X108713802Y-87921988I606966J1092745D01*
G01*
X109524708Y-86462080D01*
G75*
G02*
X111224419Y-85976301I1092745J-606966D01*
G01*
X111224419Y-85976301D01*
G75*
G02*
X111710198Y-87676012I-606966J-1092745D01*
G01*
G37*
G04 #@! TD.AperFunction*
G04 #@! TO.P,S16,2*
G04 #@! TO.N,Net-(D16-Pad1)*
G04 #@! TA.AperFunction,ComponentPad*
G36*
G01*
X105553830Y-89114691D02*
X105514381Y-89693347D01*
G75*
G02*
X104182257Y-90855433I-1247105J85019D01*
G01*
X104182257Y-90855433D01*
G75*
G02*
X103020171Y-89523309I85019J1247105D01*
G01*
X103059619Y-88944653D01*
G75*
G02*
X104391743Y-87782567I1247105J-85019D01*
G01*
X104391743Y-87782567D01*
G75*
G02*
X105553829Y-89114691I-85019J-1247105D01*
G01*
G37*
G04 #@! TD.AperFunction*
G04 #@! TD*
D24*
G04 #@! TO.P,S17,*
G04 #@! TO.N,*
X87757000Y-82931000D03*
D25*
X92837000Y-82931000D03*
X82677000Y-82931000D03*
G04 #@! TO.P,S17,1*
G04 #@! TO.N,/Col6*
G04 #@! TA.AperFunction,ComponentPad*
G36*
G01*
X92660199Y-86078012D02*
X91849292Y-87537920D01*
G75*
G02*
X90149581Y-88023699I-1092745J606966D01*
G01*
X90149581Y-88023699D01*
G75*
G02*
X89663802Y-86323988I606966J1092745D01*
G01*
X90474708Y-84864080D01*
G75*
G02*
X92174419Y-84378301I1092745J-606966D01*
G01*
X92174419Y-84378301D01*
G75*
G02*
X92660198Y-86078012I-606966J-1092745D01*
G01*
G37*
G04 #@! TD.AperFunction*
G04 #@! TO.P,S17,2*
G04 #@! TO.N,Net-(D17-Pad1)*
G04 #@! TA.AperFunction,ComponentPad*
G36*
G01*
X86503830Y-87516691D02*
X86464381Y-88095347D01*
G75*
G02*
X85132257Y-89257433I-1247105J85019D01*
G01*
X85132257Y-89257433D01*
G75*
G02*
X83970171Y-87925309I85019J1247105D01*
G01*
X84009619Y-87346653D01*
G75*
G02*
X85341743Y-86184567I1247105J-85019D01*
G01*
X85341743Y-86184567D01*
G75*
G02*
X86503829Y-87516691I-85019J-1247105D01*
G01*
G37*
G04 #@! TD.AperFunction*
G04 #@! TD*
D24*
G04 #@! TO.P,S18,*
G04 #@! TO.N,*
X68707000Y-84529000D03*
D25*
X73787000Y-84529000D03*
X63627000Y-84529000D03*
G04 #@! TO.P,S18,1*
G04 #@! TO.N,/Col7*
G04 #@! TA.AperFunction,ComponentPad*
G36*
G01*
X73610199Y-87676012D02*
X72799292Y-89135920D01*
G75*
G02*
X71099581Y-89621699I-1092745J606966D01*
G01*
X71099581Y-89621699D01*
G75*
G02*
X70613802Y-87921988I606966J1092745D01*
G01*
X71424708Y-86462080D01*
G75*
G02*
X73124419Y-85976301I1092745J-606966D01*
G01*
X73124419Y-85976301D01*
G75*
G02*
X73610198Y-87676012I-606966J-1092745D01*
G01*
G37*
G04 #@! TD.AperFunction*
G04 #@! TO.P,S18,2*
G04 #@! TO.N,Net-(D18-Pad1)*
G04 #@! TA.AperFunction,ComponentPad*
G36*
G01*
X67453830Y-89114691D02*
X67414381Y-89693347D01*
G75*
G02*
X66082257Y-90855433I-1247105J85019D01*
G01*
X66082257Y-90855433D01*
G75*
G02*
X64920171Y-89523309I85019J1247105D01*
G01*
X64959619Y-88944653D01*
G75*
G02*
X66291743Y-87782567I1247105J-85019D01*
G01*
X66291743Y-87782567D01*
G75*
G02*
X67453829Y-89114691I-85019J-1247105D01*
G01*
G37*
G04 #@! TD.AperFunction*
G04 #@! TD*
D24*
G04 #@! TO.P,S19,*
G04 #@! TO.N,*
X49657000Y-87704000D03*
D25*
X54737000Y-87704000D03*
X44577000Y-87704000D03*
G04 #@! TO.P,S19,1*
G04 #@! TO.N,/Col8*
G04 #@! TA.AperFunction,ComponentPad*
G36*
G01*
X54560199Y-90851012D02*
X53749292Y-92310920D01*
G75*
G02*
X52049581Y-92796699I-1092745J606966D01*
G01*
X52049581Y-92796699D01*
G75*
G02*
X51563802Y-91096988I606966J1092745D01*
G01*
X52374708Y-89637080D01*
G75*
G02*
X54074419Y-89151301I1092745J-606966D01*
G01*
X54074419Y-89151301D01*
G75*
G02*
X54560198Y-90851012I-606966J-1092745D01*
G01*
G37*
G04 #@! TD.AperFunction*
G04 #@! TO.P,S19,2*
G04 #@! TO.N,Net-(D19-Pad1)*
G04 #@! TA.AperFunction,ComponentPad*
G36*
G01*
X48403830Y-92289691D02*
X48364381Y-92868347D01*
G75*
G02*
X47032257Y-94030433I-1247105J85019D01*
G01*
X47032257Y-94030433D01*
G75*
G02*
X45870171Y-92698309I85019J1247105D01*
G01*
X45909619Y-92119653D01*
G75*
G02*
X47241743Y-90957567I1247105J-85019D01*
G01*
X47241743Y-90957567D01*
G75*
G02*
X48403829Y-92289691I-85019J-1247105D01*
G01*
G37*
G04 #@! TD.AperFunction*
G04 #@! TD*
D24*
G04 #@! TO.P,S10,*
G04 #@! TO.N,*
X106807000Y-65478700D03*
D25*
X111887000Y-65478700D03*
X101727000Y-65478700D03*
G04 #@! TO.P,S10,1*
G04 #@! TO.N,/Col5*
G04 #@! TA.AperFunction,ComponentPad*
G36*
G01*
X111710199Y-68625712D02*
X110899292Y-70085620D01*
G75*
G02*
X109199581Y-70571399I-1092745J606966D01*
G01*
X109199581Y-70571399D01*
G75*
G02*
X108713802Y-68871688I606966J1092745D01*
G01*
X109524708Y-67411780D01*
G75*
G02*
X111224419Y-66926001I1092745J-606966D01*
G01*
X111224419Y-66926001D01*
G75*
G02*
X111710198Y-68625712I-606966J-1092745D01*
G01*
G37*
G04 #@! TD.AperFunction*
G04 #@! TO.P,S10,2*
G04 #@! TO.N,Net-(D10-Pad1)*
G04 #@! TA.AperFunction,ComponentPad*
G36*
G01*
X105553830Y-70064391D02*
X105514381Y-70643047D01*
G75*
G02*
X104182257Y-71805133I-1247105J85019D01*
G01*
X104182257Y-71805133D01*
G75*
G02*
X103020171Y-70473009I85019J1247105D01*
G01*
X103059619Y-69894353D01*
G75*
G02*
X104391743Y-68732267I1247105J-85019D01*
G01*
X104391743Y-68732267D01*
G75*
G02*
X105553829Y-70064391I-85019J-1247105D01*
G01*
G37*
G04 #@! TD.AperFunction*
G04 #@! TD*
D24*
G04 #@! TO.P,S11,*
G04 #@! TO.N,*
X87757000Y-63881000D03*
D25*
X92837000Y-63881000D03*
X82677000Y-63881000D03*
G04 #@! TO.P,S11,1*
G04 #@! TO.N,/Col6*
G04 #@! TA.AperFunction,ComponentPad*
G36*
G01*
X92660199Y-67028012D02*
X91849292Y-68487920D01*
G75*
G02*
X90149581Y-68973699I-1092745J606966D01*
G01*
X90149581Y-68973699D01*
G75*
G02*
X89663802Y-67273988I606966J1092745D01*
G01*
X90474708Y-65814080D01*
G75*
G02*
X92174419Y-65328301I1092745J-606966D01*
G01*
X92174419Y-65328301D01*
G75*
G02*
X92660198Y-67028012I-606966J-1092745D01*
G01*
G37*
G04 #@! TD.AperFunction*
G04 #@! TO.P,S11,2*
G04 #@! TO.N,Net-(D11-Pad1)*
G04 #@! TA.AperFunction,ComponentPad*
G36*
G01*
X86503830Y-68466691D02*
X86464381Y-69045347D01*
G75*
G02*
X85132257Y-70207433I-1247105J85019D01*
G01*
X85132257Y-70207433D01*
G75*
G02*
X83970171Y-68875309I85019J1247105D01*
G01*
X84009619Y-68296653D01*
G75*
G02*
X85341743Y-67134567I1247105J-85019D01*
G01*
X85341743Y-67134567D01*
G75*
G02*
X86503829Y-68466691I-85019J-1247105D01*
G01*
G37*
G04 #@! TD.AperFunction*
G04 #@! TD*
D24*
G04 #@! TO.P,S13,*
G04 #@! TO.N,*
X49657000Y-68653700D03*
D25*
X54737000Y-68653700D03*
X44577000Y-68653700D03*
G04 #@! TO.P,S13,1*
G04 #@! TO.N,/Col8*
G04 #@! TA.AperFunction,ComponentPad*
G36*
G01*
X54560199Y-71800712D02*
X53749292Y-73260620D01*
G75*
G02*
X52049581Y-73746399I-1092745J606966D01*
G01*
X52049581Y-73746399D01*
G75*
G02*
X51563802Y-72046688I606966J1092745D01*
G01*
X52374708Y-70586780D01*
G75*
G02*
X54074419Y-70101001I1092745J-606966D01*
G01*
X54074419Y-70101001D01*
G75*
G02*
X54560198Y-71800712I-606966J-1092745D01*
G01*
G37*
G04 #@! TD.AperFunction*
G04 #@! TO.P,S13,2*
G04 #@! TO.N,Net-(D13-Pad1)*
G04 #@! TA.AperFunction,ComponentPad*
G36*
G01*
X48403830Y-73239391D02*
X48364381Y-73818047D01*
G75*
G02*
X47032257Y-74980133I-1247105J85019D01*
G01*
X47032257Y-74980133D01*
G75*
G02*
X45870171Y-73648009I85019J1247105D01*
G01*
X45909619Y-73069353D01*
G75*
G02*
X47241743Y-71907267I1247105J-85019D01*
G01*
X47241743Y-71907267D01*
G75*
G02*
X48403829Y-73239391I-85019J-1247105D01*
G01*
G37*
G04 #@! TD.AperFunction*
G04 #@! TD*
D24*
G04 #@! TO.P,S36,*
G04 #@! TO.N,*
X68707000Y-122629000D03*
D25*
X73787000Y-122629000D03*
X63627000Y-122629000D03*
G04 #@! TO.P,S36,1*
G04 #@! TO.N,/Col7*
G04 #@! TA.AperFunction,ComponentPad*
G36*
G01*
X73610199Y-125776012D02*
X72799292Y-127235920D01*
G75*
G02*
X71099581Y-127721699I-1092745J606966D01*
G01*
X71099581Y-127721699D01*
G75*
G02*
X70613802Y-126021988I606966J1092745D01*
G01*
X71424708Y-124562080D01*
G75*
G02*
X73124419Y-124076301I1092745J-606966D01*
G01*
X73124419Y-124076301D01*
G75*
G02*
X73610198Y-125776012I-606966J-1092745D01*
G01*
G37*
G04 #@! TD.AperFunction*
G04 #@! TO.P,S36,2*
G04 #@! TO.N,Net-(D36-Pad1)*
G04 #@! TA.AperFunction,ComponentPad*
G36*
G01*
X67453830Y-127214691D02*
X67414381Y-127793347D01*
G75*
G02*
X66082257Y-128955433I-1247105J85019D01*
G01*
X66082257Y-128955433D01*
G75*
G02*
X64920171Y-127623309I85019J1247105D01*
G01*
X64959619Y-127044653D01*
G75*
G02*
X66291743Y-125882567I1247105J-85019D01*
G01*
X66291743Y-125882567D01*
G75*
G02*
X67453829Y-127214691I-85019J-1247105D01*
G01*
G37*
G04 #@! TD.AperFunction*
G04 #@! TD*
D24*
G04 #@! TO.P,S3,*
G04 #@! TO.N,*
X106807000Y-46428700D03*
D25*
X111887000Y-46428700D03*
X101727000Y-46428700D03*
G04 #@! TO.P,S3,1*
G04 #@! TO.N,/Col5*
G04 #@! TA.AperFunction,ComponentPad*
G36*
G01*
X111710199Y-49575712D02*
X110899292Y-51035620D01*
G75*
G02*
X109199581Y-51521399I-1092745J606966D01*
G01*
X109199581Y-51521399D01*
G75*
G02*
X108713802Y-49821688I606966J1092745D01*
G01*
X109524708Y-48361780D01*
G75*
G02*
X111224419Y-47876001I1092745J-606966D01*
G01*
X111224419Y-47876001D01*
G75*
G02*
X111710198Y-49575712I-606966J-1092745D01*
G01*
G37*
G04 #@! TD.AperFunction*
G04 #@! TO.P,S3,2*
G04 #@! TO.N,Net-(D3-Pad1)*
G04 #@! TA.AperFunction,ComponentPad*
G36*
G01*
X105553830Y-51014391D02*
X105514381Y-51593047D01*
G75*
G02*
X104182257Y-52755133I-1247105J85019D01*
G01*
X104182257Y-52755133D01*
G75*
G02*
X103020171Y-51423009I85019J1247105D01*
G01*
X103059619Y-50844353D01*
G75*
G02*
X104391743Y-49682267I1247105J-85019D01*
G01*
X104391743Y-49682267D01*
G75*
G02*
X105553829Y-51014391I-85019J-1247105D01*
G01*
G37*
G04 #@! TD.AperFunction*
G04 #@! TD*
D24*
G04 #@! TO.P,S4,*
G04 #@! TO.N,*
X87757000Y-44831000D03*
D25*
X92837000Y-44831000D03*
X82677000Y-44831000D03*
G04 #@! TO.P,S4,1*
G04 #@! TO.N,/Col6*
G04 #@! TA.AperFunction,ComponentPad*
G36*
G01*
X92660199Y-47978012D02*
X91849292Y-49437920D01*
G75*
G02*
X90149581Y-49923699I-1092745J606966D01*
G01*
X90149581Y-49923699D01*
G75*
G02*
X89663802Y-48223988I606966J1092745D01*
G01*
X90474708Y-46764080D01*
G75*
G02*
X92174419Y-46278301I1092745J-606966D01*
G01*
X92174419Y-46278301D01*
G75*
G02*
X92660198Y-47978012I-606966J-1092745D01*
G01*
G37*
G04 #@! TD.AperFunction*
G04 #@! TO.P,S4,2*
G04 #@! TO.N,Net-(D4-Pad1)*
G04 #@! TA.AperFunction,ComponentPad*
G36*
G01*
X86503830Y-49416691D02*
X86464381Y-49995347D01*
G75*
G02*
X85132257Y-51157433I-1247105J85019D01*
G01*
X85132257Y-51157433D01*
G75*
G02*
X83970171Y-49825309I85019J1247105D01*
G01*
X84009619Y-49246653D01*
G75*
G02*
X85341743Y-48084567I1247105J-85019D01*
G01*
X85341743Y-48084567D01*
G75*
G02*
X86503829Y-49416691I-85019J-1247105D01*
G01*
G37*
G04 #@! TD.AperFunction*
G04 #@! TD*
D24*
G04 #@! TO.P,S5,*
G04 #@! TO.N,*
X68707000Y-46428700D03*
D25*
X73787000Y-46428700D03*
X63627000Y-46428700D03*
G04 #@! TO.P,S5,1*
G04 #@! TO.N,/Col7*
G04 #@! TA.AperFunction,ComponentPad*
G36*
G01*
X73610199Y-49575712D02*
X72799292Y-51035620D01*
G75*
G02*
X71099581Y-51521399I-1092745J606966D01*
G01*
X71099581Y-51521399D01*
G75*
G02*
X70613802Y-49821688I606966J1092745D01*
G01*
X71424708Y-48361780D01*
G75*
G02*
X73124419Y-47876001I1092745J-606966D01*
G01*
X73124419Y-47876001D01*
G75*
G02*
X73610198Y-49575712I-606966J-1092745D01*
G01*
G37*
G04 #@! TD.AperFunction*
G04 #@! TO.P,S5,2*
G04 #@! TO.N,Net-(D5-Pad1)*
G04 #@! TA.AperFunction,ComponentPad*
G36*
G01*
X67453830Y-51014391D02*
X67414381Y-51593047D01*
G75*
G02*
X66082257Y-52755133I-1247105J85019D01*
G01*
X66082257Y-52755133D01*
G75*
G02*
X64920171Y-51423009I85019J1247105D01*
G01*
X64959619Y-50844353D01*
G75*
G02*
X66291743Y-49682267I1247105J-85019D01*
G01*
X66291743Y-49682267D01*
G75*
G02*
X67453829Y-51014391I-85019J-1247105D01*
G01*
G37*
G04 #@! TD.AperFunction*
G04 #@! TD*
D24*
G04 #@! TO.P,S6,*
G04 #@! TO.N,*
X49657000Y-49606200D03*
D25*
X54737000Y-49606200D03*
X44577000Y-49606200D03*
G04 #@! TO.P,S6,1*
G04 #@! TO.N,/Col8*
G04 #@! TA.AperFunction,ComponentPad*
G36*
G01*
X54560199Y-52753212D02*
X53749292Y-54213120D01*
G75*
G02*
X52049581Y-54698899I-1092745J606966D01*
G01*
X52049581Y-54698899D01*
G75*
G02*
X51563802Y-52999188I606966J1092745D01*
G01*
X52374708Y-51539280D01*
G75*
G02*
X54074419Y-51053501I1092745J-606966D01*
G01*
X54074419Y-51053501D01*
G75*
G02*
X54560198Y-52753212I-606966J-1092745D01*
G01*
G37*
G04 #@! TD.AperFunction*
G04 #@! TO.P,S6,2*
G04 #@! TO.N,Net-(D6-Pad1)*
G04 #@! TA.AperFunction,ComponentPad*
G36*
G01*
X48403830Y-54191891D02*
X48364381Y-54770547D01*
G75*
G02*
X47032257Y-55932633I-1247105J85019D01*
G01*
X47032257Y-55932633D01*
G75*
G02*
X45870171Y-54600509I85019J1247105D01*
G01*
X45909619Y-54021853D01*
G75*
G02*
X47241743Y-52859767I1247105J-85019D01*
G01*
X47241743Y-52859767D01*
G75*
G02*
X48403829Y-54191891I-85019J-1247105D01*
G01*
G37*
G04 #@! TD.AperFunction*
G04 #@! TD*
D24*
G04 #@! TO.P,S21,*
G04 #@! TO.N,*
X182598000Y-125870000D03*
D25*
X187202044Y-128016901D03*
X177993956Y-123723099D03*
G04 #@! TO.P,S21,1*
G04 #@! TO.N,/Col1*
G04 #@! TA.AperFunction,ComponentPad*
G36*
G01*
X185711822Y-130794343D02*
X184359908Y-131774765D01*
G75*
G02*
X182614147Y-131496702I-733849J1011912D01*
G01*
X182614147Y-131496702D01*
G75*
G02*
X182892210Y-129750941I1011912J733849D01*
G01*
X184244124Y-128770519D01*
G75*
G02*
X185989885Y-129048582I733849J-1011912D01*
G01*
X185989885Y-129048582D01*
G75*
G02*
X185711822Y-130794343I-1011912J-733849D01*
G01*
G37*
G04 #@! TD.AperFunction*
G04 #@! TO.P,S21,2*
G04 #@! TO.N,Net-(D21-Pad1)*
G04 #@! TA.AperFunction,ComponentPad*
G36*
G01*
X179524246Y-129496434D02*
X179243942Y-130004204D01*
G75*
G02*
X177545508Y-130494432I-1094331J604103D01*
G01*
X177545508Y-130494432D01*
G75*
G02*
X177055280Y-128795998I604103J1094331D01*
G01*
X177335584Y-128288228D01*
G75*
G02*
X179034018Y-127798000I1094331J-604103D01*
G01*
X179034018Y-127798000D01*
G75*
G02*
X179524246Y-129496434I-604103J-1094331D01*
G01*
G37*
G04 #@! TD.AperFunction*
G04 #@! TD*
D24*
G04 #@! TO.P,S31,*
G04 #@! TO.N,*
X166497000Y-160401000D03*
D25*
X171101044Y-162547901D03*
X161892956Y-158254099D03*
G04 #@! TO.P,S31,1*
G04 #@! TO.N,/Col2*
G04 #@! TA.AperFunction,ComponentPad*
G36*
G01*
X169610822Y-165325343D02*
X168258908Y-166305765D01*
G75*
G02*
X166513147Y-166027702I-733849J1011912D01*
G01*
X166513147Y-166027702D01*
G75*
G02*
X166791210Y-164281941I1011912J733849D01*
G01*
X168143124Y-163301519D01*
G75*
G02*
X169888885Y-163579582I733849J-1011912D01*
G01*
X169888885Y-163579582D01*
G75*
G02*
X169610822Y-165325343I-1011912J-733849D01*
G01*
G37*
G04 #@! TD.AperFunction*
G04 #@! TO.P,S31,2*
G04 #@! TO.N,Net-(D31-Pad1)*
G04 #@! TA.AperFunction,ComponentPad*
G36*
G01*
X163423246Y-164027434D02*
X163142942Y-164535204D01*
G75*
G02*
X161444508Y-165025432I-1094331J604103D01*
G01*
X161444508Y-165025432D01*
G75*
G02*
X160954280Y-163326998I604103J1094331D01*
G01*
X161234584Y-162819228D01*
G75*
G02*
X162933018Y-162329000I1094331J-604103D01*
G01*
X162933018Y-162329000D01*
G75*
G02*
X163423246Y-164027434I-604103J-1094331D01*
G01*
G37*
G04 #@! TD.AperFunction*
G04 #@! TD*
D24*
G04 #@! TO.P,S30,*
G04 #@! TO.N,*
X174549000Y-143134000D03*
D25*
X179153044Y-145280901D03*
X169944956Y-140987099D03*
G04 #@! TO.P,S30,1*
G04 #@! TO.N,/Col1*
G04 #@! TA.AperFunction,ComponentPad*
G36*
G01*
X177662822Y-148058343D02*
X176310908Y-149038765D01*
G75*
G02*
X174565147Y-148760702I-733849J1011912D01*
G01*
X174565147Y-148760702D01*
G75*
G02*
X174843210Y-147014941I1011912J733849D01*
G01*
X176195124Y-146034519D01*
G75*
G02*
X177940885Y-146312582I733849J-1011912D01*
G01*
X177940885Y-146312582D01*
G75*
G02*
X177662822Y-148058343I-1011912J-733849D01*
G01*
G37*
G04 #@! TD.AperFunction*
G04 #@! TO.P,S30,2*
G04 #@! TO.N,Net-(D30-Pad1)*
G04 #@! TA.AperFunction,ComponentPad*
G36*
G01*
X171475246Y-146760434D02*
X171194942Y-147268204D01*
G75*
G02*
X169496508Y-147758432I-1094331J604103D01*
G01*
X169496508Y-147758432D01*
G75*
G02*
X169006280Y-146059998I604103J1094331D01*
G01*
X169286584Y-145552228D01*
G75*
G02*
X170985018Y-145062000I1094331J-604103D01*
G01*
X170985018Y-145062000D01*
G75*
G02*
X171475246Y-146760434I-604103J-1094331D01*
G01*
G37*
G04 #@! TD.AperFunction*
G04 #@! TD*
D24*
G04 #@! TO.P,S9,*
G04 #@! TO.N,*
X125857000Y-66748700D03*
D25*
X130937000Y-66748700D03*
X120777000Y-66748700D03*
G04 #@! TO.P,S9,1*
G04 #@! TO.N,/Col4*
G04 #@! TA.AperFunction,ComponentPad*
G36*
G01*
X130760199Y-69895712D02*
X129949292Y-71355620D01*
G75*
G02*
X128249581Y-71841399I-1092745J606966D01*
G01*
X128249581Y-71841399D01*
G75*
G02*
X127763802Y-70141688I606966J1092745D01*
G01*
X128574708Y-68681780D01*
G75*
G02*
X130274419Y-68196001I1092745J-606966D01*
G01*
X130274419Y-68196001D01*
G75*
G02*
X130760198Y-69895712I-606966J-1092745D01*
G01*
G37*
G04 #@! TD.AperFunction*
G04 #@! TO.P,S9,2*
G04 #@! TO.N,Net-(D9-Pad1)*
G04 #@! TA.AperFunction,ComponentPad*
G36*
G01*
X124603830Y-71334391D02*
X124564381Y-71913047D01*
G75*
G02*
X123232257Y-73075133I-1247105J85019D01*
G01*
X123232257Y-73075133D01*
G75*
G02*
X122070171Y-71743009I85019J1247105D01*
G01*
X122109619Y-71164353D01*
G75*
G02*
X123441743Y-70002267I1247105J-85019D01*
G01*
X123441743Y-70002267D01*
G75*
G02*
X124603829Y-71334391I-85019J-1247105D01*
G01*
G37*
G04 #@! TD.AperFunction*
G04 #@! TD*
D24*
G04 #@! TO.P,S38,*
G04 #@! TO.N,*
X30607000Y-125804000D03*
D25*
X35687000Y-125804000D03*
X25527000Y-125804000D03*
G04 #@! TO.P,S38,1*
G04 #@! TO.N,/Col9*
G04 #@! TA.AperFunction,ComponentPad*
G36*
G01*
X35510199Y-128951012D02*
X34699292Y-130410920D01*
G75*
G02*
X32999581Y-130896699I-1092745J606966D01*
G01*
X32999581Y-130896699D01*
G75*
G02*
X32513802Y-129196988I606966J1092745D01*
G01*
X33324708Y-127737080D01*
G75*
G02*
X35024419Y-127251301I1092745J-606966D01*
G01*
X35024419Y-127251301D01*
G75*
G02*
X35510198Y-128951012I-606966J-1092745D01*
G01*
G37*
G04 #@! TD.AperFunction*
G04 #@! TO.P,S38,2*
G04 #@! TO.N,Net-(D38-Pad1)*
G04 #@! TA.AperFunction,ComponentPad*
G36*
G01*
X29353830Y-130389691D02*
X29314381Y-130968347D01*
G75*
G02*
X27982257Y-132130433I-1247105J85019D01*
G01*
X27982257Y-132130433D01*
G75*
G02*
X26820171Y-130798309I85019J1247105D01*
G01*
X26859619Y-130219653D01*
G75*
G02*
X28191743Y-129057567I1247105J-85019D01*
G01*
X28191743Y-129057567D01*
G75*
G02*
X29353829Y-130389691I-85019J-1247105D01*
G01*
G37*
G04 #@! TD.AperFunction*
G04 #@! TD*
D24*
G04 #@! TO.P,S23,*
G04 #@! TO.N,*
X144907000Y-100086000D03*
D25*
X144907000Y-105166000D03*
X144907000Y-95006000D03*
G04 #@! TO.P,S23,1*
G04 #@! TO.N,/Col3*
G04 #@! TA.AperFunction,ComponentPad*
G36*
G01*
X141759988Y-104989199D02*
X140300080Y-104178292D01*
G75*
G02*
X139814301Y-102478581I606966J1092745D01*
G01*
X139814301Y-102478581D01*
G75*
G02*
X141514012Y-101992802I1092745J-606966D01*
G01*
X142973920Y-102803708D01*
G75*
G02*
X143459699Y-104503419I-606966J-1092745D01*
G01*
X143459699Y-104503419D01*
G75*
G02*
X141759988Y-104989198I-1092745J606966D01*
G01*
G37*
G04 #@! TD.AperFunction*
G04 #@! TO.P,S23,2*
G04 #@! TO.N,Net-(D23-Pad1)*
G04 #@! TA.AperFunction,ComponentPad*
G36*
G01*
X140321309Y-98832830D02*
X139742653Y-98793381D01*
G75*
G02*
X138580567Y-97461257I85019J1247105D01*
G01*
X138580567Y-97461257D01*
G75*
G02*
X139912691Y-96299171I1247105J-85019D01*
G01*
X140491347Y-96338619D01*
G75*
G02*
X141653433Y-97670743I-85019J-1247105D01*
G01*
X141653433Y-97670743D01*
G75*
G02*
X140321309Y-98832829I-1247105J85019D01*
G01*
G37*
G04 #@! TD.AperFunction*
G04 #@! TD*
D24*
G04 #@! TO.P,S1,*
G04 #@! TO.N,*
X144907000Y-47701200D03*
D25*
X149987000Y-47701200D03*
X139827000Y-47701200D03*
G04 #@! TO.P,S1,1*
G04 #@! TO.N,/Col3*
G04 #@! TA.AperFunction,ComponentPad*
G36*
G01*
X149810199Y-50848212D02*
X148999292Y-52308120D01*
G75*
G02*
X147299581Y-52793899I-1092745J606966D01*
G01*
X147299581Y-52793899D01*
G75*
G02*
X146813802Y-51094188I606966J1092745D01*
G01*
X147624708Y-49634280D01*
G75*
G02*
X149324419Y-49148501I1092745J-606966D01*
G01*
X149324419Y-49148501D01*
G75*
G02*
X149810198Y-50848212I-606966J-1092745D01*
G01*
G37*
G04 #@! TD.AperFunction*
G04 #@! TO.P,S1,2*
G04 #@! TO.N,Net-(D1-Pad1)*
G04 #@! TA.AperFunction,ComponentPad*
G36*
G01*
X143653830Y-52286891D02*
X143614381Y-52865547D01*
G75*
G02*
X142282257Y-54027633I-1247105J85019D01*
G01*
X142282257Y-54027633D01*
G75*
G02*
X141120171Y-52695509I85019J1247105D01*
G01*
X141159619Y-52116853D01*
G75*
G02*
X142491743Y-50954767I1247105J-85019D01*
G01*
X142491743Y-50954767D01*
G75*
G02*
X143653829Y-52286891I-85019J-1247105D01*
G01*
G37*
G04 #@! TD.AperFunction*
G04 #@! TD*
D24*
G04 #@! TO.P,S8,*
G04 #@! TO.N,*
X144907000Y-71511200D03*
D25*
X144907000Y-76591200D03*
X144907000Y-66431200D03*
G04 #@! TO.P,S8,1*
G04 #@! TO.N,/Col3*
G04 #@! TA.AperFunction,ComponentPad*
G36*
G01*
X141759988Y-76414399D02*
X140300080Y-75603492D01*
G75*
G02*
X139814301Y-73903781I606966J1092745D01*
G01*
X139814301Y-73903781D01*
G75*
G02*
X141514012Y-73418002I1092745J-606966D01*
G01*
X142973920Y-74228908D01*
G75*
G02*
X143459699Y-75928619I-606966J-1092745D01*
G01*
X143459699Y-75928619D01*
G75*
G02*
X141759988Y-76414398I-1092745J606966D01*
G01*
G37*
G04 #@! TD.AperFunction*
G04 #@! TO.P,S8,2*
G04 #@! TO.N,Net-(D8-Pad1)*
G04 #@! TA.AperFunction,ComponentPad*
G36*
G01*
X140321309Y-70258030D02*
X139742653Y-70218581D01*
G75*
G02*
X138580567Y-68886457I85019J1247105D01*
G01*
X138580567Y-68886457D01*
G75*
G02*
X139912691Y-67724371I1247105J-85019D01*
G01*
X140491347Y-67763819D01*
G75*
G02*
X141653433Y-69095943I-85019J-1247105D01*
G01*
X141653433Y-69095943D01*
G75*
G02*
X140321309Y-70258029I-1247105J85019D01*
G01*
G37*
G04 #@! TD.AperFunction*
G04 #@! TD*
D24*
G04 #@! TO.P,S29,*
G04 #@! TO.N,*
X25845000Y-106754000D03*
D25*
X30925000Y-106754000D03*
X20765000Y-106754000D03*
G04 #@! TO.P,S29,1*
G04 #@! TO.N,/Col9*
G04 #@! TA.AperFunction,ComponentPad*
G36*
G01*
X30748199Y-109901012D02*
X29937292Y-111360920D01*
G75*
G02*
X28237581Y-111846699I-1092745J606966D01*
G01*
X28237581Y-111846699D01*
G75*
G02*
X27751802Y-110146988I606966J1092745D01*
G01*
X28562708Y-108687080D01*
G75*
G02*
X30262419Y-108201301I1092745J-606966D01*
G01*
X30262419Y-108201301D01*
G75*
G02*
X30748198Y-109901012I-606966J-1092745D01*
G01*
G37*
G04 #@! TD.AperFunction*
G04 #@! TO.P,S29,2*
G04 #@! TO.N,Net-(D29-Pad1)*
G04 #@! TA.AperFunction,ComponentPad*
G36*
G01*
X24591830Y-111339691D02*
X24552381Y-111918347D01*
G75*
G02*
X23220257Y-113080433I-1247105J85019D01*
G01*
X23220257Y-113080433D01*
G75*
G02*
X22058171Y-111748309I85019J1247105D01*
G01*
X22097619Y-111169653D01*
G75*
G02*
X23429743Y-110007567I1247105J-85019D01*
G01*
X23429743Y-110007567D01*
G75*
G02*
X24591829Y-111339691I-85019J-1247105D01*
G01*
G37*
G04 #@! TD.AperFunction*
G04 #@! TD*
D24*
G04 #@! TO.P,S7,*
G04 #@! TO.N,*
X25845000Y-49606200D03*
D25*
X30925000Y-49606200D03*
X20765000Y-49606200D03*
G04 #@! TO.P,S7,1*
G04 #@! TO.N,/Col9*
G04 #@! TA.AperFunction,ComponentPad*
G36*
G01*
X30748199Y-52753212D02*
X29937292Y-54213120D01*
G75*
G02*
X28237581Y-54698899I-1092745J606966D01*
G01*
X28237581Y-54698899D01*
G75*
G02*
X27751802Y-52999188I606966J1092745D01*
G01*
X28562708Y-51539280D01*
G75*
G02*
X30262419Y-51053501I1092745J-606966D01*
G01*
X30262419Y-51053501D01*
G75*
G02*
X30748198Y-52753212I-606966J-1092745D01*
G01*
G37*
G04 #@! TD.AperFunction*
G04 #@! TO.P,S7,2*
G04 #@! TO.N,Net-(D7-Pad1)*
G04 #@! TA.AperFunction,ComponentPad*
G36*
G01*
X24591830Y-54191891D02*
X24552381Y-54770547D01*
G75*
G02*
X23220257Y-55932633I-1247105J85019D01*
G01*
X23220257Y-55932633D01*
G75*
G02*
X22058171Y-54600509I85019J1247105D01*
G01*
X22097619Y-54021853D01*
G75*
G02*
X23429743Y-52859767I1247105J-85019D01*
G01*
X23429743Y-52859767D01*
G75*
G02*
X24591829Y-54191891I-85019J-1247105D01*
G01*
G37*
G04 #@! TD.AperFunction*
G04 #@! TD*
D24*
G04 #@! TO.P,S14,*
G04 #@! TO.N,*
X25845000Y-68653700D03*
D25*
X30925000Y-68653700D03*
X20765000Y-68653700D03*
G04 #@! TO.P,S14,1*
G04 #@! TO.N,/Col9*
G04 #@! TA.AperFunction,ComponentPad*
G36*
G01*
X30748199Y-71800712D02*
X29937292Y-73260620D01*
G75*
G02*
X28237581Y-73746399I-1092745J606966D01*
G01*
X28237581Y-73746399D01*
G75*
G02*
X27751802Y-72046688I606966J1092745D01*
G01*
X28562708Y-70586780D01*
G75*
G02*
X30262419Y-70101001I1092745J-606966D01*
G01*
X30262419Y-70101001D01*
G75*
G02*
X30748198Y-71800712I-606966J-1092745D01*
G01*
G37*
G04 #@! TD.AperFunction*
G04 #@! TO.P,S14,2*
G04 #@! TO.N,Net-(D14-Pad1)*
G04 #@! TA.AperFunction,ComponentPad*
G36*
G01*
X24591830Y-73239391D02*
X24552381Y-73818047D01*
G75*
G02*
X23220257Y-74980133I-1247105J85019D01*
G01*
X23220257Y-74980133D01*
G75*
G02*
X22058171Y-73648009I85019J1247105D01*
G01*
X22097619Y-73069353D01*
G75*
G02*
X23429743Y-71907267I1247105J-85019D01*
G01*
X23429743Y-71907267D01*
G75*
G02*
X24591829Y-73239391I-85019J-1247105D01*
G01*
G37*
G04 #@! TD.AperFunction*
G04 #@! TD*
D24*
G04 #@! TO.P,S20,*
G04 #@! TO.N,*
X25845000Y-87704000D03*
D25*
X30925000Y-87704000D03*
X20765000Y-87704000D03*
G04 #@! TO.P,S20,1*
G04 #@! TO.N,/Col9*
G04 #@! TA.AperFunction,ComponentPad*
G36*
G01*
X30748199Y-90851012D02*
X29937292Y-92310920D01*
G75*
G02*
X28237581Y-92796699I-1092745J606966D01*
G01*
X28237581Y-92796699D01*
G75*
G02*
X27751802Y-91096988I606966J1092745D01*
G01*
X28562708Y-89637080D01*
G75*
G02*
X30262419Y-89151301I1092745J-606966D01*
G01*
X30262419Y-89151301D01*
G75*
G02*
X30748198Y-90851012I-606966J-1092745D01*
G01*
G37*
G04 #@! TD.AperFunction*
G04 #@! TO.P,S20,2*
G04 #@! TO.N,Net-(D20-Pad1)*
G04 #@! TA.AperFunction,ComponentPad*
G36*
G01*
X24591830Y-92289691D02*
X24552381Y-92868347D01*
G75*
G02*
X23220257Y-94030433I-1247105J85019D01*
G01*
X23220257Y-94030433D01*
G75*
G02*
X22058171Y-92698309I85019J1247105D01*
G01*
X22097619Y-92119653D01*
G75*
G02*
X23429743Y-90957567I1247105J-85019D01*
G01*
X23429743Y-90957567D01*
G75*
G02*
X24591829Y-92289691I-85019J-1247105D01*
G01*
G37*
G04 #@! TD.AperFunction*
G04 #@! TD*
D24*
G04 #@! TO.P,S33,*
G04 #@! TO.N,*
X135994000Y-135666000D03*
D25*
X133847099Y-140270044D03*
X138140901Y-131061956D03*
G04 #@! TO.P,S33,1*
G04 #@! TO.N,/Col4*
G04 #@! TA.AperFunction,ComponentPad*
G36*
G01*
X131069657Y-138779822D02*
X130089235Y-137427908D01*
G75*
G02*
X130367298Y-135682147I1011912J733849D01*
G01*
X130367298Y-135682147D01*
G75*
G02*
X132113059Y-135960210I733849J-1011912D01*
G01*
X133093481Y-137312124D01*
G75*
G02*
X132815418Y-139057885I-1011912J-733849D01*
G01*
X132815418Y-139057885D01*
G75*
G02*
X131069657Y-138779822I-733849J1011912D01*
G01*
G37*
G04 #@! TD.AperFunction*
G04 #@! TO.P,S33,2*
G04 #@! TO.N,Net-(D33-Pad1)*
G04 #@! TA.AperFunction,ComponentPad*
G36*
G01*
X132367566Y-132592246D02*
X131859796Y-132311942D01*
G75*
G02*
X131369568Y-130613508I604103J1094331D01*
G01*
X131369568Y-130613508D01*
G75*
G02*
X133068002Y-130123280I1094331J-604103D01*
G01*
X133575772Y-130403584D01*
G75*
G02*
X134066000Y-132102018I-604103J-1094331D01*
G01*
X134066000Y-132102018D01*
G75*
G02*
X132367566Y-132592246I-1094331J604103D01*
G01*
G37*
G04 #@! TD.AperFunction*
G04 #@! TD*
D13*
G04 #@! TO.P,R15,1*
G04 #@! TO.N,Net-(P2-Pad5)*
X112657000Y-36449000D03*
G04 #@! TO.P,R15,2*
G04 #@! TO.N,VSS*
X113657000Y-36449000D03*
G04 #@! TD*
D26*
G04 #@! TO.P,P2,1*
G04 #@! TO.N,VSS*
X113748000Y-33197400D03*
G04 #@! TO.P,P2,2*
G04 #@! TO.N,/mcu/TX1*
X113248000Y-33197400D03*
G04 #@! TO.P,P2,3*
G04 #@! TO.N,/mcu/RX1*
X112748000Y-33197400D03*
G04 #@! TO.P,P2,4*
G04 #@! TO.N,+5V*
X112248000Y-33197400D03*
G04 #@! TO.P,P2,5*
G04 #@! TO.N,Net-(P2-Pad5)*
X111748000Y-33197400D03*
G04 #@! TO.P,P2,6*
G04 #@! TO.N,/mcu/USB_DP*
X111248000Y-33197400D03*
G04 #@! TO.P,P2,7*
G04 #@! TO.N,/mcu/USB_DM*
X110748000Y-33197400D03*
G04 #@! TO.P,P2,8*
G04 #@! TO.N,Net-(P2-Pad8)*
X110248000Y-33197400D03*
G04 #@! TO.P,P2,9*
G04 #@! TO.N,+5V*
X109748000Y-33197400D03*
G04 #@! TO.P,P2,10*
G04 #@! TO.N,/mcu/RX1*
X109248000Y-33197400D03*
G04 #@! TO.P,P2,11*
G04 #@! TO.N,/mcu/TX1*
X108748000Y-33197400D03*
G04 #@! TO.P,P2,12*
G04 #@! TO.N,VSS*
X108248000Y-33197400D03*
D27*
G04 #@! TO.P,P2,13*
X108198000Y-31987400D03*
G04 #@! TO.P,P2,14*
G04 #@! TO.N,/mcu/TX1*
X108598000Y-31187400D03*
G04 #@! TO.P,P2,15*
G04 #@! TO.N,/mcu/RX1*
X109398000Y-31187400D03*
G04 #@! TO.P,P2,16*
G04 #@! TO.N,+5V*
X109648000Y-31987400D03*
G04 #@! TO.P,P2,17*
G04 #@! TO.N,Net-(P2-Pad17)*
X110198000Y-31187400D03*
G04 #@! TO.P,P2,18*
G04 #@! TO.N,/mcu/USB_DP*
X110598000Y-31987400D03*
G04 #@! TO.P,P2,19*
G04 #@! TO.N,/mcu/USB_DM*
X111398000Y-31987400D03*
G04 #@! TO.P,P2,20*
G04 #@! TO.N,Net-(P2-Pad20)*
X111798000Y-31187400D03*
G04 #@! TO.P,P2,21*
G04 #@! TO.N,+5V*
X112348000Y-31987400D03*
G04 #@! TO.P,P2,22*
G04 #@! TO.N,/mcu/RX1*
X112598000Y-31187400D03*
G04 #@! TO.P,P2,23*
G04 #@! TO.N,/mcu/TX1*
X113398000Y-31187400D03*
G04 #@! TO.P,P2,24*
G04 #@! TO.N,VSS*
X113798000Y-31987400D03*
D28*
G04 #@! TO.P,P2,25*
G04 #@! TO.N,/GND*
X115798000Y-31612400D03*
X106198000Y-31662400D03*
D29*
X116798000Y-27287400D03*
X105198000Y-27287400D03*
G04 #@! TD*
D30*
G04 #@! TO.N,+5V*
X142282000Y-137517000D03*
X148955000Y-93242000D03*
D31*
X139230000Y-35219000D03*
D30*
G04 #@! TO.N,/ledmatrix/CA1*
X119194000Y-119924000D03*
X98664700Y-88675200D03*
G04 #@! TO.N,/ledmatrix/CA2*
X148727000Y-104762000D03*
G04 #@! TO.N,/ledmatrix/CA3*
X119196000Y-118908000D03*
G04 #@! TO.N,/ledmatrix/CA5*
X116729000Y-116248000D03*
G04 #@! TO.N,/ledmatrix/CA7*
X119196000Y-115981000D03*
X146647000Y-130124000D03*
G04 #@! TO.N,/ledmatrix/CA9*
X119510000Y-120475000D03*
G04 #@! TO.N,/mcu/A0*
X134857000Y-122067000D03*
G04 #@! TO.N,/mcu/INTB*
X132877000Y-116852000D03*
X142781000Y-122471000D03*
G04 #@! TO.N,/mcu/LCD_KB*
X55161100Y-44194800D03*
X141518000Y-123332000D03*
G04 #@! TO.N,/mcu/LCD_KG*
X54308800Y-42692900D03*
X141788000Y-122754000D03*
G04 #@! TO.N,/mcu/LCD_KR*
X69790000Y-76045700D03*
X142400000Y-127350000D03*
G04 #@! TO.N,/mcu/MOSI*
X119938000Y-129775000D03*
G04 #@! TO.N,/mcu/RST*
X135391000Y-121678000D03*
G04 #@! TO.N,/mcu/RX0*
X137683000Y-126001000D03*
X147917000Y-119545000D03*
G04 #@! TO.N,/mcu/RX1*
X139827000Y-111887000D03*
X140078000Y-134255000D03*
X112649000Y-34417000D03*
X109272800Y-34168800D03*
G04 #@! TO.N,/mcu/RX2*
X126347000Y-127414000D03*
G04 #@! TO.N,/mcu/SCL0*
X122398000Y-120148000D03*
X147278000Y-126926000D03*
X129188000Y-123536000D03*
X116950000Y-128899000D03*
G04 #@! TO.N,/mcu/SCLK*
X122599000Y-129690000D03*
G04 #@! TO.N,/mcu/SDA0*
X146705000Y-127788000D03*
X122799000Y-120640000D03*
X128741000Y-124211000D03*
X117627000Y-128792000D03*
G04 #@! TO.N,/mcu/SDB*
X132588000Y-116275000D03*
X142910000Y-121838000D03*
G04 #@! TO.N,/mcu/SS1*
X137398000Y-123166000D03*
G04 #@! TO.N,/mcu/SWD_CLK*
X138237000Y-140221000D03*
G04 #@! TO.N,/mcu/SWD_DIO*
X107123000Y-132384000D03*
X107558000Y-136134000D03*
G04 #@! TO.N,/mcu/TX0*
X147405000Y-120030000D03*
X103156000Y-134707000D03*
X135410000Y-125977000D03*
X106902000Y-137922000D03*
G04 #@! TO.N,/mcu/TX1*
X139192000Y-134874000D03*
X140335000Y-112522000D03*
X108712000Y-34163000D03*
X113284000Y-34417000D03*
G04 #@! TO.N,/mcu/TX2*
X125241000Y-127322000D03*
X125521000Y-129571000D03*
G04 #@! TO.N,/mcu/USB_DM*
X139319000Y-109220000D03*
X110839000Y-34337300D03*
G04 #@! TO.N,/mcu/USB_DP*
X139954000Y-109474000D03*
G04 #@! TO.N,VDD*
X137402000Y-110199000D03*
X131559000Y-65062400D03*
X115280000Y-128005000D03*
X109635000Y-135602000D03*
G04 #@! TO.N,VSS*
X134044000Y-125680000D03*
X129072000Y-119076000D03*
X142628000Y-110998000D03*
X141942000Y-126908000D03*
X141460000Y-126623000D03*
X143617000Y-111406000D03*
X144018000Y-110240000D03*
X145399000Y-111131000D03*
X129946000Y-116649000D03*
X145745000Y-127453000D03*
X138976000Y-90727600D03*
X113379000Y-35769000D03*
X113919000Y-34417000D03*
D31*
X131810000Y-41589000D03*
D30*
G04 #@! TO.N,/mcu/MCU_RESET*
X147561000Y-127496000D03*
X132271000Y-126925000D03*
X147998000Y-90727600D03*
X114460000Y-136434000D03*
G04 #@! TO.N,/mcu/AUD*
X115854000Y-127560000D03*
G04 #@! TO.N,/mcu/PTA5*
X134545000Y-124816000D03*
X145642000Y-120711000D03*
G04 #@! TO.N,Net-(R6-Pad1)*
X136577000Y-124828000D03*
X146774000Y-119959000D03*
G04 #@! TO.N,Net-(R7-Pad1)*
X139154000Y-124829000D03*
X146762000Y-120623000D03*
G04 #@! TO.N,/Row1*
X133477000Y-63627000D03*
X140221000Y-118012000D03*
G04 #@! TO.N,/Row2*
X133536000Y-72217000D03*
X140214000Y-117040000D03*
G04 #@! TO.N,/Row3*
X125033000Y-90591700D03*
X137924000Y-116915000D03*
G04 #@! TO.N,/Row4*
X139939000Y-115499000D03*
X138684000Y-108966000D03*
G04 #@! TO.N,/Row5*
X138176000Y-132715000D03*
X126902000Y-126424000D03*
X109715000Y-120942000D03*
X142586000Y-132992000D03*
G04 #@! TO.N,Net-(P2-Pad17)*
X110214000Y-34181900D03*
G04 #@! TO.N,/Col3*
X144537000Y-124303000D03*
G04 #@! TO.N,/Col4*
X129219000Y-63246300D03*
X142392000Y-121412000D03*
X141416000Y-132268000D03*
G04 #@! TO.N,/Col5*
X141131000Y-131693000D03*
X107160000Y-97835200D03*
X110538000Y-118338000D03*
G04 #@! TO.N,/Col6*
X89842000Y-118524000D03*
X89786600Y-99524700D03*
G04 #@! TO.N,/Col7*
X70248500Y-77949800D03*
G04 #@! TO.N,/Col8*
X50183000Y-62204500D03*
G04 #@! TD*
D32*
G04 #@! TO.N,+5V*
X112321800Y-32723600D02*
X112248000Y-33197400D01*
X112321800Y-32647400D02*
X112321800Y-32723600D01*
X112322300Y-32624100D02*
X112321800Y-32647400D01*
X112348000Y-31987400D02*
X112322300Y-32624100D01*
X109674200Y-32723600D02*
X109748000Y-33197400D01*
X109674200Y-32647400D02*
X109674200Y-32723600D01*
X109674200Y-32647400D02*
X109673700Y-32624100D01*
X109648000Y-31987400D02*
X109673700Y-32624100D01*
D33*
X147128800Y-130454600D02*
X142282000Y-137517000D01*
X147186200Y-130352400D02*
X147198900Y-130315900D01*
X147150800Y-130422600D02*
X147186200Y-130352400D01*
X147128800Y-130454600D02*
X147150800Y-130422600D01*
X148112900Y-127687900D02*
X147198900Y-130315900D01*
X148131700Y-127623300D02*
X148135700Y-127601300D01*
X148120300Y-127666700D02*
X148131700Y-127623300D01*
X148112900Y-127687900D02*
X148120300Y-127666700D01*
X148227600Y-127100000D02*
X148135700Y-127601300D01*
X148227600Y-127100000D02*
X148234200Y-127058600D01*
X149250700Y-119730000D02*
X148234200Y-127058600D01*
X149265000Y-119514300D02*
X149259600Y-119442700D01*
X149260700Y-119657800D02*
X149265000Y-119514300D01*
X149250700Y-119730000D02*
X149260700Y-119657800D01*
X148144400Y-104806400D02*
X149259600Y-119442700D01*
X148143600Y-104795400D02*
X148144400Y-104806400D01*
X148142700Y-104773000D02*
X148143600Y-104795400D01*
X148142700Y-104761800D02*
X148142700Y-104773000D01*
X148143700Y-101355500D02*
X148142700Y-104761800D01*
X148143800Y-101308500D02*
X148143700Y-101355500D01*
X148148500Y-101215300D02*
X148143800Y-101308500D01*
X148153100Y-101170500D02*
X148148500Y-101215300D01*
X148955000Y-93242000D02*
X148153100Y-101170500D01*
D32*
X112328500Y-32469900D02*
X112145600Y-32083000D01*
X112328500Y-32469900D02*
X112542000Y-32099000D01*
X109667500Y-32469900D02*
X109454000Y-32099000D01*
X109667500Y-32469900D02*
X109850400Y-32083000D01*
D33*
X139230000Y-37869000D02*
X139320000Y-37959000D01*
X139230000Y-35219000D02*
X139230000Y-37869000D01*
D32*
G04 #@! TO.N,/ledmatrix/CA1*
X184837700Y-126387800D02*
X185898000Y-121801700D01*
X184779200Y-126640100D02*
X184837700Y-126387800D01*
X184556500Y-127100800D02*
X184779200Y-126640100D01*
X184395900Y-127302500D02*
X184556500Y-127100800D01*
X182410400Y-129794500D02*
X184395900Y-127302500D01*
X182209800Y-130110500D02*
X182167100Y-130226800D01*
X182332500Y-129892400D02*
X182209800Y-130110500D01*
X182410400Y-129794500D02*
X182332500Y-129892400D01*
X178789200Y-139414500D02*
X182167100Y-130226800D01*
X178782300Y-139433200D02*
X178789200Y-139414500D01*
X178766900Y-139470500D02*
X178782300Y-139433200D01*
X178758800Y-139488000D02*
X178766900Y-139470500D01*
X176637000Y-144095500D02*
X178758800Y-139488000D01*
X176579600Y-144220400D02*
X176637000Y-144095500D01*
X176434400Y-144456500D02*
X176579600Y-144220400D01*
X176346900Y-144566500D02*
X176434400Y-144456500D01*
X174361400Y-147058500D02*
X176346900Y-144566500D01*
X174217400Y-147269000D02*
X174180100Y-147345600D01*
X174308900Y-147124300D02*
X174217400Y-147269000D01*
X174361400Y-147058500D02*
X174308900Y-147124300D01*
X169794000Y-156334700D02*
X174180100Y-147345600D01*
X169945500Y-162576000D02*
X169794000Y-156334700D01*
X169986900Y-162871400D02*
X170022700Y-162964000D01*
X169947900Y-162675100D02*
X169986900Y-162871400D01*
X169945500Y-162576000D02*
X169947900Y-162675100D01*
X170327200Y-163753100D02*
X170022700Y-162964000D01*
X170419700Y-163993100D02*
X170327200Y-163753100D01*
X170440400Y-164507500D02*
X170419700Y-163993100D01*
X170295400Y-164998700D02*
X170440400Y-164507500D01*
X169998700Y-165419300D02*
X170295400Y-164998700D01*
X169790500Y-165570700D02*
X169998700Y-165419300D01*
X168526300Y-166489300D02*
X169790500Y-165570700D01*
X168525700Y-166489700D02*
X168526300Y-166489300D01*
X168439600Y-166552200D02*
X168525700Y-166489700D01*
X168430000Y-166559200D02*
X168439600Y-166552200D01*
X168429300Y-166559700D02*
X168430000Y-166559200D01*
X168291400Y-166658000D02*
X168429300Y-166559700D01*
X167980700Y-166790700D02*
X168291400Y-166658000D01*
X167651500Y-166853300D02*
X167980700Y-166790700D01*
X167313800Y-166844000D02*
X167651500Y-166853300D01*
X167149900Y-166803200D02*
X167313800Y-166844000D01*
X161672600Y-165439600D02*
X167149900Y-166803200D01*
X161436400Y-165380800D02*
X161672600Y-165439600D01*
X161022400Y-165124400D02*
X161436400Y-165380800D01*
X160864500Y-164939000D02*
X161022400Y-165124400D01*
X139295300Y-139615600D02*
X160864500Y-164939000D01*
X139138800Y-139431600D02*
X139295300Y-139615600D01*
X139026900Y-138964100D02*
X139138800Y-139431600D01*
X139083100Y-138729500D02*
X139026900Y-138964100D01*
X139536400Y-136840500D02*
X139083100Y-138729500D01*
X139544500Y-136806800D02*
X139536400Y-136840500D01*
X139567000Y-136742300D02*
X139544500Y-136806800D01*
X139581700Y-136710800D02*
X139567000Y-136742300D01*
X139613900Y-136641700D02*
X139581700Y-136710800D01*
X139614000Y-136641600D02*
X139613900Y-136641700D01*
X140173400Y-135441900D02*
X139614000Y-136641600D01*
X140210900Y-135361500D02*
X140173400Y-135441900D01*
X140324800Y-135224600D02*
X140210900Y-135361500D01*
X140397400Y-135172900D02*
X140324800Y-135224600D01*
X142880600Y-133406000D02*
X140397400Y-135172900D01*
X143053800Y-132768500D02*
X142991900Y-132686400D01*
X143103900Y-132968200D02*
X143053800Y-132768500D01*
X143072300Y-133171600D02*
X143103900Y-132968200D01*
X142964100Y-133346700D02*
X143072300Y-133171600D01*
X142880600Y-133406000D02*
X142964100Y-133346700D01*
X141841400Y-131158200D02*
X142991900Y-132686400D01*
X141524700Y-130883300D02*
X141389800Y-130842300D01*
X141756700Y-131045600D02*
X141524700Y-130883300D01*
X141841400Y-131158200D02*
X141756700Y-131045600D01*
X138477300Y-129956200D02*
X141389800Y-130842300D01*
X138294400Y-129914700D02*
X138232000Y-129909800D01*
X138417400Y-129938000D02*
X138294400Y-129914700D01*
X138477300Y-129956200D02*
X138417400Y-129938000D01*
X135118400Y-129663500D02*
X138232000Y-129909800D01*
X134724000Y-129632600D02*
X135118400Y-129663500D01*
X133961000Y-129402500D02*
X134724000Y-129632600D01*
X133609900Y-129207300D02*
X133961000Y-129402500D01*
X133590300Y-129196400D02*
X133609900Y-129207300D01*
X133343800Y-129075600D02*
X133258700Y-129044500D01*
X133509100Y-129151200D02*
X133343800Y-129075600D01*
X133590300Y-129196400D02*
X133509100Y-129151200D01*
X131703900Y-128476000D02*
X133258700Y-129044500D01*
X131612300Y-128442400D02*
X131703900Y-128476000D01*
X131439800Y-128355200D02*
X131612300Y-128442400D01*
X131358000Y-128301000D02*
X131439800Y-128355200D01*
X121886000Y-122016000D02*
X131358000Y-128301000D01*
X121823900Y-121974800D02*
X121886000Y-122016000D01*
X121709100Y-121882800D02*
X121823900Y-121974800D01*
X121655000Y-121830900D02*
X121709100Y-121882800D01*
X119862000Y-120108600D02*
X121655000Y-121830900D01*
X119654000Y-119980900D02*
X119572300Y-119970700D01*
X119802700Y-120051600D02*
X119654000Y-119980900D01*
X119862000Y-120108600D02*
X119802700Y-120051600D01*
X119194000Y-119924000D02*
X119572300Y-119970700D01*
X89280800Y-99572700D02*
X89027000Y-96901000D01*
X89302200Y-99682300D02*
X89316100Y-99716600D01*
X89284300Y-99609800D02*
X89302200Y-99682300D01*
X89280800Y-99572700D02*
X89284300Y-99609800D01*
X89885600Y-101112900D02*
X89316100Y-99716600D01*
X90022100Y-101447400D02*
X89885600Y-101112900D01*
X90076400Y-102169400D02*
X90022100Y-101447400D01*
X89991900Y-102519400D02*
X90076400Y-102169400D01*
X89245600Y-105617100D02*
X89991900Y-102519400D01*
X89204100Y-105868700D02*
X89202500Y-105954000D01*
X89225800Y-105699000D02*
X89204100Y-105868700D01*
X89245600Y-105617100D02*
X89225800Y-105699000D01*
X89027000Y-115951000D02*
X89202500Y-105954000D01*
X108815900Y-59717600D02*
X104720000Y-55274000D01*
X108930400Y-59842000D02*
X108815900Y-59717600D01*
X109065100Y-60150200D02*
X108930400Y-59842000D01*
X109078600Y-60317800D02*
X109065100Y-60150200D01*
X109478200Y-65262900D02*
X109078600Y-60317800D01*
X109502400Y-65563700D02*
X109478200Y-65262900D01*
X109416600Y-66158800D02*
X109502400Y-65563700D01*
X109308800Y-66439400D02*
X109416600Y-66158800D01*
X108355600Y-68921600D02*
X109308800Y-66439400D01*
X108254900Y-69315700D02*
X108252500Y-69451700D01*
X108306800Y-69048600D02*
X108254900Y-69315700D01*
X108355600Y-68921600D02*
X108306800Y-69048600D01*
X108077000Y-79449000D02*
X108252500Y-69451700D01*
X110466900Y-119224400D02*
X119194000Y-119924000D01*
X110434400Y-119221100D02*
X110466900Y-119224400D01*
X107915500Y-118925600D02*
X110434400Y-119221100D01*
X107911800Y-118925100D02*
X107915500Y-118925600D01*
X104800700Y-118551700D02*
X107911800Y-118925100D01*
X104787400Y-118549800D02*
X104800700Y-118551700D01*
X89027000Y-115951000D02*
X104787400Y-118549800D01*
X102570000Y-85319700D02*
X108077000Y-79449000D01*
X102548800Y-85342400D02*
X102570000Y-85319700D01*
X102503600Y-85385700D02*
X102548800Y-85342400D01*
X102479100Y-85406700D02*
X102503600Y-85385700D01*
X98664700Y-88675200D02*
X102479100Y-85406700D01*
X89027000Y-58801000D02*
X104720000Y-55274000D01*
X104913200Y-41972500D02*
X105537000Y-41348700D01*
X104913200Y-42048700D02*
X104913200Y-41972500D01*
X104912900Y-42055900D02*
X104913200Y-42048700D01*
X104518500Y-46211500D02*
X104912900Y-42055900D01*
X104555500Y-46955900D02*
X104638900Y-47192800D01*
X104494900Y-46460100D02*
X104555500Y-46955900D01*
X104518500Y-46211500D02*
X104494900Y-46460100D01*
X105773700Y-50412500D02*
X104638900Y-47192800D01*
X105826400Y-50561700D02*
X105773700Y-50412500D01*
X105869400Y-50877400D02*
X105826400Y-50561700D01*
X105858300Y-51037700D02*
X105869400Y-50877400D01*
X105817900Y-51616300D02*
X105858300Y-51037700D01*
X105811600Y-51707000D02*
X105817900Y-51616300D01*
X105777900Y-51885800D02*
X105811600Y-51707000D01*
X105751100Y-51971400D02*
X105777900Y-51885800D01*
X104720000Y-55274000D02*
X105751100Y-51971400D01*
X185699100Y-122661900D02*
X185370500Y-122123800D01*
X185699100Y-122661900D02*
X186230500Y-122322600D01*
X170181200Y-155541200D02*
X170380400Y-156139500D01*
X170181200Y-155541200D02*
X169587000Y-155752300D01*
X169815400Y-157217300D02*
X169363300Y-156777900D01*
X169815400Y-157217300D02*
X170245700Y-156756500D01*
X119496500Y-119961300D02*
X119232400Y-120045100D01*
X119496500Y-119961300D02*
X119260600Y-119815900D01*
X89110500Y-97779900D02*
X88628500Y-97373300D01*
X89110500Y-97779900D02*
X89507300Y-97289900D01*
X89042500Y-115068300D02*
X89475900Y-115526200D01*
X89042500Y-115068300D02*
X88593300Y-115510800D01*
X108092500Y-78566300D02*
X108525900Y-79024200D01*
X108092500Y-78566300D02*
X107643300Y-79008800D01*
X118890200Y-119899600D02*
X119150500Y-119804700D01*
X118890200Y-119899600D02*
X119132100Y-120034900D01*
X89898100Y-116094600D02*
X89382000Y-116456900D01*
X89898100Y-116094600D02*
X89525600Y-115585900D01*
X107473000Y-80092900D02*
X107459200Y-79462600D01*
X107473000Y-80092900D02*
X108103000Y-80066400D01*
X98896200Y-88476900D02*
X98780000Y-88728500D01*
X98896200Y-88476900D02*
X98629800Y-88553100D01*
X89888400Y-58607400D02*
X89545900Y-59136700D01*
X89888400Y-58607400D02*
X89352300Y-58275500D01*
G04 #@! TO.N,/ledmatrix/CA2*
X73976500Y-106654600D02*
X69977000Y-117549000D01*
X73757700Y-105154700D02*
X73595000Y-104998400D01*
X73981400Y-105549400D02*
X73757700Y-105154700D01*
X74083000Y-105991600D02*
X73981400Y-105549400D01*
X74054600Y-106441600D02*
X74083000Y-105991600D01*
X73976500Y-106654600D02*
X74054600Y-106441600D01*
X72985500Y-104411800D02*
X73595000Y-104998400D01*
X72913900Y-104342900D02*
X72985500Y-104411800D01*
X72795600Y-104181400D02*
X72913900Y-104342900D01*
X72751600Y-104092600D02*
X72795600Y-104181400D01*
X69977000Y-98499000D02*
X72751600Y-104092600D01*
X100868200Y-64705200D02*
X89027000Y-77851000D01*
X100885200Y-64686300D02*
X100868200Y-64705200D01*
X100920600Y-64650300D02*
X100885200Y-64686300D01*
X100938300Y-64633800D02*
X100920600Y-64650300D01*
X104785000Y-61043000D02*
X100938300Y-64633800D01*
X104795600Y-61033100D02*
X104785000Y-61043000D01*
X104822500Y-61022500D02*
X104795600Y-61033100D01*
X104837000Y-61022500D02*
X104822500Y-61022500D01*
X104913200Y-61022500D02*
X104837000Y-61022500D01*
X105537000Y-60398700D02*
X104913200Y-61022500D01*
X149363200Y-70865000D02*
X149987000Y-70241200D01*
X149363200Y-70941200D02*
X149363200Y-70865000D01*
X149363200Y-70945300D02*
X149363200Y-70941200D01*
X149362300Y-70953700D02*
X149363200Y-70945300D01*
X149361400Y-70957700D02*
X149362300Y-70953700D01*
X149005800Y-72564000D02*
X149361400Y-70957700D01*
X148980900Y-72744600D02*
X148982400Y-72804800D01*
X148992600Y-72624000D02*
X148980900Y-72744600D01*
X149005800Y-72564000D02*
X148992600Y-72624000D01*
X149463000Y-93230000D02*
X148982400Y-72804800D01*
X149463400Y-93246800D02*
X149463000Y-93230000D01*
X149462000Y-93279600D02*
X149463400Y-93246800D01*
X149460200Y-93296400D02*
X149462000Y-93279600D01*
X148609000Y-101207700D02*
X149460200Y-93296400D01*
X148600100Y-101357400D02*
X148602000Y-101407600D01*
X148603600Y-101258200D02*
X148600100Y-101357400D01*
X148609000Y-101207700D02*
X148603600Y-101258200D01*
X148727000Y-104762000D02*
X148602000Y-101407600D01*
X148727000Y-104762000D02*
X163263000Y-115964000D01*
X163263000Y-115964000D02*
X168634000Y-113751700D01*
X150271700Y-69617400D02*
X149987000Y-70241200D01*
X150271700Y-69541200D02*
X150271700Y-69617400D01*
X150271700Y-50240900D02*
X150271700Y-69541200D01*
X149908700Y-49230100D02*
X149795000Y-49120600D01*
X150086300Y-49488000D02*
X149908700Y-49230100D01*
X150208900Y-49776200D02*
X150086300Y-49488000D01*
X150271600Y-50083000D02*
X150208900Y-49776200D01*
X150271700Y-50240900D02*
X150271600Y-50083000D01*
X149185500Y-48534000D02*
X149795000Y-49120600D01*
X149149000Y-48497200D02*
X149185500Y-48534000D01*
X144281800Y-43373700D02*
X149149000Y-48497200D01*
X144271700Y-43363100D02*
X144281800Y-43373700D01*
X144260800Y-43335900D02*
X144271700Y-43363100D01*
X144260800Y-43321200D02*
X144260800Y-43335900D01*
X144260800Y-43245000D02*
X144260800Y-43321200D01*
X143637000Y-42621200D02*
X144260800Y-43245000D01*
X163055500Y-117515200D02*
X163263000Y-115964000D01*
X163055500Y-117515200D02*
X163046100Y-117596300D01*
X162713900Y-120993900D02*
X163046100Y-117596300D01*
X162708000Y-121045600D02*
X162713900Y-120993900D01*
X159630200Y-144414200D02*
X162708000Y-121045600D01*
X159627200Y-144437400D02*
X159630200Y-144414200D01*
X159614200Y-144481900D02*
X159627200Y-144437400D01*
X159604300Y-144503200D02*
X159614200Y-144481900D01*
X159572100Y-144572300D02*
X159604300Y-144503200D01*
X159572000Y-144572400D02*
X159572100Y-144572300D01*
X159012600Y-145772100D02*
X159572000Y-144572400D01*
X158995800Y-145808200D02*
X159012600Y-145772100D01*
X158944700Y-145869400D02*
X158995800Y-145808200D01*
X158912300Y-145892200D02*
X158944700Y-145869400D01*
X157324300Y-147015000D02*
X158912300Y-145892200D01*
X70281300Y-116720200D02*
X70540400Y-117295000D01*
X70281300Y-116720200D02*
X69711800Y-116990800D01*
X70369300Y-99289900D02*
X69773800Y-99082600D01*
X70369300Y-99289900D02*
X70564600Y-98690400D01*
X89617900Y-77195000D02*
X89644400Y-77825000D01*
X89617900Y-77195000D02*
X88988600Y-77234200D01*
X148715600Y-104457400D02*
X148840400Y-104704800D01*
X148715600Y-104457400D02*
X148609600Y-104713400D01*
X148968400Y-104948100D02*
X148698400Y-104885700D01*
X148968400Y-104948100D02*
X148839400Y-104702900D01*
X167817700Y-114087900D02*
X168065900Y-113508300D01*
X167817700Y-114087900D02*
X168402100Y-114324500D01*
X158045200Y-146505300D02*
X157932300Y-147125700D01*
X158045200Y-146505300D02*
X157422700Y-146404900D01*
G04 #@! TO.N,/ledmatrix/CA3*
X50927500Y-63573700D02*
X69977000Y-79449000D01*
X50684100Y-62120600D02*
X50927500Y-63573700D01*
X50679100Y-62094500D02*
X50677000Y-62085600D01*
X50682600Y-62111900D02*
X50679100Y-62094500D01*
X50684100Y-62120600D02*
X50682600Y-62111900D01*
X48668900Y-53743000D02*
X50677000Y-62085600D01*
X48637000Y-53627900D02*
X48623700Y-53590000D01*
X48659400Y-53703400D02*
X48637000Y-53627900D01*
X48668900Y-53743000D02*
X48659400Y-53703400D01*
X47488900Y-50370300D02*
X48623700Y-53590000D01*
X47405400Y-50133100D02*
X47488900Y-50370300D01*
X47344800Y-49637300D02*
X47405400Y-50133100D01*
X47368500Y-49388700D02*
X47344800Y-49637300D01*
X47763400Y-45233400D02*
X47368500Y-49388700D01*
X47763700Y-45226200D02*
X47763400Y-45233400D01*
X47763700Y-45150000D02*
X47763700Y-45226200D01*
X48387500Y-44526200D02*
X47763700Y-45150000D01*
X110851600Y-46942300D02*
X108077000Y-41348700D01*
X111013900Y-47192600D02*
X111085500Y-47261500D01*
X110895600Y-47031100D02*
X111013900Y-47192600D01*
X110851600Y-46942300D02*
X110895600Y-47031100D01*
X111695000Y-47848100D02*
X111085500Y-47261500D01*
X111819600Y-47967800D02*
X111695000Y-47848100D01*
X112010200Y-48256800D02*
X111819600Y-47967800D01*
X112071800Y-48419900D02*
X112010200Y-48256800D01*
X123969300Y-79981200D02*
X112071800Y-48419900D01*
X123971700Y-79987700D02*
X123969300Y-79981200D01*
X123974200Y-80001200D02*
X123971700Y-79987700D01*
X123974200Y-80008100D02*
X123974200Y-80001200D01*
X123974200Y-80084300D02*
X123974200Y-80008100D01*
X124598000Y-80708100D02*
X123974200Y-80084300D01*
X25198800Y-43902400D02*
X24575000Y-44526200D01*
X25275000Y-43902400D02*
X25198800Y-43902400D01*
X25287500Y-43901500D02*
X25291500Y-43900600D01*
X25279100Y-43902400D02*
X25287500Y-43901500D01*
X25275000Y-43902400D02*
X25279100Y-43902400D01*
X26897800Y-43545000D02*
X25291500Y-43900600D01*
X26955100Y-43532400D02*
X26897800Y-43545000D01*
X27073900Y-43520400D02*
X26955100Y-43532400D01*
X27133600Y-43521500D02*
X27073900Y-43520400D01*
X47686100Y-43902400D02*
X27133600Y-43521500D01*
X47687500Y-43902400D02*
X47686100Y-43902400D01*
X47763700Y-43902400D02*
X47687500Y-43902400D01*
X48387500Y-44526200D02*
X47763700Y-43902400D01*
X24900100Y-62949900D02*
X24575000Y-63573700D01*
X24900100Y-62873700D02*
X24900100Y-62949900D01*
X24900100Y-54106900D02*
X24900100Y-62873700D01*
X24855300Y-53713500D02*
X24811700Y-53590000D01*
X24900000Y-53973600D02*
X24855300Y-53713500D01*
X24900100Y-54106900D02*
X24900000Y-53973600D01*
X23676900Y-50370300D02*
X24811700Y-53590000D01*
X23593500Y-50133400D02*
X23676900Y-50370300D01*
X23532900Y-49637600D02*
X23593500Y-50133400D01*
X23556500Y-49389000D02*
X23532900Y-49637600D01*
X23950900Y-45233400D02*
X23556500Y-49389000D01*
X23951200Y-45226200D02*
X23950900Y-45233400D01*
X23951200Y-45150000D02*
X23951200Y-45226200D01*
X24575000Y-44526200D02*
X23951200Y-45150000D01*
X150991700Y-98103900D02*
X149987000Y-72781200D01*
X150991900Y-98116000D02*
X150991700Y-98103900D01*
X150991900Y-99516000D02*
X150991900Y-98116000D01*
X150991800Y-99555800D02*
X150991900Y-99516000D01*
X150971400Y-99632800D02*
X150991800Y-99555800D01*
X150951700Y-99667200D02*
X150971400Y-99632800D01*
X149987000Y-101356000D02*
X150951700Y-99667200D01*
X50927500Y-101674000D02*
X69977000Y-79449000D01*
X139899600Y-137025800D02*
X140060300Y-138964000D01*
X139896300Y-136986200D02*
X139899600Y-137025800D01*
X139910400Y-136907700D02*
X139896300Y-136986200D01*
X139927100Y-136871800D02*
X139910400Y-136907700D01*
X139959300Y-136802700D02*
X139927100Y-136871800D01*
X139959400Y-136802600D02*
X139959300Y-136802700D01*
X140518800Y-135602900D02*
X139959400Y-136802600D01*
X140535400Y-135567300D02*
X140518800Y-135602900D01*
X140586000Y-135506400D02*
X140535400Y-135567300D01*
X140618300Y-135483400D02*
X140586000Y-135506400D01*
X143101500Y-133716500D02*
X140618300Y-135483400D01*
X143404600Y-132601000D02*
X143296400Y-132457200D01*
X143492300Y-132950300D02*
X143404600Y-132601000D01*
X143437000Y-133306300D02*
X143492300Y-132950300D01*
X143247700Y-133612700D02*
X143437000Y-133306300D01*
X143101500Y-133716500D02*
X143247700Y-133612700D01*
X142145800Y-130929000D02*
X143296400Y-132457200D01*
X141693300Y-130536300D02*
X141500700Y-130477700D01*
X142024900Y-130768200D02*
X141693300Y-130536300D01*
X142145800Y-130929000D02*
X142024900Y-130768200D01*
X138588200Y-129591600D02*
X141500700Y-130477700D01*
X138345000Y-129536400D02*
X138261500Y-129529800D01*
X138508600Y-129567400D02*
X138345000Y-129536400D01*
X138588200Y-129591600D02*
X138508600Y-129567400D01*
X135149600Y-129284900D02*
X138261500Y-129529800D01*
X134794400Y-129257100D02*
X135149600Y-129284900D01*
X134109800Y-129050700D02*
X134794400Y-129257100D01*
X133794800Y-128875500D02*
X134109800Y-129050700D01*
X133775200Y-128864500D02*
X133794800Y-128875500D01*
X133488200Y-128723900D02*
X133391000Y-128688400D01*
X133680700Y-128811900D02*
X133488200Y-128723900D01*
X133775200Y-128864500D02*
X133680700Y-128811900D01*
X131833900Y-128117700D02*
X133391000Y-128688400D01*
X131764300Y-128092300D02*
X131833900Y-128117700D01*
X131631600Y-128025200D02*
X131764300Y-128092300D01*
X131568700Y-127983500D02*
X131631600Y-128025200D01*
X122096700Y-121698500D02*
X131568700Y-127983500D01*
X122048000Y-121666200D02*
X122096700Y-121698500D01*
X121956400Y-121592400D02*
X122048000Y-121666200D01*
X121913400Y-121550700D02*
X121956400Y-121592400D01*
X119196000Y-118908000D02*
X121913400Y-121550700D01*
X69298800Y-78883800D02*
X69927200Y-78833100D01*
X69298800Y-78883800D02*
X69362200Y-79511100D01*
X51605700Y-64138900D02*
X50977300Y-64189600D01*
X51605700Y-64138900D02*
X51542300Y-63511600D01*
X50781600Y-62703000D02*
X51291300Y-63074200D01*
X50781600Y-62703000D02*
X50420700Y-63220000D01*
X108469300Y-42139600D02*
X107873800Y-41932300D01*
X108469300Y-42139600D02*
X108664600Y-41540100D01*
X150022000Y-73663400D02*
X149563100Y-73231000D01*
X150022000Y-73663400D02*
X150445100Y-73196000D01*
X150424900Y-100589400D02*
X150584800Y-101199300D01*
X150424900Y-100589400D02*
X149818400Y-100761500D01*
X69402400Y-80119300D02*
X69360400Y-79490200D01*
X69402400Y-80119300D02*
X70030600Y-80064600D01*
X51502100Y-101003700D02*
X51544100Y-101632800D01*
X51502100Y-101003700D02*
X50873900Y-101058400D01*
X139987300Y-138084100D02*
X140464400Y-138496400D01*
X139987300Y-138084100D02*
X139584600Y-138569400D01*
X119414500Y-119120500D02*
X119153400Y-119027700D01*
X119414500Y-119120500D02*
X119314400Y-118862100D01*
G04 #@! TO.N,/ledmatrix/CA4*
X90005500Y-44352900D02*
X89027000Y-39751000D01*
X90058900Y-44603100D02*
X90005500Y-44352900D01*
X90052200Y-45118700D02*
X90058900Y-44603100D01*
X89991900Y-45369400D02*
X90052200Y-45118700D01*
X89245600Y-48467100D02*
X89991900Y-45369400D01*
X89245600Y-48467100D02*
X89239200Y-48494700D01*
X87112600Y-58084500D02*
X89239200Y-48494700D01*
X87110800Y-58096900D02*
X87110800Y-58101000D01*
X87111700Y-58088500D02*
X87110800Y-58096900D01*
X87112600Y-58084500D02*
X87111700Y-58088500D01*
X87110800Y-58177200D02*
X87110800Y-58101000D01*
X86487000Y-58801000D02*
X87110800Y-58177200D01*
X48672600Y-72806300D02*
X50927500Y-82624000D01*
X48637900Y-72677900D02*
X48623700Y-72637500D01*
X48662900Y-72764000D02*
X48637900Y-72677900D01*
X48672600Y-72806300D02*
X48662900Y-72764000D01*
X47488900Y-69417800D02*
X48623700Y-72637500D01*
X47405400Y-69180600D02*
X47488900Y-69417800D01*
X47344800Y-68684800D02*
X47405400Y-69180600D01*
X47368500Y-68436200D02*
X47344800Y-68684800D01*
X47763400Y-64280900D02*
X47368500Y-68436200D01*
X47763700Y-64273700D02*
X47763400Y-64280900D01*
X47763700Y-64197500D02*
X47763700Y-64273700D01*
X48387500Y-63573700D02*
X47763700Y-64197500D01*
X128105500Y-66270600D02*
X127127000Y-61668700D01*
X128158900Y-66520800D02*
X128105500Y-66270600D01*
X128152200Y-67036400D02*
X128158900Y-66520800D01*
X128091900Y-67287100D02*
X128152200Y-67036400D01*
X127345600Y-70384800D02*
X128091900Y-67287100D01*
X127297300Y-70755900D02*
X127307900Y-70881200D01*
X127316300Y-70506400D02*
X127297300Y-70755900D01*
X127345600Y-70384800D02*
X127316300Y-70506400D01*
X128139300Y-80622700D02*
X127307900Y-70881200D01*
X128140900Y-80642000D02*
X128139300Y-80622700D01*
X128142800Y-80682400D02*
X128140900Y-80642000D01*
X128142900Y-80703400D02*
X128142800Y-80682400D01*
X128166800Y-85777300D02*
X128142900Y-80703400D01*
X128167600Y-85914400D02*
X128166800Y-85777300D01*
X128135700Y-86189800D02*
X128167600Y-85914400D01*
X128102900Y-86326500D02*
X128135700Y-86189800D01*
X127356600Y-89424200D02*
X128102900Y-86326500D01*
X127315100Y-89675800D02*
X127313600Y-89759400D01*
X127336800Y-89506100D02*
X127315100Y-89675800D01*
X127356600Y-89424200D02*
X127336800Y-89506100D01*
X127127000Y-99769000D02*
X127313600Y-89759400D01*
X31207100Y-109203400D02*
X31877000Y-120724000D01*
X30944200Y-108376400D02*
X30733000Y-108173400D01*
X31190000Y-108910100D02*
X30944200Y-108376400D01*
X31207100Y-109203400D02*
X31190000Y-108910100D01*
X30123500Y-107586800D02*
X30733000Y-108173400D01*
X30051900Y-107517900D02*
X30123500Y-107586800D01*
X29933600Y-107356400D02*
X30051900Y-107517900D01*
X29889600Y-107267600D02*
X29933600Y-107356400D01*
X27115000Y-101674000D02*
X29889600Y-107267600D01*
X25198800Y-82000200D02*
X24575000Y-82624000D01*
X25198800Y-81924000D02*
X25198800Y-82000200D01*
X25198800Y-81919900D02*
X25198800Y-81924000D01*
X25199700Y-81911500D02*
X25198800Y-81919900D01*
X25200600Y-81907500D02*
X25199700Y-81911500D01*
X27327200Y-72317400D02*
X25200600Y-81907500D01*
X27333600Y-72289800D02*
X27327200Y-72317400D01*
X28079900Y-69192100D02*
X27333600Y-72289800D01*
X28146900Y-68425800D02*
X28093500Y-68175600D01*
X28140200Y-68941400D02*
X28146900Y-68425800D01*
X28079900Y-69192100D02*
X28140200Y-68941400D01*
X27115000Y-63573700D02*
X28093500Y-68175600D01*
X89210600Y-40614600D02*
X88685300Y-40265900D01*
X89210600Y-40614600D02*
X89548700Y-40082300D01*
X50729900Y-81763500D02*
X51260900Y-82103600D01*
X50729900Y-81763500D02*
X50400500Y-82301200D01*
X127310600Y-62532300D02*
X126785300Y-62183600D01*
X127310600Y-62532300D02*
X127648700Y-62000000D01*
X127143500Y-98886300D02*
X127576400Y-99344700D01*
X127143500Y-98886300D02*
X126693800Y-99328300D01*
X31825700Y-119842600D02*
X32292500Y-120266500D01*
X31825700Y-119842600D02*
X31411300Y-120317700D01*
X27507300Y-102464900D02*
X26911800Y-102257600D01*
X27507300Y-102464900D02*
X27702600Y-101865400D01*
X27298600Y-64437300D02*
X26773300Y-64088600D01*
X27298600Y-64437300D02*
X27636700Y-63905000D01*
G04 #@! TO.N,/ledmatrix/CA5*
X72751600Y-46942300D02*
X69977000Y-41348700D01*
X72913900Y-47192600D02*
X72985500Y-47261500D01*
X72795600Y-47031100D02*
X72913900Y-47192600D01*
X72751600Y-46942300D02*
X72795600Y-47031100D01*
X73595000Y-47848100D02*
X72985500Y-47261500D01*
X73710900Y-47959500D02*
X73595000Y-47848100D01*
X73891900Y-48225000D02*
X73710900Y-47959500D01*
X73953400Y-48373500D02*
X73891900Y-48225000D01*
X85857400Y-77121800D02*
X73953400Y-48373500D01*
X85860300Y-77128700D02*
X85857400Y-77121800D01*
X85863200Y-77143500D02*
X85860300Y-77128700D01*
X85863200Y-77151000D02*
X85863200Y-77143500D01*
X85863200Y-77227200D02*
X85863200Y-77151000D01*
X86487000Y-77851000D02*
X85863200Y-77227200D01*
X109055500Y-65000600D02*
X108077000Y-60398700D01*
X109124800Y-65325100D02*
X109055500Y-65000600D01*
X109073000Y-65989700D02*
X109124800Y-65325100D01*
X108953000Y-66302800D02*
X109073000Y-65989700D01*
X107999900Y-68785000D02*
X108953000Y-66302800D01*
X107918800Y-69042800D02*
X107902200Y-69133700D01*
X107967200Y-68870200D02*
X107918800Y-69042800D01*
X107999900Y-68785000D02*
X107967200Y-68870200D01*
X106162000Y-78735400D02*
X107902200Y-69133700D01*
X106160800Y-78745600D02*
X106160800Y-78749000D01*
X106161400Y-78738800D02*
X106160800Y-78745600D01*
X106162000Y-78735400D02*
X106161400Y-78738800D01*
X106160800Y-78825200D02*
X106160800Y-78749000D01*
X105537000Y-79449000D02*
X106160800Y-78825200D01*
X110851600Y-104092600D02*
X108077000Y-98499000D01*
X111013900Y-104342900D02*
X111085500Y-104411800D01*
X110895600Y-104181400D02*
X111013900Y-104342900D01*
X110851600Y-104092600D02*
X110895600Y-104181400D01*
X111695000Y-104998400D02*
X111085500Y-104411800D01*
X111805600Y-105104900D02*
X111695000Y-104998400D01*
X111981300Y-105357500D02*
X111805600Y-105104900D01*
X112042100Y-105497300D02*
X111981300Y-105357500D01*
X116729000Y-116248000D02*
X112042100Y-105497300D01*
X70369300Y-42139600D02*
X69773800Y-41932300D01*
X70369300Y-42139600D02*
X70564600Y-41540100D01*
X108260600Y-61262300D02*
X107735300Y-60913600D01*
X108260600Y-61262300D02*
X108598700Y-60730000D01*
X108469300Y-99289900D02*
X107873800Y-99082600D01*
X108469300Y-99289900D02*
X108664600Y-98690400D01*
X116607200Y-115968600D02*
X116813700Y-116153400D01*
X116607200Y-115968600D02*
X116602100Y-116245600D01*
G04 #@! TO.N,/ledmatrix/CA6*
X149363200Y-99439800D02*
X149987000Y-98816000D01*
X149363200Y-99516000D02*
X149363200Y-99439800D01*
X149363200Y-99520100D02*
X149363200Y-99516000D01*
X149362300Y-99528500D02*
X149363200Y-99520100D01*
X149361400Y-99532500D02*
X149362300Y-99528500D01*
X149005800Y-101138800D02*
X149361400Y-99532500D01*
X149268000Y-102072900D02*
X149383400Y-102159400D01*
X149094900Y-101840800D02*
X149268000Y-102072900D01*
X148994300Y-101569100D02*
X149094900Y-101840800D01*
X148974500Y-101280200D02*
X148994300Y-101569100D01*
X149005800Y-101138800D02*
X148974500Y-101280200D01*
X152810800Y-104734500D02*
X149383400Y-102159400D01*
X152865800Y-104771600D02*
X152885000Y-104781900D01*
X152828800Y-104748000D02*
X152865800Y-104771600D01*
X152810800Y-104734500D02*
X152828800Y-104748000D01*
X165957300Y-111815200D02*
X152885000Y-104781900D01*
X165959200Y-111816200D02*
X165957300Y-111815200D01*
X165961200Y-111817200D02*
X165959200Y-111816200D01*
X166030300Y-111849400D02*
X165961200Y-111817200D01*
X166332000Y-112678300D02*
X166030300Y-111849400D01*
G04 #@! TO.N,/ledmatrix/CA7*
X87110800Y-96277200D02*
X86487000Y-96901000D01*
X87187000Y-96277200D02*
X87110800Y-96277200D01*
X87199500Y-96276300D02*
X87203500Y-96275400D01*
X87191100Y-96277200D02*
X87199500Y-96276300D01*
X87187000Y-96277200D02*
X87191100Y-96277200D01*
X88809800Y-95919800D02*
X87203500Y-96275400D01*
X88883500Y-95903600D02*
X88809800Y-95919800D01*
X89032500Y-95893300D02*
X88883500Y-95903600D01*
X89106100Y-95899200D02*
X89032500Y-95893300D01*
X107200000Y-97328700D02*
X89106100Y-95899200D01*
X107212000Y-97329600D02*
X107200000Y-97328700D01*
X107235700Y-97332600D02*
X107212000Y-97329600D01*
X107247100Y-97334600D02*
X107235700Y-97332600D01*
X108249200Y-97509000D02*
X107247100Y-97334600D01*
X108432700Y-97540900D02*
X108249200Y-97509000D01*
X108751100Y-97730900D02*
X108432700Y-97540900D01*
X108866400Y-97877100D02*
X108751100Y-97730900D01*
X112794900Y-102863700D02*
X108866400Y-97877100D01*
X112833900Y-102913300D02*
X112794900Y-102863700D01*
X112899200Y-103017700D02*
X112833900Y-102913300D01*
X112926600Y-103074000D02*
X112899200Y-103017700D01*
X119196000Y-115981000D02*
X112926600Y-103074000D01*
X121967100Y-120417200D02*
X119196000Y-115981000D01*
X121994100Y-120456700D02*
X122004100Y-120469000D01*
X121975600Y-120430700D02*
X121994100Y-120456700D01*
X121967100Y-120417200D02*
X121975600Y-120430700D01*
X122405100Y-120961000D02*
X122004100Y-120469000D01*
X122485800Y-121042000D02*
X122518100Y-121063400D01*
X122429200Y-120990600D02*
X122485800Y-121042000D01*
X122405100Y-120961000D02*
X122429200Y-120990600D01*
X131990100Y-127348400D02*
X122518100Y-121063400D01*
X132067500Y-127391500D02*
X132095400Y-127401800D01*
X132014500Y-127364600D02*
X132067500Y-127391500D01*
X131990100Y-127348400D02*
X132014500Y-127364600D01*
X133657400Y-127977000D02*
X132095400Y-127401800D01*
X133782600Y-128023100D02*
X133657400Y-127977000D01*
X134029200Y-128136400D02*
X133782600Y-128023100D01*
X134145000Y-128201000D02*
X134029200Y-128136400D01*
X134164600Y-128211900D02*
X134145000Y-128201000D01*
X134935400Y-128506200D02*
X135211300Y-128527800D01*
X134407400Y-128347100D02*
X134935400Y-128506200D01*
X134164600Y-128211900D02*
X134407400Y-128347100D01*
X138319400Y-128769800D02*
X135211300Y-128527800D01*
X138369000Y-128773800D02*
X138319400Y-128769800D01*
X138464600Y-128785300D02*
X138369000Y-128773800D01*
X138512100Y-128793100D02*
X138464600Y-128785300D01*
X146647000Y-130124000D02*
X138512100Y-128793100D01*
X119062800Y-115706800D02*
X119276800Y-115882900D01*
X119062800Y-115706800D02*
X119069000Y-115983900D01*
X119357500Y-116239500D02*
X119126100Y-116087100D01*
X119357500Y-116239500D02*
X119321900Y-115964700D01*
X146346200Y-130074800D02*
X146613400Y-130001600D01*
X146346200Y-130074800D02*
X146576200Y-130229400D01*
G04 #@! TO.N,/ledmatrix/CA8*
X141962600Y-136360300D02*
X141133700Y-136662000D01*
X141994800Y-136291200D02*
X141962600Y-136360300D01*
X141995800Y-136289200D02*
X141994800Y-136291200D01*
X141999600Y-136282500D02*
X141995800Y-136289200D01*
X143658000Y-133673400D02*
X141999600Y-136282500D01*
X143717800Y-132383600D02*
X143600800Y-132228000D01*
X143847500Y-132747700D02*
X143717800Y-132383600D01*
X143862800Y-133136200D02*
X143847500Y-132747700D01*
X143762200Y-133509300D02*
X143862800Y-133136200D01*
X143658000Y-133673400D02*
X143762200Y-133509300D01*
X142450300Y-130699700D02*
X143600800Y-132228000D01*
X141862000Y-130189100D02*
X141611600Y-130113100D01*
X142293100Y-130490700D02*
X141862000Y-130189100D01*
X142450300Y-130699700D02*
X142293100Y-130490700D01*
X138699100Y-129227000D02*
X141611600Y-130113100D01*
X138395600Y-129158100D02*
X138290600Y-129149900D01*
X138599700Y-129196800D02*
X138395600Y-129158100D01*
X138699100Y-129227000D02*
X138599700Y-129196800D01*
X135180600Y-128906300D02*
X138290600Y-129149900D01*
X134864900Y-128881700D02*
X135180600Y-128906300D01*
X134258600Y-128698900D02*
X134864900Y-128881700D01*
X133979700Y-128543700D02*
X134258600Y-128698900D01*
X133960100Y-128532800D02*
X133979700Y-128543700D01*
X133637600Y-128374400D02*
X133523900Y-128332600D01*
X133857000Y-128475300D02*
X133637600Y-128374400D01*
X133960100Y-128532800D02*
X133857000Y-128475300D01*
X131964400Y-127759700D02*
X133523900Y-128332600D01*
X131914900Y-127741400D02*
X131964400Y-127759700D01*
X131822100Y-127694300D02*
X131914900Y-127741400D01*
X131779400Y-127665900D02*
X131822100Y-127694300D01*
X122307400Y-121380900D02*
X131779400Y-127665900D01*
X122266300Y-121353700D02*
X122307400Y-121380900D01*
X122191200Y-121290900D02*
X122266300Y-121353700D01*
X122157900Y-121256200D02*
X122191200Y-121290900D01*
X119562300Y-118555900D02*
X122157900Y-121256200D01*
X119280300Y-118394900D02*
X119169800Y-118400600D01*
X119485500Y-118476100D02*
X119280300Y-118394900D01*
X119562300Y-118555900D02*
X119485500Y-118476100D01*
X110564200Y-118845400D02*
X119169800Y-118400600D01*
X110542500Y-118846500D02*
X110564200Y-118845400D01*
X110499900Y-118845100D02*
X110542500Y-118846500D01*
X110478800Y-118842600D02*
X110499900Y-118845100D01*
X107959900Y-118547100D02*
X110478800Y-118842600D01*
X107933900Y-118544000D02*
X107959900Y-118547100D01*
X107883800Y-118535500D02*
X107933900Y-118544000D01*
X107859800Y-118530200D02*
X107883800Y-118535500D01*
X106253500Y-118174600D02*
X107859800Y-118530200D01*
X106241100Y-118172800D02*
X106237000Y-118172800D01*
X106249500Y-118173700D02*
X106241100Y-118172800D01*
X106253500Y-118174600D02*
X106249500Y-118173700D01*
X106160800Y-118172800D02*
X106237000Y-118172800D01*
X105537000Y-117549000D02*
X106160800Y-118172800D01*
X158096000Y-143884100D02*
X158397700Y-144713000D01*
X158026900Y-143851900D02*
X158096000Y-143884100D01*
X158024900Y-143850900D02*
X158026900Y-143851900D01*
X158020500Y-143848500D02*
X158024900Y-143850900D01*
X154421900Y-141735600D02*
X158020500Y-143848500D01*
X153731600Y-141454600D02*
X153481700Y-141430100D01*
X154206600Y-141609100D02*
X153731600Y-141454600D01*
X154421900Y-141735600D02*
X154206600Y-141609100D01*
X150084100Y-141097900D02*
X153481700Y-141430100D01*
X149976300Y-141087400D02*
X150084100Y-141097900D01*
X149762300Y-141035600D02*
X149976300Y-141087400D01*
X149661300Y-140995400D02*
X149762300Y-141035600D01*
X142094400Y-137989200D02*
X149661300Y-140995400D01*
X142055100Y-137973500D02*
X142094400Y-137989200D01*
X141982900Y-137929800D02*
X142055100Y-137973500D01*
X141951200Y-137902600D02*
X141982900Y-137929800D01*
X141521900Y-137534400D02*
X141951200Y-137902600D01*
X141510600Y-137526200D02*
X141506500Y-137524100D01*
X141518400Y-137531400D02*
X141510600Y-137526200D01*
X141521900Y-137534400D02*
X141518400Y-137531400D01*
X141504500Y-137523100D02*
X141506500Y-137524100D01*
X141435400Y-137490900D02*
X141504500Y-137523100D01*
X141133700Y-136662000D02*
X141435400Y-137490900D01*
G04 #@! TO.N,/ledmatrix/CA9*
X87110800Y-116574800D02*
X86487000Y-115951000D01*
X87187000Y-116574800D02*
X87110800Y-116574800D01*
X87191100Y-116574800D02*
X87187000Y-116574800D01*
X87199500Y-116575700D02*
X87191100Y-116574800D01*
X87203500Y-116576600D02*
X87199500Y-116575700D01*
X88809800Y-116932200D02*
X87203500Y-116576600D01*
X88878700Y-116945200D02*
X88902300Y-116948100D01*
X88832100Y-116937100D02*
X88878700Y-116945200D01*
X88809800Y-116932200D02*
X88832100Y-116937100D01*
X104751900Y-118929700D02*
X88902300Y-116948100D01*
X104755300Y-118930100D02*
X104751900Y-118929700D01*
X107866400Y-119303500D02*
X104755300Y-118930100D01*
X107871000Y-119304100D02*
X107866400Y-119303500D01*
X110389900Y-119599600D02*
X107871000Y-119304100D01*
X110389900Y-119599600D02*
X110416700Y-119602500D01*
X119510000Y-120475000D02*
X110416700Y-119602500D01*
X119206600Y-120445900D02*
X119468300Y-120355000D01*
X119206600Y-120445900D02*
X119446300Y-120584800D01*
G04 #@! TO.N,/mcu/A0*
X51713000Y-43899500D02*
X47497000Y-38615000D01*
X51716900Y-43904400D02*
X51713000Y-43899500D01*
X55644900Y-48891000D02*
X51716900Y-43904400D01*
X55673300Y-48927100D02*
X55644900Y-48891000D01*
X55723700Y-49002600D02*
X55673300Y-48927100D01*
X55745400Y-49041400D02*
X55723700Y-49002600D01*
X64635400Y-64913900D02*
X55745400Y-49041400D01*
X64659300Y-64956500D02*
X64635400Y-64913900D01*
X64700100Y-65046500D02*
X64659300Y-64956500D01*
X64716300Y-65092200D02*
X64700100Y-65046500D01*
X65284400Y-66693200D02*
X64716300Y-65092200D01*
X66648800Y-68488700D02*
X66932800Y-68647500D01*
X66143800Y-68072200D02*
X66648800Y-68488700D01*
X65721400Y-67572100D02*
X66143800Y-68072200D01*
X65395200Y-67004600D02*
X65721400Y-67572100D01*
X65284400Y-66693200D02*
X65395200Y-67004600D01*
X66948100Y-68656100D02*
X66932800Y-68647500D01*
X67075100Y-68727200D02*
X66948100Y-68656100D01*
X67296200Y-68913900D02*
X67075100Y-68727200D01*
X67387900Y-69027500D02*
X67296200Y-68913900D01*
X69309900Y-71411600D02*
X67387900Y-69027500D01*
X69710500Y-71831200D02*
X69867700Y-71948500D01*
X69431500Y-71562500D02*
X69710500Y-71831200D01*
X69309900Y-71411600D02*
X69431500Y-71562500D01*
X83367400Y-82004100D02*
X69867700Y-71948500D01*
X83505600Y-82107100D02*
X83367400Y-82004100D01*
X83709300Y-82383600D02*
X83505600Y-82107100D01*
X83766300Y-82544500D02*
X83709300Y-82383600D01*
X84334400Y-84145500D02*
X83766300Y-82544500D01*
X85698800Y-85941000D02*
X85982800Y-86099800D01*
X85193800Y-85524500D02*
X85698800Y-85941000D01*
X84771400Y-85024400D02*
X85193800Y-85524500D01*
X84445200Y-84456900D02*
X84771400Y-85024400D01*
X84334400Y-84145500D02*
X84445200Y-84456900D01*
X85998100Y-86108400D02*
X85982800Y-86099800D01*
X86125100Y-86179500D02*
X85998100Y-86108400D01*
X86346200Y-86366200D02*
X86125100Y-86179500D01*
X86437900Y-86479800D02*
X86346200Y-86366200D01*
X88359900Y-88863900D02*
X86437900Y-86479800D01*
X89297100Y-89674300D02*
X89689700Y-89819700D01*
X88621100Y-89188100D02*
X89297100Y-89674300D01*
X88359900Y-88863900D02*
X88621100Y-89188100D01*
X108689600Y-96841500D02*
X89689700Y-89819700D01*
X108882200Y-96912500D02*
X108689600Y-96841500D01*
X109225600Y-97140300D02*
X108882200Y-96912500D01*
X109367500Y-97291800D02*
X109225600Y-97140300D01*
X122181300Y-110990500D02*
X109367500Y-97291800D01*
X122394300Y-111183600D02*
X122475200Y-111235700D01*
X122246200Y-111060000D02*
X122394300Y-111183600D01*
X122181300Y-110990500D02*
X122246200Y-111060000D01*
X130221000Y-116221800D02*
X122475200Y-111235700D01*
X130280000Y-116259800D02*
X130221000Y-116221800D01*
X130372900Y-116364700D02*
X130280000Y-116259800D01*
X130403200Y-116427400D02*
X130372900Y-116364700D01*
X130759000Y-117161400D02*
X130403200Y-116427400D01*
X130759000Y-117161400D02*
X130770700Y-117185200D01*
X131059700Y-117762200D02*
X130770700Y-117185200D01*
X131278400Y-118114700D02*
X131370300Y-118216200D01*
X131121800Y-117886100D02*
X131278400Y-118114700D01*
X131059700Y-117762200D02*
X131121800Y-117886100D01*
X134857000Y-122067000D02*
X131370300Y-118216200D01*
X47985200Y-39227000D02*
X47411200Y-39131800D01*
X47985200Y-39227000D02*
X48019800Y-38646200D01*
X134652400Y-121841100D02*
X134907100Y-121950300D01*
X134652400Y-121841100D02*
X134735900Y-122105300D01*
G04 #@! TO.N,/mcu/INTB*
X142119900Y-122258600D02*
X142781000Y-122471000D01*
X142073700Y-122243700D02*
X142119900Y-122258600D01*
X141984400Y-122203800D02*
X142073700Y-122243700D01*
X141941500Y-122178600D02*
X141984400Y-122203800D01*
X132877000Y-116852000D02*
X141941500Y-122178600D01*
X142490800Y-122377800D02*
X142765900Y-122344900D01*
X142490800Y-122377800D02*
X142695300Y-122564700D01*
X133139800Y-117006400D02*
X132864100Y-116978300D01*
X133139800Y-117006400D02*
X132981100Y-116779300D01*
G04 #@! TO.N,/mcu/LCD_KB*
X65343600Y-64623100D02*
X55161100Y-44194800D01*
X65379900Y-64695900D02*
X65343600Y-64623100D01*
X65440400Y-64848500D02*
X65379900Y-64695900D01*
X65463500Y-64925500D02*
X65440400Y-64848500D01*
X65886100Y-66328500D02*
X65463500Y-64925500D01*
X67020600Y-67911000D02*
X67267700Y-68049300D01*
X66587500Y-67544500D02*
X67020600Y-67911000D01*
X66232200Y-67102200D02*
X66587500Y-67544500D01*
X65967900Y-66600100D02*
X66232200Y-67102200D01*
X65886100Y-66328500D02*
X65967900Y-66600100D01*
X67283000Y-68057900D02*
X67267700Y-68049300D01*
X67453800Y-68153300D02*
X67283000Y-68057900D01*
X67760200Y-68405600D02*
X67453800Y-68153300D01*
X67887200Y-68555600D02*
X67760200Y-68405600D01*
X69939600Y-70977100D02*
X67887200Y-68555600D01*
X70218000Y-71259000D02*
X70323000Y-71337200D01*
X70026000Y-71079000D02*
X70218000Y-71259000D01*
X69939600Y-70977100D02*
X70026000Y-71079000D01*
X83822700Y-81392800D02*
X70323000Y-71337200D01*
X84070600Y-81577500D02*
X83822700Y-81392800D01*
X84425100Y-82083500D02*
X84070600Y-81577500D01*
X84513500Y-82377800D02*
X84425100Y-82083500D01*
X84936100Y-83780800D02*
X84513500Y-82377800D01*
X86070600Y-85363300D02*
X86317700Y-85501600D01*
X85637500Y-84996800D02*
X86070600Y-85363300D01*
X85282200Y-84554500D02*
X85637500Y-84996800D01*
X85017900Y-84052400D02*
X85282200Y-84554500D01*
X84936100Y-83780800D02*
X85017900Y-84052400D01*
X86333000Y-85510200D02*
X86317700Y-85501600D01*
X86503800Y-85605600D02*
X86333000Y-85510200D01*
X86810200Y-85857900D02*
X86503800Y-85605600D01*
X86937200Y-86007900D02*
X86810200Y-85857900D01*
X88989600Y-88429400D02*
X86937200Y-86007900D01*
X89674200Y-89001400D02*
X89954000Y-89104700D01*
X89184300Y-88658800D02*
X89674200Y-89001400D01*
X88989600Y-88429400D02*
X89184300Y-88658800D01*
X108953800Y-96126500D02*
X89954000Y-89104700D01*
X109075400Y-96171500D02*
X108953800Y-96126500D01*
X109309400Y-96286400D02*
X109075400Y-96171500D01*
X109421700Y-96356800D02*
X109309400Y-96286400D01*
X121391500Y-103870100D02*
X109421700Y-96356800D01*
X121494200Y-103934600D02*
X121391500Y-103870100D01*
X121668700Y-104103700D02*
X121494200Y-103934600D01*
X121736400Y-104204500D02*
X121668700Y-104103700D01*
X123316100Y-106556000D02*
X121736400Y-104204500D01*
X123640100Y-106967100D02*
X123770400Y-107088600D01*
X123414600Y-106702500D02*
X123640100Y-106967100D01*
X123316100Y-106556000D02*
X123414600Y-106702500D01*
X124676900Y-107933200D02*
X123770400Y-107088600D01*
X124730700Y-107983200D02*
X124676900Y-107933200D01*
X124833700Y-108095200D02*
X124730700Y-107983200D01*
X124879600Y-108153700D02*
X124833700Y-108095200D01*
X126735400Y-110516100D02*
X124879600Y-108153700D01*
X126737000Y-110518100D02*
X126735400Y-110516100D01*
X130944200Y-115863300D02*
X126737000Y-110518100D01*
X130986100Y-115916500D02*
X130944200Y-115863300D01*
X131059100Y-116033100D02*
X130986100Y-115916500D01*
X131089100Y-116095000D02*
X131059100Y-116033100D01*
X131444900Y-116829000D02*
X131089100Y-116095000D01*
X131444900Y-116829000D02*
X131452200Y-116843900D01*
X131741200Y-117420900D02*
X131452200Y-116843900D01*
X131923500Y-117698700D02*
X132004100Y-117774800D01*
X131791000Y-117520300D02*
X131923500Y-117698700D01*
X131741200Y-117420900D02*
X131791000Y-117520300D01*
X135740200Y-121308900D02*
X132004100Y-117774800D01*
X135783900Y-121350200D02*
X135740200Y-121308900D01*
X135849900Y-121451800D02*
X135783900Y-121350200D01*
X135870100Y-121508900D02*
X135849900Y-121451800D01*
X136559500Y-123462000D02*
X135870100Y-121508900D01*
X137532700Y-124062700D02*
X137699200Y-124002600D01*
X137177800Y-124045600D02*
X137532700Y-124062700D01*
X136856600Y-123893400D02*
X137177800Y-124045600D01*
X136618700Y-123629500D02*
X136856600Y-123893400D01*
X136559500Y-123462000D02*
X136618700Y-123629500D01*
X138723700Y-123633800D02*
X137699200Y-124002600D01*
X138800100Y-123606300D02*
X138723700Y-123633800D01*
X138956100Y-123571600D02*
X138800100Y-123606300D01*
X139035700Y-123564200D02*
X138956100Y-123571600D01*
X141518000Y-123332000D02*
X139035700Y-123564200D01*
X55297100Y-44467600D02*
X55081400Y-44293700D01*
X55297100Y-44467600D02*
X55288000Y-44190700D01*
X141214500Y-123360400D02*
X141454500Y-123221900D01*
X141214500Y-123360400D02*
X141476100Y-123451900D01*
G04 #@! TO.N,/mcu/LCD_KG*
X55509700Y-43825100D02*
X54308800Y-42692900D01*
X55542700Y-43856300D02*
X55509700Y-43825100D01*
X55597100Y-43930000D02*
X55542700Y-43856300D01*
X55617100Y-43970700D02*
X55597100Y-43930000D01*
X65690300Y-64464500D02*
X55617100Y-43970700D01*
X65739500Y-64564800D02*
X65690300Y-64464500D01*
X65817400Y-64771400D02*
X65739500Y-64564800D01*
X65845700Y-64876100D02*
X65817400Y-64771400D01*
X66194700Y-66161000D02*
X65845700Y-64876100D01*
X67209900Y-67624200D02*
X67435200Y-67750200D01*
X66815400Y-67286000D02*
X67209900Y-67624200D01*
X66495500Y-66876500D02*
X66815400Y-67286000D01*
X66262800Y-66411800D02*
X66495500Y-66876500D01*
X66194700Y-66161000D02*
X66262800Y-66411800D01*
X67450500Y-67758800D02*
X67435200Y-67750200D01*
X67644300Y-67867400D02*
X67450500Y-67758800D01*
X67986000Y-68145900D02*
X67644300Y-67867400D01*
X68128900Y-68310800D02*
X67986000Y-68145900D01*
X70245400Y-70748300D02*
X68128900Y-68310800D01*
X70467900Y-70970000D02*
X70550700Y-71031600D01*
X70314200Y-70827500D02*
X70467900Y-70970000D01*
X70245400Y-70748300D02*
X70314200Y-70827500D01*
X84050400Y-81087200D02*
X70550700Y-71031600D01*
X84202800Y-81200600D02*
X84050400Y-81087200D01*
X84470000Y-81479300D02*
X84202800Y-81200600D01*
X84685100Y-81795100D02*
X84470000Y-81479300D01*
X84845000Y-82142100D02*
X84685100Y-81795100D01*
X84895700Y-82328400D02*
X84845000Y-82142100D01*
X85244700Y-83613300D02*
X84895700Y-82328400D01*
X86259900Y-85076500D02*
X86485200Y-85202500D01*
X85865400Y-84738300D02*
X86259900Y-85076500D01*
X85545500Y-84328800D02*
X85865400Y-84738300D01*
X85312800Y-83864100D02*
X85545500Y-84328800D01*
X85244700Y-83613300D02*
X85312800Y-83864100D01*
X86500500Y-85211100D02*
X86485200Y-85202500D01*
X86694300Y-85319700D02*
X86500500Y-85211100D01*
X87036000Y-85598200D02*
X86694300Y-85319700D01*
X87178900Y-85763100D02*
X87036000Y-85598200D01*
X89295400Y-88200600D02*
X87178900Y-85763100D01*
X89858200Y-88663200D02*
X90086100Y-88747300D01*
X89455800Y-88385200D02*
X89858200Y-88663200D01*
X89295400Y-88200600D02*
X89455800Y-88385200D01*
X109085900Y-95769100D02*
X90086100Y-88747300D01*
X109225800Y-95820700D02*
X109085900Y-95769100D01*
X109495100Y-95953000D02*
X109225800Y-95820700D01*
X109624300Y-96034000D02*
X109495100Y-95953000D01*
X121594100Y-103547300D02*
X109624300Y-96034000D01*
X121730700Y-103633100D02*
X121594100Y-103547300D01*
X121962600Y-103857900D02*
X121730700Y-103633100D01*
X122052700Y-103992000D02*
X121962600Y-103857900D01*
X123632500Y-106343400D02*
X122052700Y-103992000D01*
X123916100Y-106703300D02*
X124030200Y-106809700D01*
X123718700Y-106471600D02*
X123916100Y-106703300D01*
X123632500Y-106343400D02*
X123718700Y-106471600D01*
X124936700Y-107654400D02*
X124030200Y-106809700D01*
X125001100Y-107714300D02*
X124936700Y-107654400D01*
X125124300Y-107848300D02*
X125001100Y-107714300D01*
X125179300Y-107918300D02*
X125124300Y-107848300D01*
X127035100Y-110280700D02*
X125179300Y-107918300D01*
X127036400Y-110282400D02*
X127035100Y-110280700D01*
X131243700Y-115627600D02*
X127036400Y-110282400D01*
X131298100Y-115696700D02*
X131243700Y-115627600D01*
X131393100Y-115848300D02*
X131298100Y-115696700D01*
X131432100Y-115928800D02*
X131393100Y-115848300D01*
X131787800Y-116662800D02*
X131432100Y-115928800D01*
X131787800Y-116662800D02*
X131793000Y-116673200D01*
X132082000Y-117250200D02*
X131793000Y-116673200D01*
X132209600Y-117444600D02*
X132266000Y-117498000D01*
X132116800Y-117319800D02*
X132209600Y-117444600D01*
X132082000Y-117250200D02*
X132116800Y-117319800D01*
X136002000Y-121032000D02*
X132266000Y-117498000D01*
X136078600Y-121104300D02*
X136002000Y-121032000D01*
X136194200Y-121282000D02*
X136078600Y-121104300D01*
X136229500Y-121382000D02*
X136194200Y-121282000D01*
X136918900Y-123335100D02*
X136229500Y-121382000D01*
X137474900Y-123678400D02*
X137570100Y-123644100D01*
X137272100Y-123668600D02*
X137474900Y-123678400D01*
X137088700Y-123581600D02*
X137272100Y-123668600D01*
X136952700Y-123430800D02*
X137088700Y-123581600D01*
X136918900Y-123335100D02*
X136952700Y-123430800D01*
X138594600Y-123275200D02*
X137570100Y-123644100D01*
X138669900Y-123248100D02*
X138594600Y-123275200D01*
X138823700Y-123209000D02*
X138669900Y-123248100D01*
X138903500Y-123196700D02*
X138823700Y-123209000D01*
X141788000Y-122754000D02*
X138903500Y-123196700D01*
X54530600Y-42902000D02*
X54268100Y-42813200D01*
X54530600Y-42902000D02*
X54426500Y-42645200D01*
X141486700Y-122800200D02*
X141718200Y-122647900D01*
X141486700Y-122800200D02*
X141753200Y-122876100D01*
G04 #@! TO.N,/mcu/LCD_KR*
X70995600Y-76922400D02*
X69790000Y-76045700D01*
X71026000Y-76944500D02*
X70995600Y-76922400D01*
X71085900Y-76993800D02*
X71026000Y-76944500D01*
X71113500Y-77019500D02*
X71085900Y-76993800D01*
X84158000Y-89149000D02*
X71113500Y-77019500D01*
X84575200Y-89436800D02*
X84738100Y-89489700D01*
X84281600Y-89264100D02*
X84575200Y-89436800D01*
X84158000Y-89149000D02*
X84281600Y-89264100D01*
X108503700Y-97180300D02*
X84738100Y-89489700D01*
X108685800Y-97239400D02*
X108503700Y-97180300D01*
X109002100Y-97449600D02*
X108685800Y-97239400D01*
X109126100Y-97593300D02*
X109002100Y-97449600D01*
X133659400Y-126012000D02*
X109126100Y-97593300D01*
X133729200Y-126080100D02*
X133755500Y-126098300D01*
X133680900Y-126036900D02*
X133729200Y-126080100D01*
X133659400Y-126012000D02*
X133680900Y-126036900D01*
X134820100Y-126832400D02*
X133755500Y-126098300D01*
X135204700Y-127005400D02*
X135346600Y-127014200D01*
X134937300Y-126913100D02*
X135204700Y-127005400D01*
X134820100Y-126832400D02*
X134937300Y-126913100D01*
X141911000Y-127415200D02*
X135346600Y-127014200D01*
X141994300Y-127414200D02*
X142021300Y-127409900D01*
X141938500Y-127416900D02*
X141994300Y-127414200D01*
X141911000Y-127415200D02*
X141938500Y-127416900D01*
X142400000Y-127350000D02*
X142021300Y-127409900D01*
X70036500Y-76225000D02*
X69764900Y-76170200D01*
X70036500Y-76225000D02*
X69900700Y-75983400D01*
X142098900Y-127397600D02*
X142329700Y-127244300D01*
X142098900Y-127397600D02*
X142365700Y-127472300D01*
G04 #@! TO.N,/mcu/MOSI*
X121347900Y-145693200D02*
X119938000Y-129775000D01*
X116143600Y-127142500D02*
X119938000Y-129775000D01*
X115831700Y-127040300D02*
X115724200Y-127068700D01*
X116051800Y-127078900D02*
X115831700Y-127040300D01*
X116143600Y-127142500D02*
X116051800Y-127078900D01*
X110301600Y-128501100D02*
X115724200Y-127068700D01*
X110101500Y-128554000D02*
X110301600Y-128501100D01*
X109688100Y-128572700D02*
X110101500Y-128554000D01*
X109280100Y-128503600D02*
X109688100Y-128572700D01*
X108895900Y-128349900D02*
X109280100Y-128503600D01*
X108724400Y-128234200D02*
X108895900Y-128349900D01*
X105176800Y-125840700D02*
X108724400Y-128234200D01*
X104853600Y-125668800D02*
X104734600Y-125634700D01*
X105075400Y-125772200D02*
X104853600Y-125668800D01*
X105176800Y-125840700D02*
X105075400Y-125772200D01*
X92519300Y-122142300D02*
X104734600Y-125634700D01*
X92277100Y-122073100D02*
X92519300Y-122142300D01*
X91894100Y-121745500D02*
X92277100Y-122073100D01*
X91788200Y-121516800D02*
X91894100Y-121745500D01*
X90303000Y-118310400D02*
X91788200Y-121516800D01*
X90048600Y-118042900D02*
X89924000Y-118022600D01*
X90249700Y-118195500D02*
X90048600Y-118042900D01*
X90303000Y-118310400D02*
X90249700Y-118195500D01*
X85676300Y-117328000D02*
X89924000Y-118022600D01*
X85493400Y-117298100D02*
X85676300Y-117328000D01*
X85207000Y-117061600D02*
X85493400Y-117298100D01*
X85143200Y-116887800D02*
X85207000Y-117061600D01*
X73976100Y-86531900D02*
X85143200Y-116887800D01*
X73722600Y-86071300D02*
X73595000Y-85948400D01*
X73914900Y-86365700D02*
X73722600Y-86071300D01*
X73976100Y-86531900D02*
X73914900Y-86365700D01*
X72985500Y-85361800D02*
X73595000Y-85948400D01*
X72865200Y-85245900D02*
X72985500Y-85361800D01*
X72700300Y-84956500D02*
X72865200Y-85245900D01*
X72662100Y-84794400D02*
X72700300Y-84956500D01*
X71326000Y-79130800D02*
X72662100Y-84794400D01*
X71264000Y-78929700D02*
X71234000Y-78865000D01*
X71309900Y-79062500D02*
X71264000Y-78929700D01*
X71326000Y-79130800D02*
X71309900Y-79062500D01*
X70709300Y-77735700D02*
X71234000Y-78865000D01*
X70575200Y-77553200D02*
X70509800Y-77514000D01*
X70677300Y-77666800D02*
X70575200Y-77553200D01*
X70709300Y-77735700D02*
X70677300Y-77666800D01*
X69332800Y-76808300D02*
X70509800Y-77514000D01*
X69277300Y-76775000D02*
X69332800Y-76808300D01*
X69178500Y-76694400D02*
X69277300Y-76775000D01*
X69135400Y-76647500D02*
X69178500Y-76694400D01*
X64741600Y-71868300D02*
X69135400Y-76647500D01*
X64713000Y-71837200D02*
X64741600Y-71868300D01*
X64658600Y-71772600D02*
X64713000Y-71837200D01*
X64631800Y-71737800D02*
X64658600Y-71772600D01*
X51424400Y-54554100D02*
X64631800Y-71737800D01*
X51318300Y-54415900D02*
X51424400Y-54554100D01*
X51172200Y-54099100D02*
X51318300Y-54415900D01*
X51100200Y-53760600D02*
X51172200Y-54099100D01*
X51104800Y-53411900D02*
X51100200Y-53760600D01*
X51145600Y-53242300D02*
X51104800Y-53411900D01*
X51891900Y-50144600D02*
X51145600Y-53242300D01*
X51747500Y-48624500D02*
X51634000Y-48433200D01*
X51897400Y-49045300D02*
X51747500Y-48624500D01*
X51963300Y-49483100D02*
X51897400Y-49045300D01*
X51943900Y-49929400D02*
X51963300Y-49483100D01*
X51891900Y-50144600D02*
X51943900Y-49929400D01*
X49735500Y-45233400D02*
X51634000Y-48433200D01*
X49671200Y-45124800D02*
X49735500Y-45233400D01*
X49584400Y-44890500D02*
X49671200Y-45124800D01*
X49562500Y-44766300D02*
X49584400Y-44890500D01*
X49387800Y-43773400D02*
X49562500Y-44766300D01*
X49338900Y-43647700D02*
X49307200Y-43614800D01*
X49379900Y-43728500D02*
X49338900Y-43647700D01*
X49387800Y-43773400D02*
X49379900Y-43728500D01*
X44497000Y-38615000D02*
X49307200Y-43614800D01*
X119964900Y-130078600D02*
X119827700Y-129837900D01*
X119964900Y-130078600D02*
X120057700Y-129817500D01*
X121252400Y-144614500D02*
X121840300Y-145117000D01*
X121252400Y-144614500D02*
X120761900Y-145212400D01*
X119687600Y-129601300D02*
X119960300Y-129650000D01*
X119687600Y-129601300D02*
X119828700Y-129839600D01*
X45039800Y-39179200D02*
X44459500Y-39137500D01*
X45039800Y-39179200D02*
X45020500Y-38597700D01*
G04 #@! TO.N,/mcu/RST*
X131713000Y-118023400D02*
X135391000Y-121678000D01*
X131617300Y-117928200D02*
X131713000Y-118023400D01*
X131459900Y-117710400D02*
X131617300Y-117928200D01*
X131400500Y-117591600D02*
X131459900Y-117710400D01*
X131111500Y-117014600D02*
X131400500Y-117591600D01*
X131101900Y-116995200D02*
X131111500Y-117014600D01*
X130746200Y-116261200D02*
X131101900Y-116995200D01*
X130674100Y-116136200D02*
X130644700Y-116099000D01*
X130725200Y-116217900D02*
X130674100Y-116136200D01*
X130746200Y-116261200D02*
X130725200Y-116217900D01*
X126437500Y-110753800D02*
X130644700Y-116099000D01*
X126435700Y-110751500D02*
X126437500Y-110753800D01*
X124579900Y-108389200D02*
X126435700Y-110751500D01*
X124241200Y-108060900D02*
X124103300Y-107985500D01*
X124482300Y-108265000D02*
X124241200Y-108060900D01*
X124579900Y-108389200D02*
X124482300Y-108265000D01*
X120222400Y-105863100D02*
X124103300Y-107985500D01*
X120171900Y-105835500D02*
X120222400Y-105863100D01*
X120077000Y-105770500D02*
X120171900Y-105835500D01*
X120033700Y-105734100D02*
X120077000Y-105770500D01*
X109458400Y-96853900D02*
X120033700Y-105734100D01*
X108995700Y-96548400D02*
X108821700Y-96484000D01*
X109317400Y-96735400D02*
X108995700Y-96548400D01*
X109458400Y-96853900D02*
X109317400Y-96735400D01*
X89821900Y-89462200D02*
X108821700Y-96484000D01*
X89487300Y-89338500D02*
X89821900Y-89462200D01*
X88904000Y-88924600D02*
X89487300Y-89338500D01*
X88677800Y-88650700D02*
X88904000Y-88924600D01*
X86690200Y-86246800D02*
X88677800Y-88650700D01*
X86315300Y-85893000D02*
X86165600Y-85809300D01*
X86580300Y-86113900D02*
X86315300Y-85893000D01*
X86690200Y-86246800D02*
X86580300Y-86113900D01*
X86150300Y-85800700D02*
X86165600Y-85809300D01*
X85881500Y-85650000D02*
X86150300Y-85800700D01*
X85413300Y-85258600D02*
X85881500Y-85650000D01*
X85025200Y-84787800D02*
X85413300Y-85258600D01*
X84727900Y-84248300D02*
X85025200Y-84787800D01*
X84632700Y-83958400D02*
X84727900Y-84248300D01*
X84137000Y-82450900D02*
X84632700Y-83958400D01*
X83786100Y-81840900D02*
X83595100Y-81698500D01*
X84062600Y-82224900D02*
X83786100Y-81840900D01*
X84137000Y-82450900D02*
X84062600Y-82224900D01*
X70095400Y-71642900D02*
X83595100Y-81698500D01*
X69965600Y-71546200D02*
X70095400Y-71642900D01*
X69729900Y-71322000D02*
X69965600Y-71546200D01*
X69627800Y-71198400D02*
X69729900Y-71322000D01*
X67640200Y-68794500D02*
X69627800Y-71198400D01*
X67265300Y-68440700D02*
X67115600Y-68357000D01*
X67530300Y-68661600D02*
X67265300Y-68440700D01*
X67640200Y-68794500D02*
X67530300Y-68661600D01*
X67100300Y-68348400D02*
X67115600Y-68357000D01*
X66831500Y-68197700D02*
X67100300Y-68348400D01*
X66363300Y-67806300D02*
X66831500Y-68197700D01*
X65975200Y-67335500D02*
X66363300Y-67806300D01*
X65677900Y-66796000D02*
X65975200Y-67335500D01*
X65582700Y-66506100D02*
X65677900Y-66796000D01*
X65087000Y-64998600D02*
X65582700Y-66506100D01*
X65004000Y-64792100D02*
X64967900Y-64727700D01*
X65063500Y-64927200D02*
X65004000Y-64792100D01*
X65087000Y-64998600D02*
X65063500Y-64927200D01*
X56077900Y-48855200D02*
X64967900Y-64727700D01*
X56021100Y-48761000D02*
X56000600Y-48731400D01*
X56059500Y-48822400D02*
X56021100Y-48761000D01*
X56077900Y-48855200D02*
X56059500Y-48822400D01*
X48997000Y-38615000D02*
X56000600Y-48731400D01*
X135174800Y-121463200D02*
X135434900Y-121558800D01*
X135174800Y-121463200D02*
X135272100Y-121722600D01*
X49442600Y-39258700D02*
X48876400Y-39124800D01*
X49442600Y-39258700D02*
X49516600Y-38681600D01*
G04 #@! TO.N,/mcu/RX0*
X147913100Y-120034100D02*
X147917000Y-119545000D01*
X147912700Y-120080500D02*
X147913100Y-120034100D01*
X147895000Y-120172200D02*
X147912700Y-120080500D01*
X147877800Y-120216100D02*
X147895000Y-120172200D01*
X147589400Y-120948700D02*
X147877800Y-120216100D01*
X147559200Y-121025500D02*
X147589400Y-120948700D01*
X147470700Y-121166500D02*
X147559200Y-121025500D01*
X147414600Y-121227000D02*
X147470700Y-121166500D01*
X146854000Y-121832700D02*
X147414600Y-121227000D01*
X146807400Y-121883000D02*
X146854000Y-121832700D01*
X146707400Y-121974600D02*
X146807400Y-121883000D01*
X146655000Y-122015200D02*
X146707400Y-121974600D01*
X144225600Y-123902100D02*
X146655000Y-122015200D01*
X144195000Y-123927600D02*
X144185700Y-123936500D01*
X144215100Y-123910300D02*
X144195000Y-123927600D01*
X144225600Y-123902100D02*
X144215100Y-123910300D01*
X144185800Y-123936600D02*
X144185700Y-123936500D01*
X144126600Y-123993400D02*
X144185800Y-123936600D01*
X143997300Y-124098500D02*
X144126600Y-123993400D01*
X143927100Y-124146600D02*
X143997300Y-124098500D01*
X142665500Y-125009600D02*
X143927100Y-124146600D01*
X142479600Y-125136800D02*
X142665500Y-125009600D01*
X142059300Y-125304000D02*
X142479600Y-125136800D01*
X141837700Y-125339200D02*
X142059300Y-125304000D01*
X137683000Y-126001000D02*
X141837700Y-125339200D01*
X133846000Y-40558200D02*
X133846000Y-40558200D01*
X133869900Y-40785600D02*
X133869900Y-40785600D01*
X133768200Y-40911200D02*
X133768200Y-40911200D01*
X133737900Y-40914400D02*
X133737900Y-40914400D01*
X133636200Y-41040100D02*
X133636200Y-41040100D01*
X133660100Y-41267400D02*
X133660100Y-41267400D01*
X133785700Y-41369100D02*
X133785700Y-41369100D01*
X133816100Y-41365900D02*
X133816100Y-41365900D01*
X133941700Y-41467600D02*
X133941700Y-41467600D01*
X133965600Y-41695000D02*
X133965600Y-41695000D01*
X133863900Y-41820600D02*
X133863900Y-41820600D01*
X133833600Y-41823800D02*
X133833600Y-41823800D01*
X133731900Y-41949400D02*
X133731900Y-41949400D01*
X133755800Y-42176800D02*
X133755800Y-42176800D01*
X133881500Y-42278500D02*
X133881500Y-42278500D01*
X133911800Y-42275300D02*
X133911800Y-42275300D01*
X134037400Y-42377000D02*
X134037400Y-42377000D01*
X134061400Y-42604400D02*
X134061400Y-42604400D01*
X133959700Y-42730000D02*
X133959700Y-42730000D01*
X133929300Y-42733200D02*
X133929300Y-42733200D01*
X133827600Y-42858800D02*
X133827600Y-42858800D01*
X133851600Y-43086200D02*
X133851600Y-43086200D01*
X133977200Y-43187900D02*
X133977200Y-43187900D01*
X134007500Y-43184700D02*
X134007500Y-43184700D01*
X134133100Y-43286400D02*
X134133100Y-43286400D01*
X134157100Y-43513700D02*
X134157100Y-43513700D01*
X134055400Y-43639400D02*
X134055400Y-43639400D01*
X134025000Y-43642600D02*
X134025000Y-43642600D01*
X133923300Y-43768200D02*
X133923300Y-43768200D01*
X133947300Y-43995500D02*
X133947300Y-43995500D01*
X134100000Y-44209300D02*
X134100000Y-44209300D01*
X147914600Y-119849800D02*
X147801100Y-119597000D01*
X147914600Y-119849800D02*
X148032100Y-119598800D01*
X137984000Y-125953100D02*
X137753400Y-126106700D01*
X137984000Y-125953100D02*
X137717200Y-125878700D01*
X147789700Y-119268100D02*
X147999800Y-119448700D01*
X147789700Y-119268100D02*
X147790000Y-119545100D01*
X133846000Y-40558200D02*
X133846000Y-40455000D01*
X133636200Y-41040100D02*
X133737900Y-40914400D01*
X133816100Y-41365900D02*
X133785700Y-41369100D01*
X133070000Y-39679000D02*
X133070000Y-38184000D01*
X133941700Y-41467600D02*
X133816100Y-41365900D01*
X133846000Y-40455000D02*
X133070000Y-39679000D01*
X133965600Y-41695000D02*
X133941700Y-41467600D01*
X133863900Y-41820600D02*
X133965600Y-41695000D01*
X133833600Y-41823800D02*
X133863900Y-41820600D01*
X133768200Y-40911200D02*
X133869900Y-40785600D01*
X133731900Y-41949400D02*
X133833600Y-41823800D01*
X133737900Y-40914400D02*
X133768200Y-40911200D01*
X133755800Y-42176800D02*
X133731900Y-41949400D01*
X133881500Y-42278500D02*
X133755800Y-42176800D01*
X133911800Y-42275300D02*
X133881500Y-42278500D01*
X134037400Y-42377000D02*
X133911800Y-42275300D01*
X133929300Y-42733200D02*
X133959700Y-42730000D01*
X133827600Y-42858800D02*
X133929300Y-42733200D01*
X133851600Y-43086200D02*
X133827600Y-42858800D01*
X133869900Y-40785600D02*
X133846000Y-40558200D01*
X133977200Y-43187900D02*
X133851600Y-43086200D01*
X134007500Y-43184700D02*
X133977200Y-43187900D01*
X134133100Y-43286400D02*
X134007500Y-43184700D01*
X139505200Y-103773400D02*
X139406400Y-103517000D01*
X133785700Y-41369100D02*
X133660100Y-41267400D01*
X143589500Y-110513200D02*
X143583500Y-110503300D01*
X139485000Y-90706700D02*
X139480700Y-90669100D01*
X143583500Y-110503300D02*
X139576900Y-103892100D01*
X138298100Y-97266400D02*
X139475800Y-90818900D01*
X134112400Y-44327000D02*
X134112000Y-44323000D01*
X143609700Y-110542400D02*
X143602800Y-110533000D01*
X134025000Y-43642600D02*
X134055400Y-43639400D01*
X144040900Y-111124500D02*
X144025300Y-111103600D01*
X133959700Y-42730000D02*
X134061400Y-42604400D01*
X144067600Y-111169600D02*
X144040900Y-111124500D01*
X139406400Y-103517000D02*
X139380500Y-103383400D01*
X147917000Y-119545000D02*
X144078700Y-111193800D01*
X138272100Y-97408300D02*
X138298100Y-97266400D01*
X139480700Y-90669100D02*
X134112400Y-44327000D01*
X133923300Y-43768200D02*
X134025000Y-43642600D01*
X144078700Y-111193800D02*
X144067600Y-111169600D01*
X139576900Y-103892100D02*
X139505200Y-103773400D01*
X143602800Y-110533000D02*
X143589500Y-110513200D01*
X139482500Y-90782200D02*
X139485000Y-90706700D01*
X139380500Y-103383400D02*
X138301500Y-97843000D01*
X134100000Y-44209300D02*
X133947300Y-43995500D01*
X134157100Y-43513700D02*
X134133100Y-43286400D01*
X133947300Y-43995500D02*
X133923300Y-43768200D01*
X138301500Y-97843000D02*
X138273600Y-97699500D01*
X134061400Y-42604400D02*
X134037400Y-42377000D01*
X144025300Y-111103600D02*
X143609700Y-110542400D01*
X139475800Y-90818900D02*
X139482500Y-90782200D01*
X134112000Y-44323000D02*
X134100000Y-44209300D01*
X133660100Y-41267400D02*
X133636200Y-41040100D01*
X134055400Y-43639400D02*
X134157100Y-43513700D01*
X138273600Y-97699500D02*
X138272100Y-97408300D01*
G04 #@! TO.N,/mcu/RX1*
X109139800Y-31757100D02*
X109398000Y-31187400D01*
X109084500Y-31985600D02*
X109095500Y-32064600D01*
X109107000Y-31829400D02*
X109084500Y-31985600D01*
X109139800Y-31757100D02*
X109107000Y-31829400D01*
X109171500Y-32609200D02*
X109095500Y-32064600D01*
X109172900Y-32618500D02*
X109171500Y-32609200D01*
X109174200Y-32637800D02*
X109172900Y-32618500D01*
X109174200Y-32647400D02*
X109174200Y-32637800D01*
X109174200Y-32723600D02*
X109174200Y-32647400D01*
X109248000Y-33197400D02*
X109174200Y-32723600D01*
X109272800Y-33671200D02*
X109248000Y-33197400D01*
X109272800Y-33747400D02*
X109272800Y-33671200D01*
X109272800Y-34168800D02*
X109272800Y-33747400D01*
X112674200Y-33671200D02*
X112748000Y-33197400D01*
X112674200Y-33747400D02*
X112674200Y-33671200D01*
X112674000Y-33757900D02*
X112674200Y-33747400D01*
X112649000Y-34417000D02*
X112674000Y-33757900D01*
X112877400Y-34721800D02*
X112649000Y-34417000D01*
X112950200Y-34801800D02*
X112979100Y-34823400D01*
X112899300Y-34750900D02*
X112950200Y-34801800D01*
X112877400Y-34721800D02*
X112899300Y-34750900D01*
X113385300Y-35128300D02*
X112979100Y-34823400D01*
X113385300Y-35128300D02*
X113419000Y-35152300D01*
X113828400Y-35430700D02*
X113419000Y-35152300D01*
X113890400Y-35472800D02*
X113828400Y-35430700D01*
X113998200Y-35578700D02*
X113890400Y-35472800D01*
X114041400Y-35639800D02*
X113998200Y-35578700D01*
X115062100Y-37082400D02*
X114041400Y-35639800D01*
X115062100Y-37082400D02*
X115070600Y-37094000D01*
X122299800Y-46535100D02*
X115070600Y-37094000D01*
X122362600Y-46617100D02*
X122299800Y-46535100D01*
X122468800Y-46791700D02*
X122362600Y-46617100D01*
X122513000Y-46885700D02*
X122468800Y-46791700D01*
X123431400Y-48840700D02*
X122513000Y-46885700D01*
X123842700Y-49487300D02*
X124030200Y-49661900D01*
X123541300Y-49074200D02*
X123842700Y-49487300D01*
X123431400Y-48840700D02*
X123541300Y-49074200D01*
X124936700Y-50506600D02*
X124030200Y-49661900D01*
X125074000Y-50634600D02*
X124936700Y-50506600D01*
X125302500Y-50929300D02*
X125074000Y-50634600D01*
X125391700Y-51093000D02*
X125302500Y-50929300D01*
X132674400Y-64454500D02*
X125391700Y-51093000D01*
X132695100Y-64492500D02*
X132674400Y-64454500D01*
X132731200Y-64571100D02*
X132695100Y-64492500D01*
X132746200Y-64610500D02*
X132731200Y-64571100D01*
X133228100Y-65876600D02*
X132746200Y-64610500D01*
X133253500Y-65943300D02*
X133228100Y-65876600D01*
X133296000Y-66078000D02*
X133253500Y-65943300D01*
X133313900Y-66148500D02*
X133296000Y-66078000D01*
X134767600Y-71906000D02*
X133313900Y-66148500D01*
X134782400Y-71964100D02*
X134767600Y-71906000D01*
X134800900Y-72084800D02*
X134782400Y-71964100D01*
X134804400Y-72146800D02*
X134800900Y-72084800D01*
X136220400Y-97745300D02*
X134804400Y-72146800D01*
X136257900Y-98115400D02*
X136281500Y-98236400D01*
X136227400Y-97871300D02*
X136257900Y-98115400D01*
X136220400Y-97745300D02*
X136227400Y-97871300D01*
X137360500Y-103776800D02*
X136281500Y-98236400D01*
X137650300Y-104682900D02*
X137815300Y-104955800D01*
X137420700Y-104087100D02*
X137650300Y-104682900D01*
X137360500Y-103776800D02*
X137420700Y-104087100D01*
X140388800Y-109211100D02*
X137815300Y-104955800D01*
X140442700Y-109300500D02*
X140388800Y-109211100D01*
X140471600Y-109506100D02*
X140442700Y-109300500D01*
X140444400Y-109606800D02*
X140471600Y-109506100D01*
X139827000Y-111887000D02*
X140444400Y-109606800D01*
X112821800Y-32723600D02*
X112748000Y-33197400D01*
X112821800Y-32647400D02*
X112821800Y-32723600D01*
X112821800Y-32638000D02*
X112821800Y-32647400D01*
X112823200Y-32618800D02*
X112821800Y-32638000D01*
X112824500Y-32609200D02*
X112823200Y-32618800D01*
X112900500Y-32064600D02*
X112824500Y-32609200D01*
X112889000Y-31829800D02*
X112856200Y-31757100D01*
X112911500Y-31986000D02*
X112889000Y-31829800D01*
X112900500Y-32064600D02*
X112911500Y-31986000D01*
X112598000Y-31187400D02*
X112856200Y-31757100D01*
X140078000Y-134255000D02*
X132858000Y-151060500D01*
X109198700Y-31627200D02*
X109174600Y-31200100D01*
X109198700Y-31627200D02*
X109535800Y-31363700D01*
X109272800Y-33864000D02*
X109388300Y-34115900D01*
X109272800Y-33864000D02*
X109157300Y-34115900D01*
X112660600Y-34112400D02*
X112766400Y-34368500D01*
X112660600Y-34112400D02*
X112535600Y-34359700D01*
X112831800Y-34660900D02*
X112588300Y-34528500D01*
X112831800Y-34660900D02*
X112773100Y-34390100D01*
X139906700Y-111592800D02*
X139952200Y-111866100D01*
X139906700Y-111592800D02*
X139729400Y-111805700D01*
X112797300Y-31627200D02*
X112460200Y-31363700D01*
X112797300Y-31627200D02*
X112821400Y-31200100D01*
X133285400Y-150065600D02*
X133564800Y-150786700D01*
X133285400Y-150065600D02*
X132570000Y-150359300D01*
X139957700Y-134535000D02*
X139951000Y-134258000D01*
X139957700Y-134535000D02*
X140163200Y-134349200D01*
G04 #@! TO.N,/mcu/RX2*
X126347000Y-127414000D02*
X128254000Y-148913500D01*
X128158300Y-147834900D02*
X128746300Y-148337200D01*
X128158300Y-147834900D02*
X127667900Y-148432800D01*
X126373900Y-127717600D02*
X126236700Y-127476900D01*
X126373900Y-127717600D02*
X126466700Y-127456500D01*
G04 #@! TO.N,/mcu/SCL0*
X116950000Y-128899000D02*
X116743900Y-143546300D01*
X146474400Y-127335200D02*
X147278000Y-126926000D01*
X146264900Y-127517200D02*
X146231200Y-127604600D01*
X146390500Y-127378000D02*
X146264900Y-127517200D01*
X146474400Y-127335200D02*
X146390500Y-127378000D01*
X146218800Y-127636400D02*
X146231200Y-127604600D01*
X146160200Y-127787600D02*
X146218800Y-127636400D01*
X145890600Y-127966000D02*
X146160200Y-127787600D01*
X145729400Y-127960900D02*
X145890600Y-127966000D01*
X142384400Y-127857900D02*
X145729400Y-127960900D01*
X142366600Y-127857000D02*
X142384400Y-127857900D01*
X135316800Y-127392800D02*
X142366600Y-127857000D01*
X135130200Y-127380500D02*
X135316800Y-127392800D01*
X134778700Y-127261300D02*
X135130200Y-127380500D01*
X134623200Y-127157800D02*
X134778700Y-127261300D01*
X129188000Y-123536000D02*
X134623200Y-127157800D01*
X122778100Y-120132300D02*
X122398000Y-120148000D01*
X122846700Y-120129500D02*
X122778100Y-120132300D01*
X122981400Y-120160800D02*
X122846700Y-120129500D01*
X123041700Y-120193600D02*
X122981400Y-120160800D01*
X129188000Y-123536000D02*
X123041700Y-120193600D01*
X116759100Y-142463500D02*
X117292600Y-143023400D01*
X116759100Y-142463500D02*
X116210000Y-143008200D01*
X116945700Y-129203800D02*
X116833800Y-128950300D01*
X116945700Y-129203800D02*
X117064800Y-128953500D01*
X147006400Y-127064300D02*
X147178400Y-126847100D01*
X147006400Y-127064300D02*
X147283200Y-127052900D01*
X129441600Y-123705000D02*
X129168000Y-123661400D01*
X129441600Y-123705000D02*
X129296000Y-123469200D01*
X122702500Y-120135400D02*
X122455700Y-120261100D01*
X122702500Y-120135400D02*
X122446100Y-120030500D01*
X128920200Y-123390400D02*
X129196600Y-123409300D01*
X128920200Y-123390400D02*
X129086400Y-123612100D01*
G04 #@! TO.N,/mcu/SCLK*
X116226200Y-126752500D02*
X122599000Y-129690000D01*
X115776100Y-126660800D02*
X115626900Y-126700300D01*
X116085300Y-126687600D02*
X115776100Y-126660800D01*
X116226200Y-126752500D02*
X116085300Y-126687600D01*
X110204300Y-128132600D02*
X115626900Y-126700300D01*
X110010900Y-128183700D02*
X110204300Y-128132600D01*
X109609800Y-128184500D02*
X110010900Y-128183700D01*
X109224100Y-128084500D02*
X109609800Y-128184500D01*
X108873900Y-127888900D02*
X109224100Y-128084500D01*
X108730300Y-127750900D02*
X108873900Y-127888900D01*
X102527500Y-121795300D02*
X108730300Y-127750900D01*
X102206400Y-121569100D02*
X102081100Y-121528800D01*
X102432500Y-121704100D02*
X102206400Y-121569100D01*
X102527500Y-121795300D02*
X102432500Y-121704100D01*
X90114400Y-117677600D02*
X102081100Y-121528800D01*
X90018500Y-117651900D02*
X89985500Y-117646500D01*
X90083400Y-117667600D02*
X90018500Y-117651900D01*
X90114400Y-117677600D02*
X90083400Y-117667600D01*
X85737800Y-116951900D02*
X89985500Y-117646500D01*
X85653400Y-116938100D02*
X85737800Y-116951900D01*
X85523700Y-116826900D02*
X85653400Y-116938100D01*
X85497100Y-116745400D02*
X85523700Y-116826900D01*
X74886000Y-84171000D02*
X85497100Y-116745400D01*
X74816100Y-83999100D02*
X74784700Y-83945600D01*
X74866600Y-84111500D02*
X74816100Y-83999100D01*
X74886000Y-84171000D02*
X74866600Y-84111500D01*
X71016100Y-77500900D02*
X74784700Y-83945600D01*
X70801300Y-77244300D02*
X70705700Y-77187200D01*
X70959400Y-77403900D02*
X70801300Y-77244300D01*
X71016100Y-77500900D02*
X70959400Y-77403900D01*
X69528700Y-76481500D02*
X70705700Y-77187200D01*
X69497100Y-76462500D02*
X69528700Y-76481500D01*
X69440600Y-76416400D02*
X69497100Y-76462500D01*
X69416000Y-76389600D02*
X69440600Y-76416400D01*
X65022100Y-71610400D02*
X69416000Y-76389600D01*
X64948700Y-71530500D02*
X65022100Y-71610400D01*
X64825200Y-71351500D02*
X64948700Y-71530500D01*
X64776500Y-71254300D02*
X64825200Y-71351500D01*
X54857100Y-51449600D02*
X64776500Y-71254300D01*
X54640900Y-51117900D02*
X54545000Y-51025600D01*
X54797400Y-51330400D02*
X54640900Y-51117900D01*
X54857100Y-51449600D02*
X54797400Y-51330400D01*
X53935500Y-50439000D02*
X54545000Y-51025600D01*
X53896400Y-50401300D02*
X53935500Y-50439000D01*
X53826500Y-50320300D02*
X53896400Y-50401300D01*
X53796100Y-50277500D02*
X53826500Y-50320300D01*
X50109400Y-45109800D02*
X53796100Y-50277500D01*
X50043800Y-45017600D02*
X50109400Y-45109800D01*
X49957400Y-44811300D02*
X50043800Y-45017600D01*
X49937800Y-44700300D02*
X49957400Y-44811300D01*
X49763100Y-43707400D02*
X49937800Y-44700300D01*
X49683500Y-43476900D02*
X49634100Y-43411700D01*
X49748900Y-43626800D02*
X49683500Y-43476900D01*
X49763100Y-43707400D02*
X49748900Y-43626800D01*
X45997000Y-38615000D02*
X49634100Y-43411700D01*
X123649900Y-146766600D02*
X122599000Y-129690000D01*
X122322200Y-129562400D02*
X122599200Y-129563000D01*
X122322200Y-129562400D02*
X122502600Y-129772600D01*
X46470000Y-39238800D02*
X45898500Y-39129400D01*
X46470000Y-39238800D02*
X46518900Y-38659000D01*
X122617700Y-129994200D02*
X122487000Y-129749900D01*
X122617700Y-129994200D02*
X122717400Y-129735700D01*
X123583400Y-145685800D02*
X124157600Y-146203800D01*
X123583400Y-145685800D02*
X123077000Y-146270200D01*
G04 #@! TO.N,/mcu/SDA0*
X122799000Y-120640000D02*
X128741000Y-124211000D01*
X117627000Y-128792000D02*
X119045900Y-144619700D01*
X146337100Y-128116400D02*
X146705000Y-127788000D01*
X146209100Y-128230500D02*
X146337100Y-128116400D01*
X145888700Y-128347000D02*
X146209100Y-128230500D01*
X145717600Y-128341800D02*
X145888700Y-128347000D01*
X142372600Y-128238800D02*
X145717600Y-128341800D01*
X142341400Y-128237300D02*
X142372600Y-128238800D01*
X135291500Y-127771900D02*
X142341400Y-128237300D01*
X135084900Y-127758200D02*
X135291500Y-127771900D01*
X134689600Y-127638100D02*
X135084900Y-127758200D01*
X134512100Y-127535700D02*
X134689600Y-127638100D01*
X128741000Y-124211000D02*
X134512100Y-127535700D01*
X128479700Y-124054000D02*
X128755100Y-124084700D01*
X128479700Y-124054000D02*
X128636100Y-124282700D01*
X123060300Y-120797000D02*
X122784900Y-120766300D01*
X123060300Y-120797000D02*
X122903900Y-120568300D01*
X118949200Y-143541100D02*
X119537700Y-144042900D01*
X118949200Y-143541100D02*
X118459300Y-144139500D01*
X117654200Y-129095600D02*
X117516700Y-128855000D01*
X117654200Y-129095600D02*
X117746700Y-128834400D01*
X146477600Y-127991000D02*
X146588600Y-127737100D01*
X146477600Y-127991000D02*
X146742400Y-127909300D01*
X129005100Y-124363200D02*
X128729300Y-124337400D01*
X129005100Y-124363200D02*
X128844500Y-124137400D01*
G04 #@! TO.N,/mcu/SDB*
X132977900Y-116354000D02*
X132588000Y-116275000D01*
X133020400Y-116362600D02*
X132977900Y-116354000D01*
X133102400Y-116394600D02*
X133020400Y-116362600D01*
X133139700Y-116417100D02*
X133102400Y-116394600D01*
X142129300Y-121846900D02*
X133139700Y-116417100D01*
X142388100Y-121928300D02*
X142478700Y-121912700D01*
X142207500Y-121894200D02*
X142388100Y-121928300D01*
X142129300Y-121846900D02*
X142207500Y-121894200D01*
X142910000Y-121838000D02*
X142478700Y-121912700D01*
X132886700Y-116335500D02*
X132617000Y-116398600D01*
X132886700Y-116335500D02*
X132662800Y-116172400D01*
X142609700Y-121890000D02*
X142838200Y-121733300D01*
X142609700Y-121890000D02*
X142877600Y-121960700D01*
G04 #@! TO.N,/mcu/SS1*
X54646900Y-42313600D02*
X50497000Y-38615000D01*
X54656600Y-42322300D02*
X54646900Y-42313600D01*
X54675500Y-42341000D02*
X54656600Y-42322300D01*
X54684500Y-42350800D02*
X54675500Y-42341000D01*
X55818500Y-43596100D02*
X54684500Y-42350800D01*
X55860900Y-43642700D02*
X55818500Y-43596100D01*
X55931700Y-43746800D02*
X55860900Y-43642700D01*
X55959100Y-43802600D02*
X55931700Y-43746800D01*
X66032300Y-64296400D02*
X55959100Y-43802600D01*
X66098900Y-64432100D02*
X66032300Y-64296400D01*
X66198800Y-64709700D02*
X66098900Y-64432100D01*
X66233700Y-64855400D02*
X66198800Y-64709700D01*
X66508500Y-66004400D02*
X66233700Y-64855400D01*
X67398600Y-67336800D02*
X67602700Y-67451100D01*
X67046200Y-67030000D02*
X67398600Y-67336800D01*
X66762100Y-66654200D02*
X67046200Y-67030000D01*
X66562800Y-66231600D02*
X66762100Y-66654200D01*
X66508500Y-66004400D02*
X66562800Y-66231600D01*
X67618000Y-67459700D02*
X67602700Y-67451100D01*
X67830100Y-67578600D02*
X67618000Y-67459700D01*
X68204100Y-67879300D02*
X67830100Y-67578600D01*
X68365300Y-68060500D02*
X68204100Y-67879300D01*
X70545200Y-70512200D02*
X68365300Y-68060500D01*
X70715700Y-70679400D02*
X70778400Y-70726000D01*
X70597500Y-70571100D02*
X70715700Y-70679400D01*
X70545200Y-70512200D02*
X70597500Y-70571100D01*
X84278100Y-80781600D02*
X70778400Y-70726000D01*
X84465000Y-80920800D02*
X84278100Y-80781600D01*
X84786900Y-81261800D02*
X84465000Y-80920800D01*
X85042500Y-81649400D02*
X84786900Y-81261800D01*
X85229100Y-82079700D02*
X85042500Y-81649400D01*
X85283700Y-82307700D02*
X85229100Y-82079700D01*
X85558500Y-83456700D02*
X85283700Y-82307700D01*
X86448600Y-84789100D02*
X86652700Y-84903400D01*
X86096200Y-84482300D02*
X86448600Y-84789100D01*
X85812100Y-84106500D02*
X86096200Y-84482300D01*
X85612800Y-83683900D02*
X85812100Y-84106500D01*
X85558500Y-83456700D02*
X85612800Y-83683900D01*
X86668000Y-84912000D02*
X86652700Y-84903400D01*
X86880100Y-85030900D02*
X86668000Y-84912000D01*
X87254100Y-85331600D02*
X86880100Y-85030900D01*
X87415300Y-85512800D02*
X87254100Y-85331600D01*
X89595200Y-87964500D02*
X87415300Y-85512800D01*
X90039700Y-88324000D02*
X90218200Y-88389800D01*
X89722000Y-88107200D02*
X90039700Y-88324000D01*
X89595200Y-87964500D02*
X89722000Y-88107200D01*
X109218000Y-95411600D02*
X90218200Y-88389800D01*
X109376300Y-95470000D02*
X109218000Y-95411600D01*
X109680700Y-95619600D02*
X109376300Y-95470000D01*
X109826900Y-95711200D02*
X109680700Y-95619600D01*
X121796700Y-103224500D02*
X109826900Y-95711200D01*
X121967200Y-103331500D02*
X121796700Y-103224500D01*
X122256700Y-103612100D02*
X121967200Y-103331500D01*
X122369100Y-103779400D02*
X122256700Y-103612100D01*
X123948800Y-106130900D02*
X122369100Y-103779400D01*
X124192100Y-106439600D02*
X124290000Y-106530900D01*
X124022700Y-106240900D02*
X124192100Y-106439600D01*
X123948800Y-106130900D02*
X124022700Y-106240900D01*
X125196500Y-107375600D02*
X124290000Y-106530900D01*
X125271500Y-107445300D02*
X125196500Y-107375600D01*
X125415000Y-107601400D02*
X125271500Y-107445300D01*
X125479000Y-107682900D02*
X125415000Y-107601400D01*
X127334800Y-110045300D02*
X125479000Y-107682900D01*
X127335900Y-110046700D02*
X127334800Y-110045300D01*
X131543100Y-115391900D02*
X127335900Y-110046700D01*
X131610100Y-115477000D02*
X131543100Y-115391900D01*
X131727000Y-115663600D02*
X131610100Y-115477000D01*
X131775000Y-115762600D02*
X131727000Y-115663600D01*
X132130800Y-116496600D02*
X131775000Y-115762600D01*
X132133700Y-116502500D02*
X132130800Y-116496600D01*
X132422700Y-117079500D02*
X132133700Y-116502500D01*
X132495600Y-117190600D02*
X132527800Y-117221100D01*
X132442600Y-117119200D02*
X132495600Y-117190600D01*
X132422700Y-117079500D02*
X132442600Y-117119200D01*
X136263900Y-120755200D02*
X132527800Y-117221100D01*
X136359400Y-120845400D02*
X136263900Y-120755200D01*
X136510300Y-121063000D02*
X136359400Y-120845400D01*
X136561300Y-121184000D02*
X136510300Y-121063000D01*
X137398000Y-123166000D02*
X136561300Y-121184000D01*
X51081400Y-39135900D02*
X50499600Y-39138800D01*
X51081400Y-39135900D02*
X51017600Y-38557600D01*
X137279500Y-122885200D02*
X137483800Y-123072300D01*
X137279500Y-122885200D02*
X137271000Y-123162100D01*
G04 #@! TO.N,/mcu/SWD_CLK*
X138237000Y-140221000D02*
X142066100Y-155354300D01*
X141800500Y-154304500D02*
X142460800Y-154707100D01*
X141800500Y-154304500D02*
X141411200Y-154972700D01*
X138311800Y-140516500D02*
X138138100Y-140300600D01*
X138311800Y-140516500D02*
X138361900Y-140244000D01*
G04 #@! TO.N,/mcu/SWD_DIO*
X107123000Y-132384000D02*
X107558000Y-136134000D01*
X144437800Y-157630600D02*
X146670200Y-157501200D01*
X144287600Y-157639200D02*
X144437800Y-157630600D01*
X143994900Y-157583100D02*
X144287600Y-157639200D01*
X143858900Y-157519700D02*
X143994900Y-157583100D01*
X111630600Y-142491400D02*
X143858900Y-157519700D01*
X111468100Y-142415600D02*
X111630600Y-142491400D01*
X111201700Y-142176400D02*
X111468100Y-142415600D01*
X111109500Y-142024200D02*
X111201700Y-142176400D01*
X108706000Y-138060800D02*
X111109500Y-142024200D01*
X108700000Y-138050800D02*
X108706000Y-138060800D01*
X107558000Y-136134000D02*
X108700000Y-138050800D01*
X107522900Y-135831200D02*
X107666600Y-136068100D01*
X107522900Y-135831200D02*
X107437200Y-136094700D01*
X107158100Y-132686800D02*
X107014400Y-132449900D01*
X107158100Y-132686800D02*
X107243800Y-132423300D01*
X145589100Y-157563900D02*
X146109200Y-156991500D01*
X145589100Y-157563900D02*
X146171800Y-158072300D01*
X107714000Y-136395800D02*
X107485900Y-136238600D01*
X107714000Y-136395800D02*
X107684300Y-136120400D01*
G04 #@! TO.N,/mcu/TX0*
X135935600Y-71953500D02*
X135929900Y-71909600D01*
X135943600Y-72041600D02*
X135935600Y-71953500D01*
X135945900Y-72083700D02*
X135943600Y-72041600D01*
X137362000Y-97682200D02*
X135945900Y-72083700D01*
X137387600Y-97935200D02*
X137403700Y-98017900D01*
X137366800Y-97768300D02*
X137387600Y-97935200D01*
X137362000Y-97682200D02*
X137366800Y-97768300D01*
X138482700Y-103558300D02*
X137403700Y-98017900D01*
X138680800Y-104177700D02*
X138793600Y-104364200D01*
X138523900Y-103770400D02*
X138680800Y-104177700D01*
X138482700Y-103558300D02*
X138523900Y-103770400D01*
X141367100Y-108619400D02*
X138793600Y-104364200D01*
X141424000Y-108713300D02*
X141367100Y-108619400D01*
X141512600Y-108917100D02*
X141424000Y-108713300D01*
X141543300Y-109025400D02*
X141512600Y-108917100D01*
X142139000Y-111136000D02*
X141543300Y-109025400D01*
X142174100Y-111228800D02*
X142191300Y-111257700D01*
X142147900Y-111167600D02*
X142174100Y-111228800D01*
X142139000Y-111136000D02*
X142147900Y-111167600D01*
X147210700Y-119699300D02*
X142191300Y-111257700D01*
X147212100Y-119701600D02*
X147210700Y-119699300D01*
X147405000Y-120030000D02*
X147212100Y-119701600D01*
X105114700Y-136058800D02*
X103156000Y-134707000D01*
X105180000Y-136103800D02*
X105114700Y-136058800D01*
X105302400Y-136209400D02*
X105180000Y-136103800D01*
X105357600Y-136268400D02*
X105302400Y-136209400D01*
X106902000Y-137922000D02*
X105357600Y-136268400D01*
X147259400Y-120726900D02*
X147405000Y-120030000D01*
X147245100Y-120794900D02*
X147259400Y-120726900D01*
X147181600Y-120917700D02*
X147245100Y-120794900D01*
X147134900Y-120968100D02*
X147181600Y-120917700D01*
X146574300Y-121573900D02*
X147134900Y-120968100D01*
X146538600Y-121612400D02*
X146574300Y-121573900D01*
X146461700Y-121682800D02*
X146538600Y-121612400D01*
X146421400Y-121714100D02*
X146461700Y-121682800D01*
X143992100Y-123601600D02*
X146421400Y-121714100D01*
X143938500Y-123646300D02*
X143922400Y-123661800D01*
X143973700Y-123615900D02*
X143938500Y-123646300D01*
X143992100Y-123601600D02*
X143973700Y-123615900D01*
X143873900Y-123708400D02*
X143922400Y-123661800D01*
X143768800Y-123793700D02*
X143873900Y-123708400D01*
X143711800Y-123832800D02*
X143768800Y-123793700D01*
X142449900Y-124695300D02*
X143711800Y-123832800D01*
X142293900Y-124802000D02*
X142449900Y-124695300D01*
X141940500Y-124939600D02*
X142293900Y-124802000D01*
X141754300Y-124966400D02*
X141940500Y-124939600D01*
X139226700Y-125331900D02*
X141754300Y-124966400D01*
X139205700Y-125334500D02*
X139226700Y-125331900D01*
X137631300Y-125495500D02*
X139205700Y-125334500D01*
X137588300Y-125501600D02*
X137574700Y-125504600D01*
X137617200Y-125496900D02*
X137588300Y-125501600D01*
X137631300Y-125495500D02*
X137617200Y-125496900D01*
X135410000Y-125977000D02*
X137574700Y-125504600D01*
X147250600Y-119767200D02*
X147477700Y-119925900D01*
X147250600Y-119767200D02*
X147278700Y-120042900D01*
X103406900Y-134880100D02*
X103134000Y-134832100D01*
X103406900Y-134880100D02*
X103265200Y-134642100D01*
X106694000Y-137699200D02*
X106950300Y-137804500D01*
X106694000Y-137699200D02*
X106781500Y-137962100D01*
X147342700Y-120328400D02*
X147281200Y-120058200D01*
X147342700Y-120328400D02*
X147507200Y-120105400D01*
X135707800Y-125912000D02*
X135486300Y-126078500D01*
X135707800Y-125912000D02*
X135437100Y-125852900D01*
X131070000Y-42329000D02*
X130570000Y-41829000D01*
X132101350Y-42329000D02*
X131070000Y-42329000D01*
X132111350Y-42339000D02*
X132101350Y-42329000D01*
X132530401Y-42679401D02*
X132190000Y-42339000D01*
X130570000Y-41829000D02*
X130570000Y-38184000D01*
X132190000Y-42339000D02*
X132111350Y-42339000D01*
X132530401Y-58868071D02*
X132530401Y-42679401D01*
X135935600Y-62273270D02*
X132530401Y-58868071D01*
X135935600Y-71953500D02*
X135935600Y-62273270D01*
G04 #@! TO.N,/mcu/TX1*
X113512400Y-34721800D02*
X113284000Y-34417000D01*
X113598500Y-34813600D02*
X113633300Y-34837200D01*
X113537400Y-34755200D02*
X113598500Y-34813600D01*
X113512400Y-34721800D02*
X113537400Y-34755200D01*
X114042700Y-35115500D02*
X113633300Y-34837200D01*
X114098100Y-35153200D02*
X114042700Y-35115500D01*
X114200100Y-35240400D02*
X114098100Y-35153200D01*
X114246800Y-35290100D02*
X114200100Y-35240400D01*
X115558000Y-36689200D02*
X114246800Y-35290100D01*
X115561100Y-36692600D02*
X115558000Y-36689200D01*
X115567200Y-36699600D02*
X115561100Y-36692600D01*
X115570000Y-36703000D02*
X115567200Y-36699600D01*
X115785900Y-36969800D02*
X115570000Y-36703000D01*
X115785900Y-36969800D02*
X115785900Y-36969800D01*
X116041900Y-37059300D02*
X115785900Y-36969800D01*
X116041900Y-37059300D02*
X116041900Y-37059300D01*
X116185700Y-37237000D02*
X116041900Y-37059300D01*
X116185700Y-37237000D02*
X116185700Y-37237000D01*
X116168800Y-37397800D02*
X116185700Y-37237000D01*
X116168800Y-37397800D02*
X116168800Y-37397800D01*
X116124800Y-37433300D02*
X116168800Y-37397800D01*
X116124800Y-37433300D02*
X116124800Y-37433300D01*
X116107900Y-37594100D02*
X116124800Y-37433300D01*
X116107900Y-37594100D02*
X116107900Y-37594100D01*
X116251800Y-37771800D02*
X116107900Y-37594100D01*
X116251800Y-37771800D02*
X116251800Y-37771800D01*
X116412500Y-37788700D02*
X116251800Y-37771800D01*
X116412500Y-37788700D02*
X116412500Y-37788700D01*
X116456400Y-37753100D02*
X116412500Y-37788700D01*
X116456400Y-37753100D02*
X116456400Y-37753100D01*
X116617200Y-37770000D02*
X116456400Y-37753100D01*
X116617200Y-37770000D02*
X116617200Y-37770000D01*
X116761000Y-37947700D02*
X116617200Y-37770000D01*
X116761000Y-37947700D02*
X116761000Y-37947700D01*
X116744100Y-38108500D02*
X116761000Y-37947700D01*
X116744100Y-38108500D02*
X116744100Y-38108500D01*
X116700200Y-38144000D02*
X116744100Y-38108500D01*
X116700200Y-38144000D02*
X116700200Y-38144000D01*
X116683300Y-38304800D02*
X116700200Y-38144000D01*
X116683300Y-38304800D02*
X116683300Y-38304800D01*
X116827100Y-38482500D02*
X116683300Y-38304800D01*
X116827100Y-38482500D02*
X116827100Y-38482500D01*
X116987900Y-38499400D02*
X116827100Y-38482500D01*
X116987900Y-38499400D02*
X116987900Y-38499400D01*
X117031800Y-38463800D02*
X116987900Y-38499400D01*
X117031800Y-38463800D02*
X117031800Y-38463800D01*
X117192500Y-38480700D02*
X117031800Y-38463800D01*
X117192500Y-38480700D02*
X117192500Y-38480700D01*
X117336400Y-38658400D02*
X117192500Y-38480700D01*
X117336400Y-38658400D02*
X117336400Y-38658400D01*
X117319500Y-38819200D02*
X117336400Y-38658400D01*
X117319500Y-38819200D02*
X117319500Y-38819200D01*
X117275500Y-38854700D02*
X117319500Y-38819200D01*
X117275500Y-38854700D02*
X117275500Y-38854700D01*
X117258600Y-39015500D02*
X117275500Y-38854700D01*
X117258600Y-39015500D02*
X117258600Y-39015500D01*
X117402400Y-39193200D02*
X117258600Y-39015500D01*
X117402400Y-39193200D02*
X117402400Y-39193200D01*
X117657100Y-39281200D02*
X117402400Y-39193200D01*
X117657100Y-39281200D02*
X117657100Y-39281200D01*
X117729000Y-39370000D02*
X117657100Y-39281200D01*
X117739300Y-39383700D02*
X117729000Y-39370000D01*
X122657700Y-46378800D02*
X117739300Y-39383700D01*
X122714300Y-46459200D02*
X122657700Y-46378800D01*
X122815200Y-46632800D02*
X122714300Y-46459200D01*
X122857900Y-46723600D02*
X122815200Y-46632800D01*
X123776400Y-48678700D02*
X122857900Y-46723600D01*
X124129200Y-49233300D02*
X124290000Y-49383100D01*
X123870600Y-48879000D02*
X124129200Y-49233300D01*
X123776400Y-48678700D02*
X123870600Y-48879000D01*
X125196500Y-50227800D02*
X124290000Y-49383100D01*
X125356400Y-50376900D02*
X125196500Y-50227800D01*
X125622400Y-50720000D02*
X125356400Y-50376900D01*
X125726300Y-50910600D02*
X125622400Y-50720000D01*
X133009000Y-64272100D02*
X125726300Y-50910600D01*
X133036000Y-64321500D02*
X133009000Y-64272100D01*
X133082900Y-64423700D02*
X133036000Y-64321500D01*
X133102400Y-64474900D02*
X133082900Y-64423700D01*
X133584300Y-65741000D02*
X133102400Y-64474900D01*
X133613600Y-65818100D02*
X133584300Y-65741000D01*
X133662800Y-65973700D02*
X133613600Y-65818100D01*
X133683400Y-66055200D02*
X133662800Y-65973700D01*
X135137100Y-71812700D02*
X133683400Y-66055200D01*
X135156300Y-71888300D02*
X135137100Y-71812700D01*
X135180400Y-72045200D02*
X135156300Y-71888300D01*
X135184900Y-72125800D02*
X135180400Y-72045200D01*
X136600900Y-97724300D02*
X135184900Y-72125800D01*
X136634500Y-98055300D02*
X136655600Y-98163600D01*
X136607200Y-97837000D02*
X136634500Y-98055300D01*
X136600900Y-97724300D02*
X136607200Y-97837000D01*
X137734600Y-103704000D02*
X136655600Y-98163600D01*
X137993800Y-104514500D02*
X138141400Y-104758600D01*
X137788500Y-103981600D02*
X137993800Y-104514500D01*
X137734600Y-103704000D02*
X137788500Y-103981600D01*
X140714900Y-109013800D02*
X138141400Y-104758600D01*
X140798100Y-109151700D02*
X140714900Y-109013800D01*
X140857500Y-109466100D02*
X140798100Y-109151700D01*
X140830500Y-109623800D02*
X140857500Y-109466100D01*
X140335000Y-112522000D02*
X140830500Y-109623800D01*
X113240100Y-32723600D02*
X113248000Y-33197400D01*
X113240100Y-32647400D02*
X113240100Y-32723600D01*
X113240100Y-31987400D02*
X113240100Y-32647400D01*
X113240100Y-31958000D02*
X113240100Y-31987400D01*
X113246200Y-31899800D02*
X113240100Y-31958000D01*
X113252300Y-31871200D02*
X113246200Y-31899800D01*
X113398000Y-31187400D02*
X113252300Y-31871200D01*
X139192000Y-134874000D02*
X130556000Y-149987000D01*
X108743700Y-31871200D02*
X108598000Y-31187400D01*
X108749800Y-31900000D02*
X108743700Y-31871200D01*
X108755900Y-31958200D02*
X108749800Y-31900000D01*
X108755900Y-31987400D02*
X108755900Y-31958200D01*
X108755900Y-32647400D02*
X108755900Y-31987400D01*
X108755900Y-32723600D02*
X108755900Y-32647400D01*
X108748000Y-33197400D02*
X108755900Y-32723600D01*
X113284000Y-33671200D02*
X113248000Y-33197400D01*
X113284000Y-33747400D02*
X113284000Y-33671200D01*
X113284000Y-34417000D02*
X113284000Y-33747400D01*
X108712000Y-33747400D02*
X108712000Y-34163000D01*
X108712000Y-33671200D02*
X108712000Y-33747400D01*
X108748000Y-33197400D02*
X108712000Y-33671200D01*
X113466800Y-34660900D02*
X113223300Y-34528500D01*
X113466800Y-34660900D02*
X113408100Y-34390100D01*
X140386400Y-112221600D02*
X140457700Y-112489300D01*
X140386400Y-112221600D02*
X140230100Y-112450300D01*
X113297400Y-31659700D02*
X113182400Y-31247600D01*
X113297400Y-31659700D02*
X113570400Y-31330200D01*
X131093300Y-149046800D02*
X131289300Y-149794900D01*
X131093300Y-149046800D02*
X130349300Y-149257700D01*
X139040800Y-135138600D02*
X139065500Y-134862600D01*
X139040800Y-135138600D02*
X139265900Y-134977200D01*
X108698600Y-31659700D02*
X108425600Y-31330200D01*
X108698600Y-31659700D02*
X108813600Y-31247600D01*
X113284000Y-34112200D02*
X113399500Y-34364100D01*
X113284000Y-34112200D02*
X113168500Y-34364100D01*
X108712000Y-33858200D02*
X108827500Y-34110100D01*
X108712000Y-33858200D02*
X108596500Y-34110100D01*
G04 #@! TO.N,/mcu/TX2*
X125521000Y-129571000D02*
X125241000Y-127322000D01*
X125676500Y-139576000D02*
X125644000Y-139576000D01*
X125723100Y-139621300D02*
X125676500Y-139576000D01*
X125724000Y-139653800D02*
X125723100Y-139621300D01*
X125952000Y-147840100D02*
X125724000Y-139653800D01*
X125644000Y-139576000D02*
X125521000Y-129571000D01*
X125644000Y-139576000D02*
X125644000Y-139656000D01*
X125278700Y-127624500D02*
X125132900Y-127388800D01*
X125278700Y-127624500D02*
X125362100Y-127360200D01*
X125483300Y-129268500D02*
X125629100Y-129504200D01*
X125483300Y-129268500D02*
X125399900Y-129532800D01*
X125921900Y-146757600D02*
X126478400Y-147294700D01*
X125921900Y-146757600D02*
X125396200Y-147324700D01*
X125524700Y-129875800D02*
X125406100Y-129625300D01*
X125524700Y-129875800D02*
X125637100Y-129622500D01*
G04 #@! TO.N,/mcu/USB_DM*
X110822100Y-33764400D02*
X110839000Y-34337300D01*
X110821800Y-33747400D02*
X110822100Y-33764400D01*
X110821800Y-33671200D02*
X110821800Y-33747400D01*
X110748000Y-33197400D02*
X110821800Y-33671200D01*
X111704900Y-36987100D02*
X110839000Y-34337300D01*
X111801000Y-37182400D02*
X111850200Y-37236400D01*
X111727700Y-37056800D02*
X111801000Y-37182400D01*
X111704900Y-36987100D02*
X111727700Y-37056800D01*
X112631600Y-38092800D02*
X111850200Y-37236400D01*
X112631600Y-38092800D02*
X112643600Y-38105400D01*
X114421600Y-39883400D02*
X112643600Y-38105400D01*
X114424900Y-39886600D02*
X114421600Y-39883400D01*
X121584300Y-46874100D02*
X114424900Y-39886600D01*
X121658600Y-46946600D02*
X121584300Y-46874100D01*
X121779300Y-47116400D02*
X121658600Y-46946600D01*
X121823100Y-47209800D02*
X121779300Y-47116400D01*
X122741600Y-49164800D02*
X121823100Y-47209800D01*
X123269800Y-49995300D02*
X123510600Y-50219600D01*
X122882700Y-49464700D02*
X123269800Y-49995300D01*
X122741600Y-49164800D02*
X122882700Y-49464700D01*
X124417100Y-51064300D02*
X123510600Y-50219600D01*
X124509300Y-51150200D02*
X124417100Y-51064300D01*
X124662600Y-51347900D02*
X124509300Y-51150200D01*
X124722500Y-51457800D02*
X124662600Y-51347900D01*
X132005100Y-64819200D02*
X124722500Y-51457800D01*
X132013500Y-64834400D02*
X132005100Y-64819200D01*
X132027900Y-64865800D02*
X132013500Y-64834400D01*
X132033900Y-64881600D02*
X132027900Y-64865800D01*
X132515800Y-66147700D02*
X132033900Y-64881600D01*
X132533300Y-66193700D02*
X132515800Y-66147700D01*
X132562600Y-66286500D02*
X132533300Y-66193700D01*
X132574900Y-66335100D02*
X132562600Y-66286500D01*
X134028600Y-72092600D02*
X132574900Y-66335100D01*
X134034500Y-72115800D02*
X134028600Y-72092600D01*
X134041900Y-72164100D02*
X134034500Y-72115800D01*
X134043300Y-72188900D02*
X134041900Y-72164100D01*
X135459400Y-97787400D02*
X134043300Y-72188900D01*
X135504800Y-98235600D02*
X135533400Y-98382100D01*
X135467900Y-97939900D02*
X135504800Y-98235600D01*
X135459400Y-97787400D02*
X135467900Y-97939900D01*
X136612400Y-103922500D02*
X135533400Y-98382100D01*
X136941300Y-104970800D02*
X137128000Y-105291100D01*
X136682600Y-104283100D02*
X136941300Y-104970800D01*
X136612400Y-103922500D02*
X136682600Y-104283100D01*
X139122900Y-108709900D02*
X137128000Y-105291100D01*
X139134200Y-108729400D02*
X139122900Y-108709900D01*
X139153100Y-108769600D02*
X139134200Y-108729400D01*
X139160800Y-108790400D02*
X139153100Y-108769600D01*
X139319000Y-109220000D02*
X139160800Y-108790400D01*
X110830000Y-34032600D02*
X110952800Y-34281000D01*
X110830000Y-34032600D02*
X110722000Y-34287800D01*
X110933700Y-34627000D02*
X110745700Y-34423500D01*
X110933700Y-34627000D02*
X110965100Y-34351700D01*
X139213700Y-108934000D02*
X139409000Y-109130400D01*
X139213700Y-108934000D02*
X139192400Y-109210200D01*
G04 #@! TO.N,/mcu/USB_DP*
X111321800Y-33671200D02*
X111248000Y-33197400D01*
X111321800Y-33747400D02*
X111321800Y-33671200D01*
X111330100Y-33850600D02*
X111338200Y-33883900D01*
X111321800Y-33781600D02*
X111330100Y-33850600D01*
X111321800Y-33747400D02*
X111321800Y-33781600D01*
X112060800Y-36846300D02*
X111338200Y-33883900D01*
X112152000Y-37008300D02*
X112206700Y-37039300D01*
X112075800Y-36907600D02*
X112152000Y-37008300D01*
X112060800Y-36846300D02*
X112075800Y-36907600D01*
X113083100Y-37535800D02*
X112206700Y-37039300D01*
X113102300Y-37546700D02*
X113083100Y-37535800D01*
X113137900Y-37573400D02*
X113102300Y-37546700D01*
X113153900Y-37589000D02*
X113137900Y-37573400D01*
X113157000Y-37592000D02*
X113153900Y-37589000D01*
X113399800Y-37834800D02*
X113157000Y-37592000D01*
X113399800Y-37834800D02*
X113399800Y-37834800D01*
X113561100Y-37834400D02*
X113399800Y-37834800D01*
X113561100Y-37834400D02*
X113561100Y-37834400D01*
X113614800Y-37780700D02*
X113561100Y-37834400D01*
X113614800Y-37780700D02*
X113614800Y-37780700D01*
X113776400Y-37780700D02*
X113614800Y-37780700D01*
X113776400Y-37780700D02*
X113776400Y-37780700D01*
X113938100Y-37942300D02*
X113776400Y-37780700D01*
X113938100Y-37942300D02*
X113938100Y-37942300D01*
X113938100Y-38104000D02*
X113938100Y-37942300D01*
X113938100Y-38104000D02*
X113938100Y-38104000D01*
X113669000Y-38373100D02*
X113938100Y-38104000D01*
X113669000Y-38373100D02*
X113669000Y-38373100D01*
X113669000Y-38534700D02*
X113669000Y-38373100D01*
X113669000Y-38534700D02*
X113669000Y-38534700D01*
X113830600Y-38696300D02*
X113669000Y-38534700D01*
X113830600Y-38696300D02*
X113830600Y-38696300D01*
X113992300Y-38696300D02*
X113830600Y-38696300D01*
X113992300Y-38696300D02*
X113992300Y-38696300D01*
X114261300Y-38427300D02*
X113992300Y-38696300D01*
X114261300Y-38427300D02*
X114261300Y-38427300D01*
X114423000Y-38427300D02*
X114261300Y-38427300D01*
X114423000Y-38427300D02*
X114423000Y-38427300D01*
X114584600Y-38588900D02*
X114423000Y-38427300D01*
X114584600Y-38588900D02*
X114584600Y-38588900D01*
X114584600Y-38750500D02*
X114584600Y-38588900D01*
X114584600Y-38750500D02*
X114584600Y-38750500D01*
X114315500Y-39019600D02*
X114584600Y-38750500D01*
X114315500Y-39019600D02*
X114315500Y-39019600D01*
X114315500Y-39181300D02*
X114315500Y-39019600D01*
X114315500Y-39181300D02*
X114315500Y-39181300D01*
X114477200Y-39342900D02*
X114315500Y-39181300D01*
X114477200Y-39342900D02*
X114477200Y-39342900D01*
X114638800Y-39342900D02*
X114477200Y-39342900D01*
X114638800Y-39342900D02*
X114638800Y-39342900D01*
X114692500Y-39289200D02*
X114638800Y-39342900D01*
X114692500Y-39289200D02*
X114692500Y-39289200D01*
X114854200Y-39289200D02*
X114692500Y-39289200D01*
X114854200Y-39289200D02*
X114854200Y-39289200D01*
X114935000Y-39370000D02*
X114854200Y-39289200D01*
X114938000Y-39373100D02*
X114935000Y-39370000D01*
X114940300Y-39375500D02*
X114938000Y-39373100D01*
X121887600Y-46638900D02*
X114940300Y-39375500D01*
X121974200Y-46729500D02*
X121887600Y-46638900D01*
X122115500Y-46935700D02*
X121974200Y-46729500D01*
X122168000Y-47047700D02*
X122115500Y-46935700D01*
X123086500Y-49002700D02*
X122168000Y-47047700D01*
X123556200Y-49741200D02*
X123770400Y-49940800D01*
X123212000Y-49269400D02*
X123556200Y-49741200D01*
X123086500Y-49002700D02*
X123212000Y-49269400D01*
X124676900Y-50785400D02*
X123770400Y-49940800D01*
X124791700Y-50892400D02*
X124676900Y-50785400D01*
X124982600Y-51138600D02*
X124791700Y-50892400D01*
X125057100Y-51275400D02*
X124982600Y-51138600D01*
X132339800Y-64636800D02*
X125057100Y-51275400D01*
X132354200Y-64663500D02*
X132339800Y-64636800D01*
X132379500Y-64718500D02*
X132354200Y-64663500D01*
X132390000Y-64746100D02*
X132379500Y-64718500D01*
X132872000Y-66012200D02*
X132390000Y-64746100D01*
X132893400Y-66068500D02*
X132872000Y-66012200D01*
X132929300Y-66182200D02*
X132893400Y-66068500D01*
X132944400Y-66241800D02*
X132929300Y-66182200D01*
X134398100Y-71999300D02*
X132944400Y-66241800D01*
X134408400Y-72040100D02*
X134398100Y-71999300D01*
X134421400Y-72124500D02*
X134408400Y-72040100D01*
X134423800Y-72167900D02*
X134421400Y-72124500D01*
X135839900Y-97766400D02*
X134423800Y-72167900D01*
X135881400Y-98175500D02*
X135907500Y-98309300D01*
X135847700Y-97905600D02*
X135881400Y-98175500D01*
X135839900Y-97766400D02*
X135847700Y-97905600D01*
X136986500Y-103849700D02*
X135907500Y-98309300D01*
X137298200Y-104832200D02*
X137474900Y-105129300D01*
X137051700Y-104185800D02*
X137298200Y-104832200D01*
X136986500Y-103849700D02*
X137051700Y-104185800D01*
X139755600Y-108960100D02*
X137474900Y-105129300D01*
X139767600Y-108980300D02*
X139755600Y-108960100D01*
X139787800Y-109022700D02*
X139767600Y-108980300D01*
X139795800Y-109044400D02*
X139787800Y-109022700D01*
X139954000Y-109474000D02*
X139795800Y-109044400D01*
X111082100Y-32458100D02*
X110598000Y-31987400D01*
X111103200Y-32478700D02*
X111082100Y-32458100D01*
X111135700Y-32528800D02*
X111103200Y-32478700D01*
X111145900Y-32556600D02*
X111135700Y-32528800D01*
X111169600Y-32621200D02*
X111145900Y-32556600D01*
X111171900Y-32627500D02*
X111169600Y-32621200D01*
X111174200Y-32640700D02*
X111171900Y-32627500D01*
X111174200Y-32647400D02*
X111174200Y-32640700D01*
X111174200Y-32723600D02*
X111174200Y-32647400D01*
X111248000Y-33197400D02*
X111174200Y-32723600D01*
X139848700Y-109188000D02*
X140044000Y-109384400D01*
X139848700Y-109188000D02*
X139827400Y-109464200D01*
X110944200Y-32324000D02*
X110534200Y-32201900D01*
X110944200Y-32324000D02*
X110810600Y-31917500D01*
D33*
G04 #@! TO.N,VDD*
X43855300Y-37872900D02*
X42997000Y-38615000D01*
X43989500Y-37756900D02*
X43855300Y-37872900D01*
X44320500Y-37633900D02*
X43989500Y-37756900D01*
X44497000Y-37633900D02*
X44320500Y-37633900D01*
X50497000Y-37633900D02*
X44497000Y-37633900D01*
X50536700Y-37633900D02*
X50497000Y-37633900D01*
X50616900Y-37640400D02*
X50536700Y-37633900D01*
X50655800Y-37646800D02*
X50616900Y-37640400D01*
X51535300Y-37791100D02*
X50655800Y-37646800D01*
X51580900Y-37796100D02*
X51596300Y-37796100D01*
X51550400Y-37793600D02*
X51580900Y-37796100D01*
X51535300Y-37791100D02*
X51550400Y-37793600D01*
X58598500Y-37808900D02*
X51596300Y-37796100D01*
X58619800Y-37809200D02*
X58598500Y-37808900D01*
X89057600Y-38670300D02*
X58619800Y-37809200D01*
X89117400Y-38673700D02*
X89057600Y-38670300D01*
X108167400Y-40271400D02*
X89117400Y-38673700D01*
X108368000Y-40288400D02*
X108167400Y-40271400D01*
X108728700Y-40463100D02*
X108368000Y-40288400D01*
X108865700Y-40609300D02*
X108728700Y-40463100D01*
X127915700Y-60929300D02*
X108865700Y-40609300D01*
X127929800Y-60944600D02*
X127915700Y-60929300D01*
X129652900Y-62854900D02*
X127929800Y-60944600D01*
X129661300Y-62864400D02*
X129652900Y-62854900D01*
X131559000Y-65062400D02*
X129661300Y-62864400D01*
X110722800Y-135215200D02*
X115280000Y-128005000D01*
X110659900Y-135314900D02*
X110722800Y-135215200D01*
X110484800Y-135474500D02*
X110659900Y-135314900D01*
X110273500Y-135581900D02*
X110484800Y-135474500D01*
X110041300Y-135629400D02*
X110273500Y-135581900D01*
X109923100Y-135621400D02*
X110041300Y-135629400D01*
X109635000Y-135602000D02*
X109923100Y-135621400D01*
X132070900Y-66266800D02*
X131559000Y-65062400D01*
X132109800Y-66358500D02*
X132070900Y-66266800D01*
X132157500Y-66553200D02*
X132109800Y-66358500D01*
X132165200Y-66652000D02*
X132157500Y-66553200D01*
X134630400Y-97955100D02*
X132165200Y-66652000D01*
X134682300Y-98397900D02*
X134710400Y-98542400D01*
X134641800Y-98100300D02*
X134682300Y-98397900D01*
X134630400Y-97955100D02*
X134641800Y-98100300D01*
X135789400Y-104082800D02*
X134710400Y-98542400D01*
X135789400Y-104082800D02*
X135868100Y-104424700D01*
X137402000Y-110199000D02*
X135868100Y-104424700D01*
X43727600Y-37983400D02*
X43413300Y-38779300D01*
X43727600Y-37983400D02*
X42894500Y-38179300D01*
G04 #@! TO.N,VSS*
X137677200Y-126585300D02*
X141460000Y-126623000D01*
X137676500Y-126585300D02*
X137677200Y-126585300D01*
X135403500Y-126560000D02*
X137676500Y-126585300D01*
X135310300Y-126558900D02*
X135403500Y-126560000D01*
X135134500Y-126499100D02*
X135310300Y-126558900D01*
X135059800Y-126443100D02*
X135134500Y-126499100D01*
X134044000Y-125680000D02*
X135059800Y-126443100D01*
D32*
X113790500Y-32462400D02*
X113790000Y-32613300D01*
X113790500Y-32461100D02*
X113790500Y-32462400D01*
X113790000Y-32430400D02*
X113790500Y-32461100D01*
D33*
X145399000Y-111131000D02*
X144018000Y-110240000D01*
X142175000Y-126810800D02*
X141942000Y-126908000D01*
X142256200Y-126776800D02*
X142175000Y-126810800D01*
X142433200Y-126760000D02*
X142256200Y-126776800D01*
X142519700Y-126778100D02*
X142433200Y-126760000D01*
X145745000Y-127453000D02*
X142519700Y-126778100D01*
D32*
X108227100Y-32237100D02*
X108227000Y-32237100D01*
X108227400Y-32242700D02*
X108227100Y-32237100D01*
X108227300Y-32254100D02*
X108227400Y-32242700D01*
X108226800Y-32259600D02*
X108227300Y-32254100D01*
X108204000Y-32512000D02*
X108226800Y-32259600D01*
D33*
X113498500Y-36067300D02*
X113379000Y-35769000D01*
X113503900Y-36080800D02*
X113498500Y-36067300D01*
X113509400Y-36109300D02*
X113503900Y-36080800D01*
X113509400Y-36124000D02*
X113509400Y-36109300D01*
X113509400Y-36276400D02*
X113509400Y-36124000D01*
X113657000Y-36449000D02*
X113509400Y-36276400D01*
X113798000Y-31987400D02*
X113790000Y-32430400D01*
D32*
X113789900Y-32613300D02*
X113790000Y-32613300D01*
X113792700Y-32604400D02*
X113789900Y-32613300D01*
X113801200Y-32587800D02*
X113792700Y-32604400D01*
X113806700Y-32580300D02*
X113801200Y-32587800D01*
X113833000Y-32544500D02*
X113806700Y-32580300D01*
X113860000Y-32484500D02*
X113860000Y-32462200D01*
X113846200Y-32526600D02*
X113860000Y-32484500D01*
X113833000Y-32544500D02*
X113846200Y-32526600D01*
D33*
X108206500Y-33905600D02*
X108206600Y-33905600D01*
X108144800Y-34095500D02*
X108144800Y-34163000D01*
X108176200Y-33965000D02*
X108144800Y-34095500D01*
X108206500Y-33905600D02*
X108176200Y-33965000D01*
X108144800Y-36124000D02*
X108144800Y-34163000D01*
X108144800Y-36276400D02*
X108144800Y-36124000D01*
X108085000Y-36449000D02*
X108144800Y-36276400D01*
X42355300Y-37872900D02*
X41497000Y-38615000D01*
X42420500Y-37816600D02*
X42355300Y-37872900D01*
X42567900Y-37728600D02*
X42420500Y-37816600D01*
X42648100Y-37698100D02*
X42567900Y-37728600D01*
X43958300Y-37199400D02*
X42648100Y-37698100D01*
X44012600Y-37178800D02*
X43958300Y-37199400D01*
X44121600Y-37146500D02*
X44012600Y-37178800D01*
X44175900Y-37134800D02*
X44121600Y-37146500D01*
X51516200Y-35542600D02*
X44175900Y-37134800D01*
X51536000Y-35538300D02*
X51516200Y-35542600D01*
X51576400Y-35533900D02*
X51536000Y-35538300D01*
X51597000Y-35533900D02*
X51576400Y-35533900D01*
X56997000Y-35533900D02*
X51597000Y-35533900D01*
X57002600Y-35533900D02*
X56997000Y-35533900D01*
X107782800Y-36276400D02*
X57002600Y-35533900D01*
X107785000Y-36276400D02*
X107782800Y-36276400D01*
X107937400Y-36276400D02*
X107785000Y-36276400D01*
X108085000Y-36449000D02*
X107937400Y-36276400D01*
D32*
X108204000Y-32647400D02*
X108204000Y-32512000D01*
X108204000Y-32723600D02*
X108204000Y-32647400D01*
X108248000Y-33197400D02*
X108204000Y-32723600D01*
D33*
X108198000Y-31987400D02*
X108156000Y-32210400D01*
D32*
X108206600Y-33747400D02*
X108206600Y-33905600D01*
X108206600Y-33671200D02*
X108206600Y-33747400D01*
X108248000Y-33197400D02*
X108206600Y-33671200D01*
D33*
X137845500Y-97199600D02*
X138976000Y-90727600D01*
X137817400Y-97749800D02*
X137852600Y-97930500D01*
X137813900Y-97380000D02*
X137817400Y-97749800D01*
X137845500Y-97199600D02*
X137813900Y-97380000D01*
X138931600Y-103470900D02*
X137852600Y-97930500D01*
X139093000Y-103975600D02*
X139184900Y-104127500D01*
X138965200Y-103643700D02*
X139093000Y-103975600D01*
X138931600Y-103470900D02*
X138965200Y-103643700D01*
X141758400Y-108382700D02*
X139184900Y-104127500D01*
X141825100Y-108492800D02*
X141758400Y-108382700D01*
X141932000Y-108731600D02*
X141825100Y-108492800D01*
X141969800Y-108854900D02*
X141932000Y-108731600D01*
X142628000Y-110998000D02*
X141969800Y-108854900D01*
D32*
X113741800Y-32535300D02*
X113790000Y-32613300D01*
X113731600Y-32518800D02*
X113741800Y-32535300D01*
X113721000Y-32481500D02*
X113731600Y-32518800D01*
X113721000Y-32462200D02*
X113721000Y-32481500D01*
D33*
X143617000Y-111406000D02*
X142628000Y-110998000D01*
D32*
X113821800Y-33671200D02*
X113748000Y-33197400D01*
X113821800Y-33747400D02*
X113821800Y-33671200D01*
X113822200Y-33755600D02*
X113822600Y-33758400D01*
X113821800Y-33750200D02*
X113822200Y-33755600D01*
X113821800Y-33747400D02*
X113821800Y-33750200D01*
X113919000Y-34417000D02*
X113822600Y-33758400D01*
X108101900Y-32296300D02*
X108204000Y-32512000D01*
X108096400Y-32284800D02*
X108101900Y-32296300D01*
X108089800Y-32259900D02*
X108096400Y-32284800D01*
X108088900Y-32247100D02*
X108089800Y-32259900D01*
X108089000Y-32247100D02*
X108088900Y-32247100D01*
X108157900Y-32241400D02*
X108156000Y-32210400D01*
X108159300Y-32251300D02*
X108157900Y-32241400D01*
X108189900Y-32397300D02*
X108159300Y-32251300D01*
X108196000Y-32425600D02*
X108189900Y-32397300D01*
X108203100Y-32483500D02*
X108196000Y-32425600D01*
X108204100Y-32512000D02*
X108203100Y-32483500D01*
X108204000Y-32512000D02*
X108204100Y-32512000D01*
D33*
X129072000Y-119076000D02*
X129946000Y-116649000D01*
X129072000Y-119076000D02*
X134044000Y-125680000D01*
D32*
X113790000Y-32647400D02*
X113790000Y-32613300D01*
X113790000Y-32723600D02*
X113790000Y-32647400D01*
X113748000Y-33197400D02*
X113790000Y-32723600D01*
D33*
X113791600Y-32341600D02*
X113662700Y-32046500D01*
X113791600Y-32341600D02*
X113931100Y-32051300D01*
X42227600Y-37983400D02*
X41913300Y-38779300D01*
X42227600Y-37983400D02*
X41394500Y-38179300D01*
X108156000Y-32210400D02*
X108070000Y-32060900D01*
X108156000Y-32210400D02*
X108290400Y-32102500D01*
D32*
X108206600Y-33747400D02*
X108273400Y-33868900D01*
X108206600Y-33747400D02*
X108139800Y-33868900D01*
X113874900Y-34115400D02*
X114025500Y-34347900D01*
X113874900Y-34115400D02*
X113797100Y-34381300D01*
D33*
X131810000Y-37969000D02*
X131820000Y-37959000D01*
X131810000Y-41589000D02*
X131810000Y-37969000D01*
D32*
G04 #@! TO.N,/mcu/MCU_RESET*
X147110900Y-128093700D02*
X147561000Y-127496000D01*
X147079300Y-128135600D02*
X147110900Y-128093700D01*
X146999600Y-128205300D02*
X147079300Y-128135600D01*
X146953800Y-128231000D02*
X146999600Y-128205300D01*
X146367100Y-128560600D02*
X146953800Y-128231000D01*
X146215600Y-128645600D02*
X146367100Y-128560600D01*
X145879800Y-128728000D02*
X146215600Y-128645600D01*
X145705900Y-128722700D02*
X145879800Y-128728000D01*
X142360900Y-128619700D02*
X145705900Y-128722700D01*
X142316100Y-128617500D02*
X142360900Y-128619700D01*
X135266100Y-128150800D02*
X142316100Y-128617500D01*
X135066600Y-128137700D02*
X135266100Y-128150800D01*
X134678600Y-128038900D02*
X135066600Y-128137700D01*
X134495100Y-127954200D02*
X134678600Y-128038900D01*
X132271000Y-126925000D02*
X134495100Y-127954200D01*
X114441800Y-142472800D02*
X114460000Y-136434000D01*
X147687400Y-101288400D02*
X147998000Y-90727600D01*
X147687400Y-101288400D02*
X147686400Y-101355300D01*
X147685400Y-104761700D02*
X147686400Y-101355300D01*
X147686900Y-104821700D02*
X147688400Y-104841100D01*
X147685400Y-104781700D02*
X147686900Y-104821700D01*
X147685400Y-104761700D02*
X147685400Y-104781700D01*
X148803600Y-119477400D02*
X147688400Y-104841100D01*
X148807300Y-119524800D02*
X148803600Y-119477400D01*
X148804400Y-119619500D02*
X148807300Y-119524800D01*
X148797800Y-119667200D02*
X148804400Y-119619500D01*
X147781300Y-126995800D02*
X148797800Y-119667200D01*
X147775500Y-127037000D02*
X147781300Y-126995800D01*
X147751100Y-127115900D02*
X147775500Y-127037000D01*
X147732400Y-127153300D02*
X147751100Y-127115900D01*
X147561000Y-127496000D02*
X147732400Y-127153300D01*
X147377600Y-127739500D02*
X147437000Y-127468800D01*
X147377600Y-127739500D02*
X147621400Y-127607800D01*
X132547600Y-127053000D02*
X132270500Y-127052000D01*
X132547600Y-127053000D02*
X132367500Y-126842400D01*
X114459100Y-136738800D02*
X114344300Y-136486600D01*
X114459100Y-136738800D02*
X114575300Y-136487200D01*
X114445100Y-141389900D02*
X114984700Y-141943800D01*
X114445100Y-141389900D02*
X113902100Y-141940600D01*
X147989000Y-91032300D02*
X147881000Y-90777100D01*
X147989000Y-91032300D02*
X148111800Y-90783900D01*
X147697300Y-127223400D02*
X147688000Y-127500300D01*
X147697300Y-127223400D02*
X147481400Y-127397100D01*
G04 #@! TO.N,/mcu/AUD*
X115783400Y-128074100D02*
X115854000Y-127560000D01*
X115781100Y-128090800D02*
X115783400Y-128074100D01*
X115774500Y-128122900D02*
X115781100Y-128090800D01*
X115770100Y-128139200D02*
X115774500Y-128122900D01*
X112139800Y-141399400D02*
X115770100Y-128139200D01*
X115812500Y-127862000D02*
X115732400Y-127596700D01*
X115812500Y-127862000D02*
X115961200Y-127628100D01*
X112425700Y-140355000D02*
X112802000Y-141030600D01*
X112425700Y-140355000D02*
X111757800Y-140744800D01*
G04 #@! TO.N,/mcu/PTA5*
X136452900Y-124335300D02*
X134545000Y-124816000D01*
X136505100Y-124322200D02*
X136452900Y-124335300D01*
X136611800Y-124318300D02*
X136505100Y-124322200D01*
X136664400Y-124327500D02*
X136611800Y-124318300D01*
X137179600Y-124417400D02*
X136664400Y-124327500D01*
X137673100Y-124417200D02*
X137828300Y-124361200D01*
X137342100Y-124445800D02*
X137673100Y-124417200D01*
X137179600Y-124417400D02*
X137342100Y-124445800D01*
X138852800Y-123992400D02*
X137828300Y-124361200D01*
X138915900Y-123969600D02*
X138852800Y-123992400D01*
X139048600Y-123943500D02*
X138915900Y-123969600D01*
X139117000Y-123940600D02*
X139048600Y-123943500D01*
X141539100Y-123839700D02*
X139117000Y-123940600D01*
X141745200Y-123792100D02*
X141804300Y-123751700D01*
X141610400Y-123836700D02*
X141745200Y-123792100D01*
X141539100Y-123839700D02*
X141610400Y-123836700D01*
X143067100Y-122890300D02*
X141804300Y-123751700D01*
X143117000Y-122852000D02*
X143132300Y-122837500D01*
X143084700Y-122878300D02*
X143117000Y-122852000D01*
X143067100Y-122890300D02*
X143084700Y-122878300D01*
X143132200Y-122837400D02*
X143132300Y-122837500D01*
X143226500Y-122752500D02*
X143132200Y-122837400D01*
X145642000Y-120711000D02*
X143226500Y-122752500D01*
X134840600Y-124741500D02*
X134624500Y-124915100D01*
X134840600Y-124741500D02*
X134568100Y-124691100D01*
X145409200Y-120907700D02*
X145527100Y-120656900D01*
X145409200Y-120907700D02*
X145676100Y-120833300D01*
G04 #@! TO.N,Net-(R6-Pad1)*
X137419000Y-124817300D02*
X136577000Y-124828000D01*
X137827700Y-124766500D02*
X137957400Y-124719800D01*
X137557700Y-124815500D02*
X137827700Y-124766500D01*
X137419000Y-124817300D02*
X137557700Y-124815500D01*
X138981900Y-124350900D02*
X137957400Y-124719800D01*
X139018000Y-124337900D02*
X138981900Y-124350900D01*
X139093800Y-124323000D02*
X139018000Y-124337900D01*
X139132900Y-124321300D02*
X139093800Y-124323000D01*
X141555000Y-124220400D02*
X139132900Y-124321300D01*
X141915600Y-124137000D02*
X142019300Y-124066400D01*
X141679800Y-124215200D02*
X141915600Y-124137000D01*
X141555000Y-124220400D02*
X141679800Y-124215200D01*
X143281800Y-123204600D02*
X142019300Y-124066400D01*
X143369100Y-123137600D02*
X143395600Y-123112200D01*
X143312500Y-123183600D02*
X143369100Y-123137600D01*
X143281800Y-123204600D02*
X143312500Y-123183600D01*
X143427300Y-123081800D02*
X143395600Y-123112200D01*
X143490500Y-123027200D02*
X143427300Y-123081800D01*
X143524600Y-123000700D02*
X143490500Y-123027200D01*
X145953900Y-121112100D02*
X143524600Y-123000700D01*
X146092200Y-120956800D02*
X146117200Y-120891000D01*
X146008900Y-121069400D02*
X146092200Y-120956800D01*
X145953900Y-121112100D02*
X146008900Y-121069400D01*
X146286800Y-120443000D02*
X146117200Y-120891000D01*
X146310500Y-120380400D02*
X146286800Y-120443000D01*
X146389300Y-120271200D02*
X146310500Y-120380400D01*
X146441900Y-120228400D02*
X146389300Y-120271200D01*
X146774000Y-119959000D02*
X146441900Y-120228400D01*
X136881800Y-124824100D02*
X136631400Y-124942800D01*
X136881800Y-124824100D02*
X136628400Y-124711800D01*
X146537300Y-120151000D02*
X146660200Y-119902600D01*
X146537300Y-120151000D02*
X146805600Y-120082000D01*
G04 #@! TO.N,Net-(R7-Pad1)*
X141636300Y-124596800D02*
X139154000Y-124829000D01*
X142100200Y-124472500D02*
X142234500Y-124381000D01*
X141796100Y-124582000D02*
X142100200Y-124472500D01*
X141636300Y-124596800D02*
X141796100Y-124582000D01*
X143496700Y-123518800D02*
X142234500Y-124381000D01*
X143621400Y-123423100D02*
X143659100Y-123387100D01*
X143540600Y-123488800D02*
X143621400Y-123423100D01*
X143496700Y-123518800D02*
X143540600Y-123488800D01*
X143658900Y-123386900D02*
X143659100Y-123387100D01*
X143683400Y-123363500D02*
X143658900Y-123386900D01*
X143732100Y-123321500D02*
X143683400Y-123363500D01*
X143758300Y-123301100D02*
X143732100Y-123321500D01*
X146187700Y-121413100D02*
X143758300Y-123301100D01*
X146345700Y-121259700D02*
X146386200Y-121197700D01*
X146245500Y-121368300D02*
X146345700Y-121259700D01*
X146187700Y-121413100D02*
X146245500Y-121368300D01*
X146762000Y-120623000D02*
X146386200Y-121197700D01*
X139457500Y-124800600D02*
X139217500Y-124939100D01*
X139457500Y-124800600D02*
X139195900Y-124709100D01*
X146595200Y-120878100D02*
X146636400Y-120604100D01*
X146595200Y-120878100D02*
X146829600Y-120730500D01*
G04 #@! TO.N,/Row1*
X135507400Y-71722500D02*
X133477000Y-63627000D01*
X135530900Y-71815900D02*
X135507400Y-71722500D01*
X135560200Y-72009000D02*
X135530900Y-71815900D01*
X135565400Y-72104700D02*
X135560200Y-72009000D01*
X136981500Y-97703200D02*
X135565400Y-72104700D01*
X137011100Y-97995200D02*
X137029700Y-98090700D01*
X136987100Y-97802600D02*
X137011100Y-97995200D01*
X136981500Y-97703200D02*
X136987100Y-97802600D01*
X138108700Y-103631100D02*
X137029700Y-98090700D01*
X138337300Y-104346000D02*
X138467500Y-104561400D01*
X138156200Y-103875900D02*
X138337300Y-104346000D01*
X138108700Y-103631100D02*
X138156200Y-103875900D01*
X141041000Y-108816600D02*
X138467500Y-104561400D01*
X141142300Y-108984400D02*
X141041000Y-108816600D01*
X141234600Y-109364400D02*
X141142300Y-108984400D01*
X141221500Y-109558400D02*
X141234600Y-109364400D01*
X140721000Y-117073800D02*
X141221500Y-109558400D01*
X140717000Y-117134200D02*
X140721000Y-117073800D01*
X140680400Y-117250600D02*
X140717000Y-117134200D01*
X140649100Y-117302500D02*
X140680400Y-117250600D01*
X140221000Y-118012000D02*
X140649100Y-117302500D01*
X133551100Y-63922600D02*
X133377900Y-63706400D01*
X133551100Y-63922600D02*
X133601900Y-63650200D01*
X140378500Y-117751000D02*
X140347200Y-118026400D01*
X140378500Y-117751000D02*
X140149400Y-117907000D01*
G04 #@! TO.N,/Row2*
X139494900Y-115745800D02*
X140214000Y-117040000D01*
X139480400Y-115719600D02*
X139494900Y-115745800D01*
X139457500Y-115663800D02*
X139480400Y-115719600D01*
X139449400Y-115634700D02*
X139457500Y-115663800D01*
X136323400Y-104356600D02*
X139449400Y-115634700D01*
X136299600Y-104270900D02*
X136323400Y-104356600D01*
X136255700Y-104085000D02*
X136299600Y-104270900D01*
X136238300Y-103995400D02*
X136255700Y-104085000D01*
X135159300Y-98455000D02*
X136238300Y-103995400D01*
X135129500Y-98302500D02*
X135159300Y-98455000D01*
X135089700Y-97989500D02*
X135129500Y-98302500D01*
X135080200Y-97832000D02*
X135089700Y-97989500D01*
X133536000Y-72217000D02*
X135080200Y-97832000D01*
X140066000Y-116773600D02*
X140289200Y-116937600D01*
X140066000Y-116773600D02*
X140087400Y-117049800D01*
X133554300Y-72521200D02*
X133424000Y-72276700D01*
X133554300Y-72521200D02*
X133654400Y-72262900D01*
G04 #@! TO.N,/Row3*
X126129000Y-99886700D02*
X125033000Y-90591700D01*
X126182900Y-100122500D02*
X126216900Y-100195000D01*
X126138500Y-99967000D02*
X126182900Y-100122500D01*
X126129000Y-99886700D02*
X126138500Y-99967000D01*
X127939000Y-103874500D02*
X126216900Y-100195000D01*
X128021400Y-104050300D02*
X127939000Y-103874500D01*
X128125000Y-104426400D02*
X128021400Y-104050300D01*
X128163700Y-104810500D02*
X128125000Y-104426400D01*
X128137200Y-105199700D02*
X128163700Y-104810500D01*
X128091900Y-105387400D02*
X128137200Y-105199700D01*
X127345600Y-108485100D02*
X128091900Y-105387400D01*
X127785600Y-110000600D02*
X127981100Y-110133900D01*
X127491800Y-109629800D02*
X127785600Y-110000600D01*
X127321400Y-109188500D02*
X127491800Y-109629800D01*
X127290100Y-108716400D02*
X127321400Y-109188500D01*
X127345600Y-108485100D02*
X127290100Y-108716400D01*
X137924000Y-116915000D02*
X127981100Y-110133900D01*
X125068700Y-90894400D02*
X124924500Y-90657800D01*
X125068700Y-90894400D02*
X125153900Y-90630800D01*
X137672200Y-116743300D02*
X137945300Y-116789800D01*
X137672200Y-116743300D02*
X137815300Y-116980600D01*
G04 #@! TO.N,/Row4*
X138684000Y-108966000D02*
X139939000Y-115499000D01*
X139881500Y-115199700D02*
X140042400Y-115425200D01*
X139881500Y-115199700D02*
X139815600Y-115468800D01*
X138741500Y-109265300D02*
X138580600Y-109039800D01*
X138741500Y-109265300D02*
X138807400Y-108996200D01*
G04 #@! TO.N,/Row5*
X131333300Y-128728300D02*
X126902000Y-126424000D01*
X131513300Y-128812200D02*
X131574500Y-128834400D01*
X131393100Y-128759400D02*
X131513300Y-128812200D01*
X131333300Y-128728300D02*
X131393100Y-128759400D01*
X133126800Y-129400700D02*
X131574500Y-128834400D01*
X133199400Y-129427100D02*
X133126800Y-129400700D01*
X133337500Y-129490300D02*
X133199400Y-129427100D01*
X133405400Y-129528100D02*
X133337500Y-129490300D01*
X133425000Y-129539100D02*
X133405400Y-129528100D01*
X133425000Y-129539100D02*
X133449300Y-129552500D01*
X133902300Y-129800900D02*
X133449300Y-129552500D01*
X133945400Y-129824500D02*
X133902300Y-129800900D01*
X134026000Y-129874100D02*
X133945400Y-129824500D01*
X134065000Y-129900800D02*
X134026000Y-129874100D01*
X138176000Y-132715000D02*
X134065000Y-129900800D01*
X140889100Y-131246200D02*
X138176000Y-132715000D01*
X140973400Y-131200600D02*
X140889100Y-131246200D01*
X141163000Y-131177000D02*
X140973400Y-131200600D01*
X141348300Y-131223900D02*
X141163000Y-131177000D01*
X141503900Y-131334900D02*
X141348300Y-131223900D01*
X141556400Y-131415200D02*
X141503900Y-131334900D01*
X142586000Y-132992000D02*
X141556400Y-131415200D01*
X112146700Y-121502800D02*
X109715000Y-120942000D01*
X112173900Y-121509000D02*
X112146700Y-121502800D01*
X112226300Y-121523800D02*
X112173900Y-121509000D01*
X112253100Y-121532700D02*
X112226300Y-121523800D01*
X126902000Y-126424000D02*
X112253100Y-121532700D01*
X127172400Y-126564600D02*
X126895600Y-126550800D01*
X127172400Y-126564600D02*
X127002200Y-126346000D01*
X137924500Y-132542800D02*
X138197500Y-132589800D01*
X137924500Y-132542800D02*
X138067100Y-132780400D01*
X138444000Y-132569900D02*
X138277500Y-132791300D01*
X138444000Y-132569900D02*
X138167500Y-132588300D01*
X142419400Y-132736800D02*
X142653800Y-132884600D01*
X142419400Y-132736800D02*
X142460400Y-133010800D01*
X110012000Y-121010500D02*
X109740700Y-121066400D01*
X110012000Y-121010500D02*
X109792500Y-120841400D01*
X126612900Y-126327500D02*
X126888400Y-126297700D01*
X126612900Y-126327500D02*
X126815200Y-126516700D01*
G04 #@! TO.N,Net-(P2-Pad5)*
X112433200Y-36200200D02*
X112657000Y-36449000D01*
X112433200Y-36124000D02*
X112433200Y-36200200D01*
X112432000Y-36109400D02*
X112430700Y-36104700D01*
X112433200Y-36119100D02*
X112432000Y-36109400D01*
X112433200Y-36124000D02*
X112433200Y-36119100D01*
X111830800Y-33817500D02*
X112430700Y-36104700D01*
X111826300Y-33800200D02*
X111830800Y-33817500D01*
X111821800Y-33765300D02*
X111826300Y-33800200D01*
X111821800Y-33747400D02*
X111821800Y-33765300D01*
X111821800Y-33671200D02*
X111821800Y-33747400D01*
X111748000Y-33197400D02*
X111821800Y-33671200D01*
D34*
G04 #@! TO.N,/GND*
X105198000Y-27437400D02*
X105198000Y-30662400D01*
X105198000Y-30662400D02*
X106198000Y-31662400D01*
X116798000Y-27437400D02*
X116798000Y-30612400D01*
X116798000Y-30612400D02*
X115798000Y-31612400D01*
X116744600Y-32559000D02*
X115798000Y-31612400D01*
X129010000Y-32559000D02*
X129090000Y-32639000D01*
X128590000Y-32559000D02*
X128770000Y-32739000D01*
X116744600Y-32559000D02*
X128590000Y-32559000D01*
X128770000Y-32739000D02*
X131240000Y-30269000D01*
X139900000Y-30269000D02*
X142370000Y-32739000D01*
X131240000Y-30269000D02*
X139900000Y-30269000D01*
D35*
G04 #@! TO.N,Net-(P2-Pad17)*
X109334200Y-36174800D02*
X109085000Y-36449000D01*
X109334200Y-36124000D02*
X109334200Y-36174800D01*
X109334200Y-36118500D02*
X109334200Y-36124000D01*
X109336500Y-36107800D02*
X109334200Y-36118500D01*
X109338800Y-36102900D02*
X109336500Y-36107800D01*
X110214000Y-34181900D02*
X109338800Y-36102900D01*
X110079200Y-34477800D02*
X110061900Y-34191100D01*
X110079200Y-34477800D02*
X110306900Y-34302700D01*
D32*
G04 #@! TO.N,/Col3*
X142367300Y-103895800D02*
X141637000Y-103491000D01*
X145853900Y-110904700D02*
X142367300Y-103895800D01*
X145863800Y-110924400D02*
X145853900Y-110904700D01*
X145879700Y-110964900D02*
X145863800Y-110924400D01*
X145885800Y-110985300D02*
X145879700Y-110964900D01*
X148403800Y-119399300D02*
X145885800Y-110985300D01*
X148423200Y-119464300D02*
X148403800Y-119399300D01*
X148426600Y-119600800D02*
X148423200Y-119464300D01*
X148410300Y-119666600D02*
X148426600Y-119600800D01*
X148268400Y-120242700D02*
X148410300Y-119666600D01*
X148261100Y-120272000D02*
X148268400Y-120242700D01*
X148243200Y-120328300D02*
X148261100Y-120272000D01*
X148232400Y-120355700D02*
X148243200Y-120328300D01*
X147944000Y-121088300D02*
X148232400Y-120355700D01*
X147900900Y-121198000D02*
X147944000Y-121088300D01*
X147774400Y-121399400D02*
X147900900Y-121198000D01*
X147694300Y-121485900D02*
X147774400Y-121399400D01*
X147133700Y-122091600D02*
X147694300Y-121485900D01*
X147091400Y-122137300D02*
X147133700Y-122091600D01*
X147001600Y-122223100D02*
X147091400Y-122137300D01*
X146952800Y-122264300D02*
X147001600Y-122223100D01*
X144537000Y-124303000D02*
X146952800Y-122264300D01*
X140906700Y-74511400D02*
X141637000Y-74916200D01*
X147907200Y-51701500D02*
X140906700Y-74511400D01*
X148312000Y-50971200D02*
X147907200Y-51701500D01*
X142367300Y-75321000D02*
X141637000Y-74916200D01*
X141960900Y-97614500D02*
X142367300Y-75321000D01*
X141959700Y-97682700D02*
X141960900Y-97614500D01*
X141945000Y-97820400D02*
X141959700Y-97682700D01*
X141931800Y-97887000D02*
X141945000Y-97820400D01*
X140906700Y-103086200D02*
X141931800Y-97887000D01*
X141637000Y-103491000D02*
X140906700Y-103086200D01*
X144769900Y-124106400D02*
X144651900Y-124357100D01*
X144769900Y-124106400D02*
X144502900Y-124180700D01*
G04 #@! TO.N,/Col4*
X131100600Y-136694500D02*
X131591400Y-137370000D01*
X134539900Y-133885600D02*
X131100600Y-136694500D01*
X134718100Y-133739800D02*
X134539900Y-133885600D01*
X135127800Y-133524100D02*
X134718100Y-133739800D01*
X135572200Y-133394400D02*
X135127800Y-133524100D01*
X136033500Y-133355900D02*
X135572200Y-133394400D01*
X136265400Y-133383300D02*
X136033500Y-133355900D01*
X138071000Y-133598000D02*
X136265400Y-133383300D01*
X138423600Y-133577300D02*
X138532400Y-133529600D01*
X138188800Y-133612000D02*
X138423600Y-133577300D01*
X138071000Y-133598000D02*
X138188800Y-133612000D01*
X141416000Y-132268000D02*
X138532400Y-133529600D01*
X129666800Y-69288400D02*
X129262000Y-70018700D01*
X129219000Y-63246300D02*
X129666800Y-69288400D01*
X128857200Y-108849300D02*
X129262000Y-108119000D01*
X138245500Y-116521600D02*
X128857200Y-108849300D01*
X138263600Y-116536300D02*
X138245500Y-116521600D01*
X138297100Y-116569300D02*
X138263600Y-116536300D01*
X138312000Y-116586900D02*
X138297100Y-116569300D01*
X142392000Y-121412000D02*
X138312000Y-116586900D01*
X128857200Y-70749000D02*
X129262000Y-70018700D01*
X129677800Y-88327800D02*
X128857200Y-70749000D01*
X129273000Y-89058100D02*
X129677800Y-88327800D01*
X129666800Y-107388700D02*
X129262000Y-108119000D01*
X128868200Y-89788400D02*
X129666800Y-107388700D01*
X129273000Y-89058100D02*
X128868200Y-89788400D01*
X141136800Y-132390200D02*
X141321200Y-132183400D01*
X141136800Y-132390200D02*
X141413800Y-132395000D01*
X129241500Y-63550300D02*
X129107800Y-63307600D01*
X129241500Y-63550300D02*
X129338000Y-63290600D01*
X142195200Y-121179300D02*
X142445900Y-121297100D01*
X142195200Y-121179300D02*
X142269700Y-121446100D01*
G04 #@! TO.N,/Col5*
X110616800Y-68018400D02*
X110212000Y-68748700D01*
X109807200Y-50429000D02*
X110616800Y-68018400D01*
X110212000Y-49698700D02*
X109807200Y-50429000D01*
X109807200Y-107579300D02*
X110538000Y-118338000D01*
X110212000Y-106849000D02*
X109807200Y-107579300D01*
X110616800Y-106118700D02*
X110212000Y-106849000D01*
X107170900Y-98933500D02*
X110616800Y-106118700D01*
X107105900Y-98798000D02*
X107170900Y-98933500D01*
X107060900Y-98499200D02*
X107105900Y-98798000D01*
X107083100Y-98350700D02*
X107060900Y-98499200D01*
X107160000Y-97835200D02*
X107083100Y-98350700D01*
X110616800Y-125168700D02*
X110212000Y-125899000D01*
X126402700Y-126909000D02*
X110616800Y-125168700D01*
X126443600Y-126913500D02*
X126402700Y-126909000D01*
X126522400Y-126935400D02*
X126443600Y-126913500D01*
X126559500Y-126952500D02*
X126522400Y-126935400D01*
X131261600Y-129117400D02*
X126559500Y-126952500D01*
X131397100Y-129175400D02*
X131445500Y-129193100D01*
X131307500Y-129138500D02*
X131397100Y-129175400D01*
X131261600Y-129117400D02*
X131307500Y-129138500D01*
X132995600Y-129757200D02*
X131445500Y-129193100D01*
X133055000Y-129778900D02*
X132995600Y-129757200D01*
X133166000Y-129829600D02*
X133055000Y-129778900D01*
X133220500Y-129860000D02*
X133166000Y-129829600D01*
X133240100Y-129870900D02*
X133220500Y-129860000D01*
X133240100Y-129870900D02*
X133257700Y-129880700D01*
X133722100Y-130136700D02*
X133257700Y-129880700D01*
X133764700Y-130160200D02*
X133722100Y-130136700D01*
X133844900Y-130211100D02*
X133764700Y-130160200D01*
X133882300Y-130238200D02*
X133844900Y-130211100D01*
X137878300Y-133126800D02*
X133882300Y-130238200D01*
X138289000Y-133231600D02*
X138417900Y-133161800D01*
X137997200Y-133212700D02*
X138289000Y-133231600D01*
X137878300Y-133126800D02*
X137997200Y-133212700D01*
X141131000Y-131693000D02*
X138417900Y-133161800D01*
X110616800Y-87068700D02*
X110212000Y-87799000D01*
X109807200Y-69479000D02*
X110616800Y-87068700D01*
X110212000Y-68748700D02*
X109807200Y-69479000D01*
X110517300Y-118033900D02*
X110649600Y-118277400D01*
X110517300Y-118033900D02*
X110419200Y-118293000D01*
X107115000Y-98136700D02*
X107038000Y-97870500D01*
X107115000Y-98136700D02*
X107266400Y-97904500D01*
X140863000Y-131838100D02*
X141029500Y-131616700D01*
X140863000Y-131838100D02*
X141139500Y-131819700D01*
G04 #@! TO.N,/Col6*
X91566800Y-123570700D02*
X91162000Y-124301000D01*
X89842000Y-118524000D02*
X91566800Y-123570700D01*
X91566800Y-85470700D02*
X91162000Y-86201000D01*
X88120900Y-78285500D02*
X91566800Y-85470700D01*
X88042200Y-78121400D02*
X88120900Y-78285500D01*
X88010000Y-77757600D02*
X88042200Y-78121400D01*
X88058900Y-77581700D02*
X88010000Y-77757600D01*
X90757200Y-67881300D02*
X88058900Y-77581700D01*
X91162000Y-67151000D02*
X90757200Y-67881300D01*
X91566800Y-66420700D02*
X91162000Y-67151000D01*
X88120900Y-59235500D02*
X91566800Y-66420700D01*
X88042200Y-59071400D02*
X88120900Y-59235500D01*
X88010000Y-58707600D02*
X88042200Y-59071400D01*
X88058900Y-58531700D02*
X88010000Y-58707600D01*
X90757200Y-48831300D02*
X88058900Y-58531700D01*
X91162000Y-48101000D02*
X90757200Y-48831300D01*
X91566800Y-104520700D02*
X91162000Y-105251000D01*
X89786600Y-99524700D02*
X91566800Y-104520700D01*
X89940600Y-118812400D02*
X89749900Y-118611400D01*
X89940600Y-118812400D02*
X89968300Y-118536800D01*
X89888900Y-99811800D02*
X89695700Y-99613200D01*
X89888900Y-99811800D02*
X89913100Y-99535800D01*
G04 #@! TO.N,/Col7*
X72516800Y-106118700D02*
X72112000Y-106849000D01*
X69070900Y-98933500D02*
X72516800Y-106118700D01*
X68992200Y-98769400D02*
X69070900Y-98933500D01*
X68960000Y-98405600D02*
X68992200Y-98769400D01*
X69008900Y-98229700D02*
X68960000Y-98405600D01*
X71707200Y-88529300D02*
X69008900Y-98229700D01*
X72112000Y-87799000D02*
X71707200Y-88529300D01*
X72516800Y-68018400D02*
X72112000Y-68748700D01*
X71707200Y-50429000D02*
X72516800Y-68018400D01*
X72112000Y-49698700D02*
X71707200Y-50429000D01*
X70838400Y-78931400D02*
X70248500Y-77949800D01*
X70883200Y-79006100D02*
X70838400Y-78931400D01*
X70945900Y-79168500D02*
X70883200Y-79006100D01*
X70962600Y-79253000D02*
X70945900Y-79168500D01*
X72516800Y-87068700D02*
X70962600Y-79253000D01*
X72112000Y-87799000D02*
X72516800Y-87068700D01*
X72516800Y-125168700D02*
X72112000Y-125899000D01*
X69070900Y-117983500D02*
X72516800Y-125168700D01*
X68992200Y-117819400D02*
X69070900Y-117983500D01*
X68960000Y-117455600D02*
X68992200Y-117819400D01*
X69008900Y-117279700D02*
X68960000Y-117455600D01*
X71707200Y-107579300D02*
X69008900Y-117279700D01*
X72112000Y-106849000D02*
X71707200Y-107579300D01*
X70405500Y-78211100D02*
X70176800Y-78054700D01*
X70405500Y-78211100D02*
X70374800Y-77935700D01*
G04 #@! TO.N,/Col8*
X53466800Y-71193400D02*
X53062000Y-71923700D01*
X50021400Y-64008200D02*
X53466800Y-71193400D01*
X49950100Y-63859300D02*
X50021400Y-64008200D01*
X49910000Y-63532600D02*
X49950100Y-63859300D01*
X49943200Y-63371400D02*
X49910000Y-63532600D01*
X50183000Y-62204500D02*
X49943200Y-63371400D01*
X53466800Y-109293700D02*
X53062000Y-110024000D01*
X50021400Y-102108500D02*
X53466800Y-109293700D01*
X49942600Y-101944500D02*
X50021400Y-102108500D01*
X49910400Y-101580700D02*
X49942600Y-101944500D01*
X49959300Y-101404700D02*
X49910400Y-101580700D01*
X52657200Y-91704300D02*
X49959300Y-101404700D01*
X53062000Y-90974000D02*
X52657200Y-91704300D01*
X53466800Y-90243700D02*
X53062000Y-90974000D01*
X52657200Y-72654000D02*
X53466800Y-90243700D01*
X53062000Y-71923700D02*
X52657200Y-72654000D01*
X53466800Y-128343700D02*
X53062000Y-129074000D01*
X52657200Y-110754300D02*
X53466800Y-128343700D01*
X53062000Y-110024000D02*
X52657200Y-110754300D01*
X50121600Y-62503100D02*
X50059200Y-62233000D01*
X50121600Y-62503100D02*
X50285400Y-62279600D01*
G04 #@! TO.N,/Col9*
X34416800Y-128343700D02*
X34012000Y-129074000D01*
X30970900Y-121158500D02*
X34416800Y-128343700D01*
X30944000Y-121102500D02*
X30970900Y-121158500D01*
X30904400Y-120984300D02*
X30944000Y-121102500D01*
X30891900Y-120922300D02*
X30904400Y-120984300D01*
X28845200Y-110754300D02*
X30891900Y-120922300D01*
X29250000Y-110024000D02*
X28845200Y-110754300D01*
X29654800Y-71193400D02*
X29250000Y-71923700D01*
X28845200Y-53606500D02*
X29654800Y-71193400D01*
X29250000Y-52876200D02*
X28845200Y-53606500D01*
X29654800Y-109293700D02*
X29250000Y-110024000D01*
X26208900Y-102108500D02*
X29654800Y-109293700D01*
X26130200Y-101944400D02*
X26208900Y-102108500D01*
X26098000Y-101580600D02*
X26130200Y-101944400D01*
X26146900Y-101404700D02*
X26098000Y-101580600D01*
X28845200Y-91704300D02*
X26146900Y-101404700D01*
X29250000Y-90974000D02*
X28845200Y-91704300D01*
X29654800Y-90243700D02*
X29250000Y-90974000D01*
X28845200Y-72654000D02*
X29654800Y-90243700D01*
X29250000Y-71923700D02*
X28845200Y-72654000D01*
G04 #@! TO.N,/Col2*
X166362500Y-122713400D02*
X167038000Y-122222600D01*
X168726300Y-154900400D02*
X166362500Y-122713400D01*
X168727100Y-154917900D02*
X168726300Y-154900400D01*
X168876500Y-164312800D02*
X168727100Y-154917900D01*
X168201000Y-164803600D02*
X168876500Y-164312800D01*
G04 #@! TD*
M02*
