M48
; DRILL file {KiCad 5.1.6-c6e7f7d~87~ubuntu20.04.1} date Fri Aug  7 18:47:58 2020
; FORMAT={3:3/ absolute / metric / suppress leading zeros}
; #@! TF.CreationDate,2020-08-07T18:47:58+02:00
; #@! TF.GenerationSoftware,Kicad,Pcbnew,5.1.6-c6e7f7d~87~ubuntu20.04.1
FMAT,2
METRIC,TZ
T1C0.203
T2C0.305
T3C0.400
T4C0.600
T5C0.700
T6C0.800
T7C0.900
T8C1.000
T9C1.500
T10C2.292
T11C0.700
T12C0.850
T13C0.991
T14C1.702
T15C2.000
T16C2.375
T17C3.988
%
G90
G05
T1
X50183Y-62205
X54309Y-42693
X55161Y-44195
X69790Y-76046
X70248Y-77950
X89787Y-99525
X89842Y-118524
X98665Y-88675
X103156Y-134707
X106902Y-137922
X107123Y-132384
X107160Y-97835
X107558Y-136134
X108712Y-34163
X109273Y-34169
X109715Y-120942
X110214Y-34182
X110538Y-118338
X110839Y-34337
X112649Y-34417
X113284Y-34417
X114460Y-136434
X115854Y-127560
X116729Y-116248
X116950Y-128899
X117627Y-128792
X119194Y-119924
X119196Y-115981
X119196Y-118908
X119510Y-120475
X119938Y-129775
X122398Y-120148
X122599Y-129690
X122799Y-120640
X125033Y-90592
X125241Y-127322
X125521Y-129571
X126347Y-127414
X126902Y-126424
X128741Y-124211
X129188Y-123536
X129219Y-63246
X132271Y-126925
X132588Y-116275
X132877Y-116852
X133477Y-63627
X133536Y-72217
X134545Y-124816
X134857Y-122067
X135391Y-121678
X135410Y-125977
X136577Y-124828
X137398Y-123166
X137683Y-126001
X137924Y-116915
X138176Y-132715
X138237Y-140221
X138684Y-108966
X139154Y-124829
X139192Y-134874
X139319Y-109220
X139827Y-111887
X139939Y-115499
X139954Y-109474
X140078Y-134255
X140214Y-117040
X140221Y-118012
X140335Y-112522
X141131Y-131693
X141416Y-132268
X141518Y-123332
X141788Y-122754
X142392Y-121412
X142400Y-127350
X142586Y-132992
X142781Y-122471
X142910Y-121838
X144537Y-124303
X145642Y-120711
X146647Y-130124
X146705Y-127788
X146762Y-120623
X146774Y-119959
X147278Y-126926
X147405Y-120030
X147561Y-127496
X147917Y-119545
X147998Y-90728
X148727Y-104762
T2
X109635Y-135602
X113379Y-35769
X113919Y-34417
X115280Y-128005
X129072Y-119076
X129946Y-116649
X131559Y-65062
X131810Y-41589
X134044Y-125680
X137402Y-110199
X138976Y-90728
X139230Y-35219
X141460Y-126623
X141942Y-126908
X142282Y-137517
X142628Y-110998
X143617Y-111406
X144018Y-110240
X145399Y-111131
X145745Y-127453
X148955Y-93242
T3
X108198Y-31987
X108598Y-31187
X109398Y-31187
X109648Y-31987
X110198Y-31187
X110598Y-31987
X111398Y-31987
X111798Y-31187
X112348Y-31987
X112598Y-31187
X113398Y-31187
X113798Y-31987
T5
X26497Y-38615
X27997Y-38615
X29497Y-38615
X30997Y-38615
X32497Y-38615
X33997Y-38615
X35497Y-38615
X36997Y-38615
X38497Y-38615
X39997Y-38615
X41497Y-38615
X42997Y-38615
X44497Y-38615
X45997Y-38615
X47497Y-38615
X48997Y-38615
X50497Y-38615
T6
X86487Y-39751
X89027Y-39751
X48387Y-101674
X50928Y-101674
X67437Y-60399
X69977Y-60399
X166332Y-112678
X168634Y-113752
X48387Y-82624
X50928Y-82624
X140060Y-138964
X141134Y-136662
X48387Y-63574
X50928Y-63574
X67437Y-117549
X69977Y-117549
X143637Y-42621
X146177Y-42621
X86487Y-96901
X89027Y-96901
X86487Y-115951
X89027Y-115951
X124587Y-99769
X127127Y-99769
X48387Y-120724
X50927Y-120724
X67437Y-41349
X69977Y-41349
X149987Y-98816
X149987Y-101356
X149987Y-70241
X149987Y-72781
X24575Y-63574
X27115Y-63574
X105537Y-79449
X108077Y-79449
X24575Y-82624
X27115Y-82624
X67437Y-79449
X69977Y-79449
X157324Y-147015
X158398Y-144713
X48387Y-44526
X50928Y-44526
X24575Y-101674
X27115Y-101674
X175544Y-137994
X177846Y-139068
X124598Y-80708
X127138Y-80708
X183596Y-120728
X185898Y-121802
X67437Y-98499
X69977Y-98499
X86487Y-58801
X89027Y-58801
X105537Y-41349
X108077Y-41349
X105537Y-60399
X108077Y-60399
X105537Y-98499
X108077Y-98499
X24575Y-44526
X27115Y-44526
X124587Y-61669
X127127Y-61669
X167492Y-155261
X169794Y-156335
X105537Y-117549
X108077Y-117549
X124587Y-42621
X127127Y-42621
X29337Y-120724
X31877Y-120724
X86487Y-77851
X89027Y-77851
T8
X112140Y-141399
X114442Y-142473
X116744Y-143546
X119046Y-144620
X121348Y-145693
X123650Y-146767
X125952Y-147840
X128254Y-148914
X130556Y-149987
X132858Y-151060
X135160Y-152134
X137462Y-153207
X139764Y-154281
X142066Y-155354
X144368Y-156428
X146670Y-157501
X148972Y-158575
T10
X128770Y-32739
X142370Y-32739
T11
X114598Y-32537
T12
X18397Y-38615
X58597Y-38615
T13
X102362Y-133731
X102362Y-135763
X109982Y-134747
T14
X120788Y-85788
X130948Y-85788
X63627Y-65479
X73787Y-65479
X82677Y-121031
X92837Y-121031
X44577Y-106754
X54737Y-106754
X20765Y-87704
X30925Y-87704
X20765Y-68654
X30925Y-68654
X44577Y-68654
X54737Y-68654
X63627Y-122629
X73787Y-122629
X82677Y-63881
X92837Y-63881
X63627Y-103579
X73787Y-103579
X82677Y-101981
X92837Y-101981
X161893Y-158254
X171101Y-162548
X169945Y-140987
X179153Y-145281
X151111Y-148322
X155405Y-139114
X120777Y-66749
X130937Y-66749
X120777Y-104849
X130937Y-104849
X101727Y-84529
X111887Y-84529
X120777Y-47701
X130937Y-47701
X101727Y-65479
X111887Y-65479
X101727Y-122629
X111887Y-122629
X25527Y-125804
X35687Y-125804
X139827Y-47701
X149987Y-47701
X44577Y-125804
X54737Y-125804
X133847Y-140270
X138141Y-131062
X63627Y-46429
X73787Y-46429
X82677Y-44831
X92837Y-44831
X144907Y-95006
X144907Y-105166
X144907Y-66431
X144907Y-76591
X101727Y-103579
X111887Y-103579
X44577Y-49606
X54737Y-49606
X177994Y-123723
X187202Y-128017
X160730Y-115673
X169938Y-119967
X20765Y-106754
X30925Y-106754
X44577Y-87704
X54737Y-87704
X63627Y-84529
X73787Y-84529
X82677Y-82931
X92837Y-82931
X20765Y-49606
X30925Y-49606
X101727Y-46429
X111887Y-46429
T15
X132170Y-32739
X138970Y-32739
T16
X104267Y-132207
X104267Y-137287
X109982Y-132207
X109982Y-137287
T17
X125868Y-85788
X68707Y-65479
X87757Y-121031
X49657Y-106754
X25845Y-87704
X25845Y-68654
X49657Y-68654
X68707Y-122629
X87757Y-63881
X68707Y-103579
X87757Y-101981
X166497Y-160401
X174549Y-143134
X153258Y-143718
X125857Y-66749
X125857Y-104849
X106807Y-84529
X125857Y-47701
X106807Y-65479
X106807Y-122629
X30607Y-125804
X144907Y-47701
X49657Y-125804
X135994Y-135666
X68707Y-46429
X87757Y-44831
X144907Y-100086
X144907Y-71511
X106807Y-103579
X49657Y-49606
X182598Y-125870
X165334Y-117820
X25845Y-106754
X49657Y-87704
X68707Y-84529
X87757Y-82931
X25845Y-49606
X106807Y-46429
T4
G00X105198Y-27937
M15
G01X105198Y-26937
M16
G05
G00X106198Y-32087
M15
G01X106198Y-31237
M16
G05
G00X115798Y-32037
M15
G01X115798Y-31187
M16
G05
G00X116798Y-27937
M15
G01X116798Y-26937
M16
G05
T7
G00X20647Y-36665
M15
G01X21747Y-36665
M16
G05
G00X23647Y-36665
M15
G01X24747Y-36665
M16
G05
G00X52247Y-36665
M15
G01X53347Y-36665
M16
G05
G00X55247Y-36665
M15
G01X56347Y-36665
M16
G05
T9
G00X104267Y-89608
M15
G01X104307Y-89030
M16
G05
G00X109807Y-88529
M15
G01X110617Y-87069
M16
G05
G00X123317Y-52781
M15
G01X123357Y-52202
M16
G05
G00X128857Y-51701
M15
G01X129667Y-50241
M16
G05
G00X104267Y-70558
M15
G01X104307Y-69979
M16
G05
G00X109807Y-69479
M15
G01X110617Y-68019
M16
G05
G00X104267Y-127708
M15
G01X104307Y-127130
M16
G05
G00X109807Y-126629
M15
G01X110617Y-125169
M16
G05
G00X28067Y-130883
M15
G01X28107Y-130305
M16
G05
G00X33607Y-129804
M15
G01X34417Y-128344
M16
G05
G00X142367Y-52781
M15
G01X142407Y-52202
M16
G05
G00X147907Y-51701
M15
G01X148717Y-50241
M16
G05
G00X47117Y-130883
M15
G01X47157Y-130305
M16
G05
G00X52657Y-129804
M15
G01X53467Y-128344
M16
G05
G00X131101Y-136694
M15
G01X132082Y-138046
M16
G05
G00X132464Y-131218
M15
G01X132972Y-131498
M16
G05
G00X66167Y-51508
M15
G01X66207Y-50929
M16
G05
G00X71707Y-50429
M15
G01X72517Y-48969
M16
G05
G00X85217Y-49910
M15
G01X85257Y-49332
M16
G05
G00X90757Y-48831
M15
G01X91567Y-47371
M16
G05
G00X139828Y-97546
M15
G01X140406Y-97586
M16
G05
G00X140907Y-103086
M15
G01X142367Y-103896
M16
G05
G00X139828Y-68971
M15
G01X140406Y-69011
M16
G05
G00X140907Y-74511
M15
G01X142367Y-75322
M16
G05
G00X104267Y-108658
M15
G01X104307Y-108080
M16
G05
G00X109807Y-107579
M15
G01X110617Y-106119
M16
G05
G00X47117Y-54686
M15
G01X47157Y-54107
M16
G05
G00X52657Y-53606
M15
G01X53467Y-52146
M16
G05
G00X178150Y-129400
M15
G01X178430Y-128892
M16
G05
G00X183626Y-130763
M15
G01X184978Y-129782
M16
G05
G00X160886Y-121350
M15
G01X161166Y-120842
M16
G05
G00X166362Y-122713
M15
G01X167714Y-121732
M16
G05
G00X23305Y-111833
M15
G01X23345Y-111255
M16
G05
G00X28845Y-110754
M15
G01X29655Y-109294
M16
G05
G00X47117Y-92783
M15
G01X47157Y-92205
M16
G05
G00X52657Y-91704
M15
G01X53467Y-90244
M16
G05
G00X66167Y-89608
M15
G01X66207Y-89030
M16
G05
G00X71707Y-88529
M15
G01X72517Y-87069
M16
G05
G00X85217Y-88010
M15
G01X85257Y-87432
M16
G05
G00X90757Y-86931
M15
G01X91567Y-85471
M16
G05
G00X23305Y-54686
M15
G01X23345Y-54107
M16
G05
G00X28845Y-53606
M15
G01X29655Y-52146
M16
G05
G00X104267Y-51508
M15
G01X104307Y-50929
M16
G05
G00X109807Y-50429
M15
G01X110617Y-48969
M16
G05
G00X123328Y-90867
M15
G01X123368Y-90289
M16
G05
G00X128868Y-89788
M15
G01X129678Y-88328
M16
G05
G00X66167Y-70558
M15
G01X66207Y-69979
M16
G05
G00X71707Y-69479
M15
G01X72517Y-68019
M16
G05
G00X85217Y-126110
M15
G01X85257Y-125532
M16
G05
G00X90757Y-125031
M15
G01X91567Y-123571
M16
G05
G00X47117Y-111833
M15
G01X47157Y-111255
M16
G05
G00X52657Y-110754
M15
G01X53467Y-109294
M16
G05
G00X23305Y-92783
M15
G01X23345Y-92205
M16
G05
G00X28845Y-91704
M15
G01X29655Y-90244
M16
G05
G00X23305Y-73733
M15
G01X23345Y-73154
M16
G05
G00X28845Y-72654
M15
G01X29655Y-71194
M16
G05
G00X47117Y-73733
M15
G01X47157Y-73154
M16
G05
G00X52657Y-72654
M15
G01X53467Y-71194
M16
G05
G00X66167Y-127708
M15
G01X66207Y-127130
M16
G05
G00X71707Y-126629
M15
G01X72517Y-125169
M16
G05
G00X85217Y-68960
M15
G01X85257Y-68382
M16
G05
G00X90757Y-67881
M15
G01X91567Y-66421
M16
G05
G00X66167Y-108658
M15
G01X66207Y-108080
M16
G05
G00X71707Y-107579
M15
G01X72517Y-106119
M16
G05
G00X85217Y-107060
M15
G01X85257Y-106482
M16
G05
G00X90757Y-105981
M15
G01X91567Y-104521
M16
G05
G00X162049Y-163931
M15
G01X162329Y-163423
M16
G05
G00X167525Y-165294
M15
G01X168877Y-164313
M16
G05
G00X170101Y-146664
M15
G01X170381Y-146156
M16
G05
G00X175577Y-148027
M15
G01X176929Y-147046
M16
G05
G00X148365Y-144746
M15
G01X149346Y-146098
M16
G05
G00X149728Y-139270
M15
G01X150236Y-139550
M16
G05
G00X123317Y-71828
M15
G01X123357Y-71249
M16
G05
G00X128857Y-70749
M15
G01X129667Y-69289
M16
G05
G00X123317Y-109928
M15
G01X123357Y-109350
M16
G05
G00X128857Y-108849
M15
G01X129667Y-107389
M16
G05
T11
G00X107523Y-32537
M15
G01X107273Y-32537
M16
G05
T0
M30
