G04 #@! TF.GenerationSoftware,KiCad,Pcbnew,5.1.6-c6e7f7d~87~ubuntu20.04.1*
G04 #@! TF.CreationDate,2020-08-07T18:55:31+02:00*
G04 #@! TF.ProjectId,ICEDRight,49434544-5269-4676-9874-2e6b69636164,Rev 1.2b*
G04 #@! TF.SameCoordinates,Original*
G04 #@! TF.FileFunction,Copper,L1,Top*
G04 #@! TF.FilePolarity,Positive*
%FSLAX46Y46*%
G04 Gerber Fmt 4.6, Leading zero omitted, Abs format (unit mm)*
G04 Created by KiCad (PCBNEW 5.1.6-c6e7f7d~87~ubuntu20.04.1) date 2020-08-07 18:55:31*
%MOMM*%
%LPD*%
G01*
G04 APERTURE LIST*
G04 #@! TA.AperFunction,ComponentPad*
%ADD10C,3.438000*%
G04 #@! TD*
G04 #@! TA.AperFunction,SMDPad,CuDef*
%ADD11R,0.900000X2.150000*%
G04 #@! TD*
G04 #@! TA.AperFunction,SMDPad,CuDef*
%ADD12R,0.900000X2.600000*%
G04 #@! TD*
G04 #@! TA.AperFunction,SMDPad,CuDef*
%ADD13R,0.300000X1.100000*%
G04 #@! TD*
G04 #@! TA.AperFunction,ComponentPad*
%ADD14C,0.600000*%
G04 #@! TD*
G04 #@! TA.AperFunction,ComponentPad*
%ADD15O,1.100000X1.950000*%
G04 #@! TD*
G04 #@! TA.AperFunction,ComponentPad*
%ADD16O,1.100000X2.400000*%
G04 #@! TD*
G04 #@! TA.AperFunction,ComponentPad*
%ADD17C,1.800000*%
G04 #@! TD*
G04 #@! TA.AperFunction,WasherPad*
%ADD18C,0.990610*%
G04 #@! TD*
G04 #@! TA.AperFunction,WasherPad*
%ADD19C,2.374910*%
G04 #@! TD*
G04 #@! TA.AperFunction,ComponentPad*
%ADD20R,2.400000X1.500000*%
G04 #@! TD*
G04 #@! TA.AperFunction,ComponentPad*
%ADD21C,1.200000*%
G04 #@! TD*
G04 #@! TA.AperFunction,WasherPad*
%ADD22C,0.850010*%
G04 #@! TD*
G04 #@! TA.AperFunction,SMDPad,CuDef*
%ADD23C,1.000000*%
G04 #@! TD*
G04 #@! TA.AperFunction,ComponentPad*
%ADD24O,1.400000X1.400000*%
G04 #@! TD*
G04 #@! TA.AperFunction,ComponentPad*
%ADD25R,1.400000X1.400000*%
G04 #@! TD*
G04 #@! TA.AperFunction,ComponentPad*
%ADD26C,0.100000*%
G04 #@! TD*
G04 #@! TA.AperFunction,WasherPad*
%ADD27C,3.987810*%
G04 #@! TD*
G04 #@! TA.AperFunction,WasherPad*
%ADD28C,1.701810*%
G04 #@! TD*
G04 #@! TA.AperFunction,SMDPad,CuDef*
%ADD29R,0.600000X0.650000*%
G04 #@! TD*
G04 #@! TA.AperFunction,ViaPad*
%ADD30C,0.406400*%
G04 #@! TD*
G04 #@! TA.AperFunction,ViaPad*
%ADD31C,0.609600*%
G04 #@! TD*
G04 #@! TA.AperFunction,Conductor*
%ADD32C,0.304800*%
G04 #@! TD*
G04 #@! TA.AperFunction,Conductor*
%ADD33C,0.152400*%
G04 #@! TD*
G04 #@! TA.AperFunction,Conductor*
%ADD34C,0.508000*%
G04 #@! TD*
G04 #@! TA.AperFunction,Conductor*
%ADD35C,0.101600*%
G04 #@! TD*
G04 APERTURE END LIST*
D10*
G04 #@! TO.P,J1,MH2*
G04 #@! TO.N,/GND*
X74950000Y-50148000D03*
G04 #@! TO.P,J1,MH1*
X88550000Y-50148000D03*
D11*
G04 #@! TO.P,J1,9*
G04 #@! TO.N,Net-(J1-Pad9)*
X86750000Y-55593000D03*
G04 #@! TO.P,J1,8*
G04 #@! TO.N,Net-(J1-Pad8)*
X84250000Y-55593000D03*
G04 #@! TO.P,J1,7*
G04 #@! TO.N,Net-(J1-Pad7)*
X81750000Y-55593000D03*
G04 #@! TO.P,J1,6*
G04 #@! TO.N,/mcu/RX0*
X79250000Y-55593000D03*
G04 #@! TO.P,J1,5*
G04 #@! TO.N,/mcu/TX0*
X76750000Y-55593000D03*
D12*
G04 #@! TO.P,J1,4*
G04 #@! TO.N,VSS*
X78000000Y-55368000D03*
G04 #@! TO.P,J1,3*
G04 #@! TO.N,Net-(J1-Pad3)*
X80500000Y-55368000D03*
G04 #@! TO.P,J1,2*
G04 #@! TO.N,Net-(J1-Pad2)*
X83000000Y-55368000D03*
G04 #@! TO.P,J1,1*
G04 #@! TO.N,+5V*
X85500000Y-55368000D03*
G04 #@! TD*
D13*
G04 #@! TO.P,P2,1*
G04 #@! TO.N,VSS*
X109049000Y-50596400D03*
G04 #@! TO.P,P2,2*
G04 #@! TO.N,/mcu/TX1*
X108549000Y-50596400D03*
G04 #@! TO.P,P2,3*
G04 #@! TO.N,/mcu/RX1*
X108049000Y-50596400D03*
G04 #@! TO.P,P2,4*
G04 #@! TO.N,+5V*
X107549000Y-50596400D03*
G04 #@! TO.P,P2,5*
G04 #@! TO.N,Net-(P2-Pad5)*
X107049000Y-50596400D03*
G04 #@! TO.P,P2,6*
G04 #@! TO.N,/mcu/USB_DP*
X106549000Y-50596400D03*
G04 #@! TO.P,P2,7*
G04 #@! TO.N,/mcu/USB_DM*
X106049000Y-50596400D03*
G04 #@! TO.P,P2,8*
G04 #@! TO.N,Net-(P2-Pad8)*
X105549000Y-50596400D03*
G04 #@! TO.P,P2,9*
G04 #@! TO.N,+5V*
X105049000Y-50596400D03*
G04 #@! TO.P,P2,10*
G04 #@! TO.N,/mcu/RX1*
X104549000Y-50596400D03*
G04 #@! TO.P,P2,11*
G04 #@! TO.N,/mcu/TX1*
X104049000Y-50596400D03*
G04 #@! TO.P,P2,12*
G04 #@! TO.N,VSS*
X103549000Y-50596400D03*
D14*
G04 #@! TO.P,P2,13*
X103499000Y-49386400D03*
G04 #@! TO.P,P2,14*
G04 #@! TO.N,/mcu/TX1*
X103899000Y-48586400D03*
G04 #@! TO.P,P2,15*
G04 #@! TO.N,/mcu/RX1*
X104699000Y-48586400D03*
G04 #@! TO.P,P2,16*
G04 #@! TO.N,+5V*
X104949000Y-49386400D03*
G04 #@! TO.P,P2,17*
G04 #@! TO.N,Net-(P2-Pad17)*
X105499000Y-48586400D03*
G04 #@! TO.P,P2,18*
G04 #@! TO.N,/mcu/USB_DP*
X105899000Y-49386400D03*
G04 #@! TO.P,P2,19*
G04 #@! TO.N,/mcu/USB_DM*
X106699000Y-49386400D03*
G04 #@! TO.P,P2,20*
G04 #@! TO.N,Net-(P2-Pad20)*
X107099000Y-48586400D03*
G04 #@! TO.P,P2,21*
G04 #@! TO.N,+5V*
X107649000Y-49386400D03*
G04 #@! TO.P,P2,22*
G04 #@! TO.N,/mcu/RX1*
X107899000Y-48586400D03*
G04 #@! TO.P,P2,23*
G04 #@! TO.N,/mcu/TX1*
X108699000Y-48586400D03*
G04 #@! TO.P,P2,24*
G04 #@! TO.N,VSS*
X109099000Y-49386400D03*
D15*
G04 #@! TO.P,P2,25*
G04 #@! TO.N,/GND*
X111099000Y-49011400D03*
X101499000Y-49061400D03*
D16*
X112099000Y-44686400D03*
X100499000Y-44686400D03*
G04 #@! TD*
D17*
G04 #@! TO.P,P3,1*
G04 #@! TO.N,VDD*
X68324826Y-175973603D03*
G04 #@! TO.P,P3,2*
G04 #@! TO.N,/mcu/SWD_DIO*
X70626848Y-174900153D03*
G04 #@! TO.P,P3,3*
G04 #@! TO.N,VSS*
X72928869Y-173826702D03*
G04 #@! TO.P,P3,4*
G04 #@! TO.N,/mcu/SWD_CLK*
X75230891Y-172753252D03*
G04 #@! TO.P,P3,5*
G04 #@! TO.N,+5V*
X77532913Y-171679802D03*
G04 #@! TO.P,P3,6*
G04 #@! TO.N,/mcu/RX0*
X79834935Y-170606351D03*
G04 #@! TO.P,P3,7*
G04 #@! TO.N,/mcu/TX0*
X82136956Y-169532901D03*
G04 #@! TO.P,P3,8*
G04 #@! TO.N,/mcu/RX1*
X84438978Y-168459450D03*
G04 #@! TO.P,P3,9*
G04 #@! TO.N,/mcu/TX1*
X86741000Y-167386000D03*
G04 #@! TO.P,P3,10*
G04 #@! TO.N,/mcu/RX2*
X89043022Y-166312550D03*
G04 #@! TO.P,P3,11*
G04 #@! TO.N,/mcu/TX2*
X91345044Y-165239099D03*
G04 #@! TO.P,P3,12*
G04 #@! TO.N,/mcu/SCLK*
X93647065Y-164165649D03*
G04 #@! TO.P,P3,13*
G04 #@! TO.N,/mcu/MOSI*
X95949087Y-163092198D03*
G04 #@! TO.P,P3,14*
G04 #@! TO.N,/mcu/SDA0*
X98251109Y-162018748D03*
G04 #@! TO.P,P3,15*
G04 #@! TO.N,/mcu/SCL0*
X100553131Y-160945298D03*
G04 #@! TO.P,P3,16*
G04 #@! TO.N,/mcu/MCU_RESET*
X102855152Y-159871847D03*
G04 #@! TO.P,P3,17*
G04 #@! TO.N,/mcu/AUD*
X105157174Y-158798397D03*
G04 #@! TD*
D18*
G04 #@! TO.P,P1,*
G04 #@! TO.N,*
X107315000Y-152146000D03*
X114935000Y-153162000D03*
X114935000Y-151130000D03*
D19*
X107315000Y-154686000D03*
X113030000Y-154686000D03*
X107315000Y-149606000D03*
X113030000Y-149606000D03*
G04 #@! TD*
D20*
G04 #@! TO.P,LCD1,1*
G04 #@! TO.N,VDD*
X161500000Y-54064000D03*
G04 #@! TO.P,LCD1,2*
G04 #@! TO.N,Net-(LCD1-Pad2)*
X164500000Y-54064000D03*
D21*
G04 #@! TO.P,LCD1,3*
G04 #@! TO.N,Net-(C17-Pad2)*
X166800000Y-56014000D03*
G04 #@! TO.P,LCD1,4*
G04 #@! TO.N,Net-(C16-Pad2)*
X168300000Y-56014000D03*
G04 #@! TO.P,LCD1,5*
G04 #@! TO.N,Net-(C15-Pad2)*
X169800000Y-56014000D03*
G04 #@! TO.P,LCD1,6*
G04 #@! TO.N,Net-(C14-Pad2)*
X171300000Y-56014000D03*
G04 #@! TO.P,LCD1,7*
G04 #@! TO.N,Net-(C13-Pad2)*
X172800000Y-56014000D03*
G04 #@! TO.P,LCD1,8*
G04 #@! TO.N,Net-(C12-Pad2)*
X174300000Y-56014000D03*
G04 #@! TO.P,LCD1,9*
G04 #@! TO.N,Net-(C12-Pad1)*
X175800000Y-56014000D03*
G04 #@! TO.P,LCD1,10*
G04 #@! TO.N,Net-(C11-Pad2)*
X177300000Y-56014000D03*
G04 #@! TO.P,LCD1,11*
G04 #@! TO.N,Net-(C11-Pad1)*
X178800000Y-56014000D03*
G04 #@! TO.P,LCD1,12*
G04 #@! TO.N,Net-(C10-Pad1)*
X180300000Y-56014000D03*
G04 #@! TO.P,LCD1,13*
G04 #@! TO.N,VSS*
X181800000Y-56014000D03*
G04 #@! TO.P,LCD1,14*
G04 #@! TO.N,VDD*
X183300000Y-56014000D03*
G04 #@! TO.P,LCD1,15*
G04 #@! TO.N,/mcu/MOSI*
X184800000Y-56014000D03*
G04 #@! TO.P,LCD1,16*
G04 #@! TO.N,/mcu/SCLK*
X186300000Y-56014000D03*
G04 #@! TO.P,LCD1,17*
G04 #@! TO.N,/mcu/A0*
X187800000Y-56014000D03*
G04 #@! TO.P,LCD1,18*
G04 #@! TO.N,/mcu/RST*
X189300000Y-56014000D03*
G04 #@! TO.P,LCD1,19*
G04 #@! TO.N,/mcu/SS1*
X190800000Y-56014000D03*
D20*
G04 #@! TO.P,LCD1,20*
G04 #@! TO.N,Net-(LCD1-Pad20)*
X193100000Y-54064000D03*
G04 #@! TO.P,LCD1,21*
G04 #@! TO.N,Net-(LCD1-Pad21)*
X196100000Y-54064000D03*
D22*
G04 #@! TO.P,LCD1,*
G04 #@! TO.N,*
X198900000Y-56014000D03*
X158700000Y-56014000D03*
G04 #@! TD*
D23*
G04 #@! TO.P,FID6,*
G04 #@! TO.N,*
X44577000Y-149098000D03*
G04 #@! TD*
G04 #@! TO.P,FID4,*
G04 #@! TO.N,*
X179197000Y-116078000D03*
G04 #@! TD*
G04 #@! TO.P,FID2,*
G04 #@! TO.N,*
X69977000Y-55118000D03*
G04 #@! TD*
D24*
G04 #@! TO.P,D51,2*
G04 #@! TO.N,/ledmatrix/CA3*
X168910000Y-80972700D03*
D25*
G04 #@! TO.P,D51,1*
G04 #@! TO.N,/ledmatrix/CA4*
X166370000Y-80972700D03*
G04 #@! TD*
G04 #@! TO.P,D69,2*
G04 #@! TO.N,/ledmatrix/CA1*
G04 #@! TA.AperFunction,ComponentPad*
G36*
G01*
X49170296Y-172957108D02*
X49170296Y-172957108D01*
G75*
G02*
X49508878Y-172026860I634415J295833D01*
G01*
X49508878Y-172026860D01*
G75*
G02*
X50439126Y-172365442I295833J-634415D01*
G01*
X50439126Y-172365442D01*
G75*
G02*
X50100544Y-173295690I-634415J-295833D01*
G01*
X50100544Y-173295690D01*
G75*
G02*
X49170296Y-172957108I-295833J634415D01*
G01*
G37*
G04 #@! TD.AperFunction*
G04 #@! TA.AperFunction,ComponentPad*
D26*
G04 #@! TO.P,D69,1*
G04 #@! TO.N,/ledmatrix/CA8*
G36*
X47164106Y-174664973D02*
G01*
X46572441Y-173396142D01*
X47841272Y-172804477D01*
X48432937Y-174073308D01*
X47164106Y-174664973D01*
G37*
G04 #@! TD.AperFunction*
G04 #@! TD*
D24*
G04 #@! TO.P,D66,2*
G04 #@! TO.N,/ledmatrix/CA3*
X168910000Y-119073000D03*
D25*
G04 #@! TO.P,D66,1*
G04 #@! TO.N,/ledmatrix/CA7*
X166370000Y-119073000D03*
G04 #@! TD*
D24*
G04 #@! TO.P,D50,2*
G04 #@! TO.N,/ledmatrix/CA2*
X149860000Y-77797700D03*
D25*
G04 #@! TO.P,D50,1*
G04 #@! TO.N,/ledmatrix/CA4*
X147320000Y-77797700D03*
G04 #@! TD*
D24*
G04 #@! TO.P,D65,2*
G04 #@! TO.N,/ledmatrix/CA2*
X149860000Y-115898000D03*
D25*
G04 #@! TO.P,D65,1*
G04 #@! TO.N,/ledmatrix/CA7*
X147320000Y-115898000D03*
G04 #@! TD*
D24*
G04 #@! TO.P,D49,2*
G04 #@! TO.N,/ledmatrix/CA1*
X130810000Y-76200000D03*
D25*
G04 #@! TO.P,D49,1*
G04 #@! TO.N,/ledmatrix/CA4*
X128270000Y-76200000D03*
G04 #@! TD*
D24*
G04 #@! TO.P,D64,2*
G04 #@! TO.N,/ledmatrix/CA1*
X130810000Y-114300000D03*
D25*
G04 #@! TO.P,D64,1*
G04 #@! TO.N,/ledmatrix/CA7*
X128270000Y-114300000D03*
G04 #@! TD*
D24*
G04 #@! TO.P,D48,2*
G04 #@! TO.N,/ledmatrix/CA5*
X111760000Y-77797700D03*
D25*
G04 #@! TO.P,D48,1*
G04 #@! TO.N,/ledmatrix/CA2*
X109220000Y-77797700D03*
G04 #@! TD*
D24*
G04 #@! TO.P,D67,2*
G04 #@! TO.N,/ledmatrix/CA4*
X192722000Y-119073000D03*
D25*
G04 #@! TO.P,D67,1*
G04 #@! TO.N,/ledmatrix/CA7*
X190182000Y-119073000D03*
G04 #@! TD*
D24*
G04 #@! TO.P,D52,2*
G04 #@! TO.N,/ledmatrix/CA4*
X192722000Y-80972700D03*
D25*
G04 #@! TO.P,D52,1*
G04 #@! TO.N,/ledmatrix/CA3*
X190182000Y-80972700D03*
G04 #@! TD*
G04 #@! TO.P,D68,2*
G04 #@! TO.N,/ledmatrix/CA5*
G04 #@! TA.AperFunction,ComponentPad*
G36*
G01*
X41118496Y-155690108D02*
X41118496Y-155690108D01*
G75*
G02*
X41457078Y-154759860I634415J295833D01*
G01*
X41457078Y-154759860D01*
G75*
G02*
X42387326Y-155098442I295833J-634415D01*
G01*
X42387326Y-155098442D01*
G75*
G02*
X42048744Y-156028690I-634415J-295833D01*
G01*
X42048744Y-156028690D01*
G75*
G02*
X41118496Y-155690108I-295833J634415D01*
G01*
G37*
G04 #@! TD.AperFunction*
G04 #@! TA.AperFunction,ComponentPad*
D26*
G04 #@! TO.P,D68,1*
G04 #@! TO.N,/ledmatrix/CA7*
G36*
X39112306Y-157397973D02*
G01*
X38520641Y-156129142D01*
X39789472Y-155537477D01*
X40381137Y-156806308D01*
X39112306Y-157397973D01*
G37*
G04 #@! TD.AperFunction*
G04 #@! TD*
D24*
G04 #@! TO.P,D53,2*
G04 #@! TO.N,/ledmatrix/CA5*
X92710000Y-98118000D03*
D25*
G04 #@! TO.P,D53,1*
G04 #@! TO.N,/ledmatrix/CA3*
X90170000Y-98118000D03*
G04 #@! TD*
D24*
G04 #@! TO.P,D63,2*
G04 #@! TO.N,/ledmatrix/CA5*
X111760000Y-115898000D03*
D25*
G04 #@! TO.P,D63,1*
G04 #@! TO.N,/ledmatrix/CA6*
X109220000Y-115898000D03*
G04 #@! TD*
D24*
G04 #@! TO.P,D54,2*
G04 #@! TO.N,/ledmatrix/CA1*
X111760000Y-96848000D03*
D25*
G04 #@! TO.P,D54,1*
G04 #@! TO.N,/ledmatrix/CA5*
X109220000Y-96848000D03*
G04 #@! TD*
G04 #@! TO.P,D70,2*
G04 #@! TO.N,/ledmatrix/CA2*
G04 #@! TA.AperFunction,ComponentPad*
G36*
G01*
X59195108Y-162749404D02*
X59195108Y-162749404D01*
G75*
G02*
X58264860Y-162410822I-295833J634415D01*
G01*
X58264860Y-162410822D01*
G75*
G02*
X58603442Y-161480574I634415J295833D01*
G01*
X58603442Y-161480574D01*
G75*
G02*
X59533690Y-161819156I295833J-634415D01*
G01*
X59533690Y-161819156D01*
G75*
G02*
X59195108Y-162749404I-634415J-295833D01*
G01*
G37*
G04 #@! TD.AperFunction*
G04 #@! TA.AperFunction,ComponentPad*
D26*
G04 #@! TO.P,D70,1*
G04 #@! TO.N,/ledmatrix/CA8*
G36*
X60902973Y-164755594D02*
G01*
X59634142Y-165347259D01*
X59042477Y-164078428D01*
X60311308Y-163486763D01*
X60902973Y-164755594D01*
G37*
G04 #@! TD.AperFunction*
G04 #@! TD*
D24*
G04 #@! TO.P,D43,2*
G04 #@! TO.N,/ledmatrix/CA5*
X149860000Y-58747700D03*
D25*
G04 #@! TO.P,D43,1*
G04 #@! TO.N,/ledmatrix/CA1*
X147320000Y-58747700D03*
G04 #@! TD*
D24*
G04 #@! TO.P,D55,2*
G04 #@! TO.N,/ledmatrix/CA2*
X130810000Y-95250000D03*
D25*
G04 #@! TO.P,D55,1*
G04 #@! TO.N,/ledmatrix/CA5*
X128270000Y-95250000D03*
G04 #@! TD*
G04 #@! TO.P,D71,2*
G04 #@! TO.N,/ledmatrix/CA3*
G04 #@! TA.AperFunction,ComponentPad*
G36*
G01*
X76456908Y-154693404D02*
X76456908Y-154693404D01*
G75*
G02*
X75526660Y-154354822I-295833J634415D01*
G01*
X75526660Y-154354822D01*
G75*
G02*
X75865242Y-153424574I634415J295833D01*
G01*
X75865242Y-153424574D01*
G75*
G02*
X76795490Y-153763156I295833J-634415D01*
G01*
X76795490Y-153763156D01*
G75*
G02*
X76456908Y-154693404I-634415J-295833D01*
G01*
G37*
G04 #@! TD.AperFunction*
G04 #@! TA.AperFunction,ComponentPad*
D26*
G04 #@! TO.P,D71,1*
G04 #@! TO.N,/ledmatrix/CA8*
G36*
X78164773Y-156699594D02*
G01*
X76895942Y-157291259D01*
X76304277Y-156022428D01*
X77573108Y-155430763D01*
X78164773Y-156699594D01*
G37*
G04 #@! TD.AperFunction*
G04 #@! TD*
D24*
G04 #@! TO.P,D40,2*
G04 #@! TO.N,/ledmatrix/CA2*
X92710000Y-60020200D03*
D25*
G04 #@! TO.P,D40,1*
G04 #@! TO.N,/ledmatrix/CA1*
X90170000Y-60020200D03*
G04 #@! TD*
D24*
G04 #@! TO.P,D56,2*
G04 #@! TO.N,/ledmatrix/CA3*
X149860000Y-96848000D03*
D25*
G04 #@! TO.P,D56,1*
G04 #@! TO.N,/ledmatrix/CA5*
X147320000Y-96848000D03*
G04 #@! TD*
D24*
G04 #@! TO.P,D72,2*
G04 #@! TO.N,/ledmatrix/CA4*
X111760000Y-134948000D03*
D25*
G04 #@! TO.P,D72,1*
G04 #@! TO.N,/ledmatrix/CA8*
X109220000Y-134948000D03*
G04 #@! TD*
D24*
G04 #@! TO.P,D41,2*
G04 #@! TO.N,/ledmatrix/CA3*
X111760000Y-58747700D03*
D25*
G04 #@! TO.P,D41,1*
G04 #@! TO.N,/ledmatrix/CA1*
X109220000Y-58747700D03*
G04 #@! TD*
D24*
G04 #@! TO.P,D57,2*
G04 #@! TO.N,/ledmatrix/CA4*
X168910000Y-100023000D03*
D25*
G04 #@! TO.P,D57,1*
G04 #@! TO.N,/ledmatrix/CA5*
X166370000Y-100023000D03*
G04 #@! TD*
D24*
G04 #@! TO.P,D73,2*
G04 #@! TO.N,/ledmatrix/CA1*
X130810000Y-133350000D03*
D25*
G04 #@! TO.P,D73,1*
G04 #@! TO.N,/ledmatrix/CA9*
X128270000Y-133350000D03*
G04 #@! TD*
D24*
G04 #@! TO.P,D42,2*
G04 #@! TO.N,/ledmatrix/CA4*
X130810000Y-57150000D03*
D25*
G04 #@! TO.P,D42,1*
G04 #@! TO.N,/ledmatrix/CA1*
X128270000Y-57150000D03*
G04 #@! TD*
D24*
G04 #@! TO.P,D58,2*
G04 #@! TO.N,/ledmatrix/CA5*
X192722000Y-100023000D03*
D25*
G04 #@! TO.P,D58,1*
G04 #@! TO.N,/ledmatrix/CA4*
X190182000Y-100023000D03*
G04 #@! TD*
D24*
G04 #@! TO.P,D74,2*
G04 #@! TO.N,/ledmatrix/CA2*
X149860000Y-134948000D03*
D25*
G04 #@! TO.P,D74,1*
G04 #@! TO.N,/ledmatrix/CA9*
X147320000Y-134948000D03*
G04 #@! TD*
D24*
G04 #@! TO.P,D39,2*
G04 #@! TO.N,/ledmatrix/CA1*
X73660000Y-60020200D03*
D25*
G04 #@! TO.P,D39,1*
G04 #@! TO.N,/ledmatrix/CA2*
X71120000Y-60020200D03*
G04 #@! TD*
G04 #@! TO.P,D59,2*
G04 #@! TO.N,/ledmatrix/CA1*
G04 #@! TA.AperFunction,ComponentPad*
G36*
G01*
X33069196Y-138426108D02*
X33069196Y-138426108D01*
G75*
G02*
X33407778Y-137495860I634415J295833D01*
G01*
X33407778Y-137495860D01*
G75*
G02*
X34338026Y-137834442I295833J-634415D01*
G01*
X34338026Y-137834442D01*
G75*
G02*
X33999444Y-138764690I-634415J-295833D01*
G01*
X33999444Y-138764690D01*
G75*
G02*
X33069196Y-138426108I-295833J634415D01*
G01*
G37*
G04 #@! TD.AperFunction*
G04 #@! TA.AperFunction,ComponentPad*
D26*
G04 #@! TO.P,D59,1*
G04 #@! TO.N,/ledmatrix/CA6*
G36*
X31063006Y-140133973D02*
G01*
X30471341Y-138865142D01*
X31740172Y-138273477D01*
X32331837Y-139542308D01*
X31063006Y-140133973D01*
G37*
G04 #@! TD.AperFunction*
G04 #@! TD*
D24*
G04 #@! TO.P,D75,2*
G04 #@! TO.N,/ledmatrix/CA3*
X168910000Y-138123000D03*
D25*
G04 #@! TO.P,D75,1*
G04 #@! TO.N,/ledmatrix/CA9*
X166370000Y-138123000D03*
G04 #@! TD*
D24*
G04 #@! TO.P,D44,2*
G04 #@! TO.N,/ledmatrix/CA1*
X168910000Y-61925200D03*
D25*
G04 #@! TO.P,D44,1*
G04 #@! TO.N,/ledmatrix/CA3*
X166370000Y-61925200D03*
G04 #@! TD*
G04 #@! TO.P,D60,2*
G04 #@! TO.N,/ledmatrix/CA2*
G04 #@! TA.AperFunction,ComponentPad*
G36*
G01*
X50333596Y-130376108D02*
X50333596Y-130376108D01*
G75*
G02*
X50672178Y-129445860I634415J295833D01*
G01*
X50672178Y-129445860D01*
G75*
G02*
X51602426Y-129784442I295833J-634415D01*
G01*
X51602426Y-129784442D01*
G75*
G02*
X51263844Y-130714690I-634415J-295833D01*
G01*
X51263844Y-130714690D01*
G75*
G02*
X50333596Y-130376108I-295833J634415D01*
G01*
G37*
G04 #@! TD.AperFunction*
G04 #@! TA.AperFunction,ComponentPad*
D26*
G04 #@! TO.P,D60,1*
G04 #@! TO.N,/ledmatrix/CA6*
G36*
X48327406Y-132083973D02*
G01*
X47735741Y-130815142D01*
X49004572Y-130223477D01*
X49596237Y-131492308D01*
X48327406Y-132083973D01*
G37*
G04 #@! TD.AperFunction*
G04 #@! TD*
D24*
G04 #@! TO.P,D76,2*
G04 #@! TO.N,/ledmatrix/CA4*
X187960000Y-138123000D03*
D25*
G04 #@! TO.P,D76,1*
G04 #@! TO.N,/ledmatrix/CA9*
X185420000Y-138123000D03*
G04 #@! TD*
D24*
G04 #@! TO.P,D45,2*
G04 #@! TO.N,/ledmatrix/CA2*
X192722000Y-61925200D03*
D25*
G04 #@! TO.P,D45,1*
G04 #@! TO.N,/ledmatrix/CA3*
X190182000Y-61925200D03*
G04 #@! TD*
D24*
G04 #@! TO.P,D61,2*
G04 #@! TO.N,/ledmatrix/CA3*
X67310000Y-116215000D03*
D25*
G04 #@! TO.P,D61,1*
G04 #@! TO.N,/ledmatrix/CA6*
X67310000Y-118755000D03*
G04 #@! TD*
D24*
G04 #@! TO.P,D46,2*
G04 #@! TO.N,/ledmatrix/CA3*
X67310000Y-87640200D03*
D25*
G04 #@! TO.P,D46,1*
G04 #@! TO.N,/ledmatrix/CA2*
X67310000Y-90180200D03*
G04 #@! TD*
D24*
G04 #@! TO.P,D62,2*
G04 #@! TO.N,/ledmatrix/CA4*
X92710000Y-117168000D03*
D25*
G04 #@! TO.P,D62,1*
G04 #@! TO.N,/ledmatrix/CA6*
X90170000Y-117168000D03*
G04 #@! TD*
D24*
G04 #@! TO.P,D47,2*
G04 #@! TO.N,/ledmatrix/CA4*
X92710000Y-79067700D03*
D25*
G04 #@! TO.P,D47,1*
G04 #@! TO.N,/ledmatrix/CA2*
X90170000Y-79067700D03*
G04 #@! TD*
D27*
G04 #@! TO.P,S33,*
G04 #@! TO.N,*
X81302900Y-153065000D03*
D28*
X79155999Y-148460956D03*
X83449801Y-157669044D03*
G04 #@! TO.P,S33,1*
G04 #@! TO.N,/Col4*
G04 #@! TA.AperFunction,ComponentPad*
G36*
G01*
X82082880Y-147291208D02*
X83748710Y-147409156D01*
G75*
G02*
X84907304Y-148744318I-88284J-1246878D01*
G01*
X84907304Y-148744318D01*
G75*
G02*
X83572142Y-149902912I-1246878J88284D01*
G01*
X81906312Y-149784964D01*
G75*
G02*
X80747718Y-148449802I88284J1246878D01*
G01*
X80747718Y-148449802D01*
G75*
G02*
X82082880Y-147291208I1246878J-88284D01*
G01*
G37*
G04 #@! TD.AperFunction*
G04 #@! TO.P,S33,2*
G04 #@! TO.N,Net-(D33-Pad1)*
G04 #@! TA.AperFunction,ComponentPad*
G36*
G01*
X85988559Y-152262761D02*
X86529673Y-152053963D01*
G75*
G02*
X88145861Y-152770159I449996J-1166192D01*
G01*
X88145861Y-152770159D01*
G75*
G02*
X87429665Y-154386347I-1166192J-449996D01*
G01*
X86888551Y-154595145D01*
G75*
G02*
X85272363Y-153878949I-449996J1166192D01*
G01*
X85272363Y-153878949D01*
G75*
G02*
X85988559Y-152262761I1166192J449996D01*
G01*
G37*
G04 #@! TD.AperFunction*
G04 #@! TD*
D27*
G04 #@! TO.P,S22,*
G04 #@! TO.N,*
X51963300Y-135219000D03*
D28*
X56567344Y-133072099D03*
X47359256Y-137365901D03*
G04 #@! TO.P,S22,1*
G04 #@! TO.N,/Col2*
G04 #@! TA.AperFunction,ComponentPad*
G36*
G01*
X57737092Y-135998980D02*
X57619144Y-137664810D01*
G75*
G02*
X56283982Y-138823404I-1246878J88284D01*
G01*
X56283982Y-138823404D01*
G75*
G02*
X55125388Y-137488242I88284J1246878D01*
G01*
X55243336Y-135822412D01*
G75*
G02*
X56578498Y-134663818I1246878J-88284D01*
G01*
X56578498Y-134663818D01*
G75*
G02*
X57737092Y-135998980I-88284J-1246878D01*
G01*
G37*
G04 #@! TD.AperFunction*
G04 #@! TO.P,S22,2*
G04 #@! TO.N,Net-(D22-Pad1)*
G04 #@! TA.AperFunction,ComponentPad*
G36*
G01*
X52765539Y-139904659D02*
X52974337Y-140445773D01*
G75*
G02*
X52258141Y-142061961I-1166192J-449996D01*
G01*
X52258141Y-142061961D01*
G75*
G02*
X50641953Y-141345765I-449996J1166192D01*
G01*
X50433155Y-140804651D01*
G75*
G02*
X51149351Y-139188463I1166192J449996D01*
G01*
X51149351Y-139188463D01*
G75*
G02*
X52765539Y-139904659I449996J-1166192D01*
G01*
G37*
G04 #@! TD.AperFunction*
G04 #@! TD*
D27*
G04 #@! TO.P,S2,*
G04 #@! TO.N,*
X91440000Y-65100200D03*
D28*
X96520000Y-65100200D03*
X86360000Y-65100200D03*
G04 #@! TO.P,S2,1*
G04 #@! TO.N,/Col4*
G04 #@! TA.AperFunction,ComponentPad*
G36*
G01*
X96343199Y-68247212D02*
X95532292Y-69707120D01*
G75*
G02*
X93832581Y-70192899I-1092745J606966D01*
G01*
X93832581Y-70192899D01*
G75*
G02*
X93346802Y-68493188I606966J1092745D01*
G01*
X94157708Y-67033280D01*
G75*
G02*
X95857419Y-66547501I1092745J-606966D01*
G01*
X95857419Y-66547501D01*
G75*
G02*
X96343198Y-68247212I-606966J-1092745D01*
G01*
G37*
G04 #@! TD.AperFunction*
G04 #@! TO.P,S2,2*
G04 #@! TO.N,Net-(D2-Pad1)*
G04 #@! TA.AperFunction,ComponentPad*
G36*
G01*
X90186830Y-69685891D02*
X90147381Y-70264547D01*
G75*
G02*
X88815257Y-71426633I-1247105J85019D01*
G01*
X88815257Y-71426633D01*
G75*
G02*
X87653171Y-70094509I85019J1247105D01*
G01*
X87692619Y-69515853D01*
G75*
G02*
X89024743Y-68353767I1247105J-85019D01*
G01*
X89024743Y-68353767D01*
G75*
G02*
X90186829Y-69685891I-85019J-1247105D01*
G01*
G37*
G04 #@! TD.AperFunction*
G04 #@! TD*
D27*
G04 #@! TO.P,S12,*
G04 #@! TO.N,*
X148590000Y-82877700D03*
D28*
X153670000Y-82877700D03*
X143510000Y-82877700D03*
G04 #@! TO.P,S12,1*
G04 #@! TO.N,/Col7*
G04 #@! TA.AperFunction,ComponentPad*
G36*
G01*
X153493199Y-86024712D02*
X152682292Y-87484620D01*
G75*
G02*
X150982581Y-87970399I-1092745J606966D01*
G01*
X150982581Y-87970399D01*
G75*
G02*
X150496802Y-86270688I606966J1092745D01*
G01*
X151307708Y-84810780D01*
G75*
G02*
X153007419Y-84325001I1092745J-606966D01*
G01*
X153007419Y-84325001D01*
G75*
G02*
X153493198Y-86024712I-606966J-1092745D01*
G01*
G37*
G04 #@! TD.AperFunction*
G04 #@! TO.P,S12,2*
G04 #@! TO.N,Net-(D12-Pad1)*
G04 #@! TA.AperFunction,ComponentPad*
G36*
G01*
X147336830Y-87463391D02*
X147297381Y-88042047D01*
G75*
G02*
X145965257Y-89204133I-1247105J85019D01*
G01*
X145965257Y-89204133D01*
G75*
G02*
X144803171Y-87872009I85019J1247105D01*
G01*
X144842619Y-87293353D01*
G75*
G02*
X146174743Y-86131267I1247105J-85019D01*
G01*
X146174743Y-86131267D01*
G75*
G02*
X147336829Y-87463391I-85019J-1247105D01*
G01*
G37*
G04 #@! TD.AperFunction*
G04 #@! TD*
D27*
G04 #@! TO.P,S32,*
G04 #@! TO.N,*
X64038500Y-161117000D03*
D28*
X61891599Y-156512956D03*
X66185401Y-165721044D03*
G04 #@! TO.P,S32,1*
G04 #@! TO.N,/Col3*
G04 #@! TA.AperFunction,ComponentPad*
G36*
G01*
X64818480Y-155343208D02*
X66484310Y-155461156D01*
G75*
G02*
X67642904Y-156796318I-88284J-1246878D01*
G01*
X67642904Y-156796318D01*
G75*
G02*
X66307742Y-157954912I-1246878J88284D01*
G01*
X64641912Y-157836964D01*
G75*
G02*
X63483318Y-156501802I88284J1246878D01*
G01*
X63483318Y-156501802D01*
G75*
G02*
X64818480Y-155343208I1246878J-88284D01*
G01*
G37*
G04 #@! TD.AperFunction*
G04 #@! TO.P,S32,2*
G04 #@! TO.N,Net-(D32-Pad1)*
G04 #@! TA.AperFunction,ComponentPad*
G36*
G01*
X68724159Y-160314761D02*
X69265273Y-160105963D01*
G75*
G02*
X70881461Y-160822159I449996J-1166192D01*
G01*
X70881461Y-160822159D01*
G75*
G02*
X70165265Y-162438347I-1166192J-449996D01*
G01*
X69624151Y-162647145D01*
G75*
G02*
X68007963Y-161930949I-449996J1166192D01*
G01*
X68007963Y-161930949D01*
G75*
G02*
X68724159Y-160314761I1166192J449996D01*
G01*
G37*
G04 #@! TD.AperFunction*
G04 #@! TD*
D27*
G04 #@! TO.P,S34,*
G04 #@! TO.N,*
X110490000Y-140028000D03*
D28*
X115570000Y-140028000D03*
X105410000Y-140028000D03*
G04 #@! TO.P,S34,1*
G04 #@! TO.N,/Col5*
G04 #@! TA.AperFunction,ComponentPad*
G36*
G01*
X115393199Y-143175012D02*
X114582292Y-144634920D01*
G75*
G02*
X112882581Y-145120699I-1092745J606966D01*
G01*
X112882581Y-145120699D01*
G75*
G02*
X112396802Y-143420988I606966J1092745D01*
G01*
X113207708Y-141961080D01*
G75*
G02*
X114907419Y-141475301I1092745J-606966D01*
G01*
X114907419Y-141475301D01*
G75*
G02*
X115393198Y-143175012I-606966J-1092745D01*
G01*
G37*
G04 #@! TD.AperFunction*
G04 #@! TO.P,S34,2*
G04 #@! TO.N,Net-(D34-Pad1)*
G04 #@! TA.AperFunction,ComponentPad*
G36*
G01*
X109236830Y-144613691D02*
X109197381Y-145192347D01*
G75*
G02*
X107865257Y-146354433I-1247105J85019D01*
G01*
X107865257Y-146354433D01*
G75*
G02*
X106703171Y-145022309I85019J1247105D01*
G01*
X106742619Y-144443653D01*
G75*
G02*
X108074743Y-143281567I1247105J-85019D01*
G01*
X108074743Y-143281567D01*
G75*
G02*
X109236829Y-144613691I-85019J-1247105D01*
G01*
G37*
G04 #@! TD.AperFunction*
G04 #@! TD*
D27*
G04 #@! TO.P,S35,*
G04 #@! TO.N,*
X129540000Y-138430000D03*
D28*
X134620000Y-138430000D03*
X124460000Y-138430000D03*
G04 #@! TO.P,S35,1*
G04 #@! TO.N,/Col6*
G04 #@! TA.AperFunction,ComponentPad*
G36*
G01*
X134443199Y-141577012D02*
X133632292Y-143036920D01*
G75*
G02*
X131932581Y-143522699I-1092745J606966D01*
G01*
X131932581Y-143522699D01*
G75*
G02*
X131446802Y-141822988I606966J1092745D01*
G01*
X132257708Y-140363080D01*
G75*
G02*
X133957419Y-139877301I1092745J-606966D01*
G01*
X133957419Y-139877301D01*
G75*
G02*
X134443198Y-141577012I-606966J-1092745D01*
G01*
G37*
G04 #@! TD.AperFunction*
G04 #@! TO.P,S35,2*
G04 #@! TO.N,Net-(D35-Pad1)*
G04 #@! TA.AperFunction,ComponentPad*
G36*
G01*
X128286830Y-143015691D02*
X128247381Y-143594347D01*
G75*
G02*
X126915257Y-144756433I-1247105J85019D01*
G01*
X126915257Y-144756433D01*
G75*
G02*
X125753171Y-143424309I85019J1247105D01*
G01*
X125792619Y-142845653D01*
G75*
G02*
X127124743Y-141683567I1247105J-85019D01*
G01*
X127124743Y-141683567D01*
G75*
G02*
X128286829Y-143015691I-85019J-1247105D01*
G01*
G37*
G04 #@! TD.AperFunction*
G04 #@! TD*
D27*
G04 #@! TO.P,S37,*
G04 #@! TO.N,*
X167640000Y-143203000D03*
D28*
X172720000Y-143203000D03*
X162560000Y-143203000D03*
G04 #@! TO.P,S37,1*
G04 #@! TO.N,/Col8*
G04 #@! TA.AperFunction,ComponentPad*
G36*
G01*
X172543199Y-146350012D02*
X171732292Y-147809920D01*
G75*
G02*
X170032581Y-148295699I-1092745J606966D01*
G01*
X170032581Y-148295699D01*
G75*
G02*
X169546802Y-146595988I606966J1092745D01*
G01*
X170357708Y-145136080D01*
G75*
G02*
X172057419Y-144650301I1092745J-606966D01*
G01*
X172057419Y-144650301D01*
G75*
G02*
X172543198Y-146350012I-606966J-1092745D01*
G01*
G37*
G04 #@! TD.AperFunction*
G04 #@! TO.P,S37,2*
G04 #@! TO.N,Net-(D37-Pad1)*
G04 #@! TA.AperFunction,ComponentPad*
G36*
G01*
X166386830Y-147788691D02*
X166347381Y-148367347D01*
G75*
G02*
X165015257Y-149529433I-1247105J85019D01*
G01*
X165015257Y-149529433D01*
G75*
G02*
X163853171Y-148197309I85019J1247105D01*
G01*
X163892619Y-147618653D01*
G75*
G02*
X165224743Y-146456567I1247105J-85019D01*
G01*
X165224743Y-146456567D01*
G75*
G02*
X166386829Y-147788691I-85019J-1247105D01*
G01*
G37*
G04 #@! TD.AperFunction*
G04 #@! TD*
D27*
G04 #@! TO.P,S24,*
G04 #@! TO.N,*
X91440000Y-122248000D03*
D28*
X96520000Y-122248000D03*
X86360000Y-122248000D03*
G04 #@! TO.P,S24,1*
G04 #@! TO.N,/Col4*
G04 #@! TA.AperFunction,ComponentPad*
G36*
G01*
X96343199Y-125395012D02*
X95532292Y-126854920D01*
G75*
G02*
X93832581Y-127340699I-1092745J606966D01*
G01*
X93832581Y-127340699D01*
G75*
G02*
X93346802Y-125640988I606966J1092745D01*
G01*
X94157708Y-124181080D01*
G75*
G02*
X95857419Y-123695301I1092745J-606966D01*
G01*
X95857419Y-123695301D01*
G75*
G02*
X96343198Y-125395012I-606966J-1092745D01*
G01*
G37*
G04 #@! TD.AperFunction*
G04 #@! TO.P,S24,2*
G04 #@! TO.N,Net-(D24-Pad1)*
G04 #@! TA.AperFunction,ComponentPad*
G36*
G01*
X90186830Y-126833691D02*
X90147381Y-127412347D01*
G75*
G02*
X88815257Y-128574433I-1247105J85019D01*
G01*
X88815257Y-128574433D01*
G75*
G02*
X87653171Y-127242309I85019J1247105D01*
G01*
X87692619Y-126663653D01*
G75*
G02*
X89024743Y-125501567I1247105J-85019D01*
G01*
X89024743Y-125501567D01*
G75*
G02*
X90186829Y-126833691I-85019J-1247105D01*
G01*
G37*
G04 #@! TD.AperFunction*
G04 #@! TD*
D27*
G04 #@! TO.P,S25,*
G04 #@! TO.N,*
X110490000Y-120978000D03*
D28*
X115570000Y-120978000D03*
X105410000Y-120978000D03*
G04 #@! TO.P,S25,1*
G04 #@! TO.N,/Col5*
G04 #@! TA.AperFunction,ComponentPad*
G36*
G01*
X115393199Y-124125012D02*
X114582292Y-125584920D01*
G75*
G02*
X112882581Y-126070699I-1092745J606966D01*
G01*
X112882581Y-126070699D01*
G75*
G02*
X112396802Y-124370988I606966J1092745D01*
G01*
X113207708Y-122911080D01*
G75*
G02*
X114907419Y-122425301I1092745J-606966D01*
G01*
X114907419Y-122425301D01*
G75*
G02*
X115393198Y-124125012I-606966J-1092745D01*
G01*
G37*
G04 #@! TD.AperFunction*
G04 #@! TO.P,S25,2*
G04 #@! TO.N,Net-(D25-Pad1)*
G04 #@! TA.AperFunction,ComponentPad*
G36*
G01*
X109236830Y-125563691D02*
X109197381Y-126142347D01*
G75*
G02*
X107865257Y-127304433I-1247105J85019D01*
G01*
X107865257Y-127304433D01*
G75*
G02*
X106703171Y-125972309I85019J1247105D01*
G01*
X106742619Y-125393653D01*
G75*
G02*
X108074743Y-124231567I1247105J-85019D01*
G01*
X108074743Y-124231567D01*
G75*
G02*
X109236829Y-125563691I-85019J-1247105D01*
G01*
G37*
G04 #@! TD.AperFunction*
G04 #@! TD*
D27*
G04 #@! TO.P,S26,*
G04 #@! TO.N,*
X129540000Y-119380000D03*
D28*
X134620000Y-119380000D03*
X124460000Y-119380000D03*
G04 #@! TO.P,S26,1*
G04 #@! TO.N,/Col6*
G04 #@! TA.AperFunction,ComponentPad*
G36*
G01*
X134443199Y-122527012D02*
X133632292Y-123986920D01*
G75*
G02*
X131932581Y-124472699I-1092745J606966D01*
G01*
X131932581Y-124472699D01*
G75*
G02*
X131446802Y-122772988I606966J1092745D01*
G01*
X132257708Y-121313080D01*
G75*
G02*
X133957419Y-120827301I1092745J-606966D01*
G01*
X133957419Y-120827301D01*
G75*
G02*
X134443198Y-122527012I-606966J-1092745D01*
G01*
G37*
G04 #@! TD.AperFunction*
G04 #@! TO.P,S26,2*
G04 #@! TO.N,Net-(D26-Pad1)*
G04 #@! TA.AperFunction,ComponentPad*
G36*
G01*
X128286830Y-123965691D02*
X128247381Y-124544347D01*
G75*
G02*
X126915257Y-125706433I-1247105J85019D01*
G01*
X126915257Y-125706433D01*
G75*
G02*
X125753171Y-124374309I85019J1247105D01*
G01*
X125792619Y-123795653D01*
G75*
G02*
X127124743Y-122633567I1247105J-85019D01*
G01*
X127124743Y-122633567D01*
G75*
G02*
X128286829Y-123965691I-85019J-1247105D01*
G01*
G37*
G04 #@! TD.AperFunction*
G04 #@! TD*
D27*
G04 #@! TO.P,S27,*
G04 #@! TO.N,*
X148590000Y-120978000D03*
D28*
X153670000Y-120978000D03*
X143510000Y-120978000D03*
G04 #@! TO.P,S27,1*
G04 #@! TO.N,/Col7*
G04 #@! TA.AperFunction,ComponentPad*
G36*
G01*
X153493199Y-124125012D02*
X152682292Y-125584920D01*
G75*
G02*
X150982581Y-126070699I-1092745J606966D01*
G01*
X150982581Y-126070699D01*
G75*
G02*
X150496802Y-124370988I606966J1092745D01*
G01*
X151307708Y-122911080D01*
G75*
G02*
X153007419Y-122425301I1092745J-606966D01*
G01*
X153007419Y-122425301D01*
G75*
G02*
X153493198Y-124125012I-606966J-1092745D01*
G01*
G37*
G04 #@! TD.AperFunction*
G04 #@! TO.P,S27,2*
G04 #@! TO.N,Net-(D27-Pad1)*
G04 #@! TA.AperFunction,ComponentPad*
G36*
G01*
X147336830Y-125563691D02*
X147297381Y-126142347D01*
G75*
G02*
X145965257Y-127304433I-1247105J85019D01*
G01*
X145965257Y-127304433D01*
G75*
G02*
X144803171Y-125972309I85019J1247105D01*
G01*
X144842619Y-125393653D01*
G75*
G02*
X146174743Y-124231567I1247105J-85019D01*
G01*
X146174743Y-124231567D01*
G75*
G02*
X147336829Y-125563691I-85019J-1247105D01*
G01*
G37*
G04 #@! TD.AperFunction*
G04 #@! TD*
D27*
G04 #@! TO.P,S28,*
G04 #@! TO.N,*
X167640000Y-124153000D03*
D28*
X172720000Y-124153000D03*
X162560000Y-124153000D03*
G04 #@! TO.P,S28,1*
G04 #@! TO.N,/Col8*
G04 #@! TA.AperFunction,ComponentPad*
G36*
G01*
X172543199Y-127300012D02*
X171732292Y-128759920D01*
G75*
G02*
X170032581Y-129245699I-1092745J606966D01*
G01*
X170032581Y-129245699D01*
G75*
G02*
X169546802Y-127545988I606966J1092745D01*
G01*
X170357708Y-126086080D01*
G75*
G02*
X172057419Y-125600301I1092745J-606966D01*
G01*
X172057419Y-125600301D01*
G75*
G02*
X172543198Y-127300012I-606966J-1092745D01*
G01*
G37*
G04 #@! TD.AperFunction*
G04 #@! TO.P,S28,2*
G04 #@! TO.N,Net-(D28-Pad1)*
G04 #@! TA.AperFunction,ComponentPad*
G36*
G01*
X166386830Y-128738691D02*
X166347381Y-129317347D01*
G75*
G02*
X165015257Y-130479433I-1247105J85019D01*
G01*
X165015257Y-130479433D01*
G75*
G02*
X163853171Y-129147309I85019J1247105D01*
G01*
X163892619Y-128568653D01*
G75*
G02*
X165224743Y-127406567I1247105J-85019D01*
G01*
X165224743Y-127406567D01*
G75*
G02*
X166386829Y-128738691I-85019J-1247105D01*
G01*
G37*
G04 #@! TD.AperFunction*
G04 #@! TD*
D27*
G04 #@! TO.P,S15,*
G04 #@! TO.N,*
X91440000Y-103198000D03*
D28*
X96520000Y-103198000D03*
X86360000Y-103198000D03*
G04 #@! TO.P,S15,1*
G04 #@! TO.N,/Col4*
G04 #@! TA.AperFunction,ComponentPad*
G36*
G01*
X96343199Y-106345012D02*
X95532292Y-107804920D01*
G75*
G02*
X93832581Y-108290699I-1092745J606966D01*
G01*
X93832581Y-108290699D01*
G75*
G02*
X93346802Y-106590988I606966J1092745D01*
G01*
X94157708Y-105131080D01*
G75*
G02*
X95857419Y-104645301I1092745J-606966D01*
G01*
X95857419Y-104645301D01*
G75*
G02*
X96343198Y-106345012I-606966J-1092745D01*
G01*
G37*
G04 #@! TD.AperFunction*
G04 #@! TO.P,S15,2*
G04 #@! TO.N,Net-(D15-Pad1)*
G04 #@! TA.AperFunction,ComponentPad*
G36*
G01*
X90186830Y-107783691D02*
X90147381Y-108362347D01*
G75*
G02*
X88815257Y-109524433I-1247105J85019D01*
G01*
X88815257Y-109524433D01*
G75*
G02*
X87653171Y-108192309I85019J1247105D01*
G01*
X87692619Y-107613653D01*
G75*
G02*
X89024743Y-106451567I1247105J-85019D01*
G01*
X89024743Y-106451567D01*
G75*
G02*
X90186829Y-107783691I-85019J-1247105D01*
G01*
G37*
G04 #@! TD.AperFunction*
G04 #@! TD*
D27*
G04 #@! TO.P,S16,*
G04 #@! TO.N,*
X110490000Y-101928000D03*
D28*
X115570000Y-101928000D03*
X105410000Y-101928000D03*
G04 #@! TO.P,S16,1*
G04 #@! TO.N,/Col5*
G04 #@! TA.AperFunction,ComponentPad*
G36*
G01*
X115393199Y-105075012D02*
X114582292Y-106534920D01*
G75*
G02*
X112882581Y-107020699I-1092745J606966D01*
G01*
X112882581Y-107020699D01*
G75*
G02*
X112396802Y-105320988I606966J1092745D01*
G01*
X113207708Y-103861080D01*
G75*
G02*
X114907419Y-103375301I1092745J-606966D01*
G01*
X114907419Y-103375301D01*
G75*
G02*
X115393198Y-105075012I-606966J-1092745D01*
G01*
G37*
G04 #@! TD.AperFunction*
G04 #@! TO.P,S16,2*
G04 #@! TO.N,Net-(D16-Pad1)*
G04 #@! TA.AperFunction,ComponentPad*
G36*
G01*
X109236830Y-106513691D02*
X109197381Y-107092347D01*
G75*
G02*
X107865257Y-108254433I-1247105J85019D01*
G01*
X107865257Y-108254433D01*
G75*
G02*
X106703171Y-106922309I85019J1247105D01*
G01*
X106742619Y-106343653D01*
G75*
G02*
X108074743Y-105181567I1247105J-85019D01*
G01*
X108074743Y-105181567D01*
G75*
G02*
X109236829Y-106513691I-85019J-1247105D01*
G01*
G37*
G04 #@! TD.AperFunction*
G04 #@! TD*
D27*
G04 #@! TO.P,S17,*
G04 #@! TO.N,*
X129540000Y-100330000D03*
D28*
X134620000Y-100330000D03*
X124460000Y-100330000D03*
G04 #@! TO.P,S17,1*
G04 #@! TO.N,/Col6*
G04 #@! TA.AperFunction,ComponentPad*
G36*
G01*
X134443199Y-103477012D02*
X133632292Y-104936920D01*
G75*
G02*
X131932581Y-105422699I-1092745J606966D01*
G01*
X131932581Y-105422699D01*
G75*
G02*
X131446802Y-103722988I606966J1092745D01*
G01*
X132257708Y-102263080D01*
G75*
G02*
X133957419Y-101777301I1092745J-606966D01*
G01*
X133957419Y-101777301D01*
G75*
G02*
X134443198Y-103477012I-606966J-1092745D01*
G01*
G37*
G04 #@! TD.AperFunction*
G04 #@! TO.P,S17,2*
G04 #@! TO.N,Net-(D17-Pad1)*
G04 #@! TA.AperFunction,ComponentPad*
G36*
G01*
X128286830Y-104915691D02*
X128247381Y-105494347D01*
G75*
G02*
X126915257Y-106656433I-1247105J85019D01*
G01*
X126915257Y-106656433D01*
G75*
G02*
X125753171Y-105324309I85019J1247105D01*
G01*
X125792619Y-104745653D01*
G75*
G02*
X127124743Y-103583567I1247105J-85019D01*
G01*
X127124743Y-103583567D01*
G75*
G02*
X128286829Y-104915691I-85019J-1247105D01*
G01*
G37*
G04 #@! TD.AperFunction*
G04 #@! TD*
D27*
G04 #@! TO.P,S18,*
G04 #@! TO.N,*
X148590000Y-101928000D03*
D28*
X153670000Y-101928000D03*
X143510000Y-101928000D03*
G04 #@! TO.P,S18,1*
G04 #@! TO.N,/Col7*
G04 #@! TA.AperFunction,ComponentPad*
G36*
G01*
X153493199Y-105075012D02*
X152682292Y-106534920D01*
G75*
G02*
X150982581Y-107020699I-1092745J606966D01*
G01*
X150982581Y-107020699D01*
G75*
G02*
X150496802Y-105320988I606966J1092745D01*
G01*
X151307708Y-103861080D01*
G75*
G02*
X153007419Y-103375301I1092745J-606966D01*
G01*
X153007419Y-103375301D01*
G75*
G02*
X153493198Y-105075012I-606966J-1092745D01*
G01*
G37*
G04 #@! TD.AperFunction*
G04 #@! TO.P,S18,2*
G04 #@! TO.N,Net-(D18-Pad1)*
G04 #@! TA.AperFunction,ComponentPad*
G36*
G01*
X147336830Y-106513691D02*
X147297381Y-107092347D01*
G75*
G02*
X145965257Y-108254433I-1247105J85019D01*
G01*
X145965257Y-108254433D01*
G75*
G02*
X144803171Y-106922309I85019J1247105D01*
G01*
X144842619Y-106343653D01*
G75*
G02*
X146174743Y-105181567I1247105J-85019D01*
G01*
X146174743Y-105181567D01*
G75*
G02*
X147336829Y-106513691I-85019J-1247105D01*
G01*
G37*
G04 #@! TD.AperFunction*
G04 #@! TD*
D27*
G04 #@! TO.P,S19,*
G04 #@! TO.N,*
X167640000Y-105103000D03*
D28*
X172720000Y-105103000D03*
X162560000Y-105103000D03*
G04 #@! TO.P,S19,1*
G04 #@! TO.N,/Col8*
G04 #@! TA.AperFunction,ComponentPad*
G36*
G01*
X172543199Y-108250012D02*
X171732292Y-109709920D01*
G75*
G02*
X170032581Y-110195699I-1092745J606966D01*
G01*
X170032581Y-110195699D01*
G75*
G02*
X169546802Y-108495988I606966J1092745D01*
G01*
X170357708Y-107036080D01*
G75*
G02*
X172057419Y-106550301I1092745J-606966D01*
G01*
X172057419Y-106550301D01*
G75*
G02*
X172543198Y-108250012I-606966J-1092745D01*
G01*
G37*
G04 #@! TD.AperFunction*
G04 #@! TO.P,S19,2*
G04 #@! TO.N,Net-(D19-Pad1)*
G04 #@! TA.AperFunction,ComponentPad*
G36*
G01*
X166386830Y-109688691D02*
X166347381Y-110267347D01*
G75*
G02*
X165015257Y-111429433I-1247105J85019D01*
G01*
X165015257Y-111429433D01*
G75*
G02*
X163853171Y-110097309I85019J1247105D01*
G01*
X163892619Y-109518653D01*
G75*
G02*
X165224743Y-108356567I1247105J-85019D01*
G01*
X165224743Y-108356567D01*
G75*
G02*
X166386829Y-109688691I-85019J-1247105D01*
G01*
G37*
G04 #@! TD.AperFunction*
G04 #@! TD*
D27*
G04 #@! TO.P,S10,*
G04 #@! TO.N,*
X110490000Y-82877700D03*
D28*
X115570000Y-82877700D03*
X105410000Y-82877700D03*
G04 #@! TO.P,S10,1*
G04 #@! TO.N,/Col5*
G04 #@! TA.AperFunction,ComponentPad*
G36*
G01*
X115393199Y-86024712D02*
X114582292Y-87484620D01*
G75*
G02*
X112882581Y-87970399I-1092745J606966D01*
G01*
X112882581Y-87970399D01*
G75*
G02*
X112396802Y-86270688I606966J1092745D01*
G01*
X113207708Y-84810780D01*
G75*
G02*
X114907419Y-84325001I1092745J-606966D01*
G01*
X114907419Y-84325001D01*
G75*
G02*
X115393198Y-86024712I-606966J-1092745D01*
G01*
G37*
G04 #@! TD.AperFunction*
G04 #@! TO.P,S10,2*
G04 #@! TO.N,Net-(D10-Pad1)*
G04 #@! TA.AperFunction,ComponentPad*
G36*
G01*
X109236830Y-87463391D02*
X109197381Y-88042047D01*
G75*
G02*
X107865257Y-89204133I-1247105J85019D01*
G01*
X107865257Y-89204133D01*
G75*
G02*
X106703171Y-87872009I85019J1247105D01*
G01*
X106742619Y-87293353D01*
G75*
G02*
X108074743Y-86131267I1247105J-85019D01*
G01*
X108074743Y-86131267D01*
G75*
G02*
X109236829Y-87463391I-85019J-1247105D01*
G01*
G37*
G04 #@! TD.AperFunction*
G04 #@! TD*
D27*
G04 #@! TO.P,S11,*
G04 #@! TO.N,*
X129540000Y-81280000D03*
D28*
X134620000Y-81280000D03*
X124460000Y-81280000D03*
G04 #@! TO.P,S11,1*
G04 #@! TO.N,/Col6*
G04 #@! TA.AperFunction,ComponentPad*
G36*
G01*
X134443199Y-84427012D02*
X133632292Y-85886920D01*
G75*
G02*
X131932581Y-86372699I-1092745J606966D01*
G01*
X131932581Y-86372699D01*
G75*
G02*
X131446802Y-84672988I606966J1092745D01*
G01*
X132257708Y-83213080D01*
G75*
G02*
X133957419Y-82727301I1092745J-606966D01*
G01*
X133957419Y-82727301D01*
G75*
G02*
X134443198Y-84427012I-606966J-1092745D01*
G01*
G37*
G04 #@! TD.AperFunction*
G04 #@! TO.P,S11,2*
G04 #@! TO.N,Net-(D11-Pad1)*
G04 #@! TA.AperFunction,ComponentPad*
G36*
G01*
X128286830Y-85865691D02*
X128247381Y-86444347D01*
G75*
G02*
X126915257Y-87606433I-1247105J85019D01*
G01*
X126915257Y-87606433D01*
G75*
G02*
X125753171Y-86274309I85019J1247105D01*
G01*
X125792619Y-85695653D01*
G75*
G02*
X127124743Y-84533567I1247105J-85019D01*
G01*
X127124743Y-84533567D01*
G75*
G02*
X128286829Y-85865691I-85019J-1247105D01*
G01*
G37*
G04 #@! TD.AperFunction*
G04 #@! TD*
D27*
G04 #@! TO.P,S13,*
G04 #@! TO.N,*
X167640000Y-86052700D03*
D28*
X172720000Y-86052700D03*
X162560000Y-86052700D03*
G04 #@! TO.P,S13,1*
G04 #@! TO.N,/Col8*
G04 #@! TA.AperFunction,ComponentPad*
G36*
G01*
X172543199Y-89199712D02*
X171732292Y-90659620D01*
G75*
G02*
X170032581Y-91145399I-1092745J606966D01*
G01*
X170032581Y-91145399D01*
G75*
G02*
X169546802Y-89445688I606966J1092745D01*
G01*
X170357708Y-87985780D01*
G75*
G02*
X172057419Y-87500001I1092745J-606966D01*
G01*
X172057419Y-87500001D01*
G75*
G02*
X172543198Y-89199712I-606966J-1092745D01*
G01*
G37*
G04 #@! TD.AperFunction*
G04 #@! TO.P,S13,2*
G04 #@! TO.N,Net-(D13-Pad1)*
G04 #@! TA.AperFunction,ComponentPad*
G36*
G01*
X166386830Y-90638391D02*
X166347381Y-91217047D01*
G75*
G02*
X165015257Y-92379133I-1247105J85019D01*
G01*
X165015257Y-92379133D01*
G75*
G02*
X163853171Y-91047009I85019J1247105D01*
G01*
X163892619Y-90468353D01*
G75*
G02*
X165224743Y-89306267I1247105J-85019D01*
G01*
X165224743Y-89306267D01*
G75*
G02*
X166386829Y-90638391I-85019J-1247105D01*
G01*
G37*
G04 #@! TD.AperFunction*
G04 #@! TD*
D27*
G04 #@! TO.P,S36,*
G04 #@! TO.N,*
X148590000Y-140028000D03*
D28*
X153670000Y-140028000D03*
X143510000Y-140028000D03*
G04 #@! TO.P,S36,1*
G04 #@! TO.N,/Col7*
G04 #@! TA.AperFunction,ComponentPad*
G36*
G01*
X153493199Y-143175012D02*
X152682292Y-144634920D01*
G75*
G02*
X150982581Y-145120699I-1092745J606966D01*
G01*
X150982581Y-145120699D01*
G75*
G02*
X150496802Y-143420988I606966J1092745D01*
G01*
X151307708Y-141961080D01*
G75*
G02*
X153007419Y-141475301I1092745J-606966D01*
G01*
X153007419Y-141475301D01*
G75*
G02*
X153493198Y-143175012I-606966J-1092745D01*
G01*
G37*
G04 #@! TD.AperFunction*
G04 #@! TO.P,S36,2*
G04 #@! TO.N,Net-(D36-Pad1)*
G04 #@! TA.AperFunction,ComponentPad*
G36*
G01*
X147336830Y-144613691D02*
X147297381Y-145192347D01*
G75*
G02*
X145965257Y-146354433I-1247105J85019D01*
G01*
X145965257Y-146354433D01*
G75*
G02*
X144803171Y-145022309I85019J1247105D01*
G01*
X144842619Y-144443653D01*
G75*
G02*
X146174743Y-143281567I1247105J-85019D01*
G01*
X146174743Y-143281567D01*
G75*
G02*
X147336829Y-144613691I-85019J-1247105D01*
G01*
G37*
G04 #@! TD.AperFunction*
G04 #@! TD*
D27*
G04 #@! TO.P,S3,*
G04 #@! TO.N,*
X110490000Y-63827700D03*
D28*
X115570000Y-63827700D03*
X105410000Y-63827700D03*
G04 #@! TO.P,S3,1*
G04 #@! TO.N,/Col5*
G04 #@! TA.AperFunction,ComponentPad*
G36*
G01*
X115393199Y-66974712D02*
X114582292Y-68434620D01*
G75*
G02*
X112882581Y-68920399I-1092745J606966D01*
G01*
X112882581Y-68920399D01*
G75*
G02*
X112396802Y-67220688I606966J1092745D01*
G01*
X113207708Y-65760780D01*
G75*
G02*
X114907419Y-65275001I1092745J-606966D01*
G01*
X114907419Y-65275001D01*
G75*
G02*
X115393198Y-66974712I-606966J-1092745D01*
G01*
G37*
G04 #@! TD.AperFunction*
G04 #@! TO.P,S3,2*
G04 #@! TO.N,Net-(D3-Pad1)*
G04 #@! TA.AperFunction,ComponentPad*
G36*
G01*
X109236830Y-68413391D02*
X109197381Y-68992047D01*
G75*
G02*
X107865257Y-70154133I-1247105J85019D01*
G01*
X107865257Y-70154133D01*
G75*
G02*
X106703171Y-68822009I85019J1247105D01*
G01*
X106742619Y-68243353D01*
G75*
G02*
X108074743Y-67081267I1247105J-85019D01*
G01*
X108074743Y-67081267D01*
G75*
G02*
X109236829Y-68413391I-85019J-1247105D01*
G01*
G37*
G04 #@! TD.AperFunction*
G04 #@! TD*
D27*
G04 #@! TO.P,S4,*
G04 #@! TO.N,*
X129540000Y-62230000D03*
D28*
X134620000Y-62230000D03*
X124460000Y-62230000D03*
G04 #@! TO.P,S4,1*
G04 #@! TO.N,/Col6*
G04 #@! TA.AperFunction,ComponentPad*
G36*
G01*
X134443199Y-65377012D02*
X133632292Y-66836920D01*
G75*
G02*
X131932581Y-67322699I-1092745J606966D01*
G01*
X131932581Y-67322699D01*
G75*
G02*
X131446802Y-65622988I606966J1092745D01*
G01*
X132257708Y-64163080D01*
G75*
G02*
X133957419Y-63677301I1092745J-606966D01*
G01*
X133957419Y-63677301D01*
G75*
G02*
X134443198Y-65377012I-606966J-1092745D01*
G01*
G37*
G04 #@! TD.AperFunction*
G04 #@! TO.P,S4,2*
G04 #@! TO.N,Net-(D4-Pad1)*
G04 #@! TA.AperFunction,ComponentPad*
G36*
G01*
X128286830Y-66815691D02*
X128247381Y-67394347D01*
G75*
G02*
X126915257Y-68556433I-1247105J85019D01*
G01*
X126915257Y-68556433D01*
G75*
G02*
X125753171Y-67224309I85019J1247105D01*
G01*
X125792619Y-66645653D01*
G75*
G02*
X127124743Y-65483567I1247105J-85019D01*
G01*
X127124743Y-65483567D01*
G75*
G02*
X128286829Y-66815691I-85019J-1247105D01*
G01*
G37*
G04 #@! TD.AperFunction*
G04 #@! TD*
D27*
G04 #@! TO.P,S5,*
G04 #@! TO.N,*
X148590000Y-63827700D03*
D28*
X153670000Y-63827700D03*
X143510000Y-63827700D03*
G04 #@! TO.P,S5,1*
G04 #@! TO.N,/Col7*
G04 #@! TA.AperFunction,ComponentPad*
G36*
G01*
X153493199Y-66974712D02*
X152682292Y-68434620D01*
G75*
G02*
X150982581Y-68920399I-1092745J606966D01*
G01*
X150982581Y-68920399D01*
G75*
G02*
X150496802Y-67220688I606966J1092745D01*
G01*
X151307708Y-65760780D01*
G75*
G02*
X153007419Y-65275001I1092745J-606966D01*
G01*
X153007419Y-65275001D01*
G75*
G02*
X153493198Y-66974712I-606966J-1092745D01*
G01*
G37*
G04 #@! TD.AperFunction*
G04 #@! TO.P,S5,2*
G04 #@! TO.N,Net-(D5-Pad1)*
G04 #@! TA.AperFunction,ComponentPad*
G36*
G01*
X147336830Y-68413391D02*
X147297381Y-68992047D01*
G75*
G02*
X145965257Y-70154133I-1247105J85019D01*
G01*
X145965257Y-70154133D01*
G75*
G02*
X144803171Y-68822009I85019J1247105D01*
G01*
X144842619Y-68243353D01*
G75*
G02*
X146174743Y-67081267I1247105J-85019D01*
G01*
X146174743Y-67081267D01*
G75*
G02*
X147336829Y-68413391I-85019J-1247105D01*
G01*
G37*
G04 #@! TD.AperFunction*
G04 #@! TD*
D27*
G04 #@! TO.P,S6,*
G04 #@! TO.N,*
X167640000Y-67005200D03*
D28*
X172720000Y-67005200D03*
X162560000Y-67005200D03*
G04 #@! TO.P,S6,1*
G04 #@! TO.N,/Col8*
G04 #@! TA.AperFunction,ComponentPad*
G36*
G01*
X172543199Y-70152212D02*
X171732292Y-71612120D01*
G75*
G02*
X170032581Y-72097899I-1092745J606966D01*
G01*
X170032581Y-72097899D01*
G75*
G02*
X169546802Y-70398188I606966J1092745D01*
G01*
X170357708Y-68938280D01*
G75*
G02*
X172057419Y-68452501I1092745J-606966D01*
G01*
X172057419Y-68452501D01*
G75*
G02*
X172543198Y-70152212I-606966J-1092745D01*
G01*
G37*
G04 #@! TD.AperFunction*
G04 #@! TO.P,S6,2*
G04 #@! TO.N,Net-(D6-Pad1)*
G04 #@! TA.AperFunction,ComponentPad*
G36*
G01*
X166386830Y-71590891D02*
X166347381Y-72169547D01*
G75*
G02*
X165015257Y-73331633I-1247105J85019D01*
G01*
X165015257Y-73331633D01*
G75*
G02*
X163853171Y-71999509I85019J1247105D01*
G01*
X163892619Y-71420853D01*
G75*
G02*
X165224743Y-70258767I1247105J-85019D01*
G01*
X165224743Y-70258767D01*
G75*
G02*
X166386829Y-71590891I-85019J-1247105D01*
G01*
G37*
G04 #@! TD.AperFunction*
G04 #@! TD*
D27*
G04 #@! TO.P,S21,*
G04 #@! TO.N,*
X34698900Y-143269000D03*
D28*
X39302944Y-141122099D03*
X30094856Y-145415901D03*
G04 #@! TO.P,S21,1*
G04 #@! TO.N,/Col1*
G04 #@! TA.AperFunction,ComponentPad*
G36*
G01*
X40472692Y-144048980D02*
X40354744Y-145714810D01*
G75*
G02*
X39019582Y-146873404I-1246878J88284D01*
G01*
X39019582Y-146873404D01*
G75*
G02*
X37860988Y-145538242I88284J1246878D01*
G01*
X37978936Y-143872412D01*
G75*
G02*
X39314098Y-142713818I1246878J-88284D01*
G01*
X39314098Y-142713818D01*
G75*
G02*
X40472692Y-144048980I-88284J-1246878D01*
G01*
G37*
G04 #@! TD.AperFunction*
G04 #@! TO.P,S21,2*
G04 #@! TO.N,Net-(D21-Pad1)*
G04 #@! TA.AperFunction,ComponentPad*
G36*
G01*
X35501139Y-147954659D02*
X35709937Y-148495773D01*
G75*
G02*
X34993741Y-150111961I-1166192J-449996D01*
G01*
X34993741Y-150111961D01*
G75*
G02*
X33377553Y-149395765I-449996J1166192D01*
G01*
X33168755Y-148854651D01*
G75*
G02*
X33884951Y-147238463I1166192J449996D01*
G01*
X33884951Y-147238463D01*
G75*
G02*
X35501139Y-147954659I449996J-1166192D01*
G01*
G37*
G04 #@! TD.AperFunction*
G04 #@! TD*
D27*
G04 #@! TO.P,S31,*
G04 #@! TO.N,*
X50800000Y-177800000D03*
D28*
X55404044Y-175653099D03*
X46195956Y-179946901D03*
G04 #@! TO.P,S31,1*
G04 #@! TO.N,/Col2*
G04 #@! TA.AperFunction,ComponentPad*
G36*
G01*
X56573792Y-178579980D02*
X56455844Y-180245810D01*
G75*
G02*
X55120682Y-181404404I-1246878J88284D01*
G01*
X55120682Y-181404404D01*
G75*
G02*
X53962088Y-180069242I88284J1246878D01*
G01*
X54080036Y-178403412D01*
G75*
G02*
X55415198Y-177244818I1246878J-88284D01*
G01*
X55415198Y-177244818D01*
G75*
G02*
X56573792Y-178579980I-88284J-1246878D01*
G01*
G37*
G04 #@! TD.AperFunction*
G04 #@! TO.P,S31,2*
G04 #@! TO.N,Net-(D31-Pad1)*
G04 #@! TA.AperFunction,ComponentPad*
G36*
G01*
X51602239Y-182485659D02*
X51811037Y-183026773D01*
G75*
G02*
X51094841Y-184642961I-1166192J-449996D01*
G01*
X51094841Y-184642961D01*
G75*
G02*
X49478653Y-183926765I-449996J1166192D01*
G01*
X49269855Y-183385651D01*
G75*
G02*
X49986051Y-181769463I1166192J449996D01*
G01*
X49986051Y-181769463D01*
G75*
G02*
X51602239Y-182485659I449996J-1166192D01*
G01*
G37*
G04 #@! TD.AperFunction*
G04 #@! TD*
D27*
G04 #@! TO.P,S30,*
G04 #@! TO.N,*
X42748200Y-160533000D03*
D28*
X47352244Y-158386099D03*
X38144156Y-162679901D03*
G04 #@! TO.P,S30,1*
G04 #@! TO.N,/Col1*
G04 #@! TA.AperFunction,ComponentPad*
G36*
G01*
X48521992Y-161312980D02*
X48404044Y-162978810D01*
G75*
G02*
X47068882Y-164137404I-1246878J88284D01*
G01*
X47068882Y-164137404D01*
G75*
G02*
X45910288Y-162802242I88284J1246878D01*
G01*
X46028236Y-161136412D01*
G75*
G02*
X47363398Y-159977818I1246878J-88284D01*
G01*
X47363398Y-159977818D01*
G75*
G02*
X48521992Y-161312980I-88284J-1246878D01*
G01*
G37*
G04 #@! TD.AperFunction*
G04 #@! TO.P,S30,2*
G04 #@! TO.N,Net-(D30-Pad1)*
G04 #@! TA.AperFunction,ComponentPad*
G36*
G01*
X43550439Y-165218659D02*
X43759237Y-165759773D01*
G75*
G02*
X43043041Y-167375961I-1166192J-449996D01*
G01*
X43043041Y-167375961D01*
G75*
G02*
X41426853Y-166659765I-449996J1166192D01*
G01*
X41218055Y-166118651D01*
G75*
G02*
X41934251Y-164502463I1166192J449996D01*
G01*
X41934251Y-164502463D01*
G75*
G02*
X43550439Y-165218659I449996J-1166192D01*
G01*
G37*
G04 #@! TD.AperFunction*
G04 #@! TD*
D27*
G04 #@! TO.P,S9,*
G04 #@! TO.N,*
X91440000Y-84147700D03*
D28*
X96520000Y-84147700D03*
X86360000Y-84147700D03*
G04 #@! TO.P,S9,1*
G04 #@! TO.N,/Col4*
G04 #@! TA.AperFunction,ComponentPad*
G36*
G01*
X96343199Y-87294712D02*
X95532292Y-88754620D01*
G75*
G02*
X93832581Y-89240399I-1092745J606966D01*
G01*
X93832581Y-89240399D01*
G75*
G02*
X93346802Y-87540688I606966J1092745D01*
G01*
X94157708Y-86080780D01*
G75*
G02*
X95857419Y-85595001I1092745J-606966D01*
G01*
X95857419Y-85595001D01*
G75*
G02*
X96343198Y-87294712I-606966J-1092745D01*
G01*
G37*
G04 #@! TD.AperFunction*
G04 #@! TO.P,S9,2*
G04 #@! TO.N,Net-(D9-Pad1)*
G04 #@! TA.AperFunction,ComponentPad*
G36*
G01*
X90186830Y-88733391D02*
X90147381Y-89312047D01*
G75*
G02*
X88815257Y-90474133I-1247105J85019D01*
G01*
X88815257Y-90474133D01*
G75*
G02*
X87653171Y-89142009I85019J1247105D01*
G01*
X87692619Y-88563353D01*
G75*
G02*
X89024743Y-87401267I1247105J-85019D01*
G01*
X89024743Y-87401267D01*
G75*
G02*
X90186829Y-88733391I-85019J-1247105D01*
G01*
G37*
G04 #@! TD.AperFunction*
G04 #@! TD*
D27*
G04 #@! TO.P,S38,*
G04 #@! TO.N,*
X186690000Y-143203000D03*
D28*
X191770000Y-143203000D03*
X181610000Y-143203000D03*
G04 #@! TO.P,S38,1*
G04 #@! TO.N,/Col9*
G04 #@! TA.AperFunction,ComponentPad*
G36*
G01*
X191593199Y-146350012D02*
X190782292Y-147809920D01*
G75*
G02*
X189082581Y-148295699I-1092745J606966D01*
G01*
X189082581Y-148295699D01*
G75*
G02*
X188596802Y-146595988I606966J1092745D01*
G01*
X189407708Y-145136080D01*
G75*
G02*
X191107419Y-144650301I1092745J-606966D01*
G01*
X191107419Y-144650301D01*
G75*
G02*
X191593198Y-146350012I-606966J-1092745D01*
G01*
G37*
G04 #@! TD.AperFunction*
G04 #@! TO.P,S38,2*
G04 #@! TO.N,Net-(D38-Pad1)*
G04 #@! TA.AperFunction,ComponentPad*
G36*
G01*
X185436830Y-147788691D02*
X185397381Y-148367347D01*
G75*
G02*
X184065257Y-149529433I-1247105J85019D01*
G01*
X184065257Y-149529433D01*
G75*
G02*
X182903171Y-148197309I85019J1247105D01*
G01*
X182942619Y-147618653D01*
G75*
G02*
X184274743Y-146456567I1247105J-85019D01*
G01*
X184274743Y-146456567D01*
G75*
G02*
X185436829Y-147788691I-85019J-1247105D01*
G01*
G37*
G04 #@! TD.AperFunction*
G04 #@! TD*
D27*
G04 #@! TO.P,S23,*
G04 #@! TO.N,*
X72390000Y-117485000D03*
D28*
X72390000Y-112405000D03*
X72390000Y-122565000D03*
G04 #@! TO.P,S23,1*
G04 #@! TO.N,/Col3*
G04 #@! TA.AperFunction,ComponentPad*
G36*
G01*
X75537012Y-112581801D02*
X76996920Y-113392708D01*
G75*
G02*
X77482699Y-115092419I-606966J-1092745D01*
G01*
X77482699Y-115092419D01*
G75*
G02*
X75782988Y-115578198I-1092745J606966D01*
G01*
X74323080Y-114767292D01*
G75*
G02*
X73837301Y-113067581I606966J1092745D01*
G01*
X73837301Y-113067581D01*
G75*
G02*
X75537012Y-112581802I1092745J-606966D01*
G01*
G37*
G04 #@! TD.AperFunction*
G04 #@! TO.P,S23,2*
G04 #@! TO.N,Net-(D23-Pad1)*
G04 #@! TA.AperFunction,ComponentPad*
G36*
G01*
X76975691Y-118738170D02*
X77554347Y-118777619D01*
G75*
G02*
X78716433Y-120109743I-85019J-1247105D01*
G01*
X78716433Y-120109743D01*
G75*
G02*
X77384309Y-121271829I-1247105J85019D01*
G01*
X76805653Y-121232381D01*
G75*
G02*
X75643567Y-119900257I85019J1247105D01*
G01*
X75643567Y-119900257D01*
G75*
G02*
X76975691Y-118738171I1247105J-85019D01*
G01*
G37*
G04 #@! TD.AperFunction*
G04 #@! TD*
D27*
G04 #@! TO.P,S1,*
G04 #@! TO.N,*
X72390000Y-65100200D03*
D28*
X77470000Y-65100200D03*
X67310000Y-65100200D03*
G04 #@! TO.P,S1,1*
G04 #@! TO.N,/Col3*
G04 #@! TA.AperFunction,ComponentPad*
G36*
G01*
X77293199Y-68247212D02*
X76482292Y-69707120D01*
G75*
G02*
X74782581Y-70192899I-1092745J606966D01*
G01*
X74782581Y-70192899D01*
G75*
G02*
X74296802Y-68493188I606966J1092745D01*
G01*
X75107708Y-67033280D01*
G75*
G02*
X76807419Y-66547501I1092745J-606966D01*
G01*
X76807419Y-66547501D01*
G75*
G02*
X77293198Y-68247212I-606966J-1092745D01*
G01*
G37*
G04 #@! TD.AperFunction*
G04 #@! TO.P,S1,2*
G04 #@! TO.N,Net-(D1-Pad1)*
G04 #@! TA.AperFunction,ComponentPad*
G36*
G01*
X71136830Y-69685891D02*
X71097381Y-70264547D01*
G75*
G02*
X69765257Y-71426633I-1247105J85019D01*
G01*
X69765257Y-71426633D01*
G75*
G02*
X68603171Y-70094509I85019J1247105D01*
G01*
X68642619Y-69515853D01*
G75*
G02*
X69974743Y-68353767I1247105J-85019D01*
G01*
X69974743Y-68353767D01*
G75*
G02*
X71136829Y-69685891I-85019J-1247105D01*
G01*
G37*
G04 #@! TD.AperFunction*
G04 #@! TD*
D27*
G04 #@! TO.P,S8,*
G04 #@! TO.N,*
X72390000Y-88910200D03*
D28*
X72390000Y-83830200D03*
X72390000Y-93990200D03*
G04 #@! TO.P,S8,1*
G04 #@! TO.N,/Col3*
G04 #@! TA.AperFunction,ComponentPad*
G36*
G01*
X75537012Y-84007001D02*
X76996920Y-84817908D01*
G75*
G02*
X77482699Y-86517619I-606966J-1092745D01*
G01*
X77482699Y-86517619D01*
G75*
G02*
X75782988Y-87003398I-1092745J606966D01*
G01*
X74323080Y-86192492D01*
G75*
G02*
X73837301Y-84492781I606966J1092745D01*
G01*
X73837301Y-84492781D01*
G75*
G02*
X75537012Y-84007002I1092745J-606966D01*
G01*
G37*
G04 #@! TD.AperFunction*
G04 #@! TO.P,S8,2*
G04 #@! TO.N,Net-(D8-Pad1)*
G04 #@! TA.AperFunction,ComponentPad*
G36*
G01*
X76975691Y-90163370D02*
X77554347Y-90202819D01*
G75*
G02*
X78716433Y-91534943I-85019J-1247105D01*
G01*
X78716433Y-91534943D01*
G75*
G02*
X77384309Y-92697029I-1247105J85019D01*
G01*
X76805653Y-92657581D01*
G75*
G02*
X75643567Y-91325457I85019J1247105D01*
G01*
X75643567Y-91325457D01*
G75*
G02*
X76975691Y-90163371I1247105J-85019D01*
G01*
G37*
G04 #@! TD.AperFunction*
G04 #@! TD*
D27*
G04 #@! TO.P,S29,*
G04 #@! TO.N,*
X191452000Y-124153000D03*
D28*
X196532000Y-124153000D03*
X186372000Y-124153000D03*
G04 #@! TO.P,S29,1*
G04 #@! TO.N,/Col9*
G04 #@! TA.AperFunction,ComponentPad*
G36*
G01*
X196355199Y-127300012D02*
X195544292Y-128759920D01*
G75*
G02*
X193844581Y-129245699I-1092745J606966D01*
G01*
X193844581Y-129245699D01*
G75*
G02*
X193358802Y-127545988I606966J1092745D01*
G01*
X194169708Y-126086080D01*
G75*
G02*
X195869419Y-125600301I1092745J-606966D01*
G01*
X195869419Y-125600301D01*
G75*
G02*
X196355198Y-127300012I-606966J-1092745D01*
G01*
G37*
G04 #@! TD.AperFunction*
G04 #@! TO.P,S29,2*
G04 #@! TO.N,Net-(D29-Pad1)*
G04 #@! TA.AperFunction,ComponentPad*
G36*
G01*
X190198830Y-128738691D02*
X190159381Y-129317347D01*
G75*
G02*
X188827257Y-130479433I-1247105J85019D01*
G01*
X188827257Y-130479433D01*
G75*
G02*
X187665171Y-129147309I85019J1247105D01*
G01*
X187704619Y-128568653D01*
G75*
G02*
X189036743Y-127406567I1247105J-85019D01*
G01*
X189036743Y-127406567D01*
G75*
G02*
X190198829Y-128738691I-85019J-1247105D01*
G01*
G37*
G04 #@! TD.AperFunction*
G04 #@! TD*
D27*
G04 #@! TO.P,S7,*
G04 #@! TO.N,*
X191452000Y-67005200D03*
D28*
X196532000Y-67005200D03*
X186372000Y-67005200D03*
G04 #@! TO.P,S7,1*
G04 #@! TO.N,/Col9*
G04 #@! TA.AperFunction,ComponentPad*
G36*
G01*
X196355199Y-70152212D02*
X195544292Y-71612120D01*
G75*
G02*
X193844581Y-72097899I-1092745J606966D01*
G01*
X193844581Y-72097899D01*
G75*
G02*
X193358802Y-70398188I606966J1092745D01*
G01*
X194169708Y-68938280D01*
G75*
G02*
X195869419Y-68452501I1092745J-606966D01*
G01*
X195869419Y-68452501D01*
G75*
G02*
X196355198Y-70152212I-606966J-1092745D01*
G01*
G37*
G04 #@! TD.AperFunction*
G04 #@! TO.P,S7,2*
G04 #@! TO.N,Net-(D7-Pad1)*
G04 #@! TA.AperFunction,ComponentPad*
G36*
G01*
X190198830Y-71590891D02*
X190159381Y-72169547D01*
G75*
G02*
X188827257Y-73331633I-1247105J85019D01*
G01*
X188827257Y-73331633D01*
G75*
G02*
X187665171Y-71999509I85019J1247105D01*
G01*
X187704619Y-71420853D01*
G75*
G02*
X189036743Y-70258767I1247105J-85019D01*
G01*
X189036743Y-70258767D01*
G75*
G02*
X190198829Y-71590891I-85019J-1247105D01*
G01*
G37*
G04 #@! TD.AperFunction*
G04 #@! TD*
D27*
G04 #@! TO.P,S14,*
G04 #@! TO.N,*
X191452000Y-86052700D03*
D28*
X196532000Y-86052700D03*
X186372000Y-86052700D03*
G04 #@! TO.P,S14,1*
G04 #@! TO.N,/Col9*
G04 #@! TA.AperFunction,ComponentPad*
G36*
G01*
X196355199Y-89199712D02*
X195544292Y-90659620D01*
G75*
G02*
X193844581Y-91145399I-1092745J606966D01*
G01*
X193844581Y-91145399D01*
G75*
G02*
X193358802Y-89445688I606966J1092745D01*
G01*
X194169708Y-87985780D01*
G75*
G02*
X195869419Y-87500001I1092745J-606966D01*
G01*
X195869419Y-87500001D01*
G75*
G02*
X196355198Y-89199712I-606966J-1092745D01*
G01*
G37*
G04 #@! TD.AperFunction*
G04 #@! TO.P,S14,2*
G04 #@! TO.N,Net-(D14-Pad1)*
G04 #@! TA.AperFunction,ComponentPad*
G36*
G01*
X190198830Y-90638391D02*
X190159381Y-91217047D01*
G75*
G02*
X188827257Y-92379133I-1247105J85019D01*
G01*
X188827257Y-92379133D01*
G75*
G02*
X187665171Y-91047009I85019J1247105D01*
G01*
X187704619Y-90468353D01*
G75*
G02*
X189036743Y-89306267I1247105J-85019D01*
G01*
X189036743Y-89306267D01*
G75*
G02*
X190198829Y-90638391I-85019J-1247105D01*
G01*
G37*
G04 #@! TD.AperFunction*
G04 #@! TD*
D27*
G04 #@! TO.P,S20,*
G04 #@! TO.N,*
X191452000Y-105103000D03*
D28*
X196532000Y-105103000D03*
X186372000Y-105103000D03*
G04 #@! TO.P,S20,1*
G04 #@! TO.N,/Col9*
G04 #@! TA.AperFunction,ComponentPad*
G36*
G01*
X196355199Y-108250012D02*
X195544292Y-109709920D01*
G75*
G02*
X193844581Y-110195699I-1092745J606966D01*
G01*
X193844581Y-110195699D01*
G75*
G02*
X193358802Y-108495988I606966J1092745D01*
G01*
X194169708Y-107036080D01*
G75*
G02*
X195869419Y-106550301I1092745J-606966D01*
G01*
X195869419Y-106550301D01*
G75*
G02*
X196355198Y-108250012I-606966J-1092745D01*
G01*
G37*
G04 #@! TD.AperFunction*
G04 #@! TO.P,S20,2*
G04 #@! TO.N,Net-(D20-Pad1)*
G04 #@! TA.AperFunction,ComponentPad*
G36*
G01*
X190198830Y-109688691D02*
X190159381Y-110267347D01*
G75*
G02*
X188827257Y-111429433I-1247105J85019D01*
G01*
X188827257Y-111429433D01*
G75*
G02*
X187665171Y-110097309I85019J1247105D01*
G01*
X187704619Y-109518653D01*
G75*
G02*
X189036743Y-108356567I1247105J-85019D01*
G01*
X189036743Y-108356567D01*
G75*
G02*
X190198829Y-109688691I-85019J-1247105D01*
G01*
G37*
G04 #@! TD.AperFunction*
G04 #@! TD*
D29*
G04 #@! TO.P,R14,1*
G04 #@! TO.N,Net-(P2-Pad17)*
X104513000Y-53848000D03*
G04 #@! TO.P,R14,2*
G04 #@! TO.N,VSS*
X103513000Y-53848000D03*
G04 #@! TD*
G04 #@! TO.P,R15,1*
G04 #@! TO.N,Net-(P2-Pad5)*
X107831000Y-53848000D03*
G04 #@! TO.P,R15,2*
G04 #@! TO.N,VSS*
X108831000Y-53848000D03*
G04 #@! TD*
D30*
G04 #@! TO.N,+5V*
X81526500Y-70661900D03*
X74854300Y-154846000D03*
X77851000Y-116713000D03*
X102870000Y-50927000D03*
G04 #@! TO.N,/ledmatrix/CA1*
X127752000Y-129227000D03*
X119225000Y-96457400D03*
G04 #@! TO.N,/ledmatrix/CA2*
X143576000Y-128683000D03*
X90439600Y-137222000D03*
X144890000Y-76746600D03*
X75057000Y-88011000D03*
G04 #@! TO.N,/ledmatrix/CA3*
X84314300Y-136564000D03*
X75057000Y-89535000D03*
X78613000Y-116967000D03*
G04 #@! TO.N,/ledmatrix/CA4*
X108028000Y-129498000D03*
X110661000Y-117875000D03*
G04 #@! TO.N,/ledmatrix/CA5*
X90511300Y-135090000D03*
G04 #@! TO.N,/ledmatrix/CA6*
X94464200Y-130231000D03*
X79986100Y-118028000D03*
G04 #@! TO.N,/ledmatrix/CA7*
X90449100Y-135843000D03*
G04 #@! TO.N,/ledmatrix/CA8*
X88004600Y-143593000D03*
X89179400Y-143764000D03*
X91617800Y-143637000D03*
G04 #@! TO.N,/mcu/INTB*
X79058700Y-123657000D03*
X94764600Y-133214000D03*
G04 #@! TO.N,/mcu/LCD_KB*
X157480000Y-68707000D03*
X189230000Y-63500000D03*
G04 #@! TO.N,/mcu/LCD_KG*
X157226000Y-67691000D03*
X191516000Y-58928000D03*
G04 #@! TO.N,/mcu/MOSI*
X93441200Y-152068000D03*
G04 #@! TO.N,/mcu/RX0*
X67871500Y-137807000D03*
G04 #@! TO.N,/mcu/RX1*
X89763600Y-149860000D03*
X108077000Y-51562000D03*
X104394000Y-51562000D03*
G04 #@! TO.N,/mcu/RX2*
X90765700Y-147523000D03*
G04 #@! TO.N,/mcu/SCL0*
X94571600Y-152339000D03*
X93632600Y-138798000D03*
G04 #@! TO.N,/mcu/SCLK*
X92817000Y-151941000D03*
G04 #@! TO.N,/mcu/SDA0*
X71841400Y-141383000D03*
X72842000Y-144085000D03*
X91719400Y-151130000D03*
X93180900Y-139249000D03*
G04 #@! TO.N,/mcu/SDB*
X79264300Y-123056000D03*
X95214300Y-132765000D03*
G04 #@! TO.N,/mcu/SS1*
X182753000Y-58928000D03*
G04 #@! TO.N,/mcu/SWD_CLK*
X89129900Y-152059000D03*
G04 #@! TO.N,/mcu/SWD_DIO*
X94059500Y-155043000D03*
G04 #@! TO.N,/mcu/TX0*
X65475900Y-137720000D03*
X74852600Y-164978000D03*
X110109000Y-154940000D03*
X110998000Y-155702000D03*
G04 #@! TO.N,/mcu/TX1*
X90322400Y-149758000D03*
X109078900Y-51944400D03*
X103886000Y-51943000D03*
G04 #@! TO.N,/mcu/TX2*
X90504400Y-146897000D03*
G04 #@! TO.N,/mcu/USB_DM*
X88265000Y-76073000D03*
X106045000Y-51435000D03*
G04 #@! TO.N,/mcu/USB_DP*
X89085500Y-76184900D03*
G04 #@! TO.N,VDD*
X65024000Y-134468000D03*
X65663800Y-138996000D03*
X102951000Y-136020000D03*
X75299700Y-144013000D03*
X82039800Y-137653000D03*
X73245600Y-141699000D03*
X89738200Y-142265000D03*
X91948000Y-142723000D03*
X71204000Y-136966000D03*
X101982000Y-132989000D03*
X68707000Y-80899000D03*
X107851000Y-151433000D03*
G04 #@! TO.N,VSS*
X102237000Y-136230000D03*
X82670700Y-137750000D03*
X75895300Y-129204000D03*
X68403400Y-150102000D03*
X74863000Y-144474000D03*
X101685000Y-136139000D03*
X62879500Y-140525000D03*
X102076000Y-134630000D03*
X75846200Y-111158000D03*
X108300000Y-148306000D03*
X108712000Y-53213000D03*
X103355100Y-53265400D03*
D31*
X77957000Y-53108000D03*
D30*
G04 #@! TO.N,/mcu/AUD*
X93955600Y-146601000D03*
G04 #@! TO.N,/mcu/MCU_RESET*
X101683000Y-155608000D03*
X69817100Y-126107000D03*
X74041000Y-108839000D03*
G04 #@! TO.N,/Row1*
X167767000Y-62611000D03*
X194310000Y-64135000D03*
G04 #@! TO.N,/Row2*
X75206500Y-90415700D03*
X85635100Y-86133300D03*
X82410400Y-140331000D03*
G04 #@! TO.N,/Row3*
X80342100Y-140105000D03*
X82188400Y-133916000D03*
G04 #@! TO.N,/Row4*
X95303900Y-130930000D03*
X88265000Y-122809000D03*
X79629000Y-122301000D03*
X82904800Y-140729000D03*
G04 #@! TO.N,/Row5*
X86615500Y-157706000D03*
X88976200Y-146990000D03*
X72933600Y-167398000D03*
G04 #@! TO.N,Net-(P2-Pad17)*
X105410000Y-51562000D03*
G04 #@! TO.N,/Col3*
X72870300Y-130306000D03*
X67967200Y-149212000D03*
G04 #@! TO.N,/Col4*
X73475500Y-145199000D03*
X71764800Y-139732000D03*
X91687800Y-81155100D03*
G04 #@! TO.N,/Col2*
X71499600Y-134276000D03*
X55499000Y-158242000D03*
G04 #@! TD*
D32*
G04 #@! TO.N,+5V*
X81526500Y-70661900D02*
X84582000Y-57531100D01*
X78973900Y-119395400D02*
X77851000Y-116713000D01*
X79044000Y-119562700D02*
X78973900Y-119395400D01*
X79107100Y-119920200D02*
X79044000Y-119562700D01*
X79090100Y-120282900D02*
X79107100Y-119920200D01*
X78993800Y-120632900D02*
X79090100Y-120282900D01*
X78907700Y-120794300D02*
X78993800Y-120632900D01*
X78441600Y-121666100D02*
X78907700Y-120794300D01*
X78441600Y-121666100D02*
X78416500Y-121715300D01*
X78051800Y-122470300D02*
X78416500Y-121715300D01*
X78003100Y-122582400D02*
X77990300Y-122620200D01*
X78034400Y-122506300D02*
X78003100Y-122582400D01*
X78051800Y-122470300D02*
X78034400Y-122506300D01*
X77784700Y-123221200D02*
X77990300Y-122620200D01*
X77736400Y-124031600D02*
X77862600Y-124275300D01*
X77695500Y-123482700D02*
X77736400Y-124031600D01*
X77784700Y-123221200D02*
X77695500Y-123482700D01*
X82707500Y-133647700D02*
X77862600Y-124275300D01*
X82724400Y-133680400D02*
X82707500Y-133647700D01*
X82750000Y-133750500D02*
X82724400Y-133680400D01*
X82758100Y-133786300D02*
X82750000Y-133750500D01*
X83612000Y-137535600D02*
X82758100Y-133786300D01*
X83664400Y-137764600D02*
X83612000Y-137535600D01*
X83545400Y-138221800D02*
X83664400Y-137764600D01*
X83387700Y-138396500D02*
X83545400Y-138221800D01*
X83153000Y-138656800D02*
X83387700Y-138396500D01*
X83082800Y-138734500D02*
X83153000Y-138656800D01*
X82924300Y-138867600D02*
X83082800Y-138734500D01*
X82837700Y-138921900D02*
X82924300Y-138867600D01*
X81896500Y-139513800D02*
X82837700Y-138921900D01*
X81602700Y-139785400D02*
X81543100Y-139906900D01*
X81783000Y-139585000D02*
X81602700Y-139785400D01*
X81896500Y-139513800D02*
X81783000Y-139585000D01*
X77706900Y-147752400D02*
X81543100Y-139906900D01*
X77706900Y-147752400D02*
X77674900Y-147821900D01*
X75168500Y-153630700D02*
X77674900Y-147821900D01*
X75122300Y-153756400D02*
X75111300Y-153800900D01*
X75150600Y-153672300D02*
X75122300Y-153756400D01*
X75168500Y-153630700D02*
X75150600Y-153672300D01*
X74854300Y-154846000D02*
X75111300Y-153800900D01*
D33*
X107622800Y-50122600D02*
X107549000Y-50596400D01*
X107622800Y-50046400D02*
X107622800Y-50122600D01*
X107623300Y-50023100D02*
X107622800Y-50046400D01*
X107649000Y-49386400D02*
X107623300Y-50023100D01*
X104974700Y-50023100D02*
X104949000Y-49386400D01*
X104975200Y-50046400D02*
X104974700Y-50023100D01*
X104975200Y-50122600D02*
X104975200Y-50046400D01*
X105049000Y-50596400D02*
X104975200Y-50122600D01*
X107629500Y-49868900D02*
X107446600Y-49482000D01*
X107629500Y-49868900D02*
X107843000Y-49498000D01*
X104968500Y-49868900D02*
X104755000Y-49498000D01*
X104968500Y-49868900D02*
X105151400Y-49482000D01*
D32*
X85500000Y-56613100D02*
X85500000Y-55368000D01*
X84582000Y-57531100D02*
X85500000Y-56613100D01*
X96265900Y-57531100D02*
X102870000Y-50927000D01*
X84582000Y-57531100D02*
X96265900Y-57531100D01*
D33*
G04 #@! TO.N,/ledmatrix/CA1*
X146620000Y-59371500D02*
X133917000Y-60069500D01*
X146696200Y-59371500D02*
X146620000Y-59371500D01*
X147320000Y-58747700D02*
X146696200Y-59371500D01*
X130985500Y-66203000D02*
X130810000Y-76200000D01*
X130988600Y-66027300D02*
X130985500Y-66203000D01*
X131073100Y-65686000D02*
X130988600Y-66027300D01*
X131153000Y-65527900D02*
X131073100Y-65686000D01*
X133917000Y-60069500D02*
X131153000Y-65527900D01*
X48438400Y-132367900D02*
X33703600Y-138130300D01*
X48438400Y-132367900D02*
X48456200Y-132360300D01*
X48525300Y-132328100D02*
X48456200Y-132360300D01*
X48525400Y-132328000D02*
X48525300Y-132328100D01*
X51392700Y-130991100D02*
X48525400Y-132328000D01*
X51482900Y-130944000D02*
X51511200Y-130925700D01*
X51422900Y-130977000D02*
X51482900Y-130944000D01*
X51392700Y-130991100D02*
X51422900Y-130977000D01*
X64657100Y-122478500D02*
X51511200Y-130925700D01*
X65072800Y-121984800D02*
X65095600Y-121766200D01*
X64841800Y-122360000D02*
X65072800Y-121984800D01*
X64657100Y-122478500D02*
X64841800Y-122360000D01*
X68313300Y-90911800D02*
X65095600Y-121766200D01*
X68314900Y-90887900D02*
X68314900Y-90880200D01*
X68314100Y-90903900D02*
X68314900Y-90887900D01*
X68313300Y-90911800D02*
X68314100Y-90903900D01*
X68314900Y-87640200D02*
X68314900Y-90880200D01*
X68314900Y-87640200D02*
X68314800Y-87622900D01*
X68199000Y-80907800D02*
X68314800Y-87622900D01*
X68198900Y-80894500D02*
X68199000Y-80907800D01*
X68295000Y-70165600D02*
X68198900Y-80894500D01*
X68298700Y-70071200D02*
X68295000Y-70165600D01*
X68339100Y-69492600D02*
X68298700Y-70071200D01*
X68346900Y-69380100D02*
X68339100Y-69492600D01*
X68395700Y-69157000D02*
X68346900Y-69380100D01*
X68436100Y-69050200D02*
X68395700Y-69157000D01*
X70240200Y-64286100D02*
X68436100Y-69050200D01*
X70309100Y-64104200D02*
X70240200Y-64286100D01*
X70506600Y-63767800D02*
X70309100Y-64104200D01*
X70631000Y-63620200D02*
X70506600Y-63767800D01*
X73660000Y-60020200D02*
X70631000Y-63620200D01*
X131788500Y-118901900D02*
X130810000Y-114300000D01*
X131863300Y-119252900D02*
X131788500Y-118901900D01*
X131790900Y-119969200D02*
X131863300Y-119252900D01*
X131647000Y-120299200D02*
X131790900Y-119969200D01*
X127752000Y-129227000D02*
X131647000Y-120299200D01*
X128893800Y-56526200D02*
X128270000Y-57150000D01*
X128970000Y-56526200D02*
X128893800Y-56526200D01*
X128982500Y-56525300D02*
X128986500Y-56524400D01*
X128974100Y-56526200D02*
X128982500Y-56525300D01*
X128970000Y-56526200D02*
X128974100Y-56526200D01*
X130592800Y-56168800D02*
X128986500Y-56524400D01*
X130741800Y-56135700D02*
X130592800Y-56168800D01*
X131048200Y-56161800D02*
X130741800Y-56135700D01*
X131331300Y-56277300D02*
X131048200Y-56161800D01*
X131567200Y-56471800D02*
X131331300Y-56277300D01*
X131651400Y-56600500D02*
X131567200Y-56471800D01*
X133917000Y-60069500D02*
X131651400Y-56600500D01*
X119225000Y-96457400D02*
X130810000Y-114300000D01*
X127491800Y-80236200D02*
X119225000Y-96457400D01*
X127551500Y-80119100D02*
X127491800Y-80236200D01*
X127695700Y-79901500D02*
X127551500Y-80119100D01*
X127781000Y-79800000D02*
X127695700Y-79901500D01*
X130810000Y-76200000D02*
X127781000Y-79800000D01*
X36534500Y-141885100D02*
X33703600Y-138130300D01*
X36727600Y-142141600D02*
X36534500Y-141885100D01*
X36957900Y-142736600D02*
X36727600Y-142141600D01*
X36987600Y-143054200D02*
X36957900Y-142736600D01*
X38217100Y-156157600D02*
X36987600Y-143054200D01*
X38228500Y-156218800D02*
X38235900Y-156238000D01*
X38219000Y-156178300D02*
X38228500Y-156218800D01*
X38217100Y-156157600D02*
X38219000Y-156178300D01*
X40245200Y-161490500D02*
X38235900Y-156238000D01*
X40794700Y-162402000D02*
X41072300Y-162624300D01*
X40373000Y-161824400D02*
X40794700Y-162402000D01*
X40245200Y-161490500D02*
X40373000Y-161824400D01*
X43357000Y-164455100D02*
X41072300Y-162624300D01*
X43428400Y-164512400D02*
X43357000Y-164455100D01*
X43556100Y-164642000D02*
X43428400Y-164512400D01*
X43611200Y-164712800D02*
X43556100Y-164642000D01*
X49804700Y-172661300D02*
X43611200Y-164712800D01*
X130825500Y-75317300D02*
X131258900Y-75775200D01*
X130825500Y-75317300D02*
X130376300Y-75759800D01*
X34525800Y-137808700D02*
X34267300Y-138383700D01*
X34525800Y-137808700D02*
X33945700Y-137561700D01*
X73091600Y-60695800D02*
X73043800Y-60067100D01*
X73091600Y-60695800D02*
X73719200Y-60635300D01*
X130993600Y-115163600D02*
X130468300Y-114814900D01*
X130993600Y-115163600D02*
X131331700Y-114631300D01*
X127873900Y-128947600D02*
X127879000Y-129224700D01*
X127873900Y-128947600D02*
X127667400Y-129132300D01*
X130329200Y-113559500D02*
X130944600Y-113696800D01*
X130329200Y-113559500D02*
X130204200Y-114177600D01*
X119391000Y-96713000D02*
X119157000Y-96564700D01*
X119391000Y-96713000D02*
X119350600Y-96438900D01*
X119363400Y-96185800D02*
X119351900Y-96462600D01*
X119363400Y-96185800D02*
X119146100Y-96357800D01*
X130241600Y-76875600D02*
X130193800Y-76246900D01*
X130241600Y-76875600D02*
X130869200Y-76815100D01*
X34235100Y-138835300D02*
X33611600Y-138741400D01*
X34235100Y-138835300D02*
X34316400Y-138210000D01*
X49262000Y-171964900D02*
X49886900Y-172048800D01*
X49262000Y-171964900D02*
X49190700Y-172591400D01*
G04 #@! TO.N,/ledmatrix/CA2*
X66686200Y-90804000D02*
X67310000Y-90180200D01*
X66686200Y-90880200D02*
X66686200Y-90804000D01*
X66686000Y-90885100D02*
X66686200Y-90880200D01*
X64718500Y-121703300D02*
X66686000Y-90885100D01*
X64709100Y-121848800D02*
X64718500Y-121703300D01*
X64556800Y-122096200D02*
X64709100Y-121848800D01*
X64431200Y-122170100D02*
X64556800Y-122096200D01*
X50968000Y-130080300D02*
X64431200Y-122170100D01*
X144665000Y-82919800D02*
X144890000Y-76746600D01*
X144664900Y-82922200D02*
X144665000Y-82919800D01*
X144190000Y-95258900D02*
X144664900Y-82922200D01*
X146388100Y-102588300D02*
X144190000Y-95258900D01*
X146388100Y-102588300D02*
X146421900Y-102692100D01*
X147556700Y-105911800D02*
X146421900Y-102692100D01*
X147571000Y-105952300D02*
X147556700Y-105911800D01*
X147596000Y-106038400D02*
X147571000Y-105952300D01*
X147605700Y-106080700D02*
X147596000Y-106038400D01*
X149860000Y-115898000D02*
X147605700Y-106080700D01*
X89546200Y-78443900D02*
X90170000Y-79067700D01*
X89470000Y-78443900D02*
X89546200Y-78443900D01*
X89463200Y-78443900D02*
X89470000Y-78443900D01*
X89450000Y-78441500D02*
X89463200Y-78443900D01*
X89443700Y-78439200D02*
X89450000Y-78441500D01*
X88236800Y-77995100D02*
X89443700Y-78439200D01*
X144190000Y-95258900D02*
X130810000Y-95250000D01*
X87773100Y-76200100D02*
X88236800Y-77995100D01*
X87767200Y-76177300D02*
X87773100Y-76200100D01*
X87759800Y-76131700D02*
X87767200Y-76177300D01*
X87758200Y-76108700D02*
X87759800Y-76131700D01*
X87348700Y-70288600D02*
X87758200Y-76108700D01*
X87344900Y-70234000D02*
X87348700Y-70288600D01*
X87344900Y-70125400D02*
X87344900Y-70234000D01*
X87348700Y-70071200D02*
X87344900Y-70125400D01*
X87389100Y-69492600D02*
X87348700Y-70071200D01*
X87396900Y-69380100D02*
X87389100Y-69492600D01*
X87445700Y-69157000D02*
X87396900Y-69380100D01*
X87486100Y-69050200D02*
X87445700Y-69157000D01*
X89290200Y-64286100D02*
X87486100Y-69050200D01*
X89359100Y-64104200D02*
X89290200Y-64286100D01*
X89556600Y-63767800D02*
X89359100Y-64104200D01*
X89681000Y-63620200D02*
X89556600Y-63767800D01*
X92710000Y-60020200D02*
X89681000Y-63620200D01*
X77390000Y-87100900D02*
X88236800Y-77995100D01*
X77279900Y-87193300D02*
X77390000Y-87100900D01*
X77031100Y-87333900D02*
X77279900Y-87193300D01*
X76894700Y-87380800D02*
X77031100Y-87333900D01*
X75057000Y-88011000D02*
X76894700Y-87380800D01*
X189498500Y-63931400D02*
X192722000Y-61925200D01*
X189465200Y-63952100D02*
X189498500Y-63931400D01*
X189392400Y-63983000D02*
X189465200Y-63952100D01*
X189354500Y-63992600D02*
X189392400Y-63983000D01*
X173003200Y-68125800D02*
X189354500Y-63992600D01*
X172888900Y-68154700D02*
X173003200Y-68125800D01*
X172652300Y-68165100D02*
X172888900Y-68154700D01*
X172534400Y-68146000D02*
X172652300Y-68165100D01*
X171699500Y-68010200D02*
X172534400Y-68146000D01*
X171031100Y-68030700D02*
X170826600Y-68120300D01*
X171478300Y-67974100D02*
X171031100Y-68030700D01*
X171699500Y-68010200D02*
X171478300Y-67974100D01*
X168561300Y-69111300D02*
X170826600Y-68120300D01*
X168460600Y-69155400D02*
X168561300Y-69111300D01*
X168246900Y-69225300D02*
X168460600Y-69155400D01*
X168137100Y-69249600D02*
X168246900Y-69225300D01*
X164804000Y-69987800D02*
X168137100Y-69249600D01*
X164506700Y-70082100D02*
X164415500Y-70130200D01*
X164703200Y-70010100D02*
X164506700Y-70082100D01*
X164804000Y-69987800D02*
X164703200Y-70010100D01*
X149860000Y-77797700D02*
X164415500Y-70130200D01*
X144593100Y-125058600D02*
X143576000Y-128683000D01*
X144602400Y-125025500D02*
X144593100Y-125058600D01*
X144623600Y-124961000D02*
X144602400Y-125025500D01*
X144636100Y-124928000D02*
X144623600Y-124961000D01*
X146440200Y-120163900D02*
X144636100Y-124928000D01*
X146509100Y-119982000D02*
X146440200Y-120163900D01*
X146706600Y-119645600D02*
X146509100Y-119982000D01*
X146831000Y-119498000D02*
X146706600Y-119645600D01*
X149860000Y-115898000D02*
X146831000Y-119498000D01*
X62653900Y-159282000D02*
X58899300Y-162115000D01*
X62859100Y-159127100D02*
X62653900Y-159282000D01*
X63329300Y-158915200D02*
X62859100Y-159127100D01*
X63582000Y-158864000D02*
X63329300Y-158915200D01*
X66704900Y-158231200D02*
X63582000Y-158864000D01*
X66797400Y-158209800D02*
X66828100Y-158201000D01*
X66736800Y-158224700D02*
X66797400Y-158209800D01*
X66704900Y-158231200D02*
X66736800Y-158224700D01*
X76546200Y-155390400D02*
X66828100Y-158201000D01*
X77168500Y-155041000D02*
X77305500Y-154840900D01*
X76778500Y-155323100D02*
X77168500Y-155041000D01*
X76546200Y-155390400D02*
X76778500Y-155323100D01*
X79404800Y-151768200D02*
X77305500Y-154840900D01*
X79551800Y-151553100D02*
X79404800Y-151768200D01*
X79933500Y-151200400D02*
X79551800Y-151553100D01*
X80384300Y-150941700D02*
X79933500Y-151200400D01*
X80881600Y-150790200D02*
X80384300Y-150941700D01*
X81142800Y-150771800D02*
X80881600Y-150790200D01*
X83795300Y-150586600D02*
X81142800Y-150771800D01*
X85396100Y-149559100D02*
X85489500Y-149290100D01*
X85063200Y-150019700D02*
X85396100Y-149559100D01*
X84611900Y-150365200D02*
X85063200Y-150019700D01*
X84080400Y-150566500D02*
X84611900Y-150365200D01*
X83795300Y-150586600D02*
X84080400Y-150566500D01*
X87524600Y-143426400D02*
X85489500Y-149290100D01*
X87529100Y-143413400D02*
X87524600Y-143426400D01*
X87539100Y-143388700D02*
X87529100Y-143413400D01*
X87544800Y-143376700D02*
X87539100Y-143388700D01*
X90439600Y-137222000D02*
X87544800Y-143376700D01*
X51729200Y-129633100D02*
X51564600Y-130241700D01*
X51729200Y-129633100D02*
X51117400Y-129480700D01*
X144878900Y-77051200D02*
X144772700Y-76795300D01*
X144878900Y-77051200D02*
X145003500Y-76803700D01*
X149662400Y-115037500D02*
X150193400Y-115377600D01*
X149662400Y-115037500D02*
X149333000Y-115575200D01*
X131692900Y-95250600D02*
X131242300Y-95691700D01*
X131692900Y-95250600D02*
X131242900Y-94808900D01*
X92141600Y-60695800D02*
X92093800Y-60067100D01*
X92141600Y-60695800D02*
X92769200Y-60635300D01*
X75345300Y-87912100D02*
X75144600Y-88103000D01*
X75345300Y-87912100D02*
X75069600Y-87884600D01*
X191972400Y-62391700D02*
X192121500Y-61779100D01*
X191972400Y-62391700D02*
X192587900Y-62528500D01*
X150641100Y-77386200D02*
X150448400Y-77986600D01*
X150641100Y-77386200D02*
X150037000Y-77205600D01*
X143658400Y-128389500D02*
X143701500Y-128663200D01*
X143658400Y-128389500D02*
X143479100Y-128600800D01*
X149291600Y-116573600D02*
X149243800Y-115944900D01*
X149291600Y-116573600D02*
X149919200Y-116513100D01*
X59604100Y-161583200D02*
X59510400Y-162206700D01*
X59604100Y-161583200D02*
X58978800Y-161502100D01*
X90309900Y-137497800D02*
X90312600Y-137220800D01*
X90309900Y-137497800D02*
X90521600Y-137319000D01*
G04 #@! TO.N,/ledmatrix/CA3*
X90793800Y-97494200D02*
X90170000Y-98118000D01*
X90793800Y-97418000D02*
X90793800Y-97494200D01*
X90793800Y-97414600D02*
X90793800Y-97418000D01*
X90794400Y-97407800D02*
X90793800Y-97414600D01*
X90795000Y-97404400D02*
X90794400Y-97407800D01*
X92535200Y-87802700D02*
X90795000Y-97404400D01*
X92551800Y-87711800D02*
X92535200Y-87802700D01*
X92600200Y-87539200D02*
X92551800Y-87711800D01*
X92632900Y-87454000D02*
X92600200Y-87539200D01*
X93586000Y-84971800D02*
X92632900Y-87454000D01*
X93297800Y-82753200D02*
X93059500Y-82516300D01*
X93617400Y-83338300D02*
X93297800Y-82753200D01*
X93757900Y-83994100D02*
X93617400Y-83338300D01*
X93706100Y-84658700D02*
X93757900Y-83994100D01*
X93586000Y-84971800D02*
X93706100Y-84658700D01*
X92104100Y-81567800D02*
X93059500Y-82516300D01*
X106253000Y-64618400D02*
X111760000Y-58747700D01*
X106212000Y-64659900D02*
X106253000Y-64618400D01*
X92012700Y-78344100D02*
X106212000Y-64659900D01*
X91703700Y-79190200D02*
X91737200Y-79319700D01*
X91706500Y-78923800D02*
X91703700Y-79190200D01*
X91779400Y-78665700D02*
X91706500Y-78923800D01*
X91916200Y-78437200D02*
X91779400Y-78665700D01*
X92012700Y-78344100D02*
X91916200Y-78437200D01*
X92179700Y-81027700D02*
X91737200Y-79319700D01*
X92196100Y-81091200D02*
X92179700Y-81027700D01*
X92195700Y-81222300D02*
X92196100Y-81091200D01*
X92179000Y-81285200D02*
X92195700Y-81222300D01*
X92104100Y-81567800D02*
X92179000Y-81285200D01*
X79440800Y-119336400D02*
X78613000Y-116967000D01*
X79512000Y-119539800D02*
X79440800Y-119336400D01*
X79568200Y-119971400D02*
X79512000Y-119539800D01*
X79534900Y-120401800D02*
X79568200Y-119971400D01*
X79412800Y-120819600D02*
X79534900Y-120401800D01*
X79311000Y-121009900D02*
X79412800Y-120819600D01*
X78844800Y-121881700D02*
X79311000Y-121009900D01*
X78844800Y-121881700D02*
X78828300Y-121914200D01*
X78463600Y-122669200D02*
X78828300Y-121914200D01*
X78431500Y-122743200D02*
X78423000Y-122768200D01*
X78452100Y-122693000D02*
X78431500Y-122743200D01*
X78463600Y-122669200D02*
X78452100Y-122693000D01*
X78217400Y-123369200D02*
X78423000Y-122768200D01*
X78185500Y-123904300D02*
X78268800Y-124065300D01*
X78158500Y-123541900D02*
X78185500Y-123904300D01*
X78217400Y-123369200D02*
X78158500Y-123541900D01*
X83113700Y-133437700D02*
X78268800Y-124065300D01*
X83127400Y-133464200D02*
X83113700Y-133437700D01*
X83151100Y-133517300D02*
X83127400Y-133464200D01*
X83161500Y-133544500D02*
X83151100Y-133517300D01*
X84314300Y-136564000D02*
X83161500Y-133544500D01*
X154453000Y-101077800D02*
X149860000Y-96848000D01*
X154484300Y-101106600D02*
X154453000Y-101077800D01*
X154543600Y-101170000D02*
X154484300Y-101106600D01*
X154571400Y-101204600D02*
X154543600Y-101170000D01*
X168910000Y-119073000D02*
X154571400Y-101204600D01*
X169085500Y-128126000D02*
X168910000Y-138123000D01*
X169087100Y-128040700D02*
X169085500Y-128126000D01*
X169108800Y-127871000D02*
X169087100Y-128040700D01*
X169128600Y-127789100D02*
X169108800Y-127871000D01*
X169874900Y-124691400D02*
X169128600Y-127789100D01*
X169941900Y-123925100D02*
X169888500Y-123674900D01*
X169935200Y-124440700D02*
X169941900Y-123925100D01*
X169874900Y-124691400D02*
X169935200Y-124440700D01*
X168910000Y-119073000D02*
X169888500Y-123674900D01*
X74746100Y-90200700D02*
X75057000Y-89535000D01*
X74692700Y-90419900D02*
X74704700Y-90495200D01*
X74714000Y-90269500D02*
X74692700Y-90419900D01*
X74746100Y-90200700D02*
X74714000Y-90269500D01*
X78453000Y-114158100D02*
X74704700Y-90495200D01*
X78461400Y-114211000D02*
X78453000Y-114158100D01*
X78472900Y-114319800D02*
X78461400Y-114211000D01*
X78475800Y-114374400D02*
X78472900Y-114319800D01*
X78613000Y-116967000D02*
X78475800Y-114374400D01*
X189558200Y-62549000D02*
X190182000Y-61925200D01*
X189482000Y-62549000D02*
X189558200Y-62549000D01*
X189479200Y-62549100D02*
X189482000Y-62549000D01*
X168961400Y-63310200D02*
X189479200Y-62549100D01*
X168865700Y-63313800D02*
X168961400Y-63310200D01*
X168675200Y-63294500D02*
X168865700Y-63313800D01*
X168583400Y-63272200D02*
X168675200Y-63294500D01*
X167660900Y-63048500D02*
X168583400Y-63272200D01*
X167595200Y-63032600D02*
X167660900Y-63048500D01*
X167478800Y-62963500D02*
X167595200Y-63032600D01*
X167433100Y-62913000D02*
X167478800Y-62963500D01*
X167126500Y-62574100D02*
X167433100Y-62913000D01*
X167086200Y-62549000D02*
X167070000Y-62549000D01*
X167115600Y-62562100D02*
X167086200Y-62549000D01*
X167126500Y-62574100D02*
X167115600Y-62562100D01*
X166993800Y-62549000D02*
X167070000Y-62549000D01*
X166370000Y-61925200D02*
X166993800Y-62549000D01*
X78054700Y-148110400D02*
X76161100Y-154059000D01*
X78067500Y-148070000D02*
X78054700Y-148110400D01*
X78099100Y-147991400D02*
X78067500Y-148070000D01*
X78117700Y-147953300D02*
X78099100Y-147991400D01*
X81953900Y-140107800D02*
X78117700Y-147953300D01*
X81985300Y-140043900D02*
X81953900Y-140107800D01*
X82080200Y-139938400D02*
X81985300Y-140043900D01*
X82139900Y-139900900D02*
X82080200Y-139938400D01*
X83081200Y-139309000D02*
X82139900Y-139900900D01*
X83401100Y-139064400D02*
X83492600Y-138963000D01*
X83194200Y-139238100D02*
X83401100Y-139064400D01*
X83081200Y-139309000D02*
X83194200Y-139238100D01*
X83727300Y-138702700D02*
X83492600Y-138963000D01*
X84039400Y-138187900D02*
X84073500Y-137987400D01*
X83862900Y-138552300D02*
X84039400Y-138187900D01*
X83727300Y-138702700D02*
X83862900Y-138552300D01*
X84314300Y-136564000D02*
X84073500Y-137987400D01*
X91822200Y-81645100D02*
X92104100Y-81567800D01*
X91806600Y-81649100D02*
X91822200Y-81645100D01*
X86089800Y-83023900D02*
X91806600Y-81649100D01*
X85844300Y-83109600D02*
X85768500Y-83154700D01*
X86005300Y-83044200D02*
X85844300Y-83109600D01*
X86089800Y-83023900D02*
X86005300Y-83044200D01*
X75057000Y-89535000D02*
X85768500Y-83154700D01*
X165446600Y-80065200D02*
X149860000Y-96848000D01*
X165490000Y-80018500D02*
X165446600Y-80065200D01*
X165606300Y-79967800D02*
X165490000Y-80018500D01*
X165670000Y-79967800D02*
X165606300Y-79967800D01*
X167070000Y-79967800D02*
X165670000Y-79967800D01*
X167109800Y-79967900D02*
X167070000Y-79967800D01*
X167186800Y-79988300D02*
X167109800Y-79967900D01*
X167221200Y-80008000D02*
X167186800Y-79988300D01*
X168910000Y-80972700D02*
X167221200Y-80008000D01*
X111156000Y-59391600D02*
X111142200Y-58761300D01*
X111156000Y-59391600D02*
X111786000Y-59365100D01*
X78713500Y-117254700D02*
X78521400Y-117055000D01*
X78713500Y-117254700D02*
X78739400Y-116978800D01*
X84205600Y-136279200D02*
X84403300Y-136473400D01*
X84205600Y-136279200D02*
X84187500Y-136555800D01*
X150509400Y-97446100D02*
X149879200Y-97465700D01*
X150509400Y-97446100D02*
X150477200Y-96816500D01*
X168357400Y-118384400D02*
X168983400Y-118459400D01*
X168357400Y-118384400D02*
X168295000Y-119011800D01*
X168925500Y-137240300D02*
X169358900Y-137698200D01*
X168925500Y-137240300D02*
X168476300Y-137682800D01*
X169093600Y-119936600D02*
X168568300Y-119587900D01*
X169093600Y-119936600D02*
X169431700Y-119404300D01*
X74928000Y-89811200D02*
X74930000Y-89534100D01*
X74928000Y-89811200D02*
X75139200Y-89631900D01*
X78596900Y-116662600D02*
X78725500Y-116908100D01*
X78596900Y-116662600D02*
X78494900Y-116920300D01*
X76428900Y-153217700D02*
X76712900Y-153780700D01*
X76428900Y-153217700D02*
X75871700Y-153512900D01*
X84263500Y-136864500D02*
X84191700Y-136597000D01*
X84263500Y-136864500D02*
X84419300Y-136635400D01*
X75318900Y-89379000D02*
X75161600Y-89607100D01*
X75318900Y-89379000D02*
X75043400Y-89408700D01*
X150460800Y-96201100D02*
X150477800Y-96831300D01*
X150460800Y-96201100D02*
X149831000Y-96230700D01*
X168143400Y-80534800D02*
X168753300Y-80374900D01*
X168143400Y-80534800D02*
X168315500Y-81141300D01*
G04 #@! TO.N,/ledmatrix/CA4*
X108476500Y-114896200D02*
X92710000Y-117168000D01*
X108487000Y-114894700D02*
X108476500Y-114896200D01*
X108508800Y-114893100D02*
X108487000Y-114894700D01*
X108520000Y-114893100D02*
X108508800Y-114893100D01*
X109920000Y-114893100D02*
X108520000Y-114893100D01*
X110032300Y-114893100D02*
X109920000Y-114893100D01*
X110203100Y-115038600D02*
X110032300Y-114893100D01*
X110221000Y-115149400D02*
X110203100Y-115038600D01*
X110661000Y-117875000D02*
X110221000Y-115149400D01*
X131788500Y-61751900D02*
X130810000Y-57150000D01*
X131857800Y-62076400D02*
X131788500Y-61751900D01*
X131806000Y-62741000D02*
X131857800Y-62076400D01*
X131686000Y-63054100D02*
X131806000Y-62741000D01*
X130732900Y-65536300D02*
X131686000Y-63054100D01*
X130651800Y-65794100D02*
X130635200Y-65885000D01*
X130700200Y-65621500D02*
X130651800Y-65794100D01*
X130732900Y-65536300D02*
X130700200Y-65621500D01*
X128895000Y-75486400D02*
X130635200Y-65885000D01*
X128893800Y-75496600D02*
X128893800Y-75500000D01*
X128894400Y-75489800D02*
X128893800Y-75496600D01*
X128895000Y-75486400D02*
X128894400Y-75489800D01*
X128893800Y-75576200D02*
X128893800Y-75500000D01*
X128270000Y-76200000D02*
X128893800Y-75576200D01*
X111760000Y-134948000D02*
X108028000Y-129498000D01*
X94006200Y-83375500D02*
X92710000Y-79067700D01*
X94070300Y-83588900D02*
X94006200Y-83375500D01*
X94126300Y-84026000D02*
X94070300Y-83588900D01*
X94110100Y-84466400D02*
X94126300Y-84026000D01*
X94020900Y-84902700D02*
X94110100Y-84466400D01*
X93941800Y-85108400D02*
X94020900Y-84902700D01*
X92988600Y-87590600D02*
X93941800Y-85108400D01*
X92876000Y-88104100D02*
X92890800Y-88278300D01*
X92925200Y-87756000D02*
X92876000Y-88104100D01*
X92988600Y-87590600D02*
X92925200Y-87756000D01*
X93711400Y-98033800D02*
X92890800Y-88278300D01*
X93713000Y-98053700D02*
X93711400Y-98033800D01*
X93714800Y-98094000D02*
X93713000Y-98053700D01*
X93714900Y-98113300D02*
X93714800Y-98094000D01*
X93738800Y-103187200D02*
X93714900Y-98113300D01*
X93739600Y-103324300D02*
X93738800Y-103187200D01*
X93707700Y-103599700D02*
X93739600Y-103324300D01*
X93674900Y-103736400D02*
X93707700Y-103599700D01*
X92928600Y-106834100D02*
X93674900Y-103736400D01*
X92887100Y-107085700D02*
X92885500Y-107171000D01*
X92908800Y-106916000D02*
X92887100Y-107085700D01*
X92928600Y-106834100D02*
X92908800Y-106916000D01*
X92710000Y-117168000D02*
X92885500Y-107171000D01*
X166655700Y-90205400D02*
X168910000Y-100023000D01*
X166621000Y-90077000D02*
X166606700Y-90036500D01*
X166646000Y-90163100D02*
X166621000Y-90077000D01*
X166655700Y-90205400D02*
X166646000Y-90163100D01*
X165471900Y-86816800D02*
X166606700Y-90036500D01*
X165388500Y-86579900D02*
X165471900Y-86816800D01*
X165327900Y-86084100D02*
X165388500Y-86579900D01*
X165351500Y-85835500D02*
X165327900Y-86084100D01*
X165745900Y-81679900D02*
X165351500Y-85835500D01*
X165746200Y-81672700D02*
X165745900Y-81679900D01*
X165746200Y-81596500D02*
X165746200Y-81672700D01*
X166370000Y-80972700D02*
X165746200Y-81596500D01*
X190467700Y-109255700D02*
X192722000Y-119073000D01*
X190433000Y-109127300D02*
X190418700Y-109086800D01*
X190458000Y-109213400D02*
X190433000Y-109127300D01*
X190467700Y-109255700D02*
X190458000Y-109213400D01*
X189283900Y-105867100D02*
X190418700Y-109086800D01*
X189200500Y-105630200D02*
X189283900Y-105867100D01*
X189139900Y-105134400D02*
X189200500Y-105630200D01*
X189163500Y-104885800D02*
X189139900Y-105134400D01*
X189557900Y-100730200D02*
X189163500Y-104885800D01*
X189558200Y-100723000D02*
X189557900Y-100730200D01*
X189558200Y-100646800D02*
X189558200Y-100723000D01*
X190182000Y-100023000D02*
X189558200Y-100646800D01*
X93583900Y-117042100D02*
X93201100Y-117543200D01*
X93583900Y-117042100D02*
X93075300Y-116669400D01*
X110612400Y-117574100D02*
X110766600Y-117804400D01*
X110612400Y-117574100D02*
X110538600Y-117841200D01*
X130993600Y-58013600D02*
X130468300Y-57664900D01*
X130993600Y-58013600D02*
X131331700Y-57481300D01*
X108200200Y-129749500D02*
X107962600Y-129606900D01*
X108200200Y-129749500D02*
X108153200Y-129476500D01*
X111261200Y-134219500D02*
X111879800Y-134341800D01*
X111261200Y-134219500D02*
X111151400Y-134840400D01*
X92964400Y-79913100D02*
X92412000Y-79609100D01*
X92964400Y-79913100D02*
X93257200Y-79354700D01*
X92725500Y-116285300D02*
X93158900Y-116743200D01*
X92725500Y-116285300D02*
X92276300Y-116727800D01*
X168712400Y-99162500D02*
X169243400Y-99502600D01*
X168712400Y-99162500D02*
X168383000Y-99700200D01*
X192524400Y-118212500D02*
X193055400Y-118552600D01*
X192524400Y-118212500D02*
X192195000Y-118750200D01*
G04 #@! TO.N,/ledmatrix/CA5*
X147645100Y-96224200D02*
X147320000Y-96848000D01*
X147645100Y-96148000D02*
X147645100Y-96224200D01*
X147645100Y-87378400D02*
X147645100Y-96148000D01*
X147600300Y-86985000D02*
X147556700Y-86861500D01*
X147645000Y-87245100D02*
X147600300Y-86985000D01*
X147645100Y-87378400D02*
X147645000Y-87245100D01*
X146421900Y-83641800D02*
X147556700Y-86861500D01*
X146355800Y-83454000D02*
X146421900Y-83641800D01*
X146290300Y-83065300D02*
X146355800Y-83454000D01*
X146291200Y-82868200D02*
X146290300Y-83065300D01*
X146315100Y-77096400D02*
X146291200Y-82868200D01*
X146315200Y-77071100D02*
X146315100Y-77096400D01*
X146323800Y-77021200D02*
X146315200Y-77071100D01*
X146332200Y-76997000D02*
X146323800Y-77021200D01*
X149762800Y-67188800D02*
X146332200Y-76997000D01*
X149782900Y-67134000D02*
X149762800Y-67188800D01*
X150736000Y-64651800D02*
X149782900Y-67134000D01*
X150907800Y-63674100D02*
X150838500Y-63349600D01*
X150856000Y-64338700D02*
X150907800Y-63674100D01*
X150736000Y-64651800D02*
X150856000Y-64338700D01*
X149860000Y-58747700D02*
X150838500Y-63349600D01*
X111149200Y-118015800D02*
X111760000Y-115898000D01*
X111116700Y-118128000D02*
X111149200Y-118015800D01*
X110961200Y-118301100D02*
X111116700Y-118128000D01*
X110853500Y-118345200D02*
X110961200Y-118301100D01*
X109619100Y-118850600D02*
X110853500Y-118345200D01*
X108949000Y-119252200D02*
X108773200Y-119449200D01*
X109376700Y-118949800D02*
X108949000Y-119252200D01*
X109619100Y-118850600D02*
X109376700Y-118949800D01*
X96163000Y-133609800D02*
X108773200Y-119449200D01*
X96111800Y-133663900D02*
X96163000Y-133609800D01*
X95662100Y-134112900D02*
X96111800Y-133663900D01*
X95516400Y-134258600D02*
X95662100Y-134112900D01*
X95146100Y-134443200D02*
X95516400Y-134258600D01*
X94940100Y-134472100D02*
X95146100Y-134443200D01*
X90511300Y-135090000D02*
X94940100Y-134472100D01*
X112730400Y-82405900D02*
X111760000Y-77797700D01*
X112777500Y-82630500D02*
X112730400Y-82405900D01*
X112781600Y-83083500D02*
X112777500Y-82630500D01*
X112695700Y-83532400D02*
X112781600Y-83083500D01*
X112524700Y-83951900D02*
X112695700Y-83532400D01*
X112398500Y-84142400D02*
X112524700Y-83951900D01*
X112391500Y-84152900D02*
X112398500Y-84142400D01*
X112391500Y-84152900D02*
X112316400Y-84274300D01*
X111482700Y-85721000D02*
X112316400Y-84274300D01*
X111227400Y-86332400D02*
X111195800Y-86554500D01*
X111371400Y-85914300D02*
X111227400Y-86332400D01*
X111482700Y-85721000D02*
X111371400Y-85914300D01*
X109844500Y-96137400D02*
X111195800Y-86554500D01*
X109843800Y-96145300D02*
X109843800Y-96148000D01*
X109844100Y-96140000D02*
X109843800Y-96145300D01*
X109844500Y-96137400D02*
X109844100Y-96140000D01*
X109843800Y-96224200D02*
X109843800Y-96148000D01*
X109220000Y-96848000D02*
X109843800Y-96224200D01*
X64705800Y-155036200D02*
X41752900Y-155394300D01*
X64779100Y-155036800D02*
X64705800Y-155036200D01*
X74838300Y-155353800D02*
X64779100Y-155036800D01*
X74930400Y-155349300D02*
X74960400Y-155342900D01*
X74869400Y-155354800D02*
X74930400Y-155349300D01*
X74838300Y-155353800D02*
X74869400Y-155354800D01*
X76370900Y-155041800D02*
X74960400Y-155342900D01*
X76881600Y-154785800D02*
X76990800Y-154625900D01*
X76560200Y-155001400D02*
X76881600Y-154785800D01*
X76370900Y-155041800D02*
X76560200Y-155001400D01*
X79090100Y-151553200D02*
X76990800Y-154625900D01*
X79261500Y-151302500D02*
X79090100Y-151553200D01*
X79706500Y-150891200D02*
X79261500Y-151302500D01*
X80232100Y-150589700D02*
X79706500Y-150891200D01*
X80811700Y-150413100D02*
X80232100Y-150589700D01*
X81116300Y-150391600D02*
X80811700Y-150413100D01*
X83768800Y-150206400D02*
X81116300Y-150391600D01*
X85054400Y-149381100D02*
X85129400Y-149165100D01*
X84787100Y-149751100D02*
X85054400Y-149381100D01*
X84424700Y-150028600D02*
X84787100Y-149751100D01*
X83997800Y-150190200D02*
X84424700Y-150028600D01*
X83768800Y-150206400D02*
X83997800Y-150190200D01*
X87164600Y-143301400D02*
X85129400Y-149165100D01*
X87170100Y-143286000D02*
X87164600Y-143301400D01*
X89972200Y-135667600D02*
X87170100Y-143286000D01*
X89992800Y-135611700D02*
X89972200Y-135667600D01*
X90058900Y-135512200D02*
X89992800Y-135611700D01*
X90102500Y-135471500D02*
X90058900Y-135512200D01*
X90511300Y-135090000D02*
X90102500Y-135471500D01*
X108596200Y-97471800D02*
X109220000Y-96848000D01*
X108596200Y-97548000D02*
X108596200Y-97471800D01*
X108595900Y-97555200D02*
X108596200Y-97548000D01*
X108201500Y-101710800D02*
X108595900Y-97555200D01*
X108238500Y-102455200D02*
X108321900Y-102692100D01*
X108177900Y-101959400D02*
X108238500Y-102455200D01*
X108201500Y-101710800D02*
X108177900Y-101959400D01*
X109456700Y-105911800D02*
X108321900Y-102692100D01*
X109471000Y-105952300D02*
X109456700Y-105911800D01*
X109496000Y-106038400D02*
X109471000Y-105952300D01*
X109505700Y-106080700D02*
X109496000Y-106038400D01*
X111760000Y-115898000D02*
X109505700Y-106080700D01*
X150043600Y-59611300D02*
X149518300Y-59262600D01*
X150043600Y-59611300D02*
X150381700Y-59079000D01*
X111515300Y-116746300D02*
X111216000Y-116191300D01*
X111515300Y-116746300D02*
X112064200Y-116435900D01*
X90813200Y-135047900D02*
X90579600Y-135197100D01*
X90813200Y-135047900D02*
X90547800Y-134968300D01*
X111941900Y-78661600D02*
X111417200Y-78311900D01*
X111941900Y-78661600D02*
X112281000Y-78130100D01*
X42635700Y-155380500D02*
X42192300Y-155828800D01*
X42635700Y-155380500D02*
X42178500Y-154946200D01*
X90288500Y-135298000D02*
X90393800Y-135041700D01*
X90288500Y-135298000D02*
X90551400Y-135210500D01*
X111562400Y-115037500D02*
X112093400Y-115377600D01*
X111562400Y-115037500D02*
X111233000Y-115575200D01*
G04 #@! TO.N,/ledmatrix/CA6*
X93012400Y-126864000D02*
X94464200Y-130231000D01*
X92897000Y-126596500D02*
X93012400Y-126864000D01*
X92875900Y-126012100D02*
X92897000Y-126596500D01*
X92971700Y-125737300D02*
X92875900Y-126012100D01*
X94742000Y-120650000D02*
X92971700Y-125737300D01*
X108498100Y-116525000D02*
X94742000Y-120650000D01*
X108503500Y-116523400D02*
X108498100Y-116525000D01*
X108514400Y-116521800D02*
X108503500Y-116523400D01*
X108520000Y-116521800D02*
X108514400Y-116521800D01*
X108596200Y-116521800D02*
X108520000Y-116521800D01*
X109220000Y-115898000D02*
X108596200Y-116521800D01*
X90793800Y-117791800D02*
X90170000Y-117168000D01*
X90870000Y-117791800D02*
X90793800Y-117791800D01*
X90882300Y-117791800D02*
X90870000Y-117791800D01*
X90905600Y-117799500D02*
X90882300Y-117791800D01*
X90915400Y-117806800D02*
X90905600Y-117799500D01*
X94742000Y-120650000D02*
X90915400Y-117806800D01*
X89546200Y-117791800D02*
X90170000Y-117168000D01*
X89470000Y-117791800D02*
X89546200Y-117791800D01*
X79986100Y-118028000D02*
X89470000Y-117791800D01*
X94343500Y-129951100D02*
X94549200Y-130136700D01*
X94343500Y-129951100D02*
X94337200Y-130228100D01*
X80290800Y-118020400D02*
X80041900Y-118142100D01*
X80290800Y-118020400D02*
X80036100Y-117911300D01*
G04 #@! TO.N,/ledmatrix/CA7*
X39149200Y-157296600D02*
X39450900Y-156467700D01*
X39181400Y-157365700D02*
X39149200Y-157296600D01*
X39182300Y-157367800D02*
X39181400Y-157365700D01*
X39184100Y-157372400D02*
X39182300Y-157367800D01*
X40582300Y-161303400D02*
X39184100Y-157372400D01*
X41061300Y-162127200D02*
X41310700Y-162326900D01*
X40689100Y-161604000D02*
X41061300Y-162127200D01*
X40582300Y-161303400D02*
X40689100Y-161604000D01*
X43595400Y-164157700D02*
X41310700Y-162326900D01*
X43659600Y-164209200D02*
X43595400Y-164157700D01*
X43779600Y-164323400D02*
X43659600Y-164209200D01*
X43835600Y-164386700D02*
X43779600Y-164323400D01*
X50557800Y-171996000D02*
X43835600Y-164386700D01*
X50605300Y-172049800D02*
X50557800Y-171996000D01*
X50683500Y-172168700D02*
X50605300Y-172049800D01*
X50713400Y-172232300D02*
X50683500Y-172168700D01*
X52878800Y-176818500D02*
X50713400Y-172232300D01*
X52937500Y-176942700D02*
X52878800Y-176818500D01*
X53025000Y-177205700D02*
X52937500Y-176942700D01*
X53053000Y-177343500D02*
X53025000Y-177205700D01*
X53685800Y-180466400D02*
X53053000Y-177343500D01*
X56096800Y-181465100D02*
X56296900Y-181269200D01*
X55582700Y-181693000D02*
X56096800Y-181465100D01*
X55021400Y-181726400D02*
X55582700Y-181693000D01*
X54483900Y-181561100D02*
X55021400Y-181726400D01*
X54038400Y-181218000D02*
X54483900Y-181561100D01*
X53741200Y-180740700D02*
X54038400Y-181218000D01*
X53685800Y-180466400D02*
X53741200Y-180740700D01*
X83176700Y-154980900D02*
X56296900Y-181269200D01*
X83566100Y-154514400D02*
X83661600Y-154337200D01*
X83320800Y-154840100D02*
X83566100Y-154514400D01*
X83176700Y-154980900D02*
X83320800Y-154840100D01*
X86035300Y-149936200D02*
X83661600Y-154337200D01*
X86142700Y-149716200D02*
X86171500Y-149642800D01*
X86073300Y-149865700D02*
X86142700Y-149716200D01*
X86035300Y-149936200D02*
X86073300Y-149865700D01*
X88477500Y-143778900D02*
X86171500Y-149642800D01*
X88479200Y-143774400D02*
X88477500Y-143778900D01*
X90914200Y-137403400D02*
X88479200Y-143774400D01*
X90947400Y-137126200D02*
X90913200Y-137038100D01*
X90947900Y-137315400D02*
X90947400Y-137126200D01*
X90914200Y-137403400D02*
X90947900Y-137315400D01*
X90449100Y-135843000D02*
X90913200Y-137038100D01*
X90559400Y-136127100D02*
X90360600Y-135934100D01*
X90559400Y-136127100D02*
X90575800Y-135850500D01*
G04 #@! TO.N,/ledmatrix/CA8*
X85833600Y-149459500D02*
X88004600Y-143593000D01*
X85805000Y-149536500D02*
X85833600Y-149459500D01*
X85738300Y-149684000D02*
X85805000Y-149536500D01*
X85699900Y-149755200D02*
X85738300Y-149684000D01*
X83326200Y-154156300D02*
X85699900Y-149755200D01*
X83224600Y-154344300D02*
X83326200Y-154156300D01*
X82959300Y-154673000D02*
X83224600Y-154344300D01*
X82638500Y-154948000D02*
X82959300Y-154673000D01*
X82273000Y-155159800D02*
X82638500Y-154948000D01*
X82072100Y-155231300D02*
X82273000Y-155159800D01*
X78139200Y-156627800D02*
X82072100Y-155231300D01*
X78134600Y-156629600D02*
X78139200Y-156627800D01*
X78132500Y-156630500D02*
X78134600Y-156629600D01*
X78063400Y-156662700D02*
X78132500Y-156630500D01*
X77234500Y-156361000D02*
X78063400Y-156662700D01*
X91617800Y-143637000D02*
X89179400Y-143764000D01*
X60801600Y-164718700D02*
X59972700Y-164417000D01*
X60870700Y-164686500D02*
X60801600Y-164718700D01*
X60872800Y-164685600D02*
X60870700Y-164686500D01*
X60877300Y-164683800D02*
X60872800Y-164685600D01*
X64810100Y-163282400D02*
X60877300Y-164683800D01*
X65468800Y-162933800D02*
X65647300Y-162759000D01*
X65045300Y-163198600D02*
X65468800Y-162933800D01*
X64810100Y-163282400D02*
X65045300Y-163198600D01*
X68085800Y-160369800D02*
X65647300Y-162759000D01*
X68179300Y-160278100D02*
X68085800Y-160369800D01*
X68396100Y-160127700D02*
X68179300Y-160278100D01*
X68516900Y-160071300D02*
X68396100Y-160127700D01*
X76464200Y-156365400D02*
X68516900Y-160071300D01*
X76533300Y-156333200D02*
X76464200Y-156365400D01*
X77234500Y-156361000D02*
X76533300Y-156333200D01*
X87898800Y-143878900D02*
X87877900Y-143602500D01*
X87898800Y-143878900D02*
X88094500Y-143682700D01*
X89483800Y-143748100D02*
X89238200Y-143876500D01*
X89483800Y-143748100D02*
X89226200Y-143645900D01*
X91313400Y-143652900D02*
X91559000Y-143524500D01*
X91313400Y-143652900D02*
X91571000Y-143755100D01*
G04 #@! TO.N,/mcu/INTB*
X94764600Y-133214000D02*
X79058700Y-123657000D01*
X79319100Y-123815400D02*
X79043900Y-123783100D01*
X79319100Y-123815400D02*
X79163900Y-123585900D01*
X94504200Y-133055600D02*
X94779400Y-133087900D01*
X94504200Y-133055600D02*
X94659400Y-133285100D01*
G04 #@! TO.N,/mcu/LCD_KB*
X161965100Y-66014300D02*
X157480000Y-68707000D01*
X162042600Y-65967600D02*
X161965100Y-66014300D01*
X162211300Y-65899500D02*
X162042600Y-65967600D01*
X162299900Y-65879000D02*
X162211300Y-65899500D01*
X167122800Y-64765300D02*
X162299900Y-65879000D01*
X167217200Y-64743500D02*
X167122800Y-64765300D01*
X167411900Y-64715700D02*
X167217200Y-64743500D01*
X167512100Y-64710000D02*
X167411900Y-64715700D01*
X189230000Y-63500000D02*
X167512100Y-64710000D01*
X157741300Y-68550100D02*
X157584800Y-68778800D01*
X157741300Y-68550100D02*
X157466000Y-68580800D01*
X188925700Y-63517000D02*
X189170800Y-63387700D01*
X188925700Y-63517000D02*
X189183600Y-63618300D01*
G04 #@! TO.N,/mcu/LCD_KG*
X165477800Y-60988500D02*
X157226000Y-67691000D01*
X165513900Y-60959200D02*
X165477800Y-60988500D01*
X165600100Y-60924800D02*
X165513900Y-60959200D01*
X165646600Y-60921200D02*
X165600100Y-60924800D01*
X191516000Y-58928000D02*
X165646600Y-60921200D01*
X157462600Y-67498800D02*
X157339900Y-67747200D01*
X157462600Y-67498800D02*
X157194300Y-67568000D01*
X191212100Y-58951400D02*
X191454300Y-58817000D01*
X191212100Y-58951400D02*
X191472100Y-59047200D01*
G04 #@! TO.N,/mcu/MOSI*
X93776600Y-152737400D02*
X93441200Y-152068000D01*
X93776600Y-152737400D02*
X93797900Y-152777300D01*
X94833200Y-154604700D02*
X93797900Y-152777300D01*
X94876200Y-154680500D02*
X94833200Y-154604700D01*
X94931400Y-154847600D02*
X94876200Y-154680500D01*
X94942000Y-154934100D02*
X94931400Y-154847600D01*
X95949100Y-163092200D02*
X94942000Y-154934100D01*
X183845900Y-56735700D02*
X184800000Y-56014000D01*
X183794500Y-56774500D02*
X183845900Y-56735700D01*
X183682400Y-56836600D02*
X183794500Y-56774500D01*
X183621800Y-56859700D02*
X183682400Y-56836600D01*
X182311600Y-57358300D02*
X183621800Y-56859700D01*
X182252200Y-57381000D02*
X182311600Y-57358300D01*
X182128900Y-57415800D02*
X182252200Y-57381000D01*
X182067200Y-57427400D02*
X182128900Y-57415800D01*
X165542600Y-60551100D02*
X182067200Y-57427400D01*
X165454400Y-60573200D02*
X165425700Y-60584200D01*
X165513200Y-60556600D02*
X165454400Y-60573200D01*
X165542600Y-60551100D02*
X165513200Y-60556600D01*
X154081600Y-64907700D02*
X165425700Y-60584200D01*
X153939400Y-64962000D02*
X154081600Y-64907700D01*
X153634600Y-64993000D02*
X153939400Y-64962000D01*
X153484400Y-64968500D02*
X153634600Y-64993000D01*
X152649500Y-64832700D02*
X153484400Y-64968500D01*
X151155600Y-65404400D02*
X151039800Y-65613600D01*
X151505100Y-65073300D02*
X151155600Y-65404400D01*
X151938300Y-64863300D02*
X151505100Y-65073300D01*
X152411900Y-64794100D02*
X151938300Y-64863300D01*
X152649500Y-64832700D02*
X152411900Y-64794100D01*
X150230200Y-67074200D02*
X151039800Y-65613600D01*
X150075000Y-67453100D02*
X150054000Y-67587700D01*
X150164200Y-67193200D02*
X150075000Y-67453100D01*
X150230200Y-67074200D02*
X150164200Y-67193200D01*
X148490600Y-77583500D02*
X150054000Y-67587700D01*
X148544800Y-78297600D02*
X148668100Y-78505100D01*
X148453200Y-77822500D02*
X148544800Y-78297600D01*
X148490600Y-77583500D02*
X148453200Y-77822500D01*
X150566900Y-81704500D02*
X148668100Y-78505100D01*
X150680500Y-81896000D02*
X150566900Y-81704500D01*
X150830400Y-82316800D02*
X150680500Y-81896000D01*
X150896300Y-82754600D02*
X150830400Y-82316800D01*
X150876900Y-83200900D02*
X150896300Y-82754600D01*
X150824900Y-83416100D02*
X150876900Y-83200900D01*
X150078600Y-86513800D02*
X150824900Y-83416100D01*
X150058900Y-86606700D02*
X150054000Y-86637700D01*
X150071000Y-86545500D02*
X150058900Y-86606700D01*
X150078600Y-86513800D02*
X150071000Y-86545500D01*
X148490600Y-96633800D02*
X150054000Y-86637700D01*
X148544800Y-97347900D02*
X148668100Y-97555400D01*
X148453200Y-96872800D02*
X148544800Y-97347900D01*
X148490600Y-96633800D02*
X148453200Y-96872800D01*
X150566900Y-100754800D02*
X148668100Y-97555400D01*
X150680500Y-100946300D02*
X150566900Y-100754800D01*
X150830400Y-101367100D02*
X150680500Y-100946300D01*
X150896300Y-101804900D02*
X150830400Y-101367100D01*
X150876900Y-102251200D02*
X150896300Y-101804900D01*
X150824900Y-102466400D02*
X150876900Y-102251200D01*
X150078600Y-105564100D02*
X150824900Y-102466400D01*
X150030400Y-105935200D02*
X150040800Y-106058600D01*
X150049300Y-105685700D02*
X150030400Y-105935200D01*
X150078600Y-105564100D02*
X150049300Y-105685700D01*
X150861400Y-115813800D02*
X150040800Y-106058600D01*
X150863000Y-115833700D02*
X150861400Y-115813800D01*
X150864800Y-115874000D02*
X150863000Y-115833700D01*
X150864900Y-115893300D02*
X150864800Y-115874000D01*
X150888800Y-120967200D02*
X150864900Y-115893300D01*
X150890500Y-121313500D02*
X150888800Y-120967200D01*
X150688500Y-121978800D02*
X150890500Y-121313500D01*
X150493600Y-122266700D02*
X150688500Y-121978800D01*
X147337400Y-126929000D02*
X150493600Y-122266700D01*
X147317100Y-126958900D02*
X147337400Y-126929000D01*
X147273300Y-127017600D02*
X147317100Y-126958900D01*
X147249100Y-127046900D02*
X147273300Y-127017600D01*
X133739500Y-143419900D02*
X147249100Y-127046900D01*
X133628000Y-143555300D02*
X133739500Y-143419900D01*
X133347000Y-143771200D02*
X133628000Y-143555300D01*
X133185900Y-143844800D02*
X133347000Y-143771200D01*
X112410300Y-153328500D02*
X133185900Y-143844800D01*
X112409200Y-153329000D02*
X112410300Y-153328500D01*
X109897600Y-154478000D02*
X112409200Y-153329000D01*
X109737500Y-154587300D02*
X109699200Y-154639600D01*
X109838400Y-154505100D02*
X109737500Y-154587300D01*
X109897600Y-154478000D02*
X109838400Y-154505100D01*
X106129000Y-159510700D02*
X109699200Y-154639600D01*
X106039600Y-159632800D02*
X106129000Y-159510700D01*
X105804300Y-159826100D02*
X106039600Y-159632800D01*
X105666400Y-159890400D02*
X105804300Y-159826100D01*
X98760300Y-163110700D02*
X105666400Y-159890400D01*
X98624000Y-163174200D02*
X98760300Y-163110700D01*
X98331200Y-163230200D02*
X98624000Y-163174200D01*
X98181400Y-163221600D02*
X98331200Y-163230200D01*
X95949100Y-163092200D02*
X98181400Y-163221600D01*
X93577700Y-152340500D02*
X93361700Y-152167000D01*
X93577700Y-152340500D02*
X93568100Y-152063600D01*
X95816400Y-162017500D02*
X96421300Y-162499300D01*
X95816400Y-162017500D02*
X95346900Y-162631900D01*
X184175600Y-56486300D02*
X184285600Y-55914900D01*
X184175600Y-56486300D02*
X184755400Y-56535900D01*
X97030200Y-163154900D02*
X96447500Y-163663300D01*
X97030200Y-163154900D02*
X96510100Y-162582500D01*
G04 #@! TO.N,/mcu/RX0*
X79641200Y-55758000D02*
X79641200Y-55681800D01*
X79641200Y-55765500D02*
X79641200Y-55758000D01*
X79638200Y-55780300D02*
X79641200Y-55765500D01*
X79635300Y-55787300D02*
X79638200Y-55780300D01*
X79417800Y-56309200D02*
X79635300Y-55787300D01*
X79412500Y-56321500D02*
X79417800Y-56309200D01*
X73879800Y-68720100D02*
X73862500Y-68810700D01*
X73934500Y-68546500D02*
X73879800Y-68720100D01*
X73971200Y-68464700D02*
X73934500Y-68546500D01*
X70131500Y-88481800D02*
X73862500Y-68810700D01*
X70097300Y-88724100D02*
X70093600Y-88806100D01*
X70116500Y-88560700D02*
X70097300Y-88724100D01*
X70131500Y-88481800D02*
X70116500Y-88560700D01*
X67871500Y-137807000D02*
X70093600Y-88806100D01*
X67885300Y-137502500D02*
X67989200Y-137759300D01*
X67885300Y-137502500D02*
X67758600Y-137748900D01*
D32*
X78948800Y-55758000D02*
X78948800Y-56113700D01*
X78948800Y-55605600D02*
X78948800Y-55758000D01*
X78915000Y-54858000D02*
X78948800Y-55605600D01*
D33*
X79250000Y-61597458D02*
X79250000Y-55593000D01*
X74736369Y-66111089D02*
X79250000Y-61597458D01*
X73971200Y-68103853D02*
X74736369Y-66111089D01*
X73971200Y-68464700D02*
X73971200Y-68103853D01*
G04 #@! TO.N,/mcu/RX1*
X89637200Y-152087800D02*
X89763600Y-149860000D01*
X89635900Y-152111000D02*
X89637200Y-152087800D01*
X89628900Y-152157500D02*
X89635900Y-152111000D01*
X89623200Y-152180800D02*
X89628900Y-152157500D01*
X89229400Y-153776100D02*
X89623200Y-152180800D01*
X89219400Y-153816300D02*
X89229400Y-153776100D01*
X89196100Y-153898000D02*
X89219400Y-153816300D01*
X89182300Y-153940300D02*
X89196100Y-153898000D01*
X84439000Y-168459500D02*
X89182300Y-153940300D01*
X104475200Y-51070200D02*
X104549000Y-50596400D01*
X104475200Y-51146400D02*
X104475200Y-51070200D01*
X104475200Y-51179400D02*
X104475200Y-51146400D01*
X104467800Y-51244400D02*
X104475200Y-51179400D01*
X104460300Y-51276800D02*
X104467800Y-51244400D01*
X104394000Y-51562000D02*
X104460300Y-51276800D01*
X104440800Y-49156100D02*
X104699000Y-48586400D01*
X104385300Y-49387600D02*
X104396900Y-49466700D01*
X104407700Y-49229300D02*
X104385300Y-49387600D01*
X104440800Y-49156100D02*
X104407700Y-49229300D01*
X104469200Y-49963400D02*
X104396900Y-49466700D01*
X104472200Y-49984100D02*
X104469200Y-49963400D01*
X104475200Y-50025300D02*
X104472200Y-49984100D01*
X104475200Y-50046400D02*
X104475200Y-50025300D01*
X104475200Y-50122600D02*
X104475200Y-50046400D01*
X104549000Y-50596400D02*
X104475200Y-50122600D01*
X108077000Y-51070200D02*
X108049000Y-50596400D01*
X108077000Y-51146400D02*
X108077000Y-51070200D01*
X108077000Y-51562000D02*
X108077000Y-51146400D01*
X109113900Y-52902100D02*
X108077000Y-51562000D01*
X109119600Y-52909600D02*
X109113900Y-52902100D01*
X109203500Y-53022400D02*
X109119600Y-52909600D01*
X109232000Y-53063100D02*
X109203500Y-53022400D01*
X112600200Y-58196400D02*
X109232000Y-53063100D01*
X112679800Y-58317500D02*
X112600200Y-58196400D01*
X112764100Y-58596400D02*
X112679800Y-58317500D01*
X112764900Y-58743000D02*
X112764100Y-58596400D01*
X112788800Y-63816900D02*
X112764900Y-58743000D01*
X112789900Y-64029200D02*
X112788800Y-63816900D01*
X112712500Y-64452700D02*
X112789900Y-64029200D01*
X112636000Y-64651800D02*
X112712500Y-64452700D01*
X111682900Y-67134000D02*
X112636000Y-64651800D01*
X111539600Y-67827800D02*
X111568800Y-68065600D01*
X111597600Y-67355900D02*
X111539600Y-67827800D01*
X111682900Y-67134000D02*
X111597600Y-67355900D01*
X112757300Y-77674300D02*
X111568800Y-68065600D01*
X112761900Y-77720500D02*
X112757300Y-77674300D01*
X113143400Y-82673300D02*
X112761900Y-77720500D01*
X113160400Y-82893200D02*
X113143400Y-82673300D01*
X113121200Y-83333700D02*
X113160400Y-82893200D01*
X113009900Y-83761700D02*
X113121200Y-83333700D01*
X112829400Y-84165500D02*
X113009900Y-83761700D01*
X112708400Y-84347800D02*
X112829400Y-84165500D01*
X112701500Y-84358300D02*
X112708400Y-84347800D01*
X112701500Y-84358300D02*
X112633200Y-84469200D01*
X111807500Y-85920600D02*
X112633200Y-84469200D01*
X111530500Y-86804800D02*
X111568800Y-87115600D01*
X111652600Y-86193200D02*
X111530500Y-86804800D01*
X111807500Y-85920600D02*
X111652600Y-86193200D01*
X112757300Y-96724700D02*
X111568800Y-87115600D01*
X112760900Y-96753900D02*
X112757300Y-96724700D01*
X112764800Y-96813500D02*
X112760900Y-96753900D01*
X112764900Y-96843300D02*
X112764800Y-96813500D01*
X112788800Y-101917200D02*
X112764900Y-96843300D01*
X112789900Y-102129500D02*
X112788800Y-101917200D01*
X112712500Y-102553000D02*
X112789900Y-102129500D01*
X112636000Y-102752100D02*
X112712500Y-102553000D01*
X111682900Y-105234300D02*
X112636000Y-102752100D01*
X111539600Y-105928100D02*
X111568800Y-106165900D01*
X111597600Y-105456200D02*
X111539600Y-105928100D01*
X111682900Y-105234300D02*
X111597600Y-105456200D01*
X112757300Y-115774600D02*
X111568800Y-106165900D01*
X112760900Y-115803900D02*
X112757300Y-115774600D01*
X112764800Y-115863500D02*
X112760900Y-115803900D01*
X112764900Y-115893300D02*
X112764800Y-115863500D01*
X112788800Y-120967200D02*
X112764900Y-115893300D01*
X112790500Y-121313500D02*
X112788800Y-120967200D01*
X112588500Y-121978800D02*
X112790500Y-121313500D01*
X112393600Y-122266700D02*
X112588500Y-121978800D01*
X109237400Y-126929000D02*
X112393600Y-122266700D01*
X109153000Y-127053600D02*
X109237400Y-126929000D01*
X108938700Y-127266600D02*
X109153000Y-127053600D01*
X108814200Y-127349800D02*
X108938700Y-127266600D01*
X101487700Y-132249900D02*
X108814200Y-127349800D01*
X101487700Y-132249900D02*
X101474200Y-132259100D01*
X93124800Y-138068100D02*
X101474200Y-132259100D01*
X93032100Y-138141000D02*
X93004300Y-138168800D01*
X93092900Y-138090300D02*
X93032100Y-138141000D01*
X93124800Y-138068100D02*
X93092900Y-138090300D01*
X92552600Y-138619800D02*
X93004300Y-138168800D01*
X92283800Y-139103000D02*
X92292700Y-139291400D01*
X92419900Y-138752100D02*
X92283800Y-139103000D01*
X92552600Y-138619800D02*
X92419900Y-138752100D01*
X92455500Y-142698700D02*
X92292700Y-139291400D01*
X92457900Y-142749300D02*
X92455500Y-142698700D01*
X92442900Y-142848800D02*
X92457900Y-142749300D01*
X92425900Y-142895600D02*
X92442900Y-142848800D01*
X92095700Y-143809600D02*
X92425900Y-142895600D01*
X92078400Y-143857500D02*
X92095700Y-143809600D01*
X92025200Y-143944900D02*
X92078400Y-143857500D01*
X91990700Y-143982100D02*
X92025200Y-143944900D01*
X89851800Y-146293000D02*
X91990700Y-143982100D01*
X89607200Y-146763100D02*
X89616300Y-146941800D01*
X89730000Y-146424600D02*
X89607200Y-146763100D01*
X89851800Y-146293000D02*
X89730000Y-146424600D01*
X89763600Y-149860000D02*
X89616300Y-146941800D01*
X108122800Y-50122600D02*
X108049000Y-50596400D01*
X108122800Y-50046400D02*
X108122800Y-50122600D01*
X108122800Y-50037000D02*
X108122800Y-50046400D01*
X108124200Y-50017800D02*
X108122800Y-50037000D01*
X108125500Y-50008200D02*
X108124200Y-50017800D01*
X108201500Y-49463600D02*
X108125500Y-50008200D01*
X108190000Y-49228800D02*
X108157200Y-49156100D01*
X108212500Y-49385000D02*
X108190000Y-49228800D01*
X108201500Y-49463600D02*
X108212500Y-49385000D01*
X107899000Y-48586400D02*
X108157200Y-49156100D01*
X89746300Y-150164300D02*
X89645300Y-149906200D01*
X89746300Y-150164300D02*
X89875900Y-149919400D01*
X84775300Y-167430200D02*
X85118300Y-168123300D01*
X84775300Y-167430200D02*
X84089300Y-167787100D01*
X104460300Y-51276800D02*
X104518000Y-51534200D01*
X104460300Y-51276800D02*
X104295000Y-51482400D01*
X104499700Y-49026200D02*
X104475600Y-48599100D01*
X104499700Y-49026200D02*
X104836800Y-48762700D01*
X108077000Y-51257200D02*
X108192500Y-51509100D01*
X108077000Y-51257200D02*
X107961500Y-51509100D01*
X108263500Y-51803100D02*
X108018100Y-51674500D01*
X108263500Y-51803100D02*
X108200700Y-51533300D01*
X89748200Y-149555600D02*
X89876200Y-149801400D01*
X89748200Y-149555600D02*
X89645600Y-149813000D01*
X108098300Y-49026200D02*
X107761200Y-48762700D01*
X108098300Y-49026200D02*
X108122400Y-48599100D01*
G04 #@! TO.N,/mcu/RX2*
X90830300Y-149743200D02*
X90765700Y-147523000D01*
X90830800Y-149760400D02*
X90830300Y-149743200D01*
X90829500Y-149795000D02*
X90830800Y-149760400D01*
X90827600Y-149812600D02*
X90829500Y-149795000D01*
X89043000Y-166312500D02*
X90827600Y-149812600D01*
X90774600Y-147827700D02*
X90651800Y-147579300D01*
X90774600Y-147827700D02*
X90882600Y-147572500D01*
X89159400Y-165235900D02*
X89638200Y-165843200D01*
X89159400Y-165235900D02*
X88561800Y-165726800D01*
G04 #@! TO.N,/mcu/SCL0*
X93457100Y-146699500D02*
X94571600Y-152339000D01*
X93451400Y-146670400D02*
X93457100Y-146699500D01*
X93446700Y-146611100D02*
X93451400Y-146670400D01*
X93447900Y-146580900D02*
X93446700Y-146611100D01*
X93598100Y-142788400D02*
X93447900Y-146580900D01*
X93598100Y-142788400D02*
X93598900Y-142765400D01*
X93688800Y-139262000D02*
X93598900Y-142765400D01*
X93687100Y-139200800D02*
X93684400Y-139180900D01*
X93689300Y-139241600D02*
X93687100Y-139200800D01*
X93688800Y-139262000D02*
X93689300Y-139241600D01*
X93632600Y-138798000D02*
X93684400Y-139180900D01*
X100553100Y-160945300D02*
X94571600Y-152339000D01*
X94512500Y-152040000D02*
X94674600Y-152264700D01*
X94512500Y-152040000D02*
X94448000Y-152309500D01*
X93673500Y-139100000D02*
X93525300Y-138865900D01*
X93673500Y-139100000D02*
X93754100Y-138834900D01*
X94745600Y-152589300D02*
X94507000Y-152448400D01*
X94745600Y-152589300D02*
X94696600Y-152316600D01*
X99935100Y-160056100D02*
X100694800Y-160200700D01*
X99935100Y-160056100D02*
X99805800Y-160818500D01*
G04 #@! TO.N,/mcu/SCLK*
X94565000Y-155094200D02*
X93647100Y-164165600D01*
X94536800Y-154850000D02*
X94493700Y-154779200D01*
X94573300Y-155011400D02*
X94536800Y-154850000D01*
X94565000Y-155094200D02*
X94573300Y-155011400D01*
X93007000Y-152331800D02*
X94493700Y-154779200D01*
X93000500Y-152321300D02*
X93007000Y-152331800D01*
X92988300Y-152298700D02*
X93000500Y-152321300D01*
X92982900Y-152287500D02*
X92988300Y-152298700D01*
X92817000Y-151941000D02*
X92982900Y-152287500D01*
X93756100Y-163088200D02*
X94239100Y-163692200D01*
X93756100Y-163088200D02*
X93161900Y-163583200D01*
X92948600Y-152215900D02*
X92735700Y-152038500D01*
X92948600Y-152215900D02*
X92943900Y-151938900D01*
G04 #@! TO.N,/mcu/SDA0*
X93218200Y-142709300D02*
X93180900Y-139249000D01*
X93218800Y-142770600D02*
X93218200Y-142709300D01*
X93208700Y-142890000D02*
X93218800Y-142770600D01*
X93198000Y-142948900D02*
X93208700Y-142890000D01*
X91719400Y-151130000D02*
X93198000Y-142948900D01*
X72842000Y-144085000D02*
X71841400Y-141383000D01*
X95237100Y-154566700D02*
X98251100Y-162018700D01*
X95185600Y-154453700D02*
X95164800Y-154416900D01*
X95221300Y-154527600D02*
X95185600Y-154453700D01*
X95237100Y-154566700D02*
X95221300Y-154527600D01*
X94129500Y-152589400D02*
X95164800Y-154416900D01*
X94114300Y-152562700D02*
X94129500Y-152589400D01*
X94090400Y-152505300D02*
X94114300Y-152562700D01*
X94082100Y-152475400D02*
X94090400Y-152505300D01*
X93930700Y-151931600D02*
X94082100Y-152475400D01*
X93694300Y-151606200D02*
X93560300Y-151574100D01*
X93893700Y-151798600D02*
X93694300Y-151606200D01*
X93930700Y-151931600D02*
X93893700Y-151798600D01*
X91719400Y-151130000D02*
X93560300Y-151574100D01*
X93184200Y-139553800D02*
X93066000Y-139303100D01*
X93184200Y-139553800D02*
X93297000Y-139300700D01*
X91773600Y-150830100D02*
X91842400Y-151098400D01*
X91773600Y-150830100D02*
X91615200Y-151057400D01*
X71947200Y-141668800D02*
X71751500Y-141472700D01*
X71947200Y-141668800D02*
X71968100Y-141392500D01*
X72736200Y-143799200D02*
X72931900Y-143995300D01*
X72736200Y-143799200D02*
X72715300Y-144075500D01*
X97845100Y-161014800D02*
X98554000Y-161323800D01*
X97845100Y-161014800D02*
X97550400Y-161729800D01*
X92015700Y-151201500D02*
X91743700Y-151254600D01*
X92015700Y-151201500D02*
X91797900Y-151030200D01*
G04 #@! TO.N,/mcu/SDB*
X88066900Y-128640300D02*
X79264300Y-123056000D01*
X88066900Y-128640300D02*
X88122800Y-128674200D01*
X95214300Y-132765000D02*
X88122800Y-128674200D01*
X79521700Y-123219300D02*
X79247100Y-123181900D01*
X79521700Y-123219300D02*
X79370900Y-122986900D01*
X94950300Y-132612700D02*
X95226200Y-132638600D01*
X94950300Y-132612700D02*
X95110800Y-132838600D01*
G04 #@! TO.N,/mcu/SS1*
X189845900Y-56735700D02*
X190800000Y-56014000D01*
X189781900Y-56784200D02*
X189845900Y-56735700D01*
X189637900Y-56857300D02*
X189781900Y-56784200D01*
X189560600Y-56880600D02*
X189637900Y-56857300D01*
X182753000Y-58928000D02*
X189560600Y-56880600D01*
X190175600Y-56486300D02*
X190285600Y-55914900D01*
X190175600Y-56486300D02*
X190755400Y-56535900D01*
X183044900Y-58840200D02*
X182837000Y-59023400D01*
X183044900Y-58840200D02*
X182770400Y-58802200D01*
G04 #@! TO.N,/mcu/SWD_CLK*
X88890700Y-153531100D02*
X89129900Y-152059000D01*
X88871600Y-153648500D02*
X88890700Y-153531100D01*
X88806500Y-153872700D02*
X88871600Y-153648500D01*
X88760000Y-153981600D02*
X88806500Y-153872700D01*
X87082700Y-157905700D02*
X88760000Y-153981600D01*
X87048000Y-157986700D02*
X87082700Y-157905700D01*
X86928100Y-158116100D02*
X87048000Y-157986700D01*
X86850200Y-158156600D02*
X86928100Y-158116100D01*
X74617900Y-164527400D02*
X86850200Y-158156600D01*
X74329800Y-164879300D02*
X74347800Y-165035800D01*
X74477600Y-164600600D02*
X74329800Y-164879300D01*
X74617900Y-164527400D02*
X74477600Y-164600600D01*
X75230900Y-172753300D02*
X74347800Y-165035800D01*
X89081000Y-152359900D02*
X89007400Y-152092700D01*
X89081000Y-152359900D02*
X89235400Y-152129700D01*
X75107800Y-171677400D02*
X75708400Y-172164600D01*
X75107800Y-171677400D02*
X74632800Y-172287600D01*
G04 #@! TO.N,/mcu/SWD_DIO*
X92461100Y-163952800D02*
X94059500Y-155043000D01*
X92440000Y-164216800D02*
X92450100Y-164303400D01*
X92445500Y-164039900D02*
X92440000Y-164216800D01*
X92461100Y-163952800D02*
X92445500Y-164039900D01*
X92542000Y-165101300D02*
X92450100Y-164303400D01*
X92563700Y-165290200D02*
X92542000Y-165101300D01*
X92489000Y-165662300D02*
X92563700Y-165290200D01*
X92303500Y-165993400D02*
X92489000Y-165662300D01*
X92025300Y-166251500D02*
X92303500Y-165993400D01*
X91854200Y-166331100D02*
X92025300Y-166251500D01*
X73438100Y-174918700D02*
X91854200Y-166331100D01*
X73301800Y-174982200D02*
X73438100Y-174918700D01*
X73009000Y-175038200D02*
X73301800Y-174982200D01*
X72859200Y-175029600D02*
X73009000Y-175038200D01*
X70626800Y-174900200D02*
X72859200Y-175029600D01*
X94005700Y-155343000D02*
X93936600Y-155074700D01*
X94005700Y-155343000D02*
X94163800Y-155115500D01*
X71707900Y-174962900D02*
X71125200Y-175471300D01*
X71707900Y-174962900D02*
X71187800Y-174390500D01*
G04 #@! TO.N,/mcu/TX0*
X77230600Y-57754700D02*
X77230600Y-57754700D01*
X77257100Y-58003600D02*
X77257100Y-58003600D01*
X77186600Y-58221100D02*
X77186600Y-58221100D01*
X77019000Y-58407000D02*
X77019000Y-58407000D01*
X76948500Y-58624500D02*
X76948500Y-58624500D01*
X76975000Y-58873400D02*
X76975000Y-58873400D01*
X76904500Y-59090900D02*
X76904500Y-59090900D01*
X76736900Y-59276800D02*
X76736900Y-59276800D01*
X76666400Y-59494300D02*
X76666400Y-59494300D01*
X76692900Y-59743200D02*
X76692900Y-59743200D01*
X76622400Y-59960700D02*
X76622400Y-59960700D01*
X76454800Y-60146600D02*
X76454800Y-60146600D01*
X76384300Y-60364100D02*
X76384300Y-60364100D01*
X76362300Y-60597300D02*
X76362300Y-60597300D01*
X82137000Y-169532900D02*
X74852600Y-164978000D01*
X110109000Y-154940000D02*
X110998000Y-155702000D01*
X65522800Y-137418800D02*
X65598100Y-137685500D01*
X65522800Y-137418800D02*
X65369900Y-137649900D01*
X75111000Y-165139600D02*
X74836300Y-165104000D01*
X75111000Y-165139600D02*
X74958700Y-164908200D01*
X81218800Y-168958800D02*
X81974100Y-168792600D01*
X81218800Y-168958800D02*
X81400100Y-169710600D01*
X110766600Y-155503600D02*
X111032900Y-155580000D01*
X110766600Y-155503600D02*
X110882700Y-155755200D01*
X110340400Y-155138400D02*
X110074100Y-155062000D01*
X110340400Y-155138400D02*
X110224300Y-154886800D01*
X77257100Y-58003600D02*
X77230600Y-57754700D01*
X73551400Y-68488600D02*
X73582900Y-68406500D01*
X69712900Y-88788200D02*
X69717200Y-88693300D01*
X76384300Y-60364100D02*
X76454800Y-60146600D01*
X73504300Y-68654500D02*
X73551400Y-68488600D01*
X74536000Y-65924300D02*
X74564500Y-65845900D01*
X73488100Y-68739700D02*
X73504300Y-68654500D01*
X69717200Y-88693300D02*
X69739500Y-88502700D01*
X76327000Y-60706000D02*
X76362300Y-60597300D01*
X69739500Y-88502700D02*
X69757000Y-88410800D01*
X68314200Y-119477100D02*
X68314600Y-119468900D01*
X69757000Y-88410800D02*
X73488100Y-68739700D01*
X76325000Y-60712000D02*
X76327000Y-60706000D01*
X76975000Y-58873400D02*
X76948500Y-58624500D01*
X76666400Y-59494300D02*
X76736900Y-59276800D01*
X68312600Y-119493500D02*
X68314200Y-119477100D01*
X73582900Y-68406500D02*
X74536000Y-65924300D01*
X76454800Y-60146600D02*
X76622400Y-59960700D01*
X76362300Y-60597300D02*
X76384300Y-60364100D01*
X68314600Y-119468900D02*
X69712900Y-88788200D01*
X76750000Y-56632600D02*
X76750000Y-55593000D01*
X76622400Y-59960700D02*
X76692900Y-59743200D01*
X74564500Y-65845900D02*
X76325000Y-60712000D01*
X76692900Y-59743200D02*
X76666400Y-59494300D01*
X76736900Y-59276800D02*
X76904500Y-59090900D01*
X68311300Y-119501900D02*
X68312600Y-119493500D01*
X65475900Y-137720000D02*
X68311300Y-119501900D01*
X76948500Y-58624500D02*
X77019000Y-58407000D01*
X76904500Y-59090900D02*
X76975000Y-58873400D01*
X77019000Y-58407000D02*
X77186600Y-58221100D01*
X77186600Y-58221100D02*
X77257100Y-58003600D01*
X77230600Y-57754700D02*
X77230600Y-57731600D01*
X76750000Y-57251000D02*
X76750000Y-55593000D01*
X77230600Y-57731600D02*
X76750000Y-57251000D01*
G04 #@! TO.N,/mcu/TX1*
X108622800Y-51070200D02*
X108549000Y-50596400D01*
X108622800Y-51146400D02*
X108622800Y-51070200D01*
X108644700Y-51261200D02*
X108665900Y-51294500D01*
X108622800Y-51185700D02*
X108644700Y-51261200D01*
X108622800Y-51146400D02*
X108622800Y-51185700D01*
X109078900Y-51944400D02*
X108665900Y-51294500D01*
X103975200Y-51070200D02*
X104049000Y-50596400D01*
X103975200Y-51146400D02*
X103975200Y-51070200D01*
X103975200Y-51154200D02*
X103975200Y-51146400D01*
X103974300Y-51170000D02*
X103975200Y-51154200D01*
X103973400Y-51177700D02*
X103974300Y-51170000D01*
X103886000Y-51943000D02*
X103973400Y-51177700D01*
X90011800Y-152172400D02*
X90322400Y-149758000D01*
X90009400Y-152191200D02*
X90011800Y-152172400D01*
X90003100Y-152227900D02*
X90009400Y-152191200D01*
X89999200Y-152246100D02*
X90003100Y-152227900D01*
X86741000Y-167386000D02*
X89999200Y-152246100D01*
X108541100Y-50122600D02*
X108549000Y-50596400D01*
X108541100Y-50046400D02*
X108541100Y-50122600D01*
X108541100Y-49386400D02*
X108541100Y-50046400D01*
X108541100Y-49357000D02*
X108541100Y-49386400D01*
X108547200Y-49298800D02*
X108541100Y-49357000D01*
X108553300Y-49270200D02*
X108547200Y-49298800D01*
X108699000Y-48586400D02*
X108553300Y-49270200D01*
X110096400Y-53195900D02*
X109078900Y-51944400D01*
X110099600Y-53199900D02*
X110096400Y-53195900D01*
X110105900Y-53208400D02*
X110099600Y-53199900D01*
X110109000Y-53213000D02*
X110105900Y-53208400D01*
X110175400Y-53312700D02*
X110109000Y-53213000D01*
X110175400Y-53312700D02*
X110175400Y-53312700D01*
X110228400Y-53550600D02*
X110175400Y-53312700D01*
X110228400Y-53550600D02*
X110228400Y-53550600D01*
X110355200Y-53740800D02*
X110228400Y-53550600D01*
X110355200Y-53740800D02*
X110355200Y-53740800D01*
X110628300Y-53833500D02*
X110355200Y-53740800D01*
X110628300Y-53833500D02*
X110628300Y-53833500D01*
X110755100Y-54023700D02*
X110628300Y-53833500D01*
X110755100Y-54023700D02*
X110755100Y-54023700D01*
X110735600Y-54311400D02*
X110755100Y-54023700D01*
X110735600Y-54311400D02*
X110735600Y-54311400D01*
X110862400Y-54501600D02*
X110735600Y-54311400D01*
X110862400Y-54501600D02*
X110862400Y-54501600D01*
X111135500Y-54594300D02*
X110862400Y-54501600D01*
X111135500Y-54594300D02*
X111135500Y-54594300D01*
X111262300Y-54784500D02*
X111135500Y-54594300D01*
X111262300Y-54784500D02*
X111262300Y-54784500D01*
X111242800Y-55072300D02*
X111262300Y-54784500D01*
X111242800Y-55072300D02*
X111242800Y-55072300D01*
X111369600Y-55262500D02*
X111242800Y-55072300D01*
X111369600Y-55262500D02*
X111369600Y-55262500D01*
X111569600Y-55403900D02*
X111369600Y-55262500D01*
X111569600Y-55403900D02*
X111569600Y-55403900D01*
X111633000Y-55499000D02*
X111569600Y-55403900D01*
X111636400Y-55504000D02*
X111633000Y-55499000D01*
X111642600Y-55514500D02*
X111636400Y-55504000D01*
X111645500Y-55520100D02*
X111642600Y-55514500D01*
X112990000Y-58108900D02*
X111645500Y-55520100D01*
X113066000Y-58255000D02*
X112990000Y-58108900D01*
X113145200Y-58575900D02*
X113066000Y-58255000D01*
X113146000Y-58741200D02*
X113145200Y-58575900D01*
X113169900Y-63815100D02*
X113146000Y-58741200D01*
X113171200Y-64062600D02*
X113169900Y-63815100D01*
X113081000Y-64556300D02*
X113171200Y-64062600D01*
X112991800Y-64788400D02*
X113081000Y-64556300D01*
X112038600Y-67270600D02*
X112991800Y-64788400D01*
X111923500Y-67827800D02*
X111947100Y-68018900D01*
X111970100Y-67448800D02*
X111923500Y-67827800D01*
X112038600Y-67270600D02*
X111970100Y-67448800D01*
X113135500Y-77627600D02*
X111947100Y-68018900D01*
X113142100Y-77693800D02*
X113135500Y-77627600D01*
X113514600Y-82650400D02*
X113142100Y-77693800D01*
X113533400Y-82900500D02*
X113514600Y-82650400D01*
X113487900Y-83402500D02*
X113533400Y-82900500D01*
X113361900Y-83885100D02*
X113487900Y-83402500D01*
X113156300Y-84345300D02*
X113361900Y-83885100D01*
X113018400Y-84553100D02*
X113156300Y-84345300D01*
X113011400Y-84563600D02*
X113018400Y-84553100D01*
X112965500Y-84636700D02*
X112952200Y-84660600D01*
X112995000Y-84588400D02*
X112965500Y-84636700D01*
X113011400Y-84563600D02*
X112995000Y-84588400D01*
X112134500Y-86116600D02*
X112952200Y-84660600D01*
X111916500Y-86822500D02*
X111947100Y-87068900D01*
X112012600Y-86333800D02*
X111916500Y-86822500D01*
X112134500Y-86116600D02*
X112012600Y-86333800D01*
X113135500Y-96677900D02*
X111947100Y-87068900D01*
X113140500Y-96718300D02*
X113135500Y-96677900D01*
X113145800Y-96800400D02*
X113140500Y-96718300D01*
X113146000Y-96841500D02*
X113145800Y-96800400D01*
X113169900Y-101915400D02*
X113146000Y-96841500D01*
X113171200Y-102162900D02*
X113169900Y-101915400D01*
X113081000Y-102656600D02*
X113171200Y-102162900D01*
X112991800Y-102888700D02*
X113081000Y-102656600D01*
X112038600Y-105370900D02*
X112991800Y-102888700D01*
X111923500Y-105928100D02*
X111947100Y-106119200D01*
X111970100Y-105549100D02*
X111923500Y-105928100D01*
X112038600Y-105370900D02*
X111970100Y-105549100D01*
X113135500Y-115727900D02*
X111947100Y-106119200D01*
X113140500Y-115768300D02*
X113135500Y-115727900D01*
X113145800Y-115850400D02*
X113140500Y-115768300D01*
X113146000Y-115891500D02*
X113145800Y-115850400D01*
X113169900Y-120965400D02*
X113146000Y-115891500D01*
X113170900Y-121165300D02*
X113169900Y-120965400D01*
X113112700Y-121564100D02*
X113170900Y-121165300D01*
X112995600Y-121949700D02*
X113112700Y-121564100D01*
X112822100Y-122313400D02*
X112995600Y-121949700D01*
X112709200Y-122480300D02*
X112822100Y-122313400D01*
X109553000Y-127142600D02*
X112709200Y-122480300D01*
X109448000Y-127297800D02*
X109553000Y-127142600D01*
X109181100Y-127563000D02*
X109448000Y-127297800D01*
X109026100Y-127666600D02*
X109181100Y-127563000D01*
X101699500Y-132566700D02*
X109026100Y-127666600D01*
X101691800Y-132571900D02*
X101699500Y-132566700D01*
X93342400Y-138380900D02*
X101691800Y-132571900D01*
X93289500Y-138422600D02*
X93273600Y-138438400D01*
X93324200Y-138393600D02*
X93289500Y-138422600D01*
X93342400Y-138380900D02*
X93324200Y-138393600D01*
X92821900Y-138889400D02*
X93273600Y-138438400D01*
X92668300Y-139165500D02*
X92673400Y-139273300D01*
X92746000Y-138965000D02*
X92668300Y-139165500D01*
X92821900Y-138889400D02*
X92746000Y-138965000D01*
X92836200Y-142680600D02*
X92673400Y-139273300D01*
X92840300Y-142769200D02*
X92836200Y-142680600D01*
X92814000Y-142943100D02*
X92840300Y-142769200D01*
X92784300Y-143025100D02*
X92814000Y-142943100D01*
X92454100Y-143939100D02*
X92784300Y-143025100D01*
X92423900Y-144022900D02*
X92454100Y-143939100D01*
X92330700Y-144175900D02*
X92423900Y-144022900D01*
X92270400Y-144241000D02*
X92330700Y-144175900D01*
X90131500Y-146551900D02*
X92270400Y-144241000D01*
X89987000Y-146844600D02*
X89999600Y-146955100D01*
X90056200Y-146633200D02*
X89987000Y-146844600D01*
X90131500Y-146551900D02*
X90056200Y-146633200D01*
X90322400Y-149758000D02*
X89999600Y-146955100D01*
X104044700Y-49270200D02*
X103899000Y-48586400D01*
X104050800Y-49299000D02*
X104044700Y-49270200D01*
X104056900Y-49357200D02*
X104050800Y-49299000D01*
X104056900Y-49386400D02*
X104056900Y-49357200D01*
X104056900Y-50046400D02*
X104056900Y-49386400D01*
X104056900Y-50122600D02*
X104056900Y-50046400D01*
X104049000Y-50596400D02*
X104056900Y-50122600D01*
X108915400Y-51687100D02*
X109148000Y-51837800D01*
X108915400Y-51687100D02*
X108953000Y-51961600D01*
X103920600Y-51640200D02*
X104006700Y-51903500D01*
X103920600Y-51640200D02*
X103777300Y-51877300D01*
X90283500Y-150060300D02*
X90201100Y-149795800D01*
X90283500Y-150060300D02*
X90430100Y-149825200D01*
X86968800Y-166327400D02*
X87381800Y-166981200D01*
X86968800Y-166327400D02*
X86323400Y-166753400D01*
X108598400Y-49058700D02*
X108483400Y-48646600D01*
X108598400Y-49058700D02*
X108871400Y-48729200D01*
X109271200Y-52180900D02*
X109022700Y-52058300D01*
X109271200Y-52180900D02*
X109201900Y-51912700D01*
X90287500Y-149455200D02*
X90431000Y-149692200D01*
X90287500Y-149455200D02*
X90201600Y-149718600D01*
X103999600Y-49058700D02*
X103726600Y-48729200D01*
X103999600Y-49058700D02*
X104114600Y-48646600D01*
G04 #@! TO.N,/mcu/TX2*
X90929800Y-147042100D02*
X90504400Y-146897000D01*
X91086500Y-147095700D02*
X90929800Y-147042100D01*
X91276700Y-147366700D02*
X91086500Y-147095700D01*
X91273700Y-147531800D02*
X91276700Y-147366700D01*
X91211400Y-151121200D02*
X91273700Y-147531800D01*
X91211400Y-151121200D02*
X91211300Y-151134800D01*
X91345000Y-165239100D02*
X91211300Y-151134800D01*
X90792900Y-146995400D02*
X90517200Y-147023400D01*
X90792900Y-146995400D02*
X90591800Y-146804800D01*
X91334700Y-164156300D02*
X91881300Y-164703500D01*
X91334700Y-164156300D02*
X90798700Y-164713700D01*
G04 #@! TO.N,/mcu/USB_DM*
X105102300Y-54269200D02*
X106045000Y-51435000D01*
X105089700Y-54307100D02*
X105102300Y-54269200D01*
X105045900Y-54373800D02*
X105089700Y-54307100D01*
X105016000Y-54400500D02*
X105045900Y-54373800D01*
X102376700Y-56754900D02*
X105016000Y-54400500D01*
X102376700Y-56754900D02*
X102365000Y-56765900D01*
X102362000Y-56769000D02*
X102365000Y-56765900D01*
X102152000Y-56987000D02*
X102362000Y-56769000D01*
X102152000Y-56987000D02*
X102152000Y-56987000D01*
X101947100Y-57107100D02*
X102152000Y-56987000D01*
X101947100Y-57107100D02*
X101947100Y-57107100D01*
X101788500Y-57271700D02*
X101947100Y-57107100D01*
X101788500Y-57271700D02*
X101788500Y-57271700D01*
X101722700Y-57525700D02*
X101788500Y-57271700D01*
X101722700Y-57525700D02*
X101722700Y-57525700D01*
X101564100Y-57690300D02*
X101722700Y-57525700D01*
X101564100Y-57690300D02*
X101564100Y-57690300D01*
X101312800Y-57765700D02*
X101564100Y-57690300D01*
X101312800Y-57765700D02*
X101312800Y-57765700D01*
X101154300Y-57930400D02*
X101312800Y-57765700D01*
X101154300Y-57930400D02*
X101154300Y-57930400D01*
X101088400Y-58184300D02*
X101154300Y-57930400D01*
X101088400Y-58184300D02*
X101088400Y-58184300D01*
X100929800Y-58349000D02*
X101088400Y-58184300D01*
X100929800Y-58349000D02*
X100929800Y-58349000D01*
X100678600Y-58424400D02*
X100929800Y-58349000D01*
X100678600Y-58424400D02*
X100678600Y-58424400D01*
X100520000Y-58589100D02*
X100678600Y-58424400D01*
X100520000Y-58589100D02*
X100520000Y-58589100D01*
X100454200Y-58843000D02*
X100520000Y-58589100D01*
X100454200Y-58843000D02*
X100454200Y-58843000D01*
X100295600Y-59007600D02*
X100454200Y-58843000D01*
X100295600Y-59007600D02*
X100295600Y-59007600D01*
X100044300Y-59083000D02*
X100295600Y-59007600D01*
X100044300Y-59083000D02*
X100044300Y-59083000D01*
X99885800Y-59247700D02*
X100044300Y-59083000D01*
X99885800Y-59247700D02*
X99885800Y-59247700D01*
X99819900Y-59501600D02*
X99885800Y-59247700D01*
X99819900Y-59501600D02*
X99819900Y-59501600D01*
X99661300Y-59666300D02*
X99819900Y-59501600D01*
X99661300Y-59666300D02*
X99661300Y-59666300D01*
X99410100Y-59741700D02*
X99661300Y-59666300D01*
X99410100Y-59741700D02*
X99410100Y-59741700D01*
X99251500Y-59906400D02*
X99410100Y-59741700D01*
X99251500Y-59906400D02*
X99251500Y-59906400D01*
X99139300Y-60115700D02*
X99251500Y-59906400D01*
X99139300Y-60115700D02*
X99139300Y-60115700D01*
X99060000Y-60198000D02*
X99139300Y-60115700D01*
X95406100Y-64041200D02*
X99060000Y-60198000D01*
X95289200Y-64177700D02*
X95255700Y-64226400D01*
X95365400Y-64084000D02*
X95289200Y-64177700D01*
X95406100Y-64041200D02*
X95365400Y-64084000D01*
X93657200Y-66539100D02*
X95255700Y-64226400D01*
X93585600Y-66649700D02*
X93564000Y-66688000D01*
X93632200Y-66575200D02*
X93585600Y-66649700D01*
X93657200Y-66539100D02*
X93632200Y-66575200D01*
X88265000Y-76073000D02*
X93564000Y-66688000D01*
X106045000Y-51070200D02*
X106049000Y-50596400D01*
X106045000Y-51146400D02*
X106045000Y-51070200D01*
X106045000Y-51435000D02*
X106045000Y-51146400D01*
X105948800Y-51724200D02*
X105918800Y-51448800D01*
X105948800Y-51724200D02*
X106137800Y-51521600D01*
X88414900Y-75807600D02*
X88391500Y-76083700D01*
X88414900Y-75807600D02*
X88190500Y-75970100D01*
X106045000Y-51146400D02*
X106159000Y-51379100D01*
X106045000Y-51146400D02*
X105931000Y-51379100D01*
G04 #@! TO.N,/mcu/USB_DP*
X106383100Y-49857100D02*
X105899000Y-49386400D01*
X106404200Y-49877700D02*
X106383100Y-49857100D01*
X106436700Y-49927800D02*
X106404200Y-49877700D01*
X106446900Y-49955600D02*
X106436700Y-49927800D01*
X106470600Y-50020200D02*
X106446900Y-49955600D01*
X106472900Y-50026500D02*
X106470600Y-50020200D01*
X106475200Y-50039700D02*
X106472900Y-50026500D01*
X106475200Y-50046400D02*
X106475200Y-50039700D01*
X106475200Y-50122600D02*
X106475200Y-50046400D01*
X106549000Y-50596400D02*
X106475200Y-50122600D01*
X106504000Y-51070200D02*
X106549000Y-50596400D01*
X106504000Y-51146400D02*
X106504000Y-51070200D01*
X106504000Y-51435000D02*
X106504000Y-51146400D01*
X106504000Y-51475100D02*
X106504000Y-51435000D01*
X106490200Y-51553400D02*
X106504000Y-51475100D01*
X106476600Y-51591200D02*
X106490200Y-51553400D01*
X105458100Y-54406400D02*
X106476600Y-51591200D01*
X105433300Y-54474700D02*
X105458100Y-54406400D01*
X105357000Y-54597100D02*
X105433300Y-54474700D01*
X105307000Y-54649000D02*
X105357000Y-54597100D01*
X99527000Y-60647800D02*
X105307000Y-54649000D01*
X99515100Y-60659700D02*
X99527000Y-60647800D01*
X95723800Y-64262400D02*
X99515100Y-60659700D01*
X95602600Y-64394700D02*
X95569200Y-64443000D01*
X95679900Y-64304200D02*
X95602600Y-64394700D01*
X95723800Y-64262400D02*
X95679900Y-64304200D01*
X93970700Y-66755800D02*
X95569200Y-64443000D01*
X93909000Y-66851600D02*
X93889800Y-66886100D01*
X93949100Y-66787100D02*
X93909000Y-66851600D01*
X93970700Y-66755800D02*
X93949100Y-66787100D01*
X93080200Y-68346700D02*
X93889800Y-66886100D01*
X93080200Y-68346700D02*
X93054800Y-68394600D01*
X89085500Y-76184900D02*
X93054800Y-68394600D01*
X106245200Y-49723000D02*
X105835200Y-49600900D01*
X106245200Y-49723000D02*
X106111600Y-49316500D01*
X89223900Y-75913300D02*
X89212400Y-76190100D01*
X89223900Y-75913300D02*
X89006600Y-76085300D01*
D32*
G04 #@! TO.N,VDD*
X68772100Y-87626000D02*
X68707000Y-80899000D01*
X68772200Y-87640200D02*
X68772100Y-87626000D01*
X68772200Y-90880200D02*
X68772200Y-87640200D01*
X68772200Y-90899500D02*
X68772200Y-90880200D01*
X68770300Y-90938100D02*
X68772200Y-90899500D01*
X68768400Y-90956600D02*
X68770300Y-90938100D01*
X66234300Y-116106600D02*
X68768400Y-90956600D01*
X66234300Y-116106600D02*
X66231200Y-116143900D01*
X65024000Y-134468000D02*
X66231200Y-116143900D01*
X182441700Y-56756100D02*
X183300000Y-56014000D01*
X182307500Y-56872100D02*
X182441700Y-56756100D01*
X181976500Y-56995100D02*
X182307500Y-56872100D01*
X181800000Y-56995100D02*
X181976500Y-56995100D01*
X166800000Y-56995100D02*
X181800000Y-56995100D01*
X166681300Y-56995100D02*
X166800000Y-56995100D01*
X166452300Y-56939100D02*
X166681300Y-56995100D01*
X166347000Y-56884300D02*
X166452300Y-56939100D01*
X162629600Y-54949200D02*
X166347000Y-56884300D01*
X162591900Y-54929500D02*
X162629600Y-54949200D01*
X162547600Y-54856600D02*
X162591900Y-54929500D01*
X162547600Y-54814000D02*
X162547600Y-54856600D01*
X162547600Y-54661600D02*
X162547600Y-54814000D01*
X161500000Y-54064000D02*
X162547600Y-54661600D01*
X102609400Y-134391400D02*
X101982000Y-132989000D01*
X102622500Y-134420700D02*
X102609400Y-134391400D01*
X102642500Y-134483000D02*
X102622500Y-134420700D01*
X102648900Y-134515000D02*
X102642500Y-134483000D01*
X102951000Y-136020000D02*
X102648900Y-134515000D01*
X104227800Y-140374600D02*
X102951000Y-136020000D01*
X104259000Y-140468500D02*
X104272100Y-140500200D01*
X104236800Y-140405600D02*
X104259000Y-140468500D01*
X104227800Y-140374600D02*
X104236800Y-140405600D01*
X106443300Y-145732500D02*
X104272100Y-140500200D01*
X106747200Y-146226300D02*
X106896100Y-146352400D01*
X106517800Y-145912100D02*
X106747200Y-146226300D01*
X106443300Y-145732500D02*
X106517800Y-145912100D01*
X108677500Y-147860000D02*
X106896100Y-146352400D01*
X108776200Y-147943700D02*
X108677500Y-147860000D01*
X108884500Y-148177900D02*
X108776200Y-147943700D01*
X108884300Y-148306400D02*
X108884500Y-148177900D01*
X108883500Y-149607000D02*
X108884300Y-148306400D01*
X108883300Y-149877300D02*
X108883500Y-149607000D01*
X108702800Y-150385200D02*
X108883300Y-149877300D01*
X108532000Y-150595500D02*
X108702800Y-150385200D01*
X107851000Y-151433000D02*
X108532000Y-150595500D01*
X74163500Y-141730000D02*
X82039800Y-137653000D01*
X73245600Y-141699000D02*
X74163500Y-141730000D01*
X74163500Y-141730000D02*
X75299700Y-144013000D01*
X91948000Y-142723000D02*
X89738200Y-142265000D01*
X64999100Y-138057800D02*
X65663800Y-138996000D01*
X64942900Y-137978300D02*
X64999100Y-138057800D01*
X64888100Y-137792800D02*
X64942900Y-137978300D01*
X64892100Y-137696100D02*
X64888100Y-137792800D01*
X65024000Y-134468000D02*
X64892100Y-137696100D01*
X68108700Y-138341000D02*
X71204000Y-136966000D01*
X68087100Y-138350500D02*
X68108700Y-138341000D01*
X68043800Y-138365800D02*
X68087100Y-138350500D01*
X68021100Y-138371800D02*
X68043800Y-138365800D01*
X65663800Y-138996000D02*
X68021100Y-138371800D01*
X182569400Y-56645600D02*
X182883700Y-55849700D01*
X182569400Y-56645600D02*
X183402500Y-56449700D01*
D33*
G04 #@! TO.N,VSS*
X77851000Y-55681800D02*
X77915000Y-54858000D01*
X77851000Y-55758000D02*
X77851000Y-55681800D01*
X77851000Y-56007000D02*
X77851000Y-55758000D01*
X77703200Y-56462700D02*
X77703200Y-56462700D01*
X103494300Y-51146400D02*
X103494300Y-51404500D01*
X103494300Y-51070200D02*
X103494300Y-51146400D01*
X103549000Y-50596400D02*
X103494300Y-51070200D01*
D32*
X103357800Y-51693200D02*
X103494300Y-51404500D01*
X103299300Y-51895700D02*
X103302200Y-51966800D01*
X103327600Y-51757100D02*
X103299300Y-51895700D01*
X103357800Y-51693200D02*
X103327600Y-51757100D01*
X103355100Y-53265400D02*
X103302200Y-51966800D01*
X103365300Y-53516800D02*
X103355100Y-53265400D01*
X103365400Y-53523000D02*
X103365300Y-53516800D01*
X103365400Y-53675400D02*
X103365400Y-53523000D01*
X103513000Y-53848000D02*
X103365400Y-53675400D01*
X165714700Y-52933200D02*
X109329300Y-50754500D01*
X165724300Y-52933600D02*
X165714700Y-52933200D01*
X165744200Y-52935400D02*
X165724300Y-52933600D01*
X165754100Y-52936800D02*
X165744200Y-52935400D01*
X180439300Y-55042800D02*
X165754100Y-52936800D01*
X180579000Y-55063000D02*
X180439300Y-55042800D01*
X180834700Y-55179500D02*
X180579000Y-55063000D01*
X180941700Y-55271900D02*
X180834700Y-55179500D01*
X181800000Y-56014000D02*
X180941700Y-55271900D01*
X75263500Y-120097700D02*
X75895300Y-129204000D01*
X75246200Y-119846500D02*
X75263500Y-120097700D01*
X75363900Y-119358300D02*
X75246200Y-119846500D01*
X75492700Y-119144500D02*
X75363900Y-119358300D01*
X77788300Y-115325100D02*
X75492700Y-119144500D01*
X77825000Y-113670100D02*
X77671600Y-113475500D01*
X78002400Y-114133600D02*
X77825000Y-113670100D01*
X78033900Y-114628900D02*
X78002400Y-114133600D01*
X77916700Y-115111100D02*
X78033900Y-114628900D01*
X77788300Y-115325100D02*
X77916700Y-115111100D01*
X75846200Y-111158000D02*
X77671600Y-113475500D01*
X75096000Y-144560700D02*
X74863000Y-144474000D01*
X75615600Y-144536700D02*
X75736200Y-144401500D01*
X75265500Y-144623700D02*
X75615600Y-144536700D01*
X75096000Y-144560700D02*
X75265500Y-144623700D01*
X79905600Y-139716500D02*
X75736200Y-144401500D01*
X79933100Y-139685700D02*
X79905600Y-139716500D01*
X79995500Y-139632800D02*
X79933100Y-139685700D01*
X80030000Y-139611000D02*
X79995500Y-139632800D01*
X81406300Y-138741600D02*
X80030000Y-139611000D01*
X81409600Y-138739500D02*
X81406300Y-138741600D01*
X82350800Y-138147600D02*
X81409600Y-138739500D01*
X82497700Y-138021700D02*
X82532700Y-137966800D01*
X82405400Y-138113300D02*
X82497700Y-138021700D01*
X82350800Y-138147600D02*
X82405400Y-138113300D01*
X82670700Y-137750000D02*
X82532700Y-137966800D01*
D33*
X109199000Y-50754500D02*
X109329300Y-50754500D01*
X109122800Y-50754500D02*
X109199000Y-50754500D01*
X109049000Y-50596400D02*
X109122800Y-50754500D01*
X109099000Y-50122600D02*
X109049000Y-50596400D01*
X109099000Y-50046400D02*
X109099000Y-50122600D01*
X109099000Y-49386400D02*
X109099000Y-50046400D01*
D32*
X108712000Y-53523000D02*
X108712000Y-53213000D01*
X108712000Y-53675400D02*
X108712000Y-53523000D01*
X108831000Y-53848000D02*
X108712000Y-53675400D01*
X101684900Y-136139000D02*
X101685000Y-136139000D01*
X101687100Y-136125900D02*
X101684900Y-136139000D01*
X101692400Y-136101100D02*
X101687100Y-136125900D01*
X101695600Y-136088800D02*
X101692400Y-136101100D01*
X102076000Y-134630000D02*
X101695600Y-136088800D01*
X73919800Y-145578400D02*
X74863000Y-144474000D01*
X73903100Y-145598100D02*
X73919800Y-145578400D01*
X73865900Y-145634500D02*
X73903100Y-145598100D01*
X73845400Y-145651300D02*
X73865900Y-145634500D01*
X68403400Y-150102000D02*
X73845400Y-145651300D01*
X67695000Y-149729000D02*
X68403400Y-150102000D01*
X67614900Y-149686800D02*
X67695000Y-149729000D01*
X67487800Y-149558100D02*
X67614900Y-149686800D01*
X67446700Y-149477500D02*
X67487800Y-149558100D01*
X62879500Y-140525000D02*
X67446700Y-149477500D01*
X82492400Y-137283400D02*
X75895300Y-129204000D01*
X82531500Y-137331300D02*
X82492400Y-137283400D01*
X82588000Y-137441500D02*
X82531500Y-137331300D01*
X82604200Y-137501800D02*
X82588000Y-137441500D01*
X82670700Y-137750000D02*
X82604200Y-137501800D01*
X106516100Y-146729100D02*
X108300000Y-148306000D01*
X106331700Y-146566100D02*
X106516100Y-146729100D01*
X106045000Y-146164700D02*
X106331700Y-146566100D01*
X105950500Y-145936900D02*
X106045000Y-146164700D01*
X103779300Y-140704700D02*
X105950500Y-145936900D01*
X103740500Y-140602100D02*
X103779300Y-140704700D01*
X102237000Y-136230000D02*
X103740500Y-140602100D01*
D33*
X103499000Y-50122600D02*
X103549000Y-50596400D01*
X103499000Y-50046400D02*
X103499000Y-50122600D01*
X103499000Y-49386400D02*
X103499000Y-50046400D01*
X103494300Y-51221600D02*
X103563600Y-51372700D01*
X103494300Y-51221600D02*
X103425000Y-51372700D01*
D32*
X181069400Y-55382400D02*
X181902500Y-55578300D01*
X181069400Y-55382400D02*
X181383700Y-56178300D01*
D33*
X109199000Y-50754500D02*
X109284700Y-50692700D01*
X109199000Y-50754500D02*
X109284700Y-50816300D01*
X109099000Y-49869300D02*
X108900700Y-49490100D01*
X109099000Y-49869300D02*
X109297300Y-49490100D01*
X103499000Y-49869300D02*
X103300700Y-49490100D01*
X103499000Y-49869300D02*
X103697300Y-49490100D01*
D32*
X77957000Y-55325000D02*
X78000000Y-55368000D01*
X77957000Y-53108000D02*
X77957000Y-55325000D01*
X109207100Y-50754500D02*
X109049000Y-50596400D01*
X109329300Y-50754500D02*
X109207100Y-50754500D01*
D33*
G04 #@! TO.N,/mcu/AUD*
X102065000Y-155273000D02*
X105157200Y-158798400D01*
X102065000Y-155273000D02*
X102054100Y-155261000D01*
X93955600Y-146601000D02*
X102054100Y-155261000D01*
X104443100Y-157984300D02*
X105214300Y-158042500D01*
X104443100Y-157984300D02*
X104400300Y-158756500D01*
X94163800Y-146823600D02*
X93907400Y-146718500D01*
X94163800Y-146823600D02*
X94076000Y-146560700D01*
G04 #@! TO.N,/mcu/MCU_RESET*
X101683000Y-155608000D02*
X102855200Y-159871800D01*
X70092400Y-117412300D02*
X69817100Y-126107000D01*
X70095800Y-117300300D02*
X70092400Y-117412300D01*
X70124800Y-117077400D02*
X70095800Y-117300300D01*
X70150100Y-116967800D02*
X70124800Y-117077400D01*
X71263800Y-112144900D02*
X70150100Y-116967800D01*
X71296900Y-112001800D02*
X71263800Y-112144900D01*
X71432700Y-111740900D02*
X71296900Y-112001800D01*
X71530400Y-111632400D02*
X71432700Y-111740900D01*
X74041000Y-108839000D02*
X71530400Y-111632400D01*
X102568100Y-158827700D02*
X103236400Y-159216700D01*
X102568100Y-158827700D02*
X102192600Y-159503700D01*
X101763800Y-155901900D02*
X101585700Y-155689600D01*
X101763800Y-155901900D02*
X101808300Y-155628400D01*
X69826700Y-125802400D02*
X69934200Y-126057700D01*
X69826700Y-125802400D02*
X69703400Y-126050500D01*
X73837300Y-109065700D02*
X73919700Y-108801200D01*
X73837300Y-109065700D02*
X74091500Y-108955600D01*
G04 #@! TO.N,/Row1*
X193696900Y-61681600D02*
X194310000Y-64135000D01*
X192889600Y-60920300D02*
X192722000Y-60920300D01*
X193207700Y-61029600D02*
X192889600Y-60920300D01*
X193472800Y-61236500D02*
X193207700Y-61029600D01*
X193656100Y-61518500D02*
X193472800Y-61236500D01*
X193696900Y-61681600D02*
X193656100Y-61518500D01*
X189482000Y-60920300D02*
X192722000Y-60920300D01*
X189459700Y-60921000D02*
X189452300Y-60921800D01*
X189474500Y-60920300D02*
X189459700Y-60921000D01*
X189482000Y-60920300D02*
X189474500Y-60920300D01*
X169008000Y-62925300D02*
X189452300Y-60921800D01*
X168905400Y-62935400D02*
X169008000Y-62925300D01*
X168698900Y-62913100D02*
X168905400Y-62935400D01*
X168600100Y-62881100D02*
X168698900Y-62913100D01*
X167767000Y-62611000D02*
X168600100Y-62881100D01*
X194236100Y-63839300D02*
X194409200Y-64055700D01*
X194236100Y-63839300D02*
X194185200Y-64111700D01*
X168056900Y-62705000D02*
X167781700Y-62737100D01*
X168056900Y-62705000D02*
X167852900Y-62517500D01*
G04 #@! TO.N,/Row2*
X76305700Y-89969300D02*
X75206500Y-90415700D01*
X76434800Y-89917000D02*
X76305700Y-89969300D01*
X76703700Y-89860200D02*
X76434800Y-89917000D01*
X76842400Y-89855800D02*
X76703700Y-89860200D01*
X78994000Y-89789000D02*
X76842400Y-89855800D01*
X83480400Y-139493600D02*
X82410400Y-140331000D01*
X83707000Y-139294300D02*
X83775600Y-139218200D01*
X83560700Y-139430700D02*
X83707000Y-139294300D01*
X83480400Y-139493600D02*
X83560700Y-139430700D01*
X84010300Y-138958000D02*
X83775600Y-139218200D01*
X84363100Y-138411300D02*
X84417500Y-138200100D01*
X84156500Y-138795900D02*
X84363100Y-138411300D01*
X84010300Y-138958000D02*
X84156500Y-138795900D01*
X84806300Y-136690800D02*
X84417500Y-138200100D01*
X84814500Y-136441600D02*
X84781500Y-136364400D01*
X84827300Y-136609300D02*
X84814500Y-136441600D01*
X84806300Y-136690800D02*
X84827300Y-136609300D01*
X83496700Y-133357000D02*
X84781500Y-136364400D01*
X83463700Y-133284700D02*
X83452200Y-133262700D01*
X83485900Y-133331900D02*
X83463700Y-133284700D01*
X83496700Y-133357000D02*
X83485900Y-133331900D01*
X78607300Y-123890300D02*
X83452200Y-133262700D01*
X78559700Y-123798300D02*
X78607300Y-123890300D01*
X78544300Y-123591200D02*
X78559700Y-123798300D01*
X78578000Y-123492500D02*
X78544300Y-123591200D01*
X78783600Y-122891500D02*
X78578000Y-123492500D01*
X78788400Y-122877300D02*
X78783600Y-122891500D01*
X78800200Y-122848600D02*
X78788400Y-122877300D01*
X78806800Y-122835000D02*
X78800200Y-122848600D01*
X79171500Y-122080000D02*
X78806800Y-122835000D01*
X79180900Y-122061400D02*
X79171500Y-122080000D01*
X79647100Y-121189600D02*
X79180900Y-122061400D01*
X79906800Y-119561600D02*
X79838700Y-119329300D01*
X79950500Y-120039600D02*
X79906800Y-119561600D01*
X79901300Y-120517000D02*
X79950500Y-120039600D01*
X79761100Y-120976000D02*
X79901300Y-120517000D01*
X79647100Y-121189600D02*
X79761100Y-120976000D01*
X79498600Y-118171200D02*
X79838700Y-119329300D01*
X79488900Y-118138100D02*
X79498600Y-118171200D01*
X79478600Y-118070400D02*
X79488900Y-118138100D01*
X79478100Y-118036700D02*
X79478600Y-118070400D01*
X79024000Y-91423900D02*
X79478100Y-118036700D01*
X79023900Y-91421900D02*
X79024000Y-91423900D01*
X78994000Y-89789000D02*
X79023900Y-91421900D01*
X85635100Y-86133300D02*
X78994000Y-89789000D01*
X75488900Y-90301000D02*
X75298900Y-90502800D01*
X75488900Y-90301000D02*
X75212100Y-90288800D01*
X82650400Y-140143100D02*
X82523300Y-140389300D01*
X82650400Y-140143100D02*
X82380900Y-140207500D01*
X85368100Y-86280300D02*
X85533000Y-86057700D01*
X85368100Y-86280300D02*
X85644400Y-86259900D01*
G04 #@! TO.N,/Row3*
X83162100Y-137620800D02*
X82188400Y-133916000D01*
X83194800Y-137745000D02*
X83162100Y-137620800D01*
X83134100Y-137994800D02*
X83194800Y-137745000D01*
X83048000Y-138090300D02*
X83134100Y-137994800D01*
X82813400Y-138350500D02*
X83048000Y-138090300D01*
X82764600Y-138404500D02*
X82813400Y-138350500D01*
X82654400Y-138496900D02*
X82764600Y-138404500D01*
X82594300Y-138534700D02*
X82654400Y-138496900D01*
X81653000Y-139126600D02*
X82594300Y-138534700D01*
X81578700Y-139176300D02*
X81556100Y-139193400D01*
X81627800Y-139142500D02*
X81578700Y-139176300D01*
X81653000Y-139126600D02*
X81627800Y-139142500D01*
X80342100Y-140105000D02*
X81556100Y-139193400D01*
X82265900Y-134210800D02*
X82090200Y-133996600D01*
X82265900Y-134210800D02*
X82313600Y-133937800D01*
X80585800Y-139922000D02*
X80453700Y-140165500D01*
X80585800Y-139922000D02*
X80315100Y-139980900D01*
G04 #@! TO.N,/Row4*
X86739800Y-123339600D02*
X88265000Y-122809000D01*
X86603500Y-123387200D02*
X86739800Y-123339600D01*
X86314500Y-123412000D02*
X86603500Y-123387200D01*
X86170500Y-123388200D02*
X86314500Y-123412000D01*
X79629000Y-122301000D02*
X86170500Y-123388200D01*
X89917000Y-134428600D02*
X82904800Y-140729000D01*
X90021000Y-134335200D02*
X89917000Y-134428600D01*
X90275200Y-134221500D02*
X90021000Y-134335200D01*
X90413600Y-134206200D02*
X90275200Y-134221500D01*
X94820400Y-133719000D02*
X90413600Y-134206200D01*
X95062500Y-133634600D02*
X95123600Y-133573600D01*
X94906700Y-133709400D02*
X95062500Y-133634600D01*
X94820400Y-133719000D02*
X94906700Y-133709400D01*
X95573300Y-133124600D02*
X95123600Y-133573600D01*
X95739200Y-132777300D02*
X95708900Y-132648500D01*
X95666900Y-133031100D02*
X95739200Y-132777300D01*
X95573300Y-133124600D02*
X95666900Y-133031100D01*
X95303900Y-130930000D02*
X95708900Y-132648500D01*
X94358000Y-130727900D02*
X95303900Y-130930000D01*
X94268000Y-130708600D02*
X94358000Y-130727900D01*
X94113100Y-130609600D02*
X94268000Y-130708600D01*
X94057700Y-130535800D02*
X94113100Y-130609600D01*
X88265000Y-122809000D02*
X94057700Y-130535800D01*
X87977100Y-122909100D02*
X88177100Y-122717400D01*
X87977100Y-122909100D02*
X88252900Y-122935400D01*
X79929700Y-122351000D02*
X79662300Y-122423600D01*
X79929700Y-122351000D02*
X79700100Y-122195800D01*
X83131500Y-140525300D02*
X83021400Y-140779500D01*
X83131500Y-140525300D02*
X82867000Y-140607700D01*
X95373800Y-131226700D02*
X95203600Y-131008000D01*
X95373800Y-131226700D02*
X95428400Y-130955000D01*
X95005800Y-130866300D02*
X95276200Y-130806000D01*
X95005800Y-130866300D02*
X95228000Y-131031800D01*
X88447800Y-123052900D02*
X88204300Y-122920500D01*
X88447800Y-123052900D02*
X88389100Y-122782100D01*
G04 #@! TO.N,/Row5*
X74026300Y-164649500D02*
X72933600Y-167398000D01*
X74084700Y-164502700D02*
X74026300Y-164649500D01*
X74294900Y-164267700D02*
X74084700Y-164502700D01*
X74434600Y-164193200D02*
X74294900Y-164267700D01*
X86615500Y-157706000D02*
X74434600Y-164193200D01*
X88530900Y-153329700D02*
X88976200Y-146990000D01*
X88520800Y-153471900D02*
X88530900Y-153329700D01*
X88450100Y-153745900D02*
X88520800Y-153471900D01*
X88390600Y-153874300D02*
X88450100Y-153745900D01*
X86615500Y-157706000D02*
X88390600Y-153874300D01*
X73046200Y-167114800D02*
X73060400Y-167391500D01*
X73046200Y-167114800D02*
X72845800Y-167306100D01*
X86346500Y-157849300D02*
X86514500Y-157629000D01*
X86346500Y-157849300D02*
X86623100Y-157832800D01*
X88954800Y-147294100D02*
X88857300Y-147034700D01*
X88954800Y-147294100D02*
X89087700Y-147050900D01*
X86743600Y-157429400D02*
X86742500Y-157706500D01*
X86743600Y-157429400D02*
X86532900Y-157609500D01*
D34*
G04 #@! TO.N,/GND*
X112099000Y-44836400D02*
X112099000Y-48011400D01*
X112099000Y-48011400D02*
X111099000Y-49011400D01*
X100499000Y-44836400D02*
X100499000Y-48061400D01*
X100499000Y-48061400D02*
X101499000Y-49061400D01*
X100602400Y-49958000D02*
X101499000Y-49061400D01*
X88740000Y-49958000D02*
X88550000Y-50148000D01*
X100602400Y-49958000D02*
X88740000Y-49958000D01*
X76668999Y-48429001D02*
X74950000Y-50148000D01*
X86831001Y-48429001D02*
X76668999Y-48429001D01*
X88550000Y-50148000D02*
X86831001Y-48429001D01*
D35*
G04 #@! TO.N,Net-(P2-Pad17)*
X104762200Y-53573800D02*
X104513000Y-53848000D01*
X104762200Y-53523000D02*
X104762200Y-53573800D01*
X104762200Y-53518900D02*
X104762200Y-53523000D01*
X104763500Y-53510900D02*
X104762200Y-53518900D01*
X104764800Y-53507000D02*
X104763500Y-53510900D01*
X105410000Y-51562000D02*
X104764800Y-53507000D01*
X105307600Y-51870600D02*
X105259700Y-51587400D01*
X105307600Y-51870600D02*
X105515300Y-51672200D01*
D33*
G04 #@! TO.N,Net-(P2-Pad5)*
X107607200Y-53599200D02*
X107831000Y-53848000D01*
X107607200Y-53523000D02*
X107607200Y-53599200D01*
X107606400Y-53511500D02*
X107605600Y-53507600D01*
X107607200Y-53519100D02*
X107606400Y-53511500D01*
X107607200Y-53523000D02*
X107607200Y-53519100D01*
X107128500Y-51202400D02*
X107605600Y-53507600D01*
X107125700Y-51188700D02*
X107128500Y-51202400D01*
X107122800Y-51160400D02*
X107125700Y-51188700D01*
X107122800Y-51146400D02*
X107122800Y-51160400D01*
X107122800Y-51070200D02*
X107122800Y-51146400D01*
X107049000Y-50596400D02*
X107122800Y-51070200D01*
G04 #@! TO.N,/Col3*
X72087300Y-137068300D02*
X72870300Y-130306000D01*
X72081900Y-137115000D02*
X72087300Y-137068300D01*
X72061100Y-137207400D02*
X72081900Y-137115000D01*
X72045600Y-137253000D02*
X72061100Y-137207400D01*
X67967200Y-149212000D02*
X72045600Y-137253000D01*
X75816800Y-85592100D02*
X75660000Y-85505200D01*
X74612600Y-87764700D02*
X75816800Y-85592100D01*
X74542000Y-88004700D02*
X74554900Y-88088700D01*
X74571800Y-87838200D02*
X74542000Y-88004700D01*
X74612600Y-87764700D02*
X74571800Y-87838200D01*
X74628400Y-88564000D02*
X74554900Y-88088700D01*
X74670800Y-88839100D02*
X74628400Y-88564000D01*
X74621100Y-89389100D02*
X74670800Y-88839100D01*
X74530100Y-89651900D02*
X74621100Y-89389100D01*
X74366300Y-90124500D02*
X74530100Y-89651900D01*
X74315400Y-90359400D02*
X74317600Y-90439100D01*
X74339900Y-90201000D02*
X74315400Y-90359400D01*
X74366300Y-90124500D02*
X74339900Y-90201000D01*
X74929700Y-113675200D02*
X74317600Y-90439100D01*
X75660000Y-114080000D02*
X74929700Y-113675200D01*
X74836700Y-119607300D02*
X72870300Y-130306000D01*
X74847300Y-119549700D02*
X74836700Y-119607300D01*
X74875700Y-119432800D02*
X74847300Y-119549700D01*
X74893800Y-119373500D02*
X74875700Y-119432800D01*
X76390300Y-114484800D02*
X74893800Y-119373500D01*
X75660000Y-114080000D02*
X76390300Y-114484800D01*
X74929700Y-85100400D02*
X75660000Y-85505200D01*
X75390200Y-69100500D02*
X74929700Y-85100400D01*
X75795000Y-68370200D02*
X75390200Y-69100500D01*
X72835200Y-130608800D02*
X72749500Y-130345300D01*
X72835200Y-130608800D02*
X72978900Y-130371900D01*
X68065600Y-148923500D02*
X68093600Y-149199200D01*
X68065600Y-148923500D02*
X67875000Y-149124600D01*
X72925400Y-130006200D02*
X72993500Y-130274900D01*
X72925400Y-130006200D02*
X72766300Y-130233100D01*
G04 #@! TO.N,/Col4*
X72317100Y-141204600D02*
X71764800Y-139732000D01*
X72317900Y-141206600D02*
X72317100Y-141204600D01*
X73318500Y-143908600D02*
X72317900Y-141206600D01*
X73329400Y-143938100D02*
X73318500Y-143908600D01*
X73343700Y-143998600D02*
X73329400Y-143938100D01*
X73347100Y-144029500D02*
X73343700Y-143998600D01*
X73475500Y-145199000D02*
X73347100Y-144029500D01*
X95249800Y-105737700D02*
X94845000Y-106468000D01*
X94440200Y-88148000D02*
X95249800Y-105737700D01*
X94845000Y-87417700D02*
X94440200Y-88148000D01*
X91347300Y-79320700D02*
X91687800Y-81155100D01*
X91316000Y-79152400D02*
X91347300Y-79320700D01*
X91337400Y-78810300D02*
X91316000Y-79152400D01*
X91389800Y-78645800D02*
X91337400Y-78810300D01*
X94440200Y-69100500D02*
X91389800Y-78645800D01*
X94845000Y-68370200D02*
X94440200Y-69100500D01*
X83660500Y-148655300D02*
X82827500Y-148597100D01*
X89639300Y-135475700D02*
X83660500Y-148655300D01*
X89656000Y-135438700D02*
X89639300Y-135475700D01*
X89696800Y-135367200D02*
X89656000Y-135438700D01*
X89720800Y-135332800D02*
X89696800Y-135367200D01*
X90095200Y-134798500D02*
X89720800Y-135332800D01*
X90158100Y-134708700D02*
X90095200Y-134798500D01*
X90346300Y-134597100D02*
X90158100Y-134708700D01*
X90455500Y-134585000D02*
X90346300Y-134597100D01*
X94862300Y-134097800D02*
X90455500Y-134585000D01*
X95285900Y-133950100D02*
X95392900Y-133843200D01*
X95013300Y-134081000D02*
X95285900Y-133950100D01*
X94862300Y-134097800D02*
X95013300Y-134081000D01*
X95842600Y-133394200D02*
X95392900Y-133843200D01*
X96126300Y-132834200D02*
X96092100Y-132623200D01*
X95994700Y-133242100D02*
X96126300Y-132834200D01*
X95842600Y-133394200D02*
X95994700Y-133242100D01*
X95805500Y-130849000D02*
X96092100Y-132623200D01*
X95795500Y-130800400D02*
X95790900Y-130785000D01*
X95802800Y-130832400D02*
X95795500Y-130800400D01*
X95805500Y-130849000D02*
X95802800Y-130832400D01*
X94440200Y-126248300D02*
X95790900Y-130785000D01*
X94845000Y-125518000D02*
X94440200Y-126248300D01*
X71871800Y-140017400D02*
X71675300Y-139822000D01*
X71871800Y-140017400D02*
X71891500Y-139741000D01*
X73442200Y-144896000D02*
X73584500Y-145133800D01*
X73442200Y-144896000D02*
X73354900Y-145159000D01*
X91632200Y-80855400D02*
X91791600Y-81082000D01*
X91632200Y-80855400D02*
X91564600Y-81124200D01*
G04 #@! TO.N,/Col5*
X114299800Y-104467700D02*
X113895000Y-105198000D01*
X113490200Y-86878000D02*
X114299800Y-104467700D01*
X113895000Y-86147700D02*
X113490200Y-86878000D01*
X114299800Y-85417400D02*
X113895000Y-86147700D01*
X113490200Y-67828000D02*
X114299800Y-85417400D01*
X113895000Y-67097700D02*
X113490200Y-67828000D01*
X114299800Y-123517700D02*
X113895000Y-124248000D01*
X113490200Y-105928300D02*
X114299800Y-123517700D01*
X113895000Y-105198000D02*
X113490200Y-105928300D01*
X113490200Y-124978300D02*
X113895000Y-124248000D01*
X114299800Y-142567700D02*
X113490200Y-124978300D01*
X113895000Y-143298000D02*
X114299800Y-142567700D01*
G04 #@! TO.N,/Col6*
X133349800Y-140969700D02*
X132945000Y-141700000D01*
X132540200Y-123380300D02*
X133349800Y-140969700D01*
X132945000Y-122650000D02*
X132540200Y-123380300D01*
X133349800Y-83819700D02*
X132945000Y-84550000D01*
X132540200Y-66230300D02*
X133349800Y-83819700D01*
X132945000Y-65500000D02*
X132540200Y-66230300D01*
X133349800Y-102869700D02*
X132945000Y-103600000D01*
X129903900Y-95684500D02*
X133349800Y-102869700D01*
X129825200Y-95520400D02*
X129903900Y-95684500D01*
X129793000Y-95156600D02*
X129825200Y-95520400D01*
X129841900Y-94980700D02*
X129793000Y-95156600D01*
X132540200Y-85280300D02*
X129841900Y-94980700D01*
X132945000Y-84550000D02*
X132540200Y-85280300D01*
X132540200Y-104330300D02*
X132945000Y-103600000D01*
X133349800Y-121919700D02*
X132540200Y-104330300D01*
X132945000Y-122650000D02*
X133349800Y-121919700D01*
G04 #@! TO.N,/Col7*
X151590200Y-86878000D02*
X151995000Y-86147700D01*
X148891900Y-96578700D02*
X151590200Y-86878000D01*
X148891100Y-97184500D02*
X148995800Y-97360900D01*
X148836800Y-96777400D02*
X148891100Y-97184500D01*
X148891900Y-96578700D02*
X148836800Y-96777400D01*
X150894600Y-100560300D02*
X148995800Y-97360900D01*
X150956600Y-100665000D02*
X150894600Y-100560300D01*
X151059500Y-100880400D02*
X150956600Y-100665000D01*
X151100400Y-100990000D02*
X151059500Y-100880400D01*
X152399800Y-104467700D02*
X151100400Y-100990000D01*
X151995000Y-105198000D02*
X152399800Y-104467700D01*
X151590200Y-67828000D02*
X151995000Y-67097700D01*
X148891900Y-77528400D02*
X151590200Y-67828000D01*
X148891100Y-78134200D02*
X148995800Y-78310600D01*
X148836800Y-77727100D02*
X148891100Y-78134200D01*
X148891900Y-77528400D02*
X148836800Y-77727100D01*
X150894600Y-81510000D02*
X148995800Y-78310600D01*
X150956600Y-81614700D02*
X150894600Y-81510000D01*
X151059500Y-81830100D02*
X150956600Y-81614700D01*
X151100400Y-81939700D02*
X151059500Y-81830100D01*
X152399800Y-85417400D02*
X151100400Y-81939700D01*
X151995000Y-86147700D02*
X152399800Y-85417400D01*
X152399800Y-123517700D02*
X151995000Y-124248000D01*
X151590200Y-105928300D02*
X152399800Y-123517700D01*
X151995000Y-105198000D02*
X151590200Y-105928300D01*
X152399800Y-142567700D02*
X151995000Y-143298000D01*
X151590200Y-124978300D02*
X152399800Y-142567700D01*
X151995000Y-124248000D02*
X151590200Y-124978300D01*
G04 #@! TO.N,/Col8*
X170640200Y-128153300D02*
X171045000Y-127423000D01*
X171449800Y-145742700D02*
X170640200Y-128153300D01*
X171045000Y-146473000D02*
X171449800Y-145742700D01*
X171449800Y-126692700D02*
X171045000Y-127423000D01*
X170640200Y-109103300D02*
X171449800Y-126692700D01*
X171045000Y-108373000D02*
X170640200Y-109103300D01*
X171449800Y-88592400D02*
X171045000Y-89322700D01*
X170640200Y-71005500D02*
X171449800Y-88592400D01*
X171045000Y-70275200D02*
X170640200Y-71005500D01*
X171449800Y-107642700D02*
X171045000Y-108373000D01*
X170640200Y-90053000D02*
X171449800Y-107642700D01*
X171045000Y-89322700D02*
X170640200Y-90053000D01*
G04 #@! TO.N,/Col2*
X55326100Y-178491600D02*
X55267900Y-179324600D01*
X54335800Y-176094400D02*
X55326100Y-178491600D01*
X54284300Y-175969600D02*
X54335800Y-176094400D01*
X54241500Y-175703500D02*
X54284300Y-175969600D01*
X54251200Y-175570100D02*
X54241500Y-175703500D01*
X55499000Y-158242000D02*
X54251200Y-175570100D01*
X71710500Y-136925700D02*
X71499600Y-134276000D01*
X71723500Y-137088900D02*
X71710500Y-136925700D01*
X71554200Y-137368900D02*
X71723500Y-137088900D01*
X71403300Y-137433400D02*
X71554200Y-137368900D01*
X68280000Y-138765100D02*
X71403300Y-137433400D01*
X68250400Y-138777700D02*
X68280000Y-138765100D01*
X68190500Y-138799000D02*
X68250400Y-138777700D01*
X68159000Y-138808100D02*
X68190500Y-138799000D01*
X65804000Y-139484400D02*
X68159000Y-138808100D01*
X65744900Y-139501400D02*
X65804000Y-139484400D01*
X65621100Y-139506100D02*
X65744900Y-139501400D01*
X65560000Y-139493400D02*
X65621100Y-139506100D01*
X56373000Y-137576600D02*
X65560000Y-139493400D01*
X56431200Y-136743600D02*
X56373000Y-137576600D01*
X55477100Y-158546000D02*
X55380100Y-158286500D01*
X55477100Y-158546000D02*
X55610300Y-158303100D01*
X71523800Y-134579800D02*
X71388700Y-134337900D01*
X71523800Y-134579800D02*
X71618900Y-134319500D01*
G04 #@! TD*
M02*
