G04 #@! TF.GenerationSoftware,KiCad,Pcbnew,5.1.6-c6e7f7d~87~ubuntu20.04.1*
G04 #@! TF.CreationDate,2020-08-07T18:55:31+02:00*
G04 #@! TF.ProjectId,ICEDRight,49434544-5269-4676-9874-2e6b69636164,Rev 1.2b*
G04 #@! TF.SameCoordinates,Original*
G04 #@! TF.FileFunction,Soldermask,Bot*
G04 #@! TF.FilePolarity,Negative*
%FSLAX46Y46*%
G04 Gerber Fmt 4.6, Leading zero omitted, Abs format (unit mm)*
G04 Created by KiCad (PCBNEW 5.1.6-c6e7f7d~87~ubuntu20.04.1) date 2020-08-07 18:55:31*
%MOMM*%
%LPD*%
G01*
G04 APERTURE LIST*
%ADD10C,2.101600*%
%ADD11C,3.539600*%
%ADD12C,0.801600*%
%ADD13C,0.701600*%
%ADD14O,1.201600X2.051600*%
%ADD15O,1.201600X2.501600*%
%ADD16O,1.051600X0.801600*%
%ADD17R,0.401600X1.601600*%
%ADD18R,1.601600X0.401600*%
%ADD19R,1.301600X1.501600*%
%ADD20C,1.901600*%
%ADD21C,0.889000*%
%ADD22C,1.092210*%
%ADD23C,2.476510*%
%ADD24R,0.751600X0.701600*%
%ADD25R,0.701600X0.751600*%
%ADD26R,1.531600X0.501600*%
%ADD27R,0.899160X0.899160*%
%ADD28R,1.901600X1.201600*%
%ADD29R,1.051600X2.001600*%
%ADD30R,3.351600X2.001600*%
%ADD31R,2.501600X1.601600*%
%ADD32C,1.301600*%
%ADD33C,0.951610*%
%ADD34C,3.000000*%
%ADD35O,1.501600X1.501600*%
%ADD36R,1.501600X1.501600*%
%ADD37C,0.100000*%
%ADD38R,1.102360X0.952500*%
%ADD39R,0.952500X1.102360*%
%ADD40C,4.089410*%
%ADD41C,1.803410*%
G04 APERTURE END LIST*
D10*
G04 #@! TO.C,J1*
X78350000Y-50148000D03*
X85150000Y-50148000D03*
D11*
X74950000Y-50148000D03*
X88550000Y-50148000D03*
G04 #@! TD*
D12*
G04 #@! TO.C,P2*
X109899000Y-49936400D03*
D13*
X103499000Y-49386400D03*
X103899000Y-48586400D03*
X104699000Y-48586400D03*
X104949000Y-49386400D03*
X105499000Y-48586400D03*
X105899000Y-49386400D03*
X106699000Y-49386400D03*
X107099000Y-48586400D03*
X107649000Y-49386400D03*
X107899000Y-48586400D03*
X108699000Y-48586400D03*
X109099000Y-49386400D03*
D14*
X111099000Y-49011400D03*
X101499000Y-49061400D03*
D15*
X112099000Y-44686400D03*
X100499000Y-44686400D03*
D16*
X102699000Y-49936400D03*
G04 #@! TD*
D17*
G04 #@! TO.C,U1*
X76267000Y-142910000D03*
X75767000Y-142910000D03*
X75267000Y-142910000D03*
X74767000Y-142910000D03*
X74267000Y-142910000D03*
X73767000Y-142910000D03*
X73267000Y-142910000D03*
X72767000Y-142910000D03*
X72267000Y-142910000D03*
X71767000Y-142910000D03*
X71267000Y-142910000D03*
X70767000Y-142910000D03*
X70267000Y-142910000D03*
X69767000Y-142910000D03*
X69267000Y-142910000D03*
X68767000Y-142910000D03*
D18*
X66767000Y-140910000D03*
X66767000Y-140410000D03*
X66767000Y-139910000D03*
X66767000Y-139410000D03*
X66767000Y-138910000D03*
X66767000Y-138410000D03*
X66767000Y-137910000D03*
X66767000Y-137410000D03*
X66767000Y-136910000D03*
X66767000Y-136410000D03*
X66767000Y-135910000D03*
X66767000Y-135410000D03*
X66767000Y-134910000D03*
X66767000Y-134410000D03*
X66767000Y-133910000D03*
X66767000Y-133410000D03*
D17*
X68767000Y-131410000D03*
X69267000Y-131410000D03*
X69767000Y-131410000D03*
X70267000Y-131410000D03*
X70767000Y-131410000D03*
X71267000Y-131410000D03*
X71767000Y-131410000D03*
X72267000Y-131410000D03*
X72767000Y-131410000D03*
X73267000Y-131410000D03*
X73767000Y-131410000D03*
X74267000Y-131410000D03*
X74767000Y-131410000D03*
X75267000Y-131410000D03*
X75767000Y-131410000D03*
X76267000Y-131410000D03*
D18*
X78267000Y-133410000D03*
X78267000Y-133910000D03*
X78267000Y-134410000D03*
X78267000Y-134910000D03*
X78267000Y-135410000D03*
X78267000Y-135910000D03*
X78267000Y-136410000D03*
X78267000Y-136910000D03*
X78267000Y-137410000D03*
X78267000Y-137910000D03*
X78267000Y-138410000D03*
X78267000Y-138910000D03*
X78267000Y-139410000D03*
X78267000Y-139910000D03*
X78267000Y-140410000D03*
X78267000Y-140910000D03*
G04 #@! TD*
D19*
G04 #@! TO.C,X1*
X65697000Y-127932000D03*
X64097000Y-127932000D03*
X64097000Y-130132000D03*
X65697000Y-130132000D03*
G04 #@! TD*
D20*
G04 #@! TO.C,P3*
X68324826Y-175973603D03*
X70626848Y-174900153D03*
X72928869Y-173826702D03*
X75230891Y-172753252D03*
X77532913Y-171679802D03*
X79834935Y-170606351D03*
X82136956Y-169532901D03*
X84438978Y-168459450D03*
X86741000Y-167386000D03*
X89043022Y-166312550D03*
X91345044Y-165239099D03*
X93647065Y-164165649D03*
X95949087Y-163092198D03*
X98251109Y-162018748D03*
X100553131Y-160945298D03*
X102855152Y-159871847D03*
X105157174Y-158798397D03*
G04 #@! TD*
D21*
G04 #@! TO.C,P1*
X111125000Y-152781000D03*
X111125000Y-151511000D03*
X112395000Y-152781000D03*
X112395000Y-151511000D03*
X113665000Y-151511000D03*
X113665000Y-152781000D03*
X109855000Y-152781000D03*
X109855000Y-151511000D03*
X108585000Y-152781000D03*
X108585000Y-151511000D03*
D22*
X107315000Y-152146000D03*
X114935000Y-153162000D03*
X114935000Y-151130000D03*
D23*
X107315000Y-154686000D03*
X113030000Y-154686000D03*
X107315000Y-149606000D03*
X113030000Y-149606000D03*
G04 #@! TD*
D24*
G04 #@! TO.C,R7*
X62357000Y-143518000D03*
X62357000Y-144518000D03*
G04 #@! TD*
G04 #@! TO.C,R13*
X164338000Y-57920000D03*
X164338000Y-58920000D03*
G04 #@! TD*
G04 #@! TO.C,R10*
X193167000Y-57920000D03*
X193167000Y-58920000D03*
G04 #@! TD*
G04 #@! TO.C,R9*
X196088000Y-57920000D03*
X196088000Y-58920000D03*
G04 #@! TD*
D25*
G04 #@! TO.C,C11*
X178554000Y-57912000D03*
X177554000Y-57912000D03*
G04 #@! TD*
D24*
G04 #@! TO.C,C17*
X166751000Y-58920000D03*
X166751000Y-57920000D03*
G04 #@! TD*
D25*
G04 #@! TO.C,C12*
X175633000Y-57912000D03*
X174633000Y-57912000D03*
G04 #@! TD*
D24*
G04 #@! TO.C,C16*
X168275000Y-58920000D03*
X168275000Y-57920000D03*
G04 #@! TD*
G04 #@! TO.C,C15*
X169799000Y-58920000D03*
X169799000Y-57920000D03*
G04 #@! TD*
G04 #@! TO.C,C14*
X171323000Y-58920000D03*
X171323000Y-57920000D03*
G04 #@! TD*
G04 #@! TO.C,C13*
X172847000Y-58920000D03*
X172847000Y-57920000D03*
G04 #@! TD*
G04 #@! TO.C,C7*
X64389000Y-134358000D03*
X64389000Y-133358000D03*
G04 #@! TD*
D25*
G04 #@! TO.C,R3*
X102481000Y-135382000D03*
X101481000Y-135382000D03*
G04 #@! TD*
D24*
G04 #@! TO.C,C5*
X69215000Y-127754000D03*
X69215000Y-126754000D03*
G04 #@! TD*
D25*
G04 #@! TO.C,C4*
X75811000Y-145161000D03*
X74811000Y-145161000D03*
G04 #@! TD*
D24*
G04 #@! TO.C,C1*
X77597000Y-80002000D03*
X77597000Y-79002000D03*
G04 #@! TD*
G04 #@! TO.C,R2*
X78232000Y-130183000D03*
X78232000Y-131183000D03*
G04 #@! TD*
D25*
G04 #@! TO.C,C3*
X76573000Y-128524000D03*
X75573000Y-128524000D03*
G04 #@! TD*
D24*
G04 #@! TO.C,C2*
X68453000Y-80002000D03*
X68453000Y-79002000D03*
G04 #@! TD*
G04 #@! TO.C,R1*
X79375000Y-130183000D03*
X79375000Y-131183000D03*
G04 #@! TD*
G04 #@! TO.C,R6*
X64897000Y-143518000D03*
X64897000Y-144518000D03*
G04 #@! TD*
D25*
G04 #@! TO.C,R5*
X87257000Y-138176000D03*
X88257000Y-138176000D03*
G04 #@! TD*
G04 #@! TO.C,R4*
X88527000Y-136779000D03*
X89527000Y-136779000D03*
G04 #@! TD*
G04 #@! TO.C,C6*
X102481000Y-131826000D03*
X101481000Y-131826000D03*
G04 #@! TD*
D24*
G04 #@! TO.C,C8*
X90297000Y-143264000D03*
X90297000Y-144264000D03*
G04 #@! TD*
G04 #@! TO.C,C9*
X89281000Y-140454000D03*
X89281000Y-139454000D03*
G04 #@! TD*
D25*
G04 #@! TO.C,R8*
X102481000Y-133858000D03*
X101481000Y-133858000D03*
G04 #@! TD*
D24*
G04 #@! TO.C,R11*
X62357000Y-133088000D03*
X62357000Y-132088000D03*
G04 #@! TD*
D25*
G04 #@! TO.C,R12*
X101481000Y-136906000D03*
X102481000Y-136906000D03*
G04 #@! TD*
D26*
G04 #@! TO.C,U2*
X99172000Y-132935000D03*
X99172000Y-133585000D03*
X99172000Y-134235000D03*
X99172000Y-134885000D03*
X99172000Y-135535000D03*
X99172000Y-136185000D03*
X99172000Y-136835000D03*
X99172000Y-137485000D03*
X99172000Y-138135000D03*
X99172000Y-138785000D03*
X99172000Y-139435000D03*
X99172000Y-140085000D03*
X99172000Y-140735000D03*
X99172000Y-141385000D03*
X91582000Y-141385000D03*
X91582000Y-140735000D03*
X91582000Y-140085000D03*
X91582000Y-139435000D03*
X91582000Y-138785000D03*
X91582000Y-138135000D03*
X91582000Y-137485000D03*
X91582000Y-136835000D03*
X91582000Y-136185000D03*
X91582000Y-135535000D03*
X91582000Y-134885000D03*
X91582000Y-134235000D03*
X91582000Y-133585000D03*
X91582000Y-132935000D03*
G04 #@! TD*
D27*
G04 #@! TO.C,D77*
X62212500Y-135669700D03*
X62212500Y-137168300D03*
G04 #@! TD*
D25*
G04 #@! TO.C,C10*
X180475000Y-57912000D03*
X181475000Y-57912000D03*
G04 #@! TD*
D28*
G04 #@! TO.C,S39*
X68401000Y-104847000D03*
X68401000Y-101147000D03*
X74601000Y-104847000D03*
X74601000Y-101147000D03*
G04 #@! TD*
D29*
G04 #@! TO.C,Q1*
X73025000Y-80012000D03*
X70725000Y-80012000D03*
X75325000Y-80012000D03*
D30*
X73025000Y-73912000D03*
G04 #@! TD*
D31*
G04 #@! TO.C,LCD1*
X161500000Y-54064000D03*
X164500000Y-54064000D03*
D32*
X166800000Y-56014000D03*
X168300000Y-56014000D03*
X169800000Y-56014000D03*
X171300000Y-56014000D03*
X172800000Y-56014000D03*
X174300000Y-56014000D03*
X175800000Y-56014000D03*
X177300000Y-56014000D03*
X178800000Y-56014000D03*
X180300000Y-56014000D03*
X181800000Y-56014000D03*
X183300000Y-56014000D03*
X184800000Y-56014000D03*
X186300000Y-56014000D03*
X187800000Y-56014000D03*
X189300000Y-56014000D03*
X190800000Y-56014000D03*
D31*
X193100000Y-54064000D03*
X196100000Y-54064000D03*
D33*
X198900000Y-56014000D03*
X158700000Y-56014000D03*
G04 #@! TD*
D34*
G04 #@! TO.C,FID1*
X69977000Y-55118000D03*
G04 #@! TD*
G04 #@! TO.C,FID3*
X179197000Y-116078000D03*
G04 #@! TD*
G04 #@! TO.C,FID5*
X44577000Y-149098000D03*
G04 #@! TD*
D35*
G04 #@! TO.C,D51*
X168910000Y-80972700D03*
D36*
X166370000Y-80972700D03*
G04 #@! TD*
G04 #@! TO.C,D69*
G36*
G01*
X49124255Y-172978577D02*
X49124255Y-172978577D01*
G75*
G02*
X49487409Y-171980819I680456J317302D01*
G01*
X49487409Y-171980819D01*
G75*
G02*
X50485167Y-172343973I317302J-680456D01*
G01*
X50485167Y-172343973D01*
G75*
G02*
X50122013Y-173341731I-680456J-317302D01*
G01*
X50122013Y-173341731D01*
G75*
G02*
X49124255Y-172978577I-317302J680456D01*
G01*
G37*
D37*
G36*
X47139535Y-174732483D02*
G01*
X46504931Y-173371571D01*
X47865843Y-172736967D01*
X48500447Y-174097879D01*
X47139535Y-174732483D01*
G37*
G04 #@! TD*
D35*
G04 #@! TO.C,D66*
X168910000Y-119073000D03*
D36*
X166370000Y-119073000D03*
G04 #@! TD*
D35*
G04 #@! TO.C,D50*
X149860000Y-77797700D03*
D36*
X147320000Y-77797700D03*
G04 #@! TD*
D35*
G04 #@! TO.C,D65*
X149860000Y-115898000D03*
D36*
X147320000Y-115898000D03*
G04 #@! TD*
D35*
G04 #@! TO.C,D49*
X130810000Y-76200000D03*
D36*
X128270000Y-76200000D03*
G04 #@! TD*
D35*
G04 #@! TO.C,D64*
X130810000Y-114300000D03*
D36*
X128270000Y-114300000D03*
G04 #@! TD*
D35*
G04 #@! TO.C,D48*
X111760000Y-77797700D03*
D36*
X109220000Y-77797700D03*
G04 #@! TD*
D35*
G04 #@! TO.C,D67*
X192722000Y-119073000D03*
D36*
X190182000Y-119073000D03*
G04 #@! TD*
D35*
G04 #@! TO.C,D52*
X192722000Y-80972700D03*
D36*
X190182000Y-80972700D03*
G04 #@! TD*
G04 #@! TO.C,D68*
G36*
G01*
X41072455Y-155711577D02*
X41072455Y-155711577D01*
G75*
G02*
X41435609Y-154713819I680456J317302D01*
G01*
X41435609Y-154713819D01*
G75*
G02*
X42433367Y-155076973I317302J-680456D01*
G01*
X42433367Y-155076973D01*
G75*
G02*
X42070213Y-156074731I-680456J-317302D01*
G01*
X42070213Y-156074731D01*
G75*
G02*
X41072455Y-155711577I-317302J680456D01*
G01*
G37*
D37*
G36*
X39087735Y-157465483D02*
G01*
X38453131Y-156104571D01*
X39814043Y-155469967D01*
X40448647Y-156830879D01*
X39087735Y-157465483D01*
G37*
G04 #@! TD*
D35*
G04 #@! TO.C,D53*
X92710000Y-98118000D03*
D36*
X90170000Y-98118000D03*
G04 #@! TD*
D35*
G04 #@! TO.C,D63*
X111760000Y-115898000D03*
D36*
X109220000Y-115898000D03*
G04 #@! TD*
D35*
G04 #@! TO.C,D54*
X111760000Y-96848000D03*
D36*
X109220000Y-96848000D03*
G04 #@! TD*
G04 #@! TO.C,D70*
G36*
G01*
X59216577Y-162795445D02*
X59216577Y-162795445D01*
G75*
G02*
X58218819Y-162432291I-317302J680456D01*
G01*
X58218819Y-162432291D01*
G75*
G02*
X58581973Y-161434533I680456J317302D01*
G01*
X58581973Y-161434533D01*
G75*
G02*
X59579731Y-161797687I317302J-680456D01*
G01*
X59579731Y-161797687D01*
G75*
G02*
X59216577Y-162795445I-680456J-317302D01*
G01*
G37*
D37*
G36*
X60970483Y-164780165D02*
G01*
X59609571Y-165414769D01*
X58974967Y-164053857D01*
X60335879Y-163419253D01*
X60970483Y-164780165D01*
G37*
G04 #@! TD*
D35*
G04 #@! TO.C,D43*
X149860000Y-58747700D03*
D36*
X147320000Y-58747700D03*
G04 #@! TD*
D35*
G04 #@! TO.C,D55*
X130810000Y-95250000D03*
D36*
X128270000Y-95250000D03*
G04 #@! TD*
G04 #@! TO.C,D71*
G36*
G01*
X76478377Y-154739445D02*
X76478377Y-154739445D01*
G75*
G02*
X75480619Y-154376291I-317302J680456D01*
G01*
X75480619Y-154376291D01*
G75*
G02*
X75843773Y-153378533I680456J317302D01*
G01*
X75843773Y-153378533D01*
G75*
G02*
X76841531Y-153741687I317302J-680456D01*
G01*
X76841531Y-153741687D01*
G75*
G02*
X76478377Y-154739445I-680456J-317302D01*
G01*
G37*
D37*
G36*
X78232283Y-156724165D02*
G01*
X76871371Y-157358769D01*
X76236767Y-155997857D01*
X77597679Y-155363253D01*
X78232283Y-156724165D01*
G37*
G04 #@! TD*
D35*
G04 #@! TO.C,D40*
X92710000Y-60020200D03*
D36*
X90170000Y-60020200D03*
G04 #@! TD*
D35*
G04 #@! TO.C,D56*
X149860000Y-96848000D03*
D36*
X147320000Y-96848000D03*
G04 #@! TD*
D35*
G04 #@! TO.C,D72*
X111760000Y-134948000D03*
D36*
X109220000Y-134948000D03*
G04 #@! TD*
D35*
G04 #@! TO.C,D41*
X111760000Y-58747700D03*
D36*
X109220000Y-58747700D03*
G04 #@! TD*
D35*
G04 #@! TO.C,D57*
X168910000Y-100023000D03*
D36*
X166370000Y-100023000D03*
G04 #@! TD*
D35*
G04 #@! TO.C,D73*
X130810000Y-133350000D03*
D36*
X128270000Y-133350000D03*
G04 #@! TD*
D35*
G04 #@! TO.C,D42*
X130810000Y-57150000D03*
D36*
X128270000Y-57150000D03*
G04 #@! TD*
D35*
G04 #@! TO.C,D58*
X192722000Y-100023000D03*
D36*
X190182000Y-100023000D03*
G04 #@! TD*
D35*
G04 #@! TO.C,D74*
X149860000Y-134948000D03*
D36*
X147320000Y-134948000D03*
G04 #@! TD*
D35*
G04 #@! TO.C,D39*
X73660000Y-60020200D03*
D36*
X71120000Y-60020200D03*
G04 #@! TD*
G04 #@! TO.C,D59*
G36*
G01*
X33023155Y-138447577D02*
X33023155Y-138447577D01*
G75*
G02*
X33386309Y-137449819I680456J317302D01*
G01*
X33386309Y-137449819D01*
G75*
G02*
X34384067Y-137812973I317302J-680456D01*
G01*
X34384067Y-137812973D01*
G75*
G02*
X34020913Y-138810731I-680456J-317302D01*
G01*
X34020913Y-138810731D01*
G75*
G02*
X33023155Y-138447577I-317302J680456D01*
G01*
G37*
D37*
G36*
X31038435Y-140201483D02*
G01*
X30403831Y-138840571D01*
X31764743Y-138205967D01*
X32399347Y-139566879D01*
X31038435Y-140201483D01*
G37*
G04 #@! TD*
D35*
G04 #@! TO.C,D75*
X168910000Y-138123000D03*
D36*
X166370000Y-138123000D03*
G04 #@! TD*
D35*
G04 #@! TO.C,D44*
X168910000Y-61925200D03*
D36*
X166370000Y-61925200D03*
G04 #@! TD*
G04 #@! TO.C,D60*
G36*
G01*
X50287555Y-130397577D02*
X50287555Y-130397577D01*
G75*
G02*
X50650709Y-129399819I680456J317302D01*
G01*
X50650709Y-129399819D01*
G75*
G02*
X51648467Y-129762973I317302J-680456D01*
G01*
X51648467Y-129762973D01*
G75*
G02*
X51285313Y-130760731I-680456J-317302D01*
G01*
X51285313Y-130760731D01*
G75*
G02*
X50287555Y-130397577I-317302J680456D01*
G01*
G37*
D37*
G36*
X48302835Y-132151483D02*
G01*
X47668231Y-130790571D01*
X49029143Y-130155967D01*
X49663747Y-131516879D01*
X48302835Y-132151483D01*
G37*
G04 #@! TD*
D35*
G04 #@! TO.C,D76*
X187960000Y-138123000D03*
D36*
X185420000Y-138123000D03*
G04 #@! TD*
D35*
G04 #@! TO.C,D45*
X192722000Y-61925200D03*
D36*
X190182000Y-61925200D03*
G04 #@! TD*
D35*
G04 #@! TO.C,D61*
X67310000Y-116215000D03*
D36*
X67310000Y-118755000D03*
G04 #@! TD*
D35*
G04 #@! TO.C,D46*
X67310000Y-87640200D03*
D36*
X67310000Y-90180200D03*
G04 #@! TD*
D35*
G04 #@! TO.C,D62*
X92710000Y-117168000D03*
D36*
X90170000Y-117168000D03*
G04 #@! TD*
D35*
G04 #@! TO.C,D47*
X92710000Y-79067700D03*
D36*
X90170000Y-79067700D03*
G04 #@! TD*
D37*
G04 #@! TO.C,D33*
G36*
X80731938Y-157290249D02*
G01*
X80329394Y-156426991D01*
X81328472Y-155961113D01*
X81731016Y-156824371D01*
X80731938Y-157290249D01*
G37*
G36*
X83904124Y-155811034D02*
G01*
X83501580Y-154947776D01*
X84500658Y-154481898D01*
X84903202Y-155345156D01*
X83904124Y-155811034D01*
G37*
G04 #@! TD*
D38*
G04 #@! TO.C,D23*
X70637400Y-120596000D03*
X74137520Y-120596000D03*
G04 #@! TD*
D39*
G04 #@! TO.C,D24*
X88328500Y-120495400D03*
X88328500Y-123995520D03*
G04 #@! TD*
G04 #@! TO.C,D25*
X107378000Y-119225400D03*
X107378000Y-122725520D03*
G04 #@! TD*
G04 #@! TO.C,D26*
X126428000Y-117627400D03*
X126428000Y-121127520D03*
G04 #@! TD*
G04 #@! TO.C,D27*
X145478000Y-119225400D03*
X145478000Y-122725520D03*
G04 #@! TD*
G04 #@! TO.C,D28*
X164528000Y-122400400D03*
X164528000Y-125900520D03*
G04 #@! TD*
G04 #@! TO.C,D29*
X188340000Y-122400400D03*
X188340000Y-125900520D03*
G04 #@! TD*
D37*
G04 #@! TO.C,D30*
G36*
X38523551Y-159962338D02*
G01*
X39386809Y-159559794D01*
X39852687Y-160558872D01*
X38989429Y-160961416D01*
X38523551Y-159962338D01*
G37*
G36*
X40002766Y-163134524D02*
G01*
X40866024Y-162731980D01*
X41331902Y-163731058D01*
X40468644Y-164133602D01*
X40002766Y-163134524D01*
G37*
G04 #@! TD*
G04 #@! TO.C,D31*
G36*
X46575351Y-177229338D02*
G01*
X47438609Y-176826794D01*
X47904487Y-177825872D01*
X47041229Y-178228416D01*
X46575351Y-177229338D01*
G37*
G36*
X48054566Y-180401524D02*
G01*
X48917824Y-179998980D01*
X49383702Y-180998058D01*
X48520444Y-181400602D01*
X48054566Y-180401524D01*
G37*
G04 #@! TD*
G04 #@! TO.C,D32*
G36*
X63467538Y-165342249D02*
G01*
X63064994Y-164478991D01*
X64064072Y-164013113D01*
X64466616Y-164876371D01*
X63467538Y-165342249D01*
G37*
G36*
X66639724Y-163863034D02*
G01*
X66237180Y-162999776D01*
X67236258Y-162533898D01*
X67638802Y-163397156D01*
X66639724Y-163863034D01*
G37*
G04 #@! TD*
D39*
G04 #@! TO.C,D1*
X69278500Y-63347600D03*
X69278500Y-66847720D03*
G04 #@! TD*
G04 #@! TO.C,D34*
X107378000Y-138275400D03*
X107378000Y-141775520D03*
G04 #@! TD*
G04 #@! TO.C,D35*
X126428000Y-136677400D03*
X126428000Y-140177520D03*
G04 #@! TD*
G04 #@! TO.C,D36*
X145478000Y-138275400D03*
X145478000Y-141775520D03*
G04 #@! TD*
G04 #@! TO.C,D37*
X164528000Y-141450400D03*
X164528000Y-144950520D03*
G04 #@! TD*
G04 #@! TO.C,D38*
X183578000Y-141450400D03*
X183578000Y-144950520D03*
G04 #@! TD*
G04 #@! TO.C,D11*
X126428000Y-79527400D03*
X126428000Y-83027520D03*
G04 #@! TD*
G04 #@! TO.C,D5*
X145478000Y-62075100D03*
X145478000Y-65575220D03*
G04 #@! TD*
G04 #@! TO.C,D4*
X126428000Y-60477400D03*
X126428000Y-63977520D03*
G04 #@! TD*
G04 #@! TO.C,D3*
X107378000Y-62075100D03*
X107378000Y-65575220D03*
G04 #@! TD*
G04 #@! TO.C,D2*
X88328500Y-63347600D03*
X88328500Y-66847720D03*
G04 #@! TD*
D37*
G04 #@! TO.C,D22*
G36*
X47738651Y-134646338D02*
G01*
X48601909Y-134243794D01*
X49067787Y-135242872D01*
X48204529Y-135645416D01*
X47738651Y-134646338D01*
G37*
G36*
X49217866Y-137818524D02*
G01*
X50081124Y-137415980D01*
X50547002Y-138415058D01*
X49683744Y-138817602D01*
X49217866Y-137818524D01*
G37*
G04 #@! TD*
D39*
G04 #@! TO.C,D6*
X164528000Y-65252600D03*
X164528000Y-68752720D03*
G04 #@! TD*
G04 #@! TO.C,D7*
X188340000Y-65252600D03*
X188340000Y-68752720D03*
G04 #@! TD*
D38*
G04 #@! TO.C,D8*
X70637400Y-92021700D03*
X74137520Y-92021700D03*
G04 #@! TD*
D39*
G04 #@! TO.C,D9*
X88328500Y-82395100D03*
X88328500Y-85895220D03*
G04 #@! TD*
G04 #@! TO.C,D10*
X107378000Y-81125100D03*
X107378000Y-84625220D03*
G04 #@! TD*
G04 #@! TO.C,D12*
X145478000Y-81125100D03*
X145478000Y-84625220D03*
G04 #@! TD*
G04 #@! TO.C,D13*
X164528000Y-84300100D03*
X164528000Y-87800220D03*
G04 #@! TD*
G04 #@! TO.C,D14*
X188340000Y-84300100D03*
X188340000Y-87800220D03*
G04 #@! TD*
G04 #@! TO.C,D15*
X88328500Y-101445400D03*
X88328500Y-104945520D03*
G04 #@! TD*
G04 #@! TO.C,D16*
X107378000Y-100175400D03*
X107378000Y-103675520D03*
G04 #@! TD*
G04 #@! TO.C,D17*
X126428000Y-98577400D03*
X126428000Y-102077520D03*
G04 #@! TD*
G04 #@! TO.C,D18*
X145478000Y-100175400D03*
X145478000Y-103675520D03*
G04 #@! TD*
G04 #@! TO.C,D19*
X164528000Y-103350400D03*
X164528000Y-106850520D03*
G04 #@! TD*
G04 #@! TO.C,D20*
X188340000Y-103350400D03*
X188340000Y-106850520D03*
G04 #@! TD*
D37*
G04 #@! TO.C,D21*
G36*
X30474251Y-142698338D02*
G01*
X31337509Y-142295794D01*
X31803387Y-143294872D01*
X30940129Y-143697416D01*
X30474251Y-142698338D01*
G37*
G36*
X31953466Y-145870524D02*
G01*
X32816724Y-145467980D01*
X33282602Y-146467058D01*
X32419344Y-146869602D01*
X31953466Y-145870524D01*
G37*
G04 #@! TD*
D40*
G04 #@! TO.C,S33*
X81302900Y-153065000D03*
D41*
X79155999Y-148460956D03*
X83449801Y-157669044D03*
G36*
G01*
X82086468Y-147240535D02*
X83752298Y-147358482D01*
G75*
G02*
X84957978Y-148747906I-91872J-1297552D01*
G01*
X84957978Y-148747906D01*
G75*
G02*
X83568554Y-149953586I-1297552J91872D01*
G01*
X81902724Y-149835638D01*
G75*
G02*
X80697044Y-148446214I91872J1297552D01*
G01*
X80697044Y-148446214D01*
G75*
G02*
X82086468Y-147240534I1297552J-91872D01*
G01*
G37*
G36*
G01*
X85970272Y-152215367D02*
X86511385Y-152006569D01*
G75*
G02*
X88193255Y-152751871I468284J-1213586D01*
G01*
X88193255Y-152751871D01*
G75*
G02*
X87447953Y-154433741I-1213586J-468284D01*
G01*
X86906839Y-154642539D01*
G75*
G02*
X85224969Y-153897237I-468284J1213586D01*
G01*
X85224969Y-153897237D01*
G75*
G02*
X85970271Y-152215367I1213586J468284D01*
G01*
G37*
G04 #@! TD*
D40*
G04 #@! TO.C,S22*
X51963300Y-135219000D03*
D41*
X56567344Y-133072099D03*
X47359256Y-137365901D03*
G36*
G01*
X57787765Y-136002568D02*
X57669818Y-137668398D01*
G75*
G02*
X56280394Y-138874078I-1297552J91872D01*
G01*
X56280394Y-138874078D01*
G75*
G02*
X55074714Y-137484654I91872J1297552D01*
G01*
X55192662Y-135818824D01*
G75*
G02*
X56582086Y-134613144I1297552J-91872D01*
G01*
X56582086Y-134613144D01*
G75*
G02*
X57787766Y-136002568I-91872J-1297552D01*
G01*
G37*
G36*
G01*
X52812933Y-139886372D02*
X53021731Y-140427485D01*
G75*
G02*
X52276429Y-142109355I-1213586J-468284D01*
G01*
X52276429Y-142109355D01*
G75*
G02*
X50594559Y-141364053I-468284J1213586D01*
G01*
X50385761Y-140822939D01*
G75*
G02*
X51131063Y-139141069I1213586J468284D01*
G01*
X51131063Y-139141069D01*
G75*
G02*
X52812933Y-139886371I468284J-1213586D01*
G01*
G37*
G04 #@! TD*
D40*
G04 #@! TO.C,S2*
X91440000Y-65100200D03*
D41*
X96520000Y-65100200D03*
X86360000Y-65100200D03*
G36*
G01*
X96387608Y-68271879D02*
X95576702Y-69731787D01*
G75*
G02*
X93807914Y-70237309I-1137155J631633D01*
G01*
X93807914Y-70237309D01*
G75*
G02*
X93302392Y-68468521I631633J1137155D01*
G01*
X94113298Y-67008613D01*
G75*
G02*
X95882086Y-66503091I1137155J-631633D01*
G01*
X95882086Y-66503091D01*
G75*
G02*
X96387608Y-68271879I-631633J-1137155D01*
G01*
G37*
G36*
G01*
X90237512Y-69689346D02*
X90198064Y-70268002D01*
G75*
G02*
X88811802Y-71477316I-1297788J88474D01*
G01*
X88811802Y-71477316D01*
G75*
G02*
X87602488Y-70091054I88474J1297788D01*
G01*
X87641936Y-69512398D01*
G75*
G02*
X89028198Y-68303084I1297788J-88474D01*
G01*
X89028198Y-68303084D01*
G75*
G02*
X90237512Y-69689346I-88474J-1297788D01*
G01*
G37*
G04 #@! TD*
D40*
G04 #@! TO.C,S12*
X148590000Y-82877700D03*
D41*
X153670000Y-82877700D03*
X143510000Y-82877700D03*
G36*
G01*
X153537608Y-86049379D02*
X152726702Y-87509287D01*
G75*
G02*
X150957914Y-88014809I-1137155J631633D01*
G01*
X150957914Y-88014809D01*
G75*
G02*
X150452392Y-86246021I631633J1137155D01*
G01*
X151263298Y-84786113D01*
G75*
G02*
X153032086Y-84280591I1137155J-631633D01*
G01*
X153032086Y-84280591D01*
G75*
G02*
X153537608Y-86049379I-631633J-1137155D01*
G01*
G37*
G36*
G01*
X147387512Y-87466846D02*
X147348064Y-88045502D01*
G75*
G02*
X145961802Y-89254816I-1297788J88474D01*
G01*
X145961802Y-89254816D01*
G75*
G02*
X144752488Y-87868554I88474J1297788D01*
G01*
X144791936Y-87289898D01*
G75*
G02*
X146178198Y-86080584I1297788J-88474D01*
G01*
X146178198Y-86080584D01*
G75*
G02*
X147387512Y-87466846I-88474J-1297788D01*
G01*
G37*
G04 #@! TD*
D40*
G04 #@! TO.C,S32*
X64038500Y-161117000D03*
D41*
X61891599Y-156512956D03*
X66185401Y-165721044D03*
G36*
G01*
X64822068Y-155292535D02*
X66487898Y-155410482D01*
G75*
G02*
X67693578Y-156799906I-91872J-1297552D01*
G01*
X67693578Y-156799906D01*
G75*
G02*
X66304154Y-158005586I-1297552J91872D01*
G01*
X64638324Y-157887638D01*
G75*
G02*
X63432644Y-156498214I91872J1297552D01*
G01*
X63432644Y-156498214D01*
G75*
G02*
X64822068Y-155292534I1297552J-91872D01*
G01*
G37*
G36*
G01*
X68705872Y-160267367D02*
X69246985Y-160058569D01*
G75*
G02*
X70928855Y-160803871I468284J-1213586D01*
G01*
X70928855Y-160803871D01*
G75*
G02*
X70183553Y-162485741I-1213586J-468284D01*
G01*
X69642439Y-162694539D01*
G75*
G02*
X67960569Y-161949237I-468284J1213586D01*
G01*
X67960569Y-161949237D01*
G75*
G02*
X68705871Y-160267367I1213586J468284D01*
G01*
G37*
G04 #@! TD*
D40*
G04 #@! TO.C,S34*
X110490000Y-140028000D03*
D41*
X115570000Y-140028000D03*
X105410000Y-140028000D03*
G36*
G01*
X115437608Y-143199679D02*
X114626702Y-144659587D01*
G75*
G02*
X112857914Y-145165109I-1137155J631633D01*
G01*
X112857914Y-145165109D01*
G75*
G02*
X112352392Y-143396321I631633J1137155D01*
G01*
X113163298Y-141936413D01*
G75*
G02*
X114932086Y-141430891I1137155J-631633D01*
G01*
X114932086Y-141430891D01*
G75*
G02*
X115437608Y-143199679I-631633J-1137155D01*
G01*
G37*
G36*
G01*
X109287512Y-144617146D02*
X109248064Y-145195802D01*
G75*
G02*
X107861802Y-146405116I-1297788J88474D01*
G01*
X107861802Y-146405116D01*
G75*
G02*
X106652488Y-145018854I88474J1297788D01*
G01*
X106691936Y-144440198D01*
G75*
G02*
X108078198Y-143230884I1297788J-88474D01*
G01*
X108078198Y-143230884D01*
G75*
G02*
X109287512Y-144617146I-88474J-1297788D01*
G01*
G37*
G04 #@! TD*
D40*
G04 #@! TO.C,S35*
X129540000Y-138430000D03*
D41*
X134620000Y-138430000D03*
X124460000Y-138430000D03*
G36*
G01*
X134487608Y-141601679D02*
X133676702Y-143061587D01*
G75*
G02*
X131907914Y-143567109I-1137155J631633D01*
G01*
X131907914Y-143567109D01*
G75*
G02*
X131402392Y-141798321I631633J1137155D01*
G01*
X132213298Y-140338413D01*
G75*
G02*
X133982086Y-139832891I1137155J-631633D01*
G01*
X133982086Y-139832891D01*
G75*
G02*
X134487608Y-141601679I-631633J-1137155D01*
G01*
G37*
G36*
G01*
X128337512Y-143019146D02*
X128298064Y-143597802D01*
G75*
G02*
X126911802Y-144807116I-1297788J88474D01*
G01*
X126911802Y-144807116D01*
G75*
G02*
X125702488Y-143420854I88474J1297788D01*
G01*
X125741936Y-142842198D01*
G75*
G02*
X127128198Y-141632884I1297788J-88474D01*
G01*
X127128198Y-141632884D01*
G75*
G02*
X128337512Y-143019146I-88474J-1297788D01*
G01*
G37*
G04 #@! TD*
D40*
G04 #@! TO.C,S37*
X167640000Y-143203000D03*
D41*
X172720000Y-143203000D03*
X162560000Y-143203000D03*
G36*
G01*
X172587608Y-146374679D02*
X171776702Y-147834587D01*
G75*
G02*
X170007914Y-148340109I-1137155J631633D01*
G01*
X170007914Y-148340109D01*
G75*
G02*
X169502392Y-146571321I631633J1137155D01*
G01*
X170313298Y-145111413D01*
G75*
G02*
X172082086Y-144605891I1137155J-631633D01*
G01*
X172082086Y-144605891D01*
G75*
G02*
X172587608Y-146374679I-631633J-1137155D01*
G01*
G37*
G36*
G01*
X166437512Y-147792146D02*
X166398064Y-148370802D01*
G75*
G02*
X165011802Y-149580116I-1297788J88474D01*
G01*
X165011802Y-149580116D01*
G75*
G02*
X163802488Y-148193854I88474J1297788D01*
G01*
X163841936Y-147615198D01*
G75*
G02*
X165228198Y-146405884I1297788J-88474D01*
G01*
X165228198Y-146405884D01*
G75*
G02*
X166437512Y-147792146I-88474J-1297788D01*
G01*
G37*
G04 #@! TD*
D40*
G04 #@! TO.C,S24*
X91440000Y-122248000D03*
D41*
X96520000Y-122248000D03*
X86360000Y-122248000D03*
G36*
G01*
X96387608Y-125419679D02*
X95576702Y-126879587D01*
G75*
G02*
X93807914Y-127385109I-1137155J631633D01*
G01*
X93807914Y-127385109D01*
G75*
G02*
X93302392Y-125616321I631633J1137155D01*
G01*
X94113298Y-124156413D01*
G75*
G02*
X95882086Y-123650891I1137155J-631633D01*
G01*
X95882086Y-123650891D01*
G75*
G02*
X96387608Y-125419679I-631633J-1137155D01*
G01*
G37*
G36*
G01*
X90237512Y-126837146D02*
X90198064Y-127415802D01*
G75*
G02*
X88811802Y-128625116I-1297788J88474D01*
G01*
X88811802Y-128625116D01*
G75*
G02*
X87602488Y-127238854I88474J1297788D01*
G01*
X87641936Y-126660198D01*
G75*
G02*
X89028198Y-125450884I1297788J-88474D01*
G01*
X89028198Y-125450884D01*
G75*
G02*
X90237512Y-126837146I-88474J-1297788D01*
G01*
G37*
G04 #@! TD*
D40*
G04 #@! TO.C,S25*
X110490000Y-120978000D03*
D41*
X115570000Y-120978000D03*
X105410000Y-120978000D03*
G36*
G01*
X115437608Y-124149679D02*
X114626702Y-125609587D01*
G75*
G02*
X112857914Y-126115109I-1137155J631633D01*
G01*
X112857914Y-126115109D01*
G75*
G02*
X112352392Y-124346321I631633J1137155D01*
G01*
X113163298Y-122886413D01*
G75*
G02*
X114932086Y-122380891I1137155J-631633D01*
G01*
X114932086Y-122380891D01*
G75*
G02*
X115437608Y-124149679I-631633J-1137155D01*
G01*
G37*
G36*
G01*
X109287512Y-125567146D02*
X109248064Y-126145802D01*
G75*
G02*
X107861802Y-127355116I-1297788J88474D01*
G01*
X107861802Y-127355116D01*
G75*
G02*
X106652488Y-125968854I88474J1297788D01*
G01*
X106691936Y-125390198D01*
G75*
G02*
X108078198Y-124180884I1297788J-88474D01*
G01*
X108078198Y-124180884D01*
G75*
G02*
X109287512Y-125567146I-88474J-1297788D01*
G01*
G37*
G04 #@! TD*
D40*
G04 #@! TO.C,S26*
X129540000Y-119380000D03*
D41*
X134620000Y-119380000D03*
X124460000Y-119380000D03*
G36*
G01*
X134487608Y-122551679D02*
X133676702Y-124011587D01*
G75*
G02*
X131907914Y-124517109I-1137155J631633D01*
G01*
X131907914Y-124517109D01*
G75*
G02*
X131402392Y-122748321I631633J1137155D01*
G01*
X132213298Y-121288413D01*
G75*
G02*
X133982086Y-120782891I1137155J-631633D01*
G01*
X133982086Y-120782891D01*
G75*
G02*
X134487608Y-122551679I-631633J-1137155D01*
G01*
G37*
G36*
G01*
X128337512Y-123969146D02*
X128298064Y-124547802D01*
G75*
G02*
X126911802Y-125757116I-1297788J88474D01*
G01*
X126911802Y-125757116D01*
G75*
G02*
X125702488Y-124370854I88474J1297788D01*
G01*
X125741936Y-123792198D01*
G75*
G02*
X127128198Y-122582884I1297788J-88474D01*
G01*
X127128198Y-122582884D01*
G75*
G02*
X128337512Y-123969146I-88474J-1297788D01*
G01*
G37*
G04 #@! TD*
D40*
G04 #@! TO.C,S27*
X148590000Y-120978000D03*
D41*
X153670000Y-120978000D03*
X143510000Y-120978000D03*
G36*
G01*
X153537608Y-124149679D02*
X152726702Y-125609587D01*
G75*
G02*
X150957914Y-126115109I-1137155J631633D01*
G01*
X150957914Y-126115109D01*
G75*
G02*
X150452392Y-124346321I631633J1137155D01*
G01*
X151263298Y-122886413D01*
G75*
G02*
X153032086Y-122380891I1137155J-631633D01*
G01*
X153032086Y-122380891D01*
G75*
G02*
X153537608Y-124149679I-631633J-1137155D01*
G01*
G37*
G36*
G01*
X147387512Y-125567146D02*
X147348064Y-126145802D01*
G75*
G02*
X145961802Y-127355116I-1297788J88474D01*
G01*
X145961802Y-127355116D01*
G75*
G02*
X144752488Y-125968854I88474J1297788D01*
G01*
X144791936Y-125390198D01*
G75*
G02*
X146178198Y-124180884I1297788J-88474D01*
G01*
X146178198Y-124180884D01*
G75*
G02*
X147387512Y-125567146I-88474J-1297788D01*
G01*
G37*
G04 #@! TD*
D40*
G04 #@! TO.C,S28*
X167640000Y-124153000D03*
D41*
X172720000Y-124153000D03*
X162560000Y-124153000D03*
G36*
G01*
X172587608Y-127324679D02*
X171776702Y-128784587D01*
G75*
G02*
X170007914Y-129290109I-1137155J631633D01*
G01*
X170007914Y-129290109D01*
G75*
G02*
X169502392Y-127521321I631633J1137155D01*
G01*
X170313298Y-126061413D01*
G75*
G02*
X172082086Y-125555891I1137155J-631633D01*
G01*
X172082086Y-125555891D01*
G75*
G02*
X172587608Y-127324679I-631633J-1137155D01*
G01*
G37*
G36*
G01*
X166437512Y-128742146D02*
X166398064Y-129320802D01*
G75*
G02*
X165011802Y-130530116I-1297788J88474D01*
G01*
X165011802Y-130530116D01*
G75*
G02*
X163802488Y-129143854I88474J1297788D01*
G01*
X163841936Y-128565198D01*
G75*
G02*
X165228198Y-127355884I1297788J-88474D01*
G01*
X165228198Y-127355884D01*
G75*
G02*
X166437512Y-128742146I-88474J-1297788D01*
G01*
G37*
G04 #@! TD*
D40*
G04 #@! TO.C,S15*
X91440000Y-103198000D03*
D41*
X96520000Y-103198000D03*
X86360000Y-103198000D03*
G36*
G01*
X96387608Y-106369679D02*
X95576702Y-107829587D01*
G75*
G02*
X93807914Y-108335109I-1137155J631633D01*
G01*
X93807914Y-108335109D01*
G75*
G02*
X93302392Y-106566321I631633J1137155D01*
G01*
X94113298Y-105106413D01*
G75*
G02*
X95882086Y-104600891I1137155J-631633D01*
G01*
X95882086Y-104600891D01*
G75*
G02*
X96387608Y-106369679I-631633J-1137155D01*
G01*
G37*
G36*
G01*
X90237512Y-107787146D02*
X90198064Y-108365802D01*
G75*
G02*
X88811802Y-109575116I-1297788J88474D01*
G01*
X88811802Y-109575116D01*
G75*
G02*
X87602488Y-108188854I88474J1297788D01*
G01*
X87641936Y-107610198D01*
G75*
G02*
X89028198Y-106400884I1297788J-88474D01*
G01*
X89028198Y-106400884D01*
G75*
G02*
X90237512Y-107787146I-88474J-1297788D01*
G01*
G37*
G04 #@! TD*
D40*
G04 #@! TO.C,S16*
X110490000Y-101928000D03*
D41*
X115570000Y-101928000D03*
X105410000Y-101928000D03*
G36*
G01*
X115437608Y-105099679D02*
X114626702Y-106559587D01*
G75*
G02*
X112857914Y-107065109I-1137155J631633D01*
G01*
X112857914Y-107065109D01*
G75*
G02*
X112352392Y-105296321I631633J1137155D01*
G01*
X113163298Y-103836413D01*
G75*
G02*
X114932086Y-103330891I1137155J-631633D01*
G01*
X114932086Y-103330891D01*
G75*
G02*
X115437608Y-105099679I-631633J-1137155D01*
G01*
G37*
G36*
G01*
X109287512Y-106517146D02*
X109248064Y-107095802D01*
G75*
G02*
X107861802Y-108305116I-1297788J88474D01*
G01*
X107861802Y-108305116D01*
G75*
G02*
X106652488Y-106918854I88474J1297788D01*
G01*
X106691936Y-106340198D01*
G75*
G02*
X108078198Y-105130884I1297788J-88474D01*
G01*
X108078198Y-105130884D01*
G75*
G02*
X109287512Y-106517146I-88474J-1297788D01*
G01*
G37*
G04 #@! TD*
D40*
G04 #@! TO.C,S17*
X129540000Y-100330000D03*
D41*
X134620000Y-100330000D03*
X124460000Y-100330000D03*
G36*
G01*
X134487608Y-103501679D02*
X133676702Y-104961587D01*
G75*
G02*
X131907914Y-105467109I-1137155J631633D01*
G01*
X131907914Y-105467109D01*
G75*
G02*
X131402392Y-103698321I631633J1137155D01*
G01*
X132213298Y-102238413D01*
G75*
G02*
X133982086Y-101732891I1137155J-631633D01*
G01*
X133982086Y-101732891D01*
G75*
G02*
X134487608Y-103501679I-631633J-1137155D01*
G01*
G37*
G36*
G01*
X128337512Y-104919146D02*
X128298064Y-105497802D01*
G75*
G02*
X126911802Y-106707116I-1297788J88474D01*
G01*
X126911802Y-106707116D01*
G75*
G02*
X125702488Y-105320854I88474J1297788D01*
G01*
X125741936Y-104742198D01*
G75*
G02*
X127128198Y-103532884I1297788J-88474D01*
G01*
X127128198Y-103532884D01*
G75*
G02*
X128337512Y-104919146I-88474J-1297788D01*
G01*
G37*
G04 #@! TD*
D40*
G04 #@! TO.C,S18*
X148590000Y-101928000D03*
D41*
X153670000Y-101928000D03*
X143510000Y-101928000D03*
G36*
G01*
X153537608Y-105099679D02*
X152726702Y-106559587D01*
G75*
G02*
X150957914Y-107065109I-1137155J631633D01*
G01*
X150957914Y-107065109D01*
G75*
G02*
X150452392Y-105296321I631633J1137155D01*
G01*
X151263298Y-103836413D01*
G75*
G02*
X153032086Y-103330891I1137155J-631633D01*
G01*
X153032086Y-103330891D01*
G75*
G02*
X153537608Y-105099679I-631633J-1137155D01*
G01*
G37*
G36*
G01*
X147387512Y-106517146D02*
X147348064Y-107095802D01*
G75*
G02*
X145961802Y-108305116I-1297788J88474D01*
G01*
X145961802Y-108305116D01*
G75*
G02*
X144752488Y-106918854I88474J1297788D01*
G01*
X144791936Y-106340198D01*
G75*
G02*
X146178198Y-105130884I1297788J-88474D01*
G01*
X146178198Y-105130884D01*
G75*
G02*
X147387512Y-106517146I-88474J-1297788D01*
G01*
G37*
G04 #@! TD*
D40*
G04 #@! TO.C,S19*
X167640000Y-105103000D03*
D41*
X172720000Y-105103000D03*
X162560000Y-105103000D03*
G36*
G01*
X172587608Y-108274679D02*
X171776702Y-109734587D01*
G75*
G02*
X170007914Y-110240109I-1137155J631633D01*
G01*
X170007914Y-110240109D01*
G75*
G02*
X169502392Y-108471321I631633J1137155D01*
G01*
X170313298Y-107011413D01*
G75*
G02*
X172082086Y-106505891I1137155J-631633D01*
G01*
X172082086Y-106505891D01*
G75*
G02*
X172587608Y-108274679I-631633J-1137155D01*
G01*
G37*
G36*
G01*
X166437512Y-109692146D02*
X166398064Y-110270802D01*
G75*
G02*
X165011802Y-111480116I-1297788J88474D01*
G01*
X165011802Y-111480116D01*
G75*
G02*
X163802488Y-110093854I88474J1297788D01*
G01*
X163841936Y-109515198D01*
G75*
G02*
X165228198Y-108305884I1297788J-88474D01*
G01*
X165228198Y-108305884D01*
G75*
G02*
X166437512Y-109692146I-88474J-1297788D01*
G01*
G37*
G04 #@! TD*
D40*
G04 #@! TO.C,S10*
X110490000Y-82877700D03*
D41*
X115570000Y-82877700D03*
X105410000Y-82877700D03*
G36*
G01*
X115437608Y-86049379D02*
X114626702Y-87509287D01*
G75*
G02*
X112857914Y-88014809I-1137155J631633D01*
G01*
X112857914Y-88014809D01*
G75*
G02*
X112352392Y-86246021I631633J1137155D01*
G01*
X113163298Y-84786113D01*
G75*
G02*
X114932086Y-84280591I1137155J-631633D01*
G01*
X114932086Y-84280591D01*
G75*
G02*
X115437608Y-86049379I-631633J-1137155D01*
G01*
G37*
G36*
G01*
X109287512Y-87466846D02*
X109248064Y-88045502D01*
G75*
G02*
X107861802Y-89254816I-1297788J88474D01*
G01*
X107861802Y-89254816D01*
G75*
G02*
X106652488Y-87868554I88474J1297788D01*
G01*
X106691936Y-87289898D01*
G75*
G02*
X108078198Y-86080584I1297788J-88474D01*
G01*
X108078198Y-86080584D01*
G75*
G02*
X109287512Y-87466846I-88474J-1297788D01*
G01*
G37*
G04 #@! TD*
D40*
G04 #@! TO.C,S11*
X129540000Y-81280000D03*
D41*
X134620000Y-81280000D03*
X124460000Y-81280000D03*
G36*
G01*
X134487608Y-84451679D02*
X133676702Y-85911587D01*
G75*
G02*
X131907914Y-86417109I-1137155J631633D01*
G01*
X131907914Y-86417109D01*
G75*
G02*
X131402392Y-84648321I631633J1137155D01*
G01*
X132213298Y-83188413D01*
G75*
G02*
X133982086Y-82682891I1137155J-631633D01*
G01*
X133982086Y-82682891D01*
G75*
G02*
X134487608Y-84451679I-631633J-1137155D01*
G01*
G37*
G36*
G01*
X128337512Y-85869146D02*
X128298064Y-86447802D01*
G75*
G02*
X126911802Y-87657116I-1297788J88474D01*
G01*
X126911802Y-87657116D01*
G75*
G02*
X125702488Y-86270854I88474J1297788D01*
G01*
X125741936Y-85692198D01*
G75*
G02*
X127128198Y-84482884I1297788J-88474D01*
G01*
X127128198Y-84482884D01*
G75*
G02*
X128337512Y-85869146I-88474J-1297788D01*
G01*
G37*
G04 #@! TD*
D40*
G04 #@! TO.C,S13*
X167640000Y-86052700D03*
D41*
X172720000Y-86052700D03*
X162560000Y-86052700D03*
G36*
G01*
X172587608Y-89224379D02*
X171776702Y-90684287D01*
G75*
G02*
X170007914Y-91189809I-1137155J631633D01*
G01*
X170007914Y-91189809D01*
G75*
G02*
X169502392Y-89421021I631633J1137155D01*
G01*
X170313298Y-87961113D01*
G75*
G02*
X172082086Y-87455591I1137155J-631633D01*
G01*
X172082086Y-87455591D01*
G75*
G02*
X172587608Y-89224379I-631633J-1137155D01*
G01*
G37*
G36*
G01*
X166437512Y-90641846D02*
X166398064Y-91220502D01*
G75*
G02*
X165011802Y-92429816I-1297788J88474D01*
G01*
X165011802Y-92429816D01*
G75*
G02*
X163802488Y-91043554I88474J1297788D01*
G01*
X163841936Y-90464898D01*
G75*
G02*
X165228198Y-89255584I1297788J-88474D01*
G01*
X165228198Y-89255584D01*
G75*
G02*
X166437512Y-90641846I-88474J-1297788D01*
G01*
G37*
G04 #@! TD*
D40*
G04 #@! TO.C,S36*
X148590000Y-140028000D03*
D41*
X153670000Y-140028000D03*
X143510000Y-140028000D03*
G36*
G01*
X153537608Y-143199679D02*
X152726702Y-144659587D01*
G75*
G02*
X150957914Y-145165109I-1137155J631633D01*
G01*
X150957914Y-145165109D01*
G75*
G02*
X150452392Y-143396321I631633J1137155D01*
G01*
X151263298Y-141936413D01*
G75*
G02*
X153032086Y-141430891I1137155J-631633D01*
G01*
X153032086Y-141430891D01*
G75*
G02*
X153537608Y-143199679I-631633J-1137155D01*
G01*
G37*
G36*
G01*
X147387512Y-144617146D02*
X147348064Y-145195802D01*
G75*
G02*
X145961802Y-146405116I-1297788J88474D01*
G01*
X145961802Y-146405116D01*
G75*
G02*
X144752488Y-145018854I88474J1297788D01*
G01*
X144791936Y-144440198D01*
G75*
G02*
X146178198Y-143230884I1297788J-88474D01*
G01*
X146178198Y-143230884D01*
G75*
G02*
X147387512Y-144617146I-88474J-1297788D01*
G01*
G37*
G04 #@! TD*
D40*
G04 #@! TO.C,S3*
X110490000Y-63827700D03*
D41*
X115570000Y-63827700D03*
X105410000Y-63827700D03*
G36*
G01*
X115437608Y-66999379D02*
X114626702Y-68459287D01*
G75*
G02*
X112857914Y-68964809I-1137155J631633D01*
G01*
X112857914Y-68964809D01*
G75*
G02*
X112352392Y-67196021I631633J1137155D01*
G01*
X113163298Y-65736113D01*
G75*
G02*
X114932086Y-65230591I1137155J-631633D01*
G01*
X114932086Y-65230591D01*
G75*
G02*
X115437608Y-66999379I-631633J-1137155D01*
G01*
G37*
G36*
G01*
X109287512Y-68416846D02*
X109248064Y-68995502D01*
G75*
G02*
X107861802Y-70204816I-1297788J88474D01*
G01*
X107861802Y-70204816D01*
G75*
G02*
X106652488Y-68818554I88474J1297788D01*
G01*
X106691936Y-68239898D01*
G75*
G02*
X108078198Y-67030584I1297788J-88474D01*
G01*
X108078198Y-67030584D01*
G75*
G02*
X109287512Y-68416846I-88474J-1297788D01*
G01*
G37*
G04 #@! TD*
D40*
G04 #@! TO.C,S4*
X129540000Y-62230000D03*
D41*
X134620000Y-62230000D03*
X124460000Y-62230000D03*
G36*
G01*
X134487608Y-65401679D02*
X133676702Y-66861587D01*
G75*
G02*
X131907914Y-67367109I-1137155J631633D01*
G01*
X131907914Y-67367109D01*
G75*
G02*
X131402392Y-65598321I631633J1137155D01*
G01*
X132213298Y-64138413D01*
G75*
G02*
X133982086Y-63632891I1137155J-631633D01*
G01*
X133982086Y-63632891D01*
G75*
G02*
X134487608Y-65401679I-631633J-1137155D01*
G01*
G37*
G36*
G01*
X128337512Y-66819146D02*
X128298064Y-67397802D01*
G75*
G02*
X126911802Y-68607116I-1297788J88474D01*
G01*
X126911802Y-68607116D01*
G75*
G02*
X125702488Y-67220854I88474J1297788D01*
G01*
X125741936Y-66642198D01*
G75*
G02*
X127128198Y-65432884I1297788J-88474D01*
G01*
X127128198Y-65432884D01*
G75*
G02*
X128337512Y-66819146I-88474J-1297788D01*
G01*
G37*
G04 #@! TD*
D40*
G04 #@! TO.C,S5*
X148590000Y-63827700D03*
D41*
X153670000Y-63827700D03*
X143510000Y-63827700D03*
G36*
G01*
X153537608Y-66999379D02*
X152726702Y-68459287D01*
G75*
G02*
X150957914Y-68964809I-1137155J631633D01*
G01*
X150957914Y-68964809D01*
G75*
G02*
X150452392Y-67196021I631633J1137155D01*
G01*
X151263298Y-65736113D01*
G75*
G02*
X153032086Y-65230591I1137155J-631633D01*
G01*
X153032086Y-65230591D01*
G75*
G02*
X153537608Y-66999379I-631633J-1137155D01*
G01*
G37*
G36*
G01*
X147387512Y-68416846D02*
X147348064Y-68995502D01*
G75*
G02*
X145961802Y-70204816I-1297788J88474D01*
G01*
X145961802Y-70204816D01*
G75*
G02*
X144752488Y-68818554I88474J1297788D01*
G01*
X144791936Y-68239898D01*
G75*
G02*
X146178198Y-67030584I1297788J-88474D01*
G01*
X146178198Y-67030584D01*
G75*
G02*
X147387512Y-68416846I-88474J-1297788D01*
G01*
G37*
G04 #@! TD*
D40*
G04 #@! TO.C,S6*
X167640000Y-67005200D03*
D41*
X172720000Y-67005200D03*
X162560000Y-67005200D03*
G36*
G01*
X172587608Y-70176879D02*
X171776702Y-71636787D01*
G75*
G02*
X170007914Y-72142309I-1137155J631633D01*
G01*
X170007914Y-72142309D01*
G75*
G02*
X169502392Y-70373521I631633J1137155D01*
G01*
X170313298Y-68913613D01*
G75*
G02*
X172082086Y-68408091I1137155J-631633D01*
G01*
X172082086Y-68408091D01*
G75*
G02*
X172587608Y-70176879I-631633J-1137155D01*
G01*
G37*
G36*
G01*
X166437512Y-71594346D02*
X166398064Y-72173002D01*
G75*
G02*
X165011802Y-73382316I-1297788J88474D01*
G01*
X165011802Y-73382316D01*
G75*
G02*
X163802488Y-71996054I88474J1297788D01*
G01*
X163841936Y-71417398D01*
G75*
G02*
X165228198Y-70208084I1297788J-88474D01*
G01*
X165228198Y-70208084D01*
G75*
G02*
X166437512Y-71594346I-88474J-1297788D01*
G01*
G37*
G04 #@! TD*
D40*
G04 #@! TO.C,S21*
X34698900Y-143269000D03*
D41*
X39302944Y-141122099D03*
X30094856Y-145415901D03*
G36*
G01*
X40523365Y-144052568D02*
X40405418Y-145718398D01*
G75*
G02*
X39015994Y-146924078I-1297552J91872D01*
G01*
X39015994Y-146924078D01*
G75*
G02*
X37810314Y-145534654I91872J1297552D01*
G01*
X37928262Y-143868824D01*
G75*
G02*
X39317686Y-142663144I1297552J-91872D01*
G01*
X39317686Y-142663144D01*
G75*
G02*
X40523366Y-144052568I-91872J-1297552D01*
G01*
G37*
G36*
G01*
X35548533Y-147936372D02*
X35757331Y-148477485D01*
G75*
G02*
X35012029Y-150159355I-1213586J-468284D01*
G01*
X35012029Y-150159355D01*
G75*
G02*
X33330159Y-149414053I-468284J1213586D01*
G01*
X33121361Y-148872939D01*
G75*
G02*
X33866663Y-147191069I1213586J468284D01*
G01*
X33866663Y-147191069D01*
G75*
G02*
X35548533Y-147936371I468284J-1213586D01*
G01*
G37*
G04 #@! TD*
D40*
G04 #@! TO.C,S31*
X50800000Y-177800000D03*
D41*
X55404044Y-175653099D03*
X46195956Y-179946901D03*
G36*
G01*
X56624465Y-178583568D02*
X56506518Y-180249398D01*
G75*
G02*
X55117094Y-181455078I-1297552J91872D01*
G01*
X55117094Y-181455078D01*
G75*
G02*
X53911414Y-180065654I91872J1297552D01*
G01*
X54029362Y-178399824D01*
G75*
G02*
X55418786Y-177194144I1297552J-91872D01*
G01*
X55418786Y-177194144D01*
G75*
G02*
X56624466Y-178583568I-91872J-1297552D01*
G01*
G37*
G36*
G01*
X51649633Y-182467372D02*
X51858431Y-183008485D01*
G75*
G02*
X51113129Y-184690355I-1213586J-468284D01*
G01*
X51113129Y-184690355D01*
G75*
G02*
X49431259Y-183945053I-468284J1213586D01*
G01*
X49222461Y-183403939D01*
G75*
G02*
X49967763Y-181722069I1213586J468284D01*
G01*
X49967763Y-181722069D01*
G75*
G02*
X51649633Y-182467371I468284J-1213586D01*
G01*
G37*
G04 #@! TD*
D40*
G04 #@! TO.C,S30*
X42748200Y-160533000D03*
D41*
X47352244Y-158386099D03*
X38144156Y-162679901D03*
G36*
G01*
X48572665Y-161316568D02*
X48454718Y-162982398D01*
G75*
G02*
X47065294Y-164188078I-1297552J91872D01*
G01*
X47065294Y-164188078D01*
G75*
G02*
X45859614Y-162798654I91872J1297552D01*
G01*
X45977562Y-161132824D01*
G75*
G02*
X47366986Y-159927144I1297552J-91872D01*
G01*
X47366986Y-159927144D01*
G75*
G02*
X48572666Y-161316568I-91872J-1297552D01*
G01*
G37*
G36*
G01*
X43597833Y-165200372D02*
X43806631Y-165741485D01*
G75*
G02*
X43061329Y-167423355I-1213586J-468284D01*
G01*
X43061329Y-167423355D01*
G75*
G02*
X41379459Y-166678053I-468284J1213586D01*
G01*
X41170661Y-166136939D01*
G75*
G02*
X41915963Y-164455069I1213586J468284D01*
G01*
X41915963Y-164455069D01*
G75*
G02*
X43597833Y-165200371I468284J-1213586D01*
G01*
G37*
G04 #@! TD*
D40*
G04 #@! TO.C,S9*
X91440000Y-84147700D03*
D41*
X96520000Y-84147700D03*
X86360000Y-84147700D03*
G36*
G01*
X96387608Y-87319379D02*
X95576702Y-88779287D01*
G75*
G02*
X93807914Y-89284809I-1137155J631633D01*
G01*
X93807914Y-89284809D01*
G75*
G02*
X93302392Y-87516021I631633J1137155D01*
G01*
X94113298Y-86056113D01*
G75*
G02*
X95882086Y-85550591I1137155J-631633D01*
G01*
X95882086Y-85550591D01*
G75*
G02*
X96387608Y-87319379I-631633J-1137155D01*
G01*
G37*
G36*
G01*
X90237512Y-88736846D02*
X90198064Y-89315502D01*
G75*
G02*
X88811802Y-90524816I-1297788J88474D01*
G01*
X88811802Y-90524816D01*
G75*
G02*
X87602488Y-89138554I88474J1297788D01*
G01*
X87641936Y-88559898D01*
G75*
G02*
X89028198Y-87350584I1297788J-88474D01*
G01*
X89028198Y-87350584D01*
G75*
G02*
X90237512Y-88736846I-88474J-1297788D01*
G01*
G37*
G04 #@! TD*
D40*
G04 #@! TO.C,S38*
X186690000Y-143203000D03*
D41*
X191770000Y-143203000D03*
X181610000Y-143203000D03*
G36*
G01*
X191637608Y-146374679D02*
X190826702Y-147834587D01*
G75*
G02*
X189057914Y-148340109I-1137155J631633D01*
G01*
X189057914Y-148340109D01*
G75*
G02*
X188552392Y-146571321I631633J1137155D01*
G01*
X189363298Y-145111413D01*
G75*
G02*
X191132086Y-144605891I1137155J-631633D01*
G01*
X191132086Y-144605891D01*
G75*
G02*
X191637608Y-146374679I-631633J-1137155D01*
G01*
G37*
G36*
G01*
X185487512Y-147792146D02*
X185448064Y-148370802D01*
G75*
G02*
X184061802Y-149580116I-1297788J88474D01*
G01*
X184061802Y-149580116D01*
G75*
G02*
X182852488Y-148193854I88474J1297788D01*
G01*
X182891936Y-147615198D01*
G75*
G02*
X184278198Y-146405884I1297788J-88474D01*
G01*
X184278198Y-146405884D01*
G75*
G02*
X185487512Y-147792146I-88474J-1297788D01*
G01*
G37*
G04 #@! TD*
D40*
G04 #@! TO.C,S23*
X72390000Y-117485000D03*
D41*
X72390000Y-112405000D03*
X72390000Y-122565000D03*
G36*
G01*
X75561679Y-112537392D02*
X77021587Y-113348298D01*
G75*
G02*
X77527109Y-115117086I-631633J-1137155D01*
G01*
X77527109Y-115117086D01*
G75*
G02*
X75758321Y-115622608I-1137155J631633D01*
G01*
X74298413Y-114811702D01*
G75*
G02*
X73792891Y-113042914I631633J1137155D01*
G01*
X73792891Y-113042914D01*
G75*
G02*
X75561679Y-112537392I1137155J-631633D01*
G01*
G37*
G36*
G01*
X76979146Y-118687488D02*
X77557802Y-118726936D01*
G75*
G02*
X78767116Y-120113198I-88474J-1297788D01*
G01*
X78767116Y-120113198D01*
G75*
G02*
X77380854Y-121322512I-1297788J88474D01*
G01*
X76802198Y-121283064D01*
G75*
G02*
X75592884Y-119896802I88474J1297788D01*
G01*
X75592884Y-119896802D01*
G75*
G02*
X76979146Y-118687488I1297788J-88474D01*
G01*
G37*
G04 #@! TD*
D40*
G04 #@! TO.C,S1*
X72390000Y-65100200D03*
D41*
X77470000Y-65100200D03*
X67310000Y-65100200D03*
G36*
G01*
X77337608Y-68271879D02*
X76526702Y-69731787D01*
G75*
G02*
X74757914Y-70237309I-1137155J631633D01*
G01*
X74757914Y-70237309D01*
G75*
G02*
X74252392Y-68468521I631633J1137155D01*
G01*
X75063298Y-67008613D01*
G75*
G02*
X76832086Y-66503091I1137155J-631633D01*
G01*
X76832086Y-66503091D01*
G75*
G02*
X77337608Y-68271879I-631633J-1137155D01*
G01*
G37*
G36*
G01*
X71187512Y-69689346D02*
X71148064Y-70268002D01*
G75*
G02*
X69761802Y-71477316I-1297788J88474D01*
G01*
X69761802Y-71477316D01*
G75*
G02*
X68552488Y-70091054I88474J1297788D01*
G01*
X68591936Y-69512398D01*
G75*
G02*
X69978198Y-68303084I1297788J-88474D01*
G01*
X69978198Y-68303084D01*
G75*
G02*
X71187512Y-69689346I-88474J-1297788D01*
G01*
G37*
G04 #@! TD*
D40*
G04 #@! TO.C,S8*
X72390000Y-88910200D03*
D41*
X72390000Y-83830200D03*
X72390000Y-93990200D03*
G36*
G01*
X75561679Y-83962592D02*
X77021587Y-84773498D01*
G75*
G02*
X77527109Y-86542286I-631633J-1137155D01*
G01*
X77527109Y-86542286D01*
G75*
G02*
X75758321Y-87047808I-1137155J631633D01*
G01*
X74298413Y-86236902D01*
G75*
G02*
X73792891Y-84468114I631633J1137155D01*
G01*
X73792891Y-84468114D01*
G75*
G02*
X75561679Y-83962592I1137155J-631633D01*
G01*
G37*
G36*
G01*
X76979146Y-90112688D02*
X77557802Y-90152136D01*
G75*
G02*
X78767116Y-91538398I-88474J-1297788D01*
G01*
X78767116Y-91538398D01*
G75*
G02*
X77380854Y-92747712I-1297788J88474D01*
G01*
X76802198Y-92708264D01*
G75*
G02*
X75592884Y-91322002I88474J1297788D01*
G01*
X75592884Y-91322002D01*
G75*
G02*
X76979146Y-90112688I1297788J-88474D01*
G01*
G37*
G04 #@! TD*
D40*
G04 #@! TO.C,S29*
X191452000Y-124153000D03*
D41*
X196532000Y-124153000D03*
X186372000Y-124153000D03*
G36*
G01*
X196399608Y-127324679D02*
X195588702Y-128784587D01*
G75*
G02*
X193819914Y-129290109I-1137155J631633D01*
G01*
X193819914Y-129290109D01*
G75*
G02*
X193314392Y-127521321I631633J1137155D01*
G01*
X194125298Y-126061413D01*
G75*
G02*
X195894086Y-125555891I1137155J-631633D01*
G01*
X195894086Y-125555891D01*
G75*
G02*
X196399608Y-127324679I-631633J-1137155D01*
G01*
G37*
G36*
G01*
X190249512Y-128742146D02*
X190210064Y-129320802D01*
G75*
G02*
X188823802Y-130530116I-1297788J88474D01*
G01*
X188823802Y-130530116D01*
G75*
G02*
X187614488Y-129143854I88474J1297788D01*
G01*
X187653936Y-128565198D01*
G75*
G02*
X189040198Y-127355884I1297788J-88474D01*
G01*
X189040198Y-127355884D01*
G75*
G02*
X190249512Y-128742146I-88474J-1297788D01*
G01*
G37*
G04 #@! TD*
D40*
G04 #@! TO.C,S7*
X191452000Y-67005200D03*
D41*
X196532000Y-67005200D03*
X186372000Y-67005200D03*
G36*
G01*
X196399608Y-70176879D02*
X195588702Y-71636787D01*
G75*
G02*
X193819914Y-72142309I-1137155J631633D01*
G01*
X193819914Y-72142309D01*
G75*
G02*
X193314392Y-70373521I631633J1137155D01*
G01*
X194125298Y-68913613D01*
G75*
G02*
X195894086Y-68408091I1137155J-631633D01*
G01*
X195894086Y-68408091D01*
G75*
G02*
X196399608Y-70176879I-631633J-1137155D01*
G01*
G37*
G36*
G01*
X190249512Y-71594346D02*
X190210064Y-72173002D01*
G75*
G02*
X188823802Y-73382316I-1297788J88474D01*
G01*
X188823802Y-73382316D01*
G75*
G02*
X187614488Y-71996054I88474J1297788D01*
G01*
X187653936Y-71417398D01*
G75*
G02*
X189040198Y-70208084I1297788J-88474D01*
G01*
X189040198Y-70208084D01*
G75*
G02*
X190249512Y-71594346I-88474J-1297788D01*
G01*
G37*
G04 #@! TD*
D40*
G04 #@! TO.C,S14*
X191452000Y-86052700D03*
D41*
X196532000Y-86052700D03*
X186372000Y-86052700D03*
G36*
G01*
X196399608Y-89224379D02*
X195588702Y-90684287D01*
G75*
G02*
X193819914Y-91189809I-1137155J631633D01*
G01*
X193819914Y-91189809D01*
G75*
G02*
X193314392Y-89421021I631633J1137155D01*
G01*
X194125298Y-87961113D01*
G75*
G02*
X195894086Y-87455591I1137155J-631633D01*
G01*
X195894086Y-87455591D01*
G75*
G02*
X196399608Y-89224379I-631633J-1137155D01*
G01*
G37*
G36*
G01*
X190249512Y-90641846D02*
X190210064Y-91220502D01*
G75*
G02*
X188823802Y-92429816I-1297788J88474D01*
G01*
X188823802Y-92429816D01*
G75*
G02*
X187614488Y-91043554I88474J1297788D01*
G01*
X187653936Y-90464898D01*
G75*
G02*
X189040198Y-89255584I1297788J-88474D01*
G01*
X189040198Y-89255584D01*
G75*
G02*
X190249512Y-90641846I-88474J-1297788D01*
G01*
G37*
G04 #@! TD*
D40*
G04 #@! TO.C,S20*
X191452000Y-105103000D03*
D41*
X196532000Y-105103000D03*
X186372000Y-105103000D03*
G36*
G01*
X196399608Y-108274679D02*
X195588702Y-109734587D01*
G75*
G02*
X193819914Y-110240109I-1137155J631633D01*
G01*
X193819914Y-110240109D01*
G75*
G02*
X193314392Y-108471321I631633J1137155D01*
G01*
X194125298Y-107011413D01*
G75*
G02*
X195894086Y-106505891I1137155J-631633D01*
G01*
X195894086Y-106505891D01*
G75*
G02*
X196399608Y-108274679I-631633J-1137155D01*
G01*
G37*
G36*
G01*
X190249512Y-109692146D02*
X190210064Y-110270802D01*
G75*
G02*
X188823802Y-111480116I-1297788J88474D01*
G01*
X188823802Y-111480116D01*
G75*
G02*
X187614488Y-110093854I88474J1297788D01*
G01*
X187653936Y-109515198D01*
G75*
G02*
X189040198Y-108305884I1297788J-88474D01*
G01*
X189040198Y-108305884D01*
G75*
G02*
X190249512Y-109692146I-88474J-1297788D01*
G01*
G37*
G04 #@! TD*
M02*
