M48
; DRILL file {KiCad 5.1.6-c6e7f7d~87~ubuntu20.04.1} date Fri Aug  7 18:55:38 2020
; FORMAT={3:3/ absolute / metric / suppress leading zeros}
; #@! TF.CreationDate,2020-08-07T18:55:38+02:00
; #@! TF.GenerationSoftware,Kicad,Pcbnew,5.1.6-c6e7f7d~87~ubuntu20.04.1
FMAT,2
METRIC,TZ
T1C0.203
T2C0.305
T3C0.400
T4C0.600
T5C0.700
T6C0.800
T7C0.900
T8C1.000
T9C1.500
T10C2.292
T11C0.700
T12C0.850
T13C0.991
T14C1.702
T15C2.000
T16C2.375
T17C3.988
%
G90
G05
T1
X55499Y-158242
X65476Y-137720
X67872Y-137807
X67967Y-149212
X69817Y-126107
X71500Y-134276
X71765Y-139732
X71841Y-141383
X72842Y-144085
X72870Y-130306
X72934Y-167398
X73476Y-145199
X74041Y-108839
X74853Y-164978
X75057Y-88011
X75057Y-89535
X75207Y-90416
X78613Y-116967
X79059Y-123657
X79264Y-123056
X79629Y-122301
X79986Y-118028
X80342Y-140105
X82188Y-133916
X82410Y-140331
X82905Y-140729
X84314Y-136564
X85635Y-86133
X86616Y-157706
X88005Y-143593
X88265Y-76073
X88265Y-122809
X88976Y-146990
X89086Y-76185
X89130Y-152059
X89179Y-143764
X89764Y-149860
X90322Y-149758
X90440Y-137222
X90449Y-135843
X90504Y-146897
X90511Y-135090
X90766Y-147523
X91618Y-143637
X91688Y-81155
X91719Y-151130
X92817Y-151941
X93181Y-139249
X93441Y-152068
X93633Y-138798
X93956Y-146601
X94060Y-155043
X94464Y-130231
X94572Y-152339
X94765Y-133214
X95214Y-132765
X95304Y-130930
X101683Y-155608
X103886Y-51943
X104394Y-51562
X105410Y-51562
X106045Y-51435
X108028Y-129498
X108077Y-51562
X109079Y-51944
X110109Y-154940
X110661Y-117875
X110998Y-155702
X119225Y-96457
X127752Y-129227
X143576Y-128683
X144890Y-76747
X157226Y-67691
X157480Y-68707
X167767Y-62611
X182753Y-58928
X189230Y-63500
X191516Y-58928
X194310Y-64135
T2
X62880Y-140525
X65024Y-134468
X65664Y-138996
X68403Y-150102
X68707Y-80899
X71204Y-136966
X73246Y-141699
X74854Y-154846
X74863Y-144474
X75300Y-144013
X75846Y-111158
X75895Y-129204
X77851Y-116713
X77957Y-53108
X81527Y-70662
X82040Y-137653
X82671Y-137750
X89738Y-142265
X91948Y-142723
X101685Y-136139
X101982Y-132989
X102076Y-134630
X102237Y-136230
X102870Y-50927
X102951Y-136020
X103355Y-53265
X107851Y-151433
X108300Y-148306
X108712Y-53213
T3
X103499Y-49386
X103899Y-48586
X104699Y-48586
X104949Y-49386
X105499Y-48586
X105899Y-49386
X106699Y-49386
X107099Y-48586
X107649Y-49386
X107899Y-48586
X108699Y-48586
X109099Y-49386
T5
X166800Y-56014
X168300Y-56014
X169800Y-56014
X171300Y-56014
X172800Y-56014
X174300Y-56014
X175800Y-56014
X177300Y-56014
X178800Y-56014
X180300Y-56014
X181800Y-56014
X183300Y-56014
X184800Y-56014
X186300Y-56014
X187800Y-56014
X189300Y-56014
X190800Y-56014
T6
X58899Y-162115
X59973Y-164417
X166370Y-61925
X168910Y-61925
X190182Y-100023
X192722Y-100023
X90170Y-117168
X92710Y-117168
X39451Y-156468
X41753Y-155394
X31402Y-139204
X33704Y-138130
X166370Y-80973
X168910Y-80973
X109220Y-58748
X111760Y-58748
X128270Y-95250
X130810Y-95250
X109220Y-134948
X111760Y-134948
X67310Y-116215
X67310Y-118755
X109220Y-96848
X111760Y-96848
X109220Y-115898
X111760Y-115898
X190182Y-80973
X192722Y-80973
X128270Y-133350
X130810Y-133350
X48666Y-131154
X50968Y-130080
X166370Y-100023
X168910Y-100023
X71120Y-60020
X73660Y-60020
X67310Y-87640
X67310Y-90180
X147320Y-115898
X149860Y-115898
X147320Y-58748
X149860Y-58748
X128270Y-57150
X130810Y-57150
X47503Y-173735
X49805Y-172661
X128270Y-114300
X130810Y-114300
X147320Y-77798
X149860Y-77798
X90170Y-79068
X92710Y-79068
X166370Y-138123
X168910Y-138123
X190182Y-61925
X192722Y-61925
X166370Y-119073
X168910Y-119073
X147320Y-96848
X149860Y-96848
X185420Y-138123
X187960Y-138123
X109220Y-77798
X111760Y-77798
X90170Y-98118
X92710Y-98118
X190182Y-119073
X192722Y-119073
X128270Y-76200
X130810Y-76200
X76161Y-154059
X77235Y-156361
X90170Y-60020
X92710Y-60020
X147320Y-134948
X149860Y-134948
T8
X68325Y-175974
X70627Y-174900
X72929Y-173827
X75231Y-172753
X77533Y-171680
X79835Y-170606
X82137Y-169533
X84439Y-168459
X86741Y-167386
X89043Y-166313
X91345Y-165239
X93647Y-164166
X95949Y-163092
X98251Y-162019
X100553Y-160945
X102855Y-159872
X105157Y-158798
T10
X74950Y-50148
X88550Y-50148
T11
X109899Y-49936
T12
X158700Y-56014
X198900Y-56014
T13
X107315Y-152146
X114935Y-151130
X114935Y-153162
T14
X86360Y-65100
X96520Y-65100
X124460Y-138430
X134620Y-138430
X86360Y-84148
X96520Y-84148
X46196Y-179947
X55404Y-175653
X143510Y-101928
X153670Y-101928
X47359Y-137366
X56567Y-133072
X79156Y-148461
X83450Y-157669
X186372Y-124153
X196532Y-124153
X105410Y-120978
X115570Y-120978
X162560Y-143203
X172720Y-143203
X124460Y-62230
X134620Y-62230
X181610Y-143203
X191770Y-143203
X186372Y-67005
X196532Y-67005
X38144Y-162680
X47352Y-158386
X105410Y-63828
X115570Y-63828
X30095Y-145416
X39303Y-141122
X162560Y-105103
X172720Y-105103
X105410Y-101928
X115570Y-101928
X86360Y-122248
X96520Y-122248
X162560Y-86053
X172720Y-86053
X86360Y-103198
X96520Y-103198
X143510Y-120978
X153670Y-120978
X143510Y-63828
X153670Y-63828
X124460Y-81280
X134620Y-81280
X143510Y-140028
X153670Y-140028
X124460Y-119380
X134620Y-119380
X67310Y-65100
X77470Y-65100
X105410Y-82878
X115570Y-82878
X143510Y-82878
X153670Y-82878
X72390Y-83830
X72390Y-93990
X124460Y-100330
X134620Y-100330
X186372Y-86053
X196532Y-86053
X162560Y-124153
X172720Y-124153
X72390Y-112405
X72390Y-122565
X105410Y-140028
X115570Y-140028
X186372Y-105103
X196532Y-105103
X61892Y-156513
X66185Y-165721
X162560Y-67005
X172720Y-67005
T15
X78350Y-50148
X85150Y-50148
T16
X107315Y-149606
X107315Y-154686
X113030Y-149606
X113030Y-154686
T17
X191452Y-86053
X167640Y-124153
X72390Y-117485
X110490Y-140028
X191452Y-105103
X64039Y-161117
X167640Y-67005
X91440Y-65100
X129540Y-138430
X91440Y-84148
X50800Y-177800
X148590Y-101928
X51963Y-135219
X81303Y-153065
X191452Y-124153
X110490Y-120978
X167640Y-143203
X129540Y-62230
X186690Y-143203
X191452Y-67005
X42748Y-160533
X110490Y-63828
X34699Y-143269
X167640Y-105103
X110490Y-101928
X91440Y-122248
X167640Y-86053
X91440Y-103198
X148590Y-120978
X148590Y-63828
X129540Y-81280
X148590Y-140028
X129540Y-119380
X72390Y-65100
X110490Y-82878
X148590Y-82878
X72390Y-88910
X129540Y-100330
T4
G00X100499Y-45336
M15
G01X100499Y-44336
M16
G05
G00X101499Y-49486
M15
G01X101499Y-48636
M16
G05
G00X111099Y-49436
M15
G01X111099Y-48586
M16
G05
G00X112099Y-45336
M15
G01X112099Y-44336
M16
G05
T7
G00X160950Y-54064
M15
G01X162050Y-54064
M16
G05
G00X163950Y-54064
M15
G01X165050Y-54064
M16
G05
G00X192550Y-54064
M15
G01X193650Y-54064
M16
G05
G00X195550Y-54064
M15
G01X196650Y-54064
M16
G05
T9
G00X88900Y-70180
M15
G01X88940Y-69601
M16
G05
G00X94440Y-69100
M15
G01X95250Y-67640
M16
G05
G00X127000Y-143509
M15
G01X127040Y-142931
M16
G05
G00X132540Y-142430
M15
G01X133350Y-140970
M16
G05
G00X88900Y-89227
M15
G01X88940Y-88648
M16
G05
G00X94440Y-88148
M15
G01X95250Y-86688
M16
G05
G00X50645Y-183477
M15
G01X50436Y-182936
M16
G05
G00X55209Y-180158
M15
G01X55327Y-178492
M16
G05
G00X146050Y-107007
M15
G01X146090Y-106429
M16
G05
G00X151590Y-105928
M15
G01X152400Y-104468
M16
G05
G00X51808Y-140896
M15
G01X51599Y-140355
M16
G05
G00X56372Y-137577
M15
G01X56490Y-135911
M16
G05
G00X83660Y-148656
M15
G01X81995Y-148538
M16
G05
G00X86980Y-153220
M15
G01X86439Y-153429
M16
G05
G00X188912Y-129232
M15
G01X188952Y-128654
M16
G05
G00X194452Y-128153
M15
G01X195262Y-126693
M16
G05
G00X107950Y-126057
M15
G01X107990Y-125479
M16
G05
G00X113490Y-124978
M15
G01X114300Y-123518
M16
G05
G00X165100Y-148282
M15
G01X165140Y-147704
M16
G05
G00X170640Y-147203
M15
G01X171450Y-145743
M16
G05
G00X127000Y-67309
M15
G01X127040Y-66731
M16
G05
G00X132540Y-66230
M15
G01X133350Y-64770
M16
G05
G00X184150Y-148282
M15
G01X184190Y-147704
M16
G05
G00X189690Y-147203
M15
G01X190500Y-145743
M16
G05
G00X188912Y-72085
M15
G01X188952Y-71506
M16
G05
G00X194452Y-71005
M15
G01X195262Y-69545
M16
G05
G00X42593Y-166210
M15
G01X42384Y-165669
M16
G05
G00X47157Y-162891
M15
G01X47275Y-161225
M16
G05
G00X107950Y-68907
M15
G01X107990Y-68328
M16
G05
G00X113490Y-67828
M15
G01X114300Y-66368
M16
G05
G00X34544Y-148946
M15
G01X34335Y-148405
M16
G05
G00X39108Y-145627
M15
G01X39226Y-143961
M16
G05
G00X165100Y-110182
M15
G01X165140Y-109604
M16
G05
G00X170640Y-109103
M15
G01X171450Y-107643
M16
G05
G00X107950Y-107007
M15
G01X107990Y-106429
M16
G05
G00X113490Y-105928
M15
G01X114300Y-104468
M16
G05
G00X88900Y-127327
M15
G01X88940Y-126749
M16
G05
G00X94440Y-126248
M15
G01X95250Y-124788
M16
G05
G00X165100Y-91132
M15
G01X165140Y-90553
M16
G05
G00X170640Y-90053
M15
G01X171450Y-88593
M16
G05
G00X88900Y-108277
M15
G01X88940Y-107699
M16
G05
G00X94440Y-107198
M15
G01X95250Y-105738
M16
G05
G00X146050Y-126057
M15
G01X146090Y-125479
M16
G05
G00X151590Y-124978
M15
G01X152400Y-123518
M16
G05
G00X146050Y-68907
M15
G01X146090Y-68328
M16
G05
G00X151590Y-67828
M15
G01X152400Y-66368
M16
G05
G00X127000Y-86359
M15
G01X127040Y-85781
M16
G05
G00X132540Y-85280
M15
G01X133350Y-83820
M16
G05
G00X146050Y-145107
M15
G01X146090Y-144529
M16
G05
G00X151590Y-144028
M15
G01X152400Y-142568
M16
G05
G00X127000Y-124459
M15
G01X127040Y-123881
M16
G05
G00X132540Y-123380
M15
G01X133350Y-121920
M16
G05
G00X69850Y-70180
M15
G01X69890Y-69601
M16
G05
G00X75390Y-69100
M15
G01X76200Y-67640
M16
G05
G00X107950Y-87957
M15
G01X107990Y-87378
M16
G05
G00X113490Y-86878
M15
G01X114300Y-85418
M16
G05
G00X146050Y-87957
M15
G01X146090Y-87378
M16
G05
G00X151590Y-86878
M15
G01X152400Y-85418
M16
G05
G00X76390Y-85911
M15
G01X74930Y-85100
M16
G05
G00X77469Y-91450
M15
G01X76891Y-91410
M16
G05
G00X127000Y-105409
M15
G01X127040Y-104831
M16
G05
G00X132540Y-104330
M15
G01X133350Y-102870
M16
G05
G00X188912Y-91132
M15
G01X188952Y-90553
M16
G05
G00X194452Y-90053
M15
G01X195262Y-88593
M16
G05
G00X165100Y-129232
M15
G01X165140Y-128654
M16
G05
G00X170640Y-128153
M15
G01X171450Y-126693
M16
G05
G00X76390Y-114485
M15
G01X74930Y-113675
M16
G05
G00X77469Y-120025
M15
G01X76891Y-119985
M16
G05
G00X107950Y-145107
M15
G01X107990Y-144529
M16
G05
G00X113490Y-144028
M15
G01X114300Y-142568
M16
G05
G00X188912Y-110182
M15
G01X188952Y-109604
M16
G05
G00X194452Y-109103
M15
G01X195262Y-107643
M16
G05
G00X66396Y-156708
M15
G01X64730Y-156590
M16
G05
G00X69715Y-161272
M15
G01X69174Y-161481
M16
G05
G00X165100Y-72085
M15
G01X165140Y-71506
M16
G05
G00X170640Y-71005
M15
G01X171450Y-69545
M16
G05
T11
G00X102824Y-49936
M15
G01X102574Y-49936
M16
G05
T0
M30
